<?xml version="1.0" encoding="UTF-8"?>
<svg id="_レイヤー_2" data-name="レイヤー 2" xmlns="http://www.w3.org/2000/svg" viewBox="0 0 11.24 6.71">
  <defs>
    <style>
      .cls-1 {
        fill: #fc0;
      }
    </style>
  </defs>
  <g id="_レイヤー_1-2" data-name="レイヤー 1">
    <path class="cls-1" d="M0,6.71V0h2.65c.51,0,.94.09,1.3.27.36.18.63.43.82.76.19.33.29.71.29,1.16s-.1.83-.29,1.15c-.19.32-.47.56-.84.73-.36.17-.8.26-1.32.26H.84v-1.14h1.54c.27,0,.5-.04.68-.11.18-.07.31-.19.4-.33.09-.15.13-.33.13-.55s-.04-.41-.13-.56c-.09-.15-.22-.27-.4-.35-.18-.08-.41-.12-.68-.12h-.96v5.55H0ZM3.63,3.66l1.67,3.05h-1.57l-1.63-3.05h1.53ZM6.06,6.71V0h2.69c.49,0,.91.07,1.24.22.33.15.58.35.74.61.17.26.25.55.25.89,0,.26-.05.49-.16.69-.1.2-.25.36-.43.49-.18.12-.39.21-.62.27v.07c.26.01.49.08.72.22.23.13.41.32.55.56.14.24.21.52.21.85,0,.36-.09.67-.27.95-.17.28-.43.5-.78.66-.34.16-.77.24-1.27.24h-2.87ZM7.48,5.55h1.16c.4,0,.68-.08.87-.23.18-.15.27-.36.27-.61,0-.19-.04-.35-.13-.49-.09-.14-.22-.25-.38-.33-.16-.08-.36-.12-.59-.12h-1.19v1.78ZM7.48,2.81h1.05c.19,0,.37-.03.52-.1.15-.07.27-.17.36-.29.09-.13.13-.28.13-.46,0-.24-.09-.44-.26-.59-.17-.15-.41-.22-.73-.22h-1.08v1.66Z"/>
  </g>
</svg>