<?xml version="1.0" encoding="UTF-8"?>
<svg id="_レイヤー_2" data-name="レイヤー 2" xmlns="http://www.w3.org/2000/svg" viewBox="0 0 12.53 21.47">
  <defs>
    <style>
      .cls-1 {
        fill: lime;
      }

      .cls-2 {
        fill: none;
        stroke: lime;
        stroke-width: .89px;
      }
    </style>
  </defs>
  <g id="_レイヤー_1-2" data-name="レイヤー 1">
    <rect class="cls-2" x=".45" y=".45" width="11.63" height="20.58" rx="3.13" ry="3.13"/>
    <path class="cls-1" d="M7.4,6.5h2.07v.77h-2.07v-.77ZM7.4,8.08h2.13v.78h-2.13v-.78ZM6.83,5.26h.85v5.27h-.85v-5.27ZM6.45,3.8l.85.19c-.1.38-.21.75-.34,1.12-.13.37-.28.71-.45,1.04-.17.32-.34.61-.53.85-.04-.06-.1-.13-.19-.21-.08-.08-.15-.16-.24-.24-.08-.09-.15-.15-.21-.21.17-.2.32-.44.46-.71.14-.27.27-.57.38-.88.11-.31.2-.63.27-.96ZM6.37,4.96h3.26v.79h-3.59l.32-.79ZM3.59,4.4h1.88v4.85h-1.88v-.77h1.06v-3.31h-1.06v-.77ZM3.61,6.42h1.41v.75h-1.41v-.75ZM3.16,4.4h.82v5.39h-.82v-5.39ZM6.69,13.85c.14.49.33.93.59,1.32.25.39.57.71.97.97.4.26.88.45,1.44.57-.07.06-.14.14-.22.24-.07.1-.14.2-.21.31-.07.11-.12.2-.17.29-.61-.17-1.12-.42-1.54-.73-.41-.32-.76-.71-1.03-1.17-.27-.47-.49-1.01-.67-1.62l.84-.17ZM3.3,13.49h5.96v.88H3.3v-.88ZM3.08,11.29h6.37v.88H3.08v-.88ZM5.74,11.53h.92v1.76c0,.3-.02.62-.06.95-.04.32-.13.65-.25.97-.12.31-.31.62-.54.91-.24.29-.55.56-.95.8-.39.25-.87.46-1.44.64-.03-.08-.08-.16-.14-.26-.06-.1-.13-.19-.2-.29-.07-.09-.13-.17-.19-.23.51-.15.94-.32,1.28-.53.35-.21.63-.44.84-.68.21-.24.37-.49.47-.75.1-.26.18-.52.21-.78.04-.27.06-.52.06-.76v-1.75Z"/>
  </g>
</svg>