<?xml version="1.0" encoding="UTF-8"?>
<svg id="_レイヤー_2" data-name="レイヤー 2" xmlns="http://www.w3.org/2000/svg" viewBox="0 0 13 21">
  <defs>
    <style>
      .cls-1 {
        fill: #fff;
      }
    </style>
  </defs>
  <g id="_レイヤー_1-2" data-name="レイヤー 1">
    <rect class="cls-1" width="13" height="21"/>
    <path d="M3.27,4.27h6.48v.9H3.27v-.9ZM7.01,4.64c.15.55.35,1.07.6,1.55.26.48.58.9.95,1.26.38.36.83.64,1.34.85-.07.06-.15.14-.23.24-.08.1-.16.2-.23.3-.07.11-.13.2-.18.29-.56-.26-1.04-.6-1.44-1.01-.4-.41-.73-.89-1.01-1.44-.27-.55-.5-1.16-.68-1.83l.88-.2ZM6,2.32h.95c0,.37-.02.76-.04,1.17-.01.41-.05.82-.11,1.25-.06.42-.15.84-.28,1.26-.13.41-.31.81-.54,1.2-.23.38-.52.73-.89,1.06-.36.33-.8.62-1.32.88-.07-.12-.16-.25-.28-.39-.12-.14-.25-.26-.37-.35.5-.22.91-.48,1.25-.77.34-.3.61-.61.82-.95.21-.35.38-.7.49-1.07.11-.37.19-.75.23-1.13.04-.38.07-.75.08-1.11,0-.36.02-.71.02-1.03ZM3.24,15.46h6.53v.77H3.24v-.77ZM6.06,15.02h.91c-.03.33-.09.64-.16.92-.07.28-.18.53-.32.76-.14.23-.34.44-.58.63-.24.18-.56.34-.95.47-.38.14-.85.25-1.41.33-.03-.11-.09-.24-.17-.39-.08-.15-.17-.26-.25-.35.51-.07.93-.15,1.26-.25.34-.1.61-.22.82-.36.21-.14.37-.3.48-.47.11-.17.19-.37.24-.58.05-.22.1-.46.13-.72ZM7.02,16.07c.23.4.59.7,1.08.9.49.2,1.11.32,1.85.37-.06.06-.12.13-.19.23-.07.09-.13.19-.19.28-.06.1-.1.19-.14.27-.54-.07-1.02-.18-1.43-.33-.4-.15-.75-.35-1.03-.61-.29-.26-.53-.57-.73-.95l.78-.16ZM3.24,12.02l.65-.35c.13.15.25.33.38.54.13.2.22.37.27.52l-.69.39c-.05-.15-.14-.33-.26-.54-.11-.21-.23-.4-.35-.57ZM4.7,11.31h.85v3.72h-.85v-3.72ZM3.1,13.89c.22-.1.49-.23.81-.39.32-.17.64-.34.97-.52l.23.68c-.27.17-.55.35-.84.52-.29.17-.55.33-.8.47l-.36-.76ZM6.52,13.23l.62-.38c.11.09.22.19.33.3.11.11.22.22.32.33.1.11.18.21.24.3l-.66.42c-.06-.09-.13-.19-.23-.31-.09-.12-.19-.23-.31-.34-.11-.12-.22-.22-.32-.32ZM6.94,11.91h2.24v.73h-2.24v-.73ZM7.11,11.29l.83.28c-.21.34-.48.67-.81.98-.32.32-.66.58-1.01.78-.04-.06-.09-.13-.15-.21-.06-.08-.12-.16-.19-.23-.06-.08-.12-.14-.17-.2.21-.11.41-.24.6-.39.2-.15.38-.32.53-.49.16-.17.28-.35.37-.51ZM9.06,11.91h.32s.52.22.52.22c-.19.6-.47,1.1-.84,1.49-.36.38-.8.69-1.31.91-.51.22-1.06.39-1.68.49-.02-.07-.06-.15-.12-.24-.05-.09-.11-.18-.17-.27-.06-.09-.11-.17-.17-.22.58-.08,1.11-.2,1.57-.37.47-.17.86-.4,1.17-.71.32-.31.55-.7.7-1.18v-.13Z"/>
  </g>
</svg>