<?xml version="1.0" encoding="UTF-8"?>
<svg id="_レイヤー_2" data-name="レイヤー 2" xmlns="http://www.w3.org/2000/svg" viewBox="0 0 12.53 21.47">
  <defs>
    <style>
      .cls-1 {
        fill: lime;
      }

      .cls-2 {
        fill: none;
        stroke: lime;
        stroke-width: .89px;
      }
    </style>
  </defs>
  <g id="_レイヤー_1-2" data-name="レイヤー 1">
    <rect class="cls-2" x=".45" y=".45" width="11.63" height="20.58" rx="3.13" ry="3.13"/>
    <path class="cls-1" d="M6.23,4.61c-.15.21-.32.44-.53.66-.21.23-.43.45-.68.68-.24.22-.5.44-.78.65-.27.21-.56.39-.85.57-.03-.07-.08-.14-.14-.23-.06-.09-.13-.17-.2-.25-.07-.08-.13-.15-.2-.21.31-.17.6-.36.89-.57.29-.22.56-.45.82-.7.26-.25.49-.49.69-.74.21-.25.37-.48.51-.71h.87c.19.28.41.55.64.81.24.26.49.5.75.73.27.23.54.44.82.62.29.19.57.35.85.48-.11.11-.21.23-.31.36-.1.13-.18.27-.26.4-.28-.16-.55-.35-.83-.55-.27-.21-.54-.42-.8-.64-.26-.23-.5-.46-.72-.69-.21-.23-.4-.46-.55-.67ZM4.72,6.01h3.05v.79h-3.05v-.79ZM3.74,7.48h4.14v.82H3.74v-.82ZM7.74,7.48h.13l.15-.04.69.19c-.12.3-.25.61-.4.95-.15.33-.3.67-.46,1.01-.15.33-.31.65-.46.96l-.92-.25c.12-.22.23-.46.35-.71.12-.25.24-.5.36-.75.11-.25.22-.48.32-.7.1-.22.18-.41.24-.57v-.1ZM6.69,13.85c.14.49.33.93.59,1.32.25.39.57.71.97.97.4.26.88.45,1.44.57-.07.06-.14.14-.22.24-.07.1-.14.2-.21.31-.07.1-.12.2-.17.29-.61-.17-1.12-.41-1.54-.73-.41-.32-.76-.71-1.03-1.17-.27-.47-.49-1.01-.67-1.62l.84-.17ZM3.3,13.49h5.96v.88H3.3v-.88ZM3.08,11.29h6.37v.88H3.08v-.88ZM5.74,11.53h.92v1.76c0,.3-.02.61-.06.94-.04.33-.13.65-.25.97-.12.32-.31.62-.54.91-.24.29-.55.56-.95.8-.39.25-.87.46-1.44.64-.03-.08-.08-.16-.14-.26-.06-.1-.13-.19-.2-.29-.07-.09-.13-.17-.19-.23.51-.15.94-.33,1.28-.53.35-.21.63-.44.84-.68.21-.24.37-.49.47-.75.1-.26.18-.52.21-.78.04-.27.06-.52.06-.76v-1.75Z"/>
  </g>
</svg>