<svg width="65" height="12" viewBox="0 0 65 12" fill="none" xmlns="http://www.w3.org/2000/svg">
<rect x="0.894783" y="1.0337" width="63.5813" height="10.3931" rx="1.5284" fill="#FF0000"/>
<rect x="0.894783" y="1.0337" width="63.5813" height="10.3931" rx="1.5284" stroke="#FF0000" stroke-width="0.611344"/>
<path d="M27.7505 9.02051V3.01808H30.1538C30.5954 3.01808 30.9637 3.08353 31.2588 3.21445C31.5538 3.34536 31.7756 3.52707 31.9241 3.75959C32.0726 3.99015 32.1468 4.25588 32.1468 4.55679C32.1468 4.79126 32.0999 4.99739 32.0061 5.1752C31.9123 5.35105 31.7834 5.49564 31.6193 5.60897C31.4571 5.72034 31.2715 5.79948 31.0624 5.84637V5.90499C31.291 5.91476 31.5049 5.97924 31.7042 6.09843C31.9055 6.21762 32.0687 6.38468 32.1937 6.59961C32.3188 6.81258 32.3813 7.06659 32.3813 7.36163C32.3813 7.68012 32.3021 7.96442 32.1439 8.21452C31.9876 8.46266 31.756 8.65903 31.4493 8.80362C31.1425 8.94821 30.7644 9.02051 30.315 9.02051H27.7505ZM29.0196 7.98298H30.0542C30.4078 7.98298 30.6657 7.91557 30.8279 7.78075C30.9901 7.64397 31.0712 7.46226 31.0712 7.23561C31.0712 7.06952 31.0311 6.92298 30.951 6.79597C30.8709 6.66897 30.7566 6.56932 30.6081 6.49703C30.4616 6.42473 30.2867 6.38858 30.0835 6.38858H29.0196V7.98298ZM29.0196 5.52984H29.9604C30.1343 5.52984 30.2886 5.49955 30.4235 5.43898C30.5602 5.37645 30.6677 5.28853 30.7459 5.1752C30.826 5.06187 30.866 4.92608 30.866 4.76781C30.866 4.55093 30.7888 4.37605 30.6345 4.24318C30.4821 4.11032 30.2652 4.04388 29.9838 4.04388H29.0196V5.52984ZM33.2071 9.02051V3.01808H35.6104C36.052 3.01808 36.4203 3.08353 36.7153 3.21445C37.0103 3.34536 37.2321 3.52707 37.3806 3.75959C37.5291 3.99015 37.6034 4.25588 37.6034 4.55679C37.6034 4.79126 37.5565 4.99739 37.4627 5.1752C37.3689 5.35105 37.2399 5.49564 37.0758 5.60897C36.9136 5.72034 36.728 5.79948 36.5189 5.84637V5.90499C36.7475 5.91476 36.9615 5.97924 37.1608 6.09843C37.3621 6.21762 37.5252 6.38468 37.6503 6.59961C37.7753 6.81258 37.8378 7.06659 37.8378 7.36163C37.8378 7.68012 37.7587 7.96442 37.6004 8.21452C37.4441 8.46266 37.2126 8.65903 36.9058 8.80362C36.599 8.94821 36.221 9.02051 35.7716 9.02051H33.2071ZM34.4761 7.98298H35.5107C35.8644 7.98298 36.1223 7.91557 36.2845 7.78075C36.4466 7.64397 36.5277 7.46226 36.5277 7.23561C36.5277 7.06952 36.4877 6.92298 36.4076 6.79597C36.3275 6.66897 36.2132 6.56932 36.0647 6.49703C35.9181 6.42473 35.7432 6.38858 35.54 6.38858H34.4761V7.98298ZM34.4761 5.52984H35.4169C35.5908 5.52984 35.7452 5.49955 35.88 5.43898C36.0168 5.37645 36.1242 5.28853 36.2024 5.1752C36.2825 5.06187 36.3226 4.92608 36.3226 4.76781C36.3226 4.55093 36.2454 4.37605 36.091 4.24318C35.9386 4.11032 35.7217 4.04388 35.4404 4.04388H34.4761V5.52984Z" fill="white"/>
</svg>
