<svg width="84" height="15" viewBox="0 0 84 15" fill="none" xmlns="http://www.w3.org/2000/svg">
<rect x="0.863525" y="0.5" width="82.6364" height="13.3377" rx="1.88961" stroke="white"/>
<path d="M28.2896 3.49476H33.3162V10.838H32.3627V4.36458H29.2096V10.9133H28.2896V3.49476ZM29.4271 5.38494H32.1787V6.11258H29.4271V5.38494ZM28.7664 9.55004H32.8227V10.4199H28.7664V9.55004ZM30.3805 4.53185H31.1584V7.22494H30.3805V4.53185ZM30.3638 7.5344V8.41258H31.2085V7.5344H30.3638ZM29.6362 6.84022H31.9696V9.0984H29.6362V6.84022ZM27.2609 3.08494L28.1725 3.36931C28.0164 3.84882 27.8241 4.33391 27.5955 4.82458C27.3724 5.30967 27.1271 5.76967 26.8595 6.20458C26.5918 6.63391 26.3102 7.01585 26.0147 7.3504C25.9924 7.26676 25.9534 7.15525 25.8976 7.01585C25.8419 6.87646 25.7805 6.73707 25.7136 6.59767C25.6467 6.45828 25.5882 6.34397 25.538 6.25476C25.7722 5.99828 25.9952 5.69997 26.2071 5.35985C26.4245 5.01973 26.6225 4.65731 26.8009 4.27258C26.9793 3.88228 27.1327 3.4864 27.2609 3.08494ZM26.5751 5.38494L27.5202 4.43985L27.5285 4.44822V10.93H26.5751V5.38494ZM37.2973 3.26058H38.4515C38.4403 3.49476 38.4208 3.79585 38.3929 4.16385C38.365 4.53185 38.3121 4.94167 38.234 5.39331C38.1615 5.83937 38.05 6.30773 37.8995 6.7984C37.7489 7.28907 37.5426 7.77973 37.2805 8.2704C37.0241 8.75549 36.6951 9.22107 36.2936 9.66713C35.8978 10.1076 35.4155 10.5007 34.8467 10.8464C34.7575 10.7182 34.6349 10.5816 34.4787 10.4366C34.3282 10.2916 34.1693 10.1606 34.002 10.0435C34.5596 9.73125 35.0279 9.3744 35.4071 8.97294C35.7862 8.57149 36.0957 8.15052 36.3355 7.71004C36.5752 7.26397 36.7592 6.81791 36.8875 6.37185C37.0157 5.92022 37.1077 5.49367 37.1635 5.09222C37.2192 4.69076 37.2527 4.33113 37.2638 4.01331C37.275 3.69549 37.2861 3.44458 37.2973 3.26058ZM38.4096 3.4864C38.4152 3.59234 38.4264 3.75961 38.4431 3.98822C38.4598 4.21682 38.4933 4.49003 38.5435 4.80785C38.5936 5.12567 38.6689 5.47137 38.7693 5.84494C38.8752 6.21294 39.0146 6.5921 39.1875 6.9824C39.3603 7.3727 39.575 7.75464 39.8315 8.12822C40.0879 8.50179 40.3974 8.84749 40.7598 9.16531C41.1278 9.48313 41.5572 9.75913 42.0478 9.99331C41.8861 10.1104 41.7356 10.247 41.5962 10.4031C41.4624 10.5592 41.3536 10.707 41.27 10.8464C40.757 10.5899 40.3082 10.286 39.9235 9.93476C39.5443 9.57791 39.2181 9.19319 38.9449 8.78058C38.6773 8.3624 38.4542 7.93864 38.2758 7.50931C38.0974 7.07997 37.9524 6.659 37.8409 6.2464C37.735 5.82822 37.6541 5.4407 37.5984 5.08385C37.5426 4.727 37.5036 4.41755 37.4813 4.15549C37.4645 3.89343 37.4506 3.70385 37.4395 3.58676L38.4096 3.4864ZM42.9762 4.05513H49.7926V4.91658H42.9762V4.05513ZM43.4111 5.35985H49.3493V6.17949H43.4111V5.35985ZM44.306 9.87622H49.9766V10.746H44.306V9.87622ZM42.6249 6.63113H50.0936V7.50931H42.6249V6.63113ZM45.1089 7.95258H49.3911V8.81404H45.1089V7.95258ZM45.8282 4.51512H46.8653V7.30022H45.8282V4.51512ZM46.5809 8.33731H47.6013V10.2609H46.5809V8.33731ZM44.0551 3.41949L44.9249 3.08494C45.042 3.21876 45.1535 3.37488 45.2595 3.55331C45.371 3.73173 45.4518 3.89064 45.502 4.03003L44.5904 4.41476C44.5513 4.27537 44.4789 4.11088 44.3729 3.92131C44.2726 3.73173 44.1666 3.56446 44.0551 3.41949ZM47.7016 3.04312L48.7973 3.31912C48.6635 3.51428 48.5324 3.70106 48.4042 3.87949C48.2815 4.05234 48.17 4.20288 48.0696 4.33113L47.2166 4.07185C47.2723 3.97149 47.3309 3.86276 47.3922 3.74567C47.4535 3.623 47.5093 3.50034 47.5595 3.37767C47.6152 3.255 47.6626 3.14349 47.7016 3.04312ZM44.2391 7.03258L45.3013 7.20822C45.1229 8.0167 44.858 8.73876 44.5067 9.3744C44.161 10.0045 43.7317 10.5174 43.2187 10.9133C43.163 10.852 43.0821 10.7739 42.9762 10.6791C42.8758 10.5899 42.7699 10.5035 42.6584 10.4199C42.5469 10.3362 42.4493 10.2693 42.3656 10.2191C42.8675 9.89016 43.2717 9.45246 43.5784 8.90604C43.8906 8.35404 44.1109 7.72955 44.2391 7.03258ZM55.0784 4.63222H58.6246V5.57731H55.0784V4.63222ZM55.3544 5.04203C55.4492 5.52155 55.5746 6.00943 55.7307 6.50567C55.8869 6.99634 56.0932 7.46749 56.3496 7.91913C56.6061 8.37076 56.9267 8.77779 57.3115 9.14022C57.7018 9.49707 58.1701 9.78422 58.7166 10.0017C58.6496 10.0686 58.5688 10.1578 58.474 10.2693C58.3848 10.3808 58.3012 10.4951 58.2231 10.6122C58.145 10.7349 58.0781 10.8436 58.0224 10.9384C57.4704 10.6763 56.9964 10.3446 56.6006 9.94313C56.2103 9.5361 55.8841 9.09004 55.622 8.60494C55.3655 8.11428 55.1564 7.60688 54.9947 7.08276C54.833 6.55864 54.7048 6.04846 54.61 5.55222L55.3544 5.04203ZM57.094 4.99185L58.1729 5.1424C58.0558 5.78361 57.9025 6.39694 57.7129 6.9824C57.5289 7.56785 57.2864 8.11149 56.9853 8.61331C56.6842 9.11513 56.305 9.56398 55.8478 9.95985C55.3962 10.3557 54.847 10.6847 54.2002 10.9468C54.1612 10.8687 54.1026 10.7795 54.0246 10.6791C53.9521 10.5788 53.8768 10.4784 53.7987 10.378C53.7207 10.2777 53.651 10.1912 53.5896 10.1188C54.1918 9.89573 54.6964 9.61137 55.1035 9.26567C55.5161 8.9144 55.8534 8.51852 56.1155 8.07804C56.3831 7.63197 56.5922 7.14967 56.7427 6.63113C56.8989 6.107 57.0159 5.56058 57.094 4.99185ZM55.2456 3.05149L56.2911 3.25222C56.1684 3.78749 56.0151 4.30603 55.8311 4.80785C55.6471 5.30967 55.4296 5.77246 55.1787 6.19622C54.9334 6.61997 54.6546 6.99076 54.3424 7.30858C54.3033 7.23052 54.2448 7.13294 54.1667 7.01585C54.0887 6.89319 54.005 6.77052 53.9158 6.64785C53.8322 6.52519 53.7541 6.42761 53.6816 6.35513C54.0719 5.98155 54.3953 5.50203 54.6518 4.91658C54.9139 4.33113 55.1118 3.70943 55.2456 3.05149ZM50.9216 4.79113H54.0413V5.73622H50.9216V4.79113ZM52.0675 3.05985H53.0293V10.9133H52.0675V3.05985ZM52.0256 5.43513L52.6111 5.63585C52.5498 5.98155 52.4689 6.33561 52.3686 6.69803C52.2738 7.06046 52.1622 7.41731 52.034 7.76858C51.9113 8.11985 51.7775 8.44882 51.6326 8.75549C51.4876 9.05658 51.3342 9.31585 51.1726 9.53331C51.1279 9.39391 51.0555 9.23501 50.9551 9.05658C50.8603 8.87816 50.7739 8.72482 50.6958 8.59658C50.8464 8.41258 50.9886 8.19513 51.1224 7.94422C51.2562 7.69331 51.3789 7.42846 51.4904 7.14967C51.6075 6.86531 51.7106 6.57816 51.7998 6.28822C51.8946 5.9927 51.9699 5.70834 52.0256 5.43513ZM52.9373 6.2464C52.993 6.30216 53.0683 6.38858 53.1631 6.50567C53.2635 6.62276 53.3722 6.75658 53.4893 6.90713C53.6119 7.0521 53.7318 7.19985 53.8489 7.3504C53.9716 7.50094 54.0775 7.63755 54.1667 7.76022C54.2559 7.87731 54.3229 7.96373 54.3675 8.01949L53.7987 8.8224C53.7318 8.68301 53.6398 8.51852 53.5227 8.32894C53.4112 8.13379 53.2913 7.93585 53.1631 7.73513C53.0349 7.52882 52.9094 7.33646 52.7867 7.15804C52.6696 6.97404 52.5693 6.82349 52.4856 6.7064L52.9373 6.2464Z" fill="white"/>
</svg>
