<svg width="84" height="15" viewBox="0 0 84 15" fill="none" xmlns="http://www.w3.org/2000/svg">
<rect x="0.5" y="0.5" width="82.6364" height="13.3377" rx="1.88961" stroke="#32ADE6"/>
<path d="M25.5843 4.71664H32.9777V5.737H25.5843V4.71664ZM27.2988 8.50537H31.1879V9.52573H27.2988V8.50537ZM28.7373 3.09409H29.7995V10.9476H28.7373V3.09409ZM28.4363 5.08464L29.3563 5.37737C29.1165 5.97955 28.8266 6.55385 28.4864 7.10028C28.1463 7.6467 27.7644 8.14294 27.3406 8.58901C26.9224 9.02949 26.4708 9.40585 25.9857 9.7181C25.93 9.63446 25.8575 9.54246 25.7683 9.4421C25.679 9.33616 25.5898 9.23301 25.5006 9.13264C25.417 9.0267 25.3333 8.94307 25.2497 8.88173C25.5954 8.69216 25.9272 8.46076 26.245 8.18755C26.5628 7.91434 26.8583 7.61046 27.1315 7.27591C27.4103 6.94137 27.6584 6.5901 27.8759 6.2221C28.0989 5.84852 28.2857 5.46937 28.4363 5.08464ZM30.109 5.10973C30.3097 5.6004 30.5718 6.0827 30.8952 6.55664C31.2241 7.025 31.5977 7.45155 32.0159 7.83628C32.4341 8.22101 32.8746 8.53604 33.3373 8.78137C33.2537 8.84828 33.1617 8.9347 33.0613 9.04064C32.9666 9.14658 32.8746 9.2581 32.7853 9.37519C32.6961 9.4867 32.6209 9.58985 32.5595 9.68464C32.0744 9.38355 31.62 9.01555 31.1963 8.58064C30.7781 8.14016 30.4017 7.64949 30.0672 7.10864C29.7326 6.56779 29.4427 6.00185 29.1973 5.41082L30.109 5.10973ZM34.7424 3.59591H40.5803V10.8305H39.5014V4.60791H35.7712V10.8472H34.7424V3.59591ZM35.445 6.4061H39.9446V7.39301H35.445V6.4061ZM35.445 9.28319H39.953V10.2952H35.445V9.28319ZM44.2017 4.95082V5.29373H47.7646V4.95082H44.2017ZM44.2017 4.00573V4.34028H47.7646V4.00573H44.2017ZM43.2399 3.35337H48.7683V5.9461H43.2399V3.35337ZM42.253 6.24719H49.7301V7.04173H42.253V6.24719ZM46.0919 7.35119H48.8268V8.12064H46.0919V7.35119ZM43.541 7.37628H45.4395V8.07046H43.541V7.37628ZM43.541 8.4301H45.4395V9.12428H43.541V8.4301ZM47.1123 8.04537C47.3464 8.55834 47.7033 8.99882 48.1828 9.36682C48.6679 9.73482 49.245 9.99688 49.9141 10.153C49.8527 10.2143 49.7831 10.2896 49.705 10.3788C49.6269 10.4736 49.5544 10.5712 49.4875 10.6716C49.4206 10.7719 49.3649 10.8611 49.3203 10.9392C48.601 10.7217 47.9904 10.3872 47.4886 9.93555C46.9924 9.48391 46.5993 8.92913 46.3094 8.27119L47.1123 8.04537ZM48.5257 7.35119H48.7097L48.877 7.3261L49.4959 7.56028C49.3286 8.14016 49.0917 8.65034 48.785 9.09082C48.4783 9.52573 48.1159 9.89373 47.6977 10.1948C47.2851 10.5015 46.8279 10.7496 46.3261 10.9392C46.2703 10.8165 46.1895 10.6771 46.0835 10.521C45.9776 10.3705 45.8772 10.2478 45.7824 10.153C46.1058 10.0526 46.4125 9.91882 46.7024 9.75155C46.998 9.58428 47.2656 9.38634 47.5054 9.15773C47.7451 8.92913 47.9514 8.67543 48.1243 8.39664C48.3027 8.11785 48.4365 7.81955 48.5257 7.50173V7.35119ZM42.1777 9.64282C42.4621 9.6261 42.7799 9.60658 43.1312 9.58428C43.4824 9.5564 43.8532 9.52852 44.2435 9.50064C44.6338 9.46719 45.0269 9.43373 45.4228 9.40028V10.2199C44.8597 10.2701 44.2993 10.3203 43.7417 10.3705C43.1897 10.4262 42.6935 10.4736 42.253 10.5126L42.1777 9.64282ZM44.9294 6.50646H45.8828V10.9476H44.9294V6.50646ZM42.9137 6.52319H43.8254V9.94392H42.9137V6.52319ZM50.6501 5.34391H58.0937V6.381H50.6501V5.34391ZM54.949 5.7621C55.1163 6.39773 55.3477 6.99155 55.6432 7.54355C55.9387 8.09555 56.3039 8.57785 56.7388 8.99046C57.1793 9.40307 57.6923 9.72925 58.2777 9.96901C58.1941 10.0415 58.1049 10.1335 58.0101 10.245C57.9209 10.3565 57.8317 10.4708 57.7424 10.5879C57.6588 10.7106 57.5891 10.8193 57.5334 10.9141C56.8921 10.613 56.3401 10.2255 55.8774 9.75155C55.4201 9.27761 55.0354 8.72561 54.7232 8.09555C54.4109 7.45991 54.1489 6.76016 53.937 5.99628L54.949 5.7621ZM53.7948 3.09409H54.8904C54.8849 3.51785 54.8709 3.9667 54.8486 4.44064C54.8319 4.909 54.7901 5.38573 54.7232 5.87082C54.6563 6.35591 54.5475 6.83822 54.397 7.31773C54.252 7.79167 54.0457 8.24888 53.7781 8.68937C53.516 9.12428 53.1759 9.53131 52.7577 9.91046C52.3451 10.2896 51.8405 10.6242 51.2439 10.9141C51.1658 10.7803 51.0571 10.6325 50.9177 10.4708C50.7783 10.3091 50.6361 10.1753 50.4912 10.0694C51.0599 9.81288 51.5366 9.51737 51.9214 9.18282C52.3061 8.8427 52.6183 8.47749 52.8581 8.08719C53.1034 7.69131 53.2902 7.28149 53.4184 6.85773C53.5467 6.4284 53.6331 5.99628 53.6777 5.56137C53.7279 5.12646 53.7586 4.69991 53.7697 4.28173C53.7809 3.86355 53.7892 3.46767 53.7948 3.09409Z" fill="#32ADE6"/>
</svg>
