<svg width="65" height="12" viewBox="0 0 65 12" fill="none" xmlns="http://www.w3.org/2000/svg">
<rect x="0.493675" y="1.18655" width="63.2756" height="10.0874" rx="1.37556" fill="#FFCC00"/>
<rect x="0.493675" y="1.18655" width="63.2756" height="10.0874" rx="1.37556" stroke="#FFCC00" stroke-width="0.917038"/>
<path d="M27.2167 9.02051V3.01808H29.5849C30.0382 3.01808 30.425 3.09917 30.7455 3.26134C31.0679 3.42156 31.3131 3.64919 31.4811 3.94423C31.6511 4.23732 31.7361 4.58219 31.7361 4.97883C31.7361 5.37743 31.6501 5.72034 31.4782 6.00757C31.3063 6.29284 31.0571 6.51168 30.7308 6.66409C30.4065 6.81649 30.0137 6.89269 29.5526 6.89269H27.967V5.87275H29.3475C29.5897 5.87275 29.791 5.83953 29.9512 5.7731C30.1114 5.70667 30.2306 5.60702 30.3088 5.47415C30.3889 5.34128 30.429 5.17618 30.429 4.97883C30.429 4.77953 30.3889 4.6115 30.3088 4.47472C30.2306 4.33795 30.1105 4.23439 29.9483 4.16405C29.7881 4.09175 29.5858 4.05561 29.3416 4.05561H28.4858V9.02051H27.2167ZM30.4583 6.28893L31.9501 9.02051H30.5491L29.0895 6.28893H30.4583ZM32.633 9.02051V3.01808H35.0363C35.4779 3.01808 35.8462 3.08353 36.1412 3.21445C36.4363 3.34536 36.658 3.52707 36.8065 3.75959C36.955 3.99015 37.0293 4.25588 37.0293 4.55679C37.0293 4.79126 36.9824 4.99739 36.8886 5.1752C36.7948 5.35105 36.6659 5.49564 36.5017 5.60897C36.3395 5.72034 36.1539 5.79948 35.9449 5.84637V5.90499C36.1735 5.91476 36.3874 5.97924 36.5867 6.09843C36.788 6.21762 36.9511 6.38468 37.0762 6.59961C37.2012 6.81258 37.2637 7.06659 37.2637 7.36163C37.2637 7.68012 37.1846 7.96442 37.0263 8.21452C36.87 8.46266 36.6385 8.65903 36.3317 8.80362C36.025 8.94821 35.6469 9.02051 35.1975 9.02051H32.633ZM33.902 7.98298H34.9366C35.2903 7.98298 35.5482 7.91557 35.7104 7.78075C35.8726 7.64397 35.9536 7.46226 35.9536 7.23561C35.9536 7.06952 35.9136 6.92298 35.8335 6.79597C35.7534 6.66897 35.6391 6.56932 35.4906 6.49703C35.344 6.42473 35.1692 6.38858 34.9659 6.38858H33.902V7.98298ZM33.902 5.52984H34.8428C35.0167 5.52984 35.1711 5.49955 35.3059 5.43898C35.4427 5.37645 35.5502 5.28853 35.6283 5.1752C35.7084 5.06187 35.7485 4.92608 35.7485 4.76781C35.7485 4.55093 35.6713 4.37605 35.5169 4.24318C35.3645 4.11032 35.1477 4.04388 34.8663 4.04388H33.902V5.52984Z" fill="black"/>
</svg>
