<svg width="31" height="22" viewBox="0 0 31 22" fill="none" xmlns="http://www.w3.org/2000/svg">
<rect width="31" height="22" rx="3" fill="#0376C9"/>
<path d="M7.5 19C6.95 19 6.47933 18.8043 6.088 18.413C5.69667 18.0217 5.50067 17.5507 5.5 17V5C5.5 4.45 5.696 3.97933 6.088 3.588C6.48 3.19667 6.95067 3.00067 7.5 3H23.5C24.05 3 24.521 3.196 24.913 3.588C25.305 3.98 25.5007 4.45067 25.5 5V17C25.5 17.55 25.3043 18.021 24.913 18.413C24.5217 18.805 24.0507 19.0007 23.5 19H7.5ZM15.5 12L7.5 7V17H23.5V7L15.5 12ZM15.5 10L23.5 5H7.5L15.5 10ZM7.5 7V5V17V7Z" fill="white"/>
</svg>
