<svg width="21" height="18" viewBox="0 0 21 18" fill="none" xmlns="http://www.w3.org/2000/svg">
<path d="M8.05273 0C6.99187 0 5.97445 0.421427 5.22431 1.17157C4.47416 1.92172 4.05273 2.93913 4.05273 4C4.05273 5.06087 4.47416 6.07828 5.22431 6.82843C5.97445 7.57857 6.99187 8 8.05273 8C9.1136 8 10.131 7.57857 10.8812 6.82843C11.6313 6.07828 12.0527 5.06087 12.0527 4C12.0527 2.93913 11.6313 1.92172 10.8812 1.17157C10.131 0.421427 9.1136 0 8.05273 0ZM15.0527 8C14.9916 7.99886 14.9321 8.01929 14.8845 8.05769C14.837 8.09609 14.8045 8.15002 14.7927 8.21L14.6027 9.53C14.3027 9.66 14.0127 9.82 13.7527 10L12.5127 9.5C12.4027 9.5 12.2727 9.5 12.2027 9.63L11.2027 11.36C11.1427 11.47 11.1627 11.6 11.2627 11.68L12.3227 12.5C12.2829 12.8321 12.2829 13.1679 12.3227 13.5L11.2627 14.32C11.2178 14.3585 11.1874 14.4113 11.1764 14.4694C11.1655 14.5276 11.1748 14.5878 11.2027 14.64L12.2027 16.37C12.2627 16.5 12.3927 16.5 12.5127 16.5L13.7527 16C14.0127 16.18 14.2927 16.35 14.6027 16.47L14.7927 17.79C14.8127 17.91 14.9127 18 15.0527 18H17.0527C17.1627 18 17.2727 17.91 17.2927 17.79L17.4827 16.47C17.7827 16.34 18.0527 16.18 18.3227 16L19.5527 16.5C19.6827 16.5 19.8127 16.5 19.8827 16.37L20.8827 14.64C20.9107 14.5878 20.9199 14.5276 20.909 14.4694C20.8981 14.4113 20.8677 14.3585 20.8227 14.32L19.7527 13.5C19.7727 13.33 19.7927 13.17 19.7927 13C19.7927 12.83 19.7827 12.67 19.7527 12.5L20.8127 11.68C20.8577 11.6415 20.8881 11.5887 20.899 11.5306C20.9099 11.4724 20.9007 11.4122 20.8727 11.36L19.8727 9.63C19.8127 9.5 19.6827 9.5 19.5527 9.5L18.3227 10C18.0527 9.82 17.7827 9.65 17.4727 9.53L17.2827 8.21C17.2764 8.15304 17.2496 8.10032 17.2073 8.06167C17.165 8.02303 17.11 8.00111 17.0527 8H15.0527ZM8.05273 10C3.63273 10 0.0527344 11.79 0.0527344 14V16H9.73273C9.28643 15.0628 9.05416 14.038 9.05273 13C9.05476 11.9953 9.27304 11.0028 9.69273 10.09C9.16273 10.03 8.61273 10 8.05273 10ZM16.0527 11.5C16.8827 11.5 17.5527 12.17 17.5527 13C17.5527 13.83 16.8827 14.5 16.0527 14.5C15.2127 14.5 14.5527 13.83 14.5527 13C14.5527 12.17 15.2227 11.5 16.0527 11.5Z" fill="white"/>
</svg>
