<?xml version="1.0" encoding="UTF-8"?>
<svg id="_レイヤー_2" data-name="レイヤー 2" xmlns="http://www.w3.org/2000/svg" viewBox="0 0 13.66 13.67">
  <g id="_レイヤー_1-2" data-name="レイヤー 1">
    <path d="M8.36,5.85c-.21.85-1.53.42-1.94.3l.38-1.49c.42.12,1.78.3,1.57,1.19ZM6.24,6.91l-.41,1.65c.51.13,2.07.63,2.3-.3.25-.97-1.39-1.22-1.89-1.35ZM13.46,8.49c-.92,3.66-4.62,5.89-8.28,4.97C1.52,12.54-.71,8.84.21,5.18c.22-.87.6-1.69,1.14-2.41s1.2-1.33,1.97-1.79c.77-.46,1.62-.77,2.51-.9.89-.13,1.79-.09,2.66.13,3.65.92,5.88,4.62,4.97,8.28ZM8.34,4.13l.31-1.23-.75-.17-.3,1.18c-.2-.05-.4-.1-.6-.14l.3-1.21-.74-.18-.31,1.22c-.16-.04-.33-.08-.48-.12l-1.03-.26-.21.8s.56.13.55.14c.31.08.36.27.35.44l-.84,3.37c-.03.1-.14.22-.34.18,0,0-.55-.14-.55-.14l-.37.85.97.25c.18.05.36.1.54.14l-.32,1.24.75.19.31-1.24c.21.05.4.1.59.16l-.31,1.22.75.19.32-1.24c1.26.24,2.23.14,2.63-1.01.34-.92,0-1.47-.68-1.82.49-.13.86-.44.96-1.11.14-.91-.56-1.39-1.5-1.72Z"/>
  </g>
</svg>