<?xml version="1.0" encoding="UTF-8"?>
<svg id="_レイヤー_2" data-name="レイヤー 2" xmlns="http://www.w3.org/2000/svg" xmlns:xlink="http://www.w3.org/1999/xlink" viewBox="0 0 30.85 31.26">
  <defs>
    <style>
      .cls-1 {
        fill: #f4f4f4;
      }

      .cls-2 {
        fill: url(#_名称未設定グラデーション_21);
        fill-rule: evenodd;
      }
    </style>
    <linearGradient id="_名称未設定グラデーション_21" data-name="名称未設定グラデーション 21" x1="14.83" y1="-612.82" x2="14.83" y2="-631.87" gradientTransform="translate(0 -612.82) scale(1 -1)" gradientUnits="userSpaceOnUse">
      <stop offset="0" stop-color="#808181"/>
      <stop offset="1" stop-color="#5b5a5b"/>
    </linearGradient>
  </defs>
  <g id="_レイヤー_1-2" data-name="レイヤー 1">
    <path class="cls-1" d="M4.07,25.16v.43l-2.49,5.59h-.81l2.49-5.39H0v-.63h4.07ZM8.83,25.16v.43l-2.49,5.59h-.81l2.49-5.39h-3.26v-.63h4.07ZM13.59,25.16v.43l-2.49,5.59h-.81l2.49-5.39h-3.26v-.63h4.07ZM19.97,29.66c0-.14-.02-.26-.07-.37-.04-.11-.12-.21-.22-.3-.1-.09-.25-.17-.44-.25-.18-.08-.42-.16-.7-.24-.3-.09-.57-.19-.81-.29-.24-.11-.44-.24-.62-.38-.17-.14-.3-.3-.39-.48s-.14-.39-.14-.62.05-.45.15-.65c.1-.2.23-.37.41-.52.18-.15.4-.26.65-.35.25-.08.53-.12.84-.12.45,0,.83.09,1.15.26.32.17.56.4.72.67.17.28.25.57.25.89h-.79c0-.23-.05-.43-.15-.6-.1-.18-.24-.31-.44-.41-.2-.1-.44-.15-.74-.15-.28,0-.52.04-.7.13-.18.09-.32.2-.41.35-.09.15-.13.31-.13.5,0,.13.03.24.08.35.06.1.14.2.25.29.12.09.26.17.44.24.18.08.39.15.64.22.34.1.64.2.88.32.25.12.45.25.61.4.16.15.28.31.36.5.08.18.12.39.12.63s-.05.47-.15.67c-.1.2-.24.37-.43.51-.18.14-.41.25-.67.33-.26.07-.54.11-.86.11-.28,0-.55-.04-.82-.12-.27-.08-.51-.19-.73-.35-.22-.15-.39-.34-.53-.57-.13-.23-.19-.49-.19-.79h.79c0,.21.04.39.12.53.08.15.19.27.33.36.14.1.3.17.48.21.18.04.37.07.56.07.28,0,.51-.04.71-.11.19-.08.34-.19.44-.33.1-.14.15-.31.15-.51ZM25.62,30.53v.65h-3.19v-.65h3.19ZM22.59,25.16v6.02h-.8v-6.02h.8ZM25.19,27.75v.65h-2.77v-.65h2.77ZM25.57,25.16v.65h-3.15v-.65h3.15ZM28.91,25.16v6.02h-.79v-6.02h.79ZM30.85,25.16v.65h-4.65v-.65h4.65Z"/>
    <path class="cls-2" d="M20.92.52c-.03-.12-.09-.22-.17-.31-.08-.09-.19-.15-.31-.18-.12-.03-.24-.03-.36,0-.12.03-.22.09-.31.18l-2.73,2.72c-.08.08-.14.19-.17.3-.03.11-.03.23,0,.35l.49,1.97-.02.02-3.26,3.26c-.18.19-.28.45-.27.71,0,.27.11.52.3.71.19.19.44.29.71.3.26,0,.52-.09.72-.27l3.26-3.26.02-.02,1.97.49c.11.03.23.03.35,0,.11-.03.22-.09.3-.17l2.73-2.72c.09-.08.15-.19.18-.31.03-.12.03-.24,0-.36-.03-.12-.1-.22-.18-.31-.09-.08-.19-.14-.31-.17l-2.33-.58-.58-2.33ZM15.24,1.03c.02.27-.07.54-.25.74-.18.2-.43.33-.7.35-1.42.1-2.79.6-3.94,1.46-1.15.85-2.02,2.01-2.53,3.35-.5,1.33-.61,2.79-.32,4.18.3,1.4.99,2.68,1.99,3.69,1,1.01,2.28,1.72,3.67,2.03,1.39.31,2.85.22,4.19-.27s2.51-1.35,3.38-2.49,1.38-2.5,1.5-3.92c.02-.27.15-.52.36-.7.21-.18.47-.26.74-.24.27.02.52.15.7.36s.26.47.24.74c-.14,1.81-.81,3.54-1.91,4.99-1.1,1.45-2.59,2.55-4.3,3.17-1.71.62-3.56.74-5.34.35-1.77-.4-3.4-1.29-4.68-2.59s-2.16-2.92-2.54-4.7c-.38-1.78-.24-3.63.4-5.33s1.76-3.18,3.22-4.27C10.59.85,12.33.21,14.15.08c.27-.02.54.07.74.25.21.18.33.43.35.7ZM14.32,5.53c.05.12.07.26.07.39,0,.13-.03.27-.09.39s-.13.23-.23.33c-.1.09-.21.17-.34.21-.45.18-.84.46-1.15.83-.31.37-.52.8-.62,1.27-.1.47-.08.96.06,1.42s.39.88.73,1.22c.34.34.76.59,1.22.72.46.14.95.16,1.42.06s.91-.31,1.27-.62c.37-.31.65-.71.82-1.15.05-.12.12-.24.21-.34.09-.1.2-.17.33-.23s.26-.08.39-.09c.13,0,.27.02.39.07.12.05.24.12.34.21.1.09.18.2.23.33.05.12.08.26.09.39,0,.13-.02.27-.07.39-.3.76-.78,1.44-1.41,1.97-.62.53-1.37.9-2.18,1.07-.8.17-1.63.14-2.42-.1-.79-.23-1.5-.66-2.08-1.24-.58-.58-1.01-1.29-1.24-2.08-.24-.78-.27-1.62-.1-2.42.17-.8.53-1.55,1.06-2.18.53-.63,1.21-1.11,1.97-1.41.25-.1.53-.09.78.02.25.11.44.31.54.56Z"/>
  </g>
</svg>