<svg width="25" height="24" viewBox="0 0 25 24" fill="none" xmlns="http://www.w3.org/2000/svg">
<path d="M12.5 10L11.1 8.6L12.675 7H8.5V5H12.675L11.075 3.4L12.5 2L16.5 6L12.5 10ZM7.5 22C6.95 22 6.47933 21.8043 6.088 21.413C5.69667 21.0217 5.50067 20.5507 5.5 20C5.49933 19.4493 5.69533 18.9787 6.088 18.588C6.48067 18.1973 6.95133 18.0013 7.5 18C8.04867 17.9987 8.51967 18.1947 8.913 18.588C9.30633 18.9813 9.502 19.452 9.5 20C9.498 20.548 9.30233 21.019 8.913 21.413C8.52367 21.807 8.05267 22.0027 7.5 22ZM17.5 22C16.95 22 16.4793 21.8043 16.088 21.413C15.6967 21.0217 15.5007 20.5507 15.5 20C15.4993 19.4493 15.6953 18.9787 16.088 18.588C16.4807 18.1973 16.9513 18.0013 17.5 18C18.0487 17.9987 18.5197 18.1947 18.913 18.588C19.3063 18.9813 19.502 19.452 19.5 20C19.498 20.548 19.3023 21.019 18.913 21.413C18.5237 21.807 18.0527 22.0027 17.5 22ZM1.5 4V2H4.775L9.025 11H16.025L19.925 4H22.2L17.8 11.95C17.6167 12.2833 17.371 12.5417 17.063 12.725C16.755 12.9083 16.4173 13 16.05 13H8.6L7.5 15H19.5V17H7.5C6.75 17 6.179 16.675 5.787 16.025C5.395 15.375 5.38267 14.7167 5.75 14.05L7.1 11.6L3.5 4H1.5Z" fill="white"/>
</svg>
