<svg width="20" height="16" viewBox="0 0 20 16" fill="none" xmlns="http://www.w3.org/2000/svg">
<rect x="0.5" y="1" width="19" height="14" rx="3.5" stroke="black"/>
<path d="M6.15 11.5V4.2H7.02V11.5H6.15ZM10.7938 4.77C10.4472 4.77 10.1238 4.8 9.82383 4.86V10.84C10.1238 10.9 10.4472 10.93 10.7938 10.93C12.8138 10.93 13.8238 9.87 13.8238 7.75C13.8238 6.76333 13.5672 6.02 13.0538 5.52C12.5405 5.02 11.7872 4.77 10.7938 4.77ZM14.5938 7.75C14.5938 9.01 14.2672 9.96667 13.6138 10.62C12.9605 11.2733 12.0205 11.6 10.7938 11.6C10.2005 11.6 9.61049 11.5467 9.02383 11.44V4.26C9.62383 4.15333 10.2138 4.1 10.7938 4.1C12.0138 4.1 12.9505 4.41667 13.6038 5.05C14.2638 5.67667 14.5938 6.57667 14.5938 7.75Z" fill="black"/>
</svg>
