<?xml version="1.0" encoding="UTF-8"?>
<svg id="_レイヤー_1" data-name="レイヤー_1" xmlns="http://www.w3.org/2000/svg" version="1.1" viewBox="0 0 601 22">
  <!-- Generator: Adobe Illustrator 29.3.1, SVG Export Plug-In . SVG Version: 2.1.0 Build 151)  -->
  <defs>
    <style>
      .st0, .st1 {
        fill: #fff;
      }

      .st1 {
        stroke: #1d262d;
      }

      .st2 {
        fill: red;
      }

      .st3 {
        fill: none;
        stroke: #000;
      }
    </style>
  </defs>
  <circle class="st1" cx="10" cy="11" r="10"/>
  <path d="M7.3,6h3.9v9.5h-2v-7.7h-1.9v-1.8Z"/>
  <line class="st3" x1="60" y1="10.5" x2="250" y2="10.5"/>
  <circle class="st2" cx="300" cy="11" r="9.5"/>
  <path class="st0" d="M301.6,11.9l-3,.4c-.7,0-1.1.2-1.1,1.1v.3h6.5v1.8h-8.5v-1.7c0-1,0-3,2.4-3.3l3.1-.3c.9,0,1.2-.4,1.2-1.2s-.3-1.3-2.1-1.3-2.4.2-2.4,1.6h-1.9c0-2.1.3-3.4,4.1-3.4s4.2.1,4.2,3,0,1.6-.6,2.2c-.4.4-1.2.7-1.9.8Z"/>
  <line class="st3" x1="350" y1="10.5" x2="540" y2="10.5"/>
  <circle class="st1" cx="590" cy="11" r="10.5"/>
  <path d="M585.5,12.2h2c0,1.4.1,1.6,2.6,1.6s2.1-.1,2.1-1.2-.8-1.2-1.4-1.2h-2v-1.6h2c.5,0,1.3,0,1.3-1s-.9-1.1-2.3-1.1-2,.4-2,1.4h-2c0-2.6,1-3.2,4.1-3.2s4.2,0,4.2,2.7,0,1.5-1.2,1.9c.4.1,1.3.5,1.3,2.2,0,2.6-2.1,2.8-4.1,2.8-3.9,0-4.5-.8-4.5-3.4Z"/>
</svg>