<?xml version="1.0" encoding="UTF-8"?>
<svg id="_レイヤー_2" data-name="レイヤー 2" xmlns="http://www.w3.org/2000/svg" viewBox="0 0 13.65 14.58">
  <defs>
    <style>
      .cls-1 {
        fill: #f4f4f4;
      }

      .cls-2 {
        opacity: .6;
      }
    </style>
  </defs>
  <g id="_レイヤー_1-2" data-name="レイヤー 1">
    <g class="cls-2">
      <path class="cls-1" d="M1.2,2.56h4.13v.51H1.2v-.51ZM1.2,4.11h4.13v.5H1.2v-.5ZM1.2,5.66h4.13v.51H1.2v-.51ZM.84.99h4.9v5.54h-.56V1.5H1.38v5.06h-.54V.99ZM2.92,0l.62.08c-.08.21-.16.43-.25.64-.08.21-.17.4-.25.55l-.48-.09c.05-.11.09-.24.14-.38.05-.14.09-.28.13-.42.04-.14.07-.27.09-.39ZM7.28,4.66h3.24v.41h-3.24v-.41ZM7.09,1.23h3.55v.42h-3.55v-.42ZM8.63.59h.49v5.22h-.49V.59ZM7.09,5.83c.29-.03.62-.06.99-.09.38-.03.78-.07,1.2-.11.43-.04.85-.09,1.27-.14v.42c-.4.05-.8.1-1.21.14-.41.05-.8.1-1.17.13-.37.04-.71.08-1.01.11l-.07-.47ZM7.74,3.33v.52h2.31v-.52h-2.31ZM7.74,2.47v.51h2.31v-.51h-2.31ZM7.3,2.1h3.21v2.12h-3.21v-2.12ZM10.25.08l.26.41c-.28.06-.6.11-.97.16-.36.05-.74.09-1.14.12-.39.03-.76.05-1.12.06,0-.06-.03-.12-.06-.2-.02-.08-.05-.14-.07-.2.27-.01.54-.03.82-.05.28-.02.56-.05.84-.08.28-.03.54-.06.78-.1.25-.04.46-.08.65-.12ZM10.58,1.68h2.57v.49h-2.57v-.49ZM12.94,1.68h.51v.26c-.02.75-.04,1.39-.06,1.91-.02.51-.04.93-.07,1.26-.03.33-.06.58-.11.76-.04.17-.09.3-.15.38-.06.1-.13.16-.21.2-.08.04-.17.06-.27.07-.1.01-.23.02-.38.01-.16,0-.32,0-.49,0,0-.08-.02-.16-.05-.26-.03-.1-.06-.18-.11-.25.18.02.34.02.48.02.15,0,.25,0,.32,0,.06,0,.1,0,.14-.02.04-.01.07-.04.11-.09.05-.06.09-.17.12-.33.03-.17.06-.42.08-.73.02-.32.05-.73.06-1.23.02-.5.04-1.11.06-1.83v-.12ZM11.44.11h.52c0,.56-.01,1.11-.03,1.64-.01.53-.04,1.02-.09,1.5-.05.47-.14.92-.26,1.33-.12.41-.29.79-.5,1.13-.21.34-.49.63-.83.89-.02-.04-.06-.09-.11-.14-.05-.05-.1-.09-.15-.14-.05-.04-.09-.08-.14-.11.32-.23.58-.5.79-.82.2-.32.36-.67.47-1.05.11-.39.19-.81.24-1.25.05-.45.08-.92.08-1.42.01-.5.01-1.02.01-1.56ZM.13,8.72h6.23v.5H.13v-.5ZM2.96,8.01h.55v.91h-.55v-.91ZM3.92,8.92h.52v1.87c0,.13-.02.24-.05.31-.03.07-.1.13-.2.17-.1.04-.22.06-.39.07-.17,0-.37,0-.6,0-.01-.07-.04-.15-.06-.23-.03-.09-.06-.17-.08-.24.17,0,.33,0,.48,0h.28s.08-.01.09-.03c.02-.02.03-.04.03-.08v-1.85ZM2.42,8.87h.51v.4c0,.18-.01.37-.04.58-.02.2-.08.41-.16.62-.08.21-.2.41-.37.61-.17.19-.39.38-.67.55-.03-.04-.07-.09-.11-.13-.04-.05-.09-.09-.14-.14-.05-.04-.09-.08-.13-.11.26-.15.46-.31.61-.48.15-.17.26-.35.33-.53.07-.18.12-.35.14-.53.02-.17.03-.33.03-.48v-.38ZM4.8,9.8l.42-.24c.16.13.32.28.48.45.16.16.31.33.45.5.14.16.26.31.34.43l-.45.28c-.08-.13-.18-.28-.32-.45-.14-.17-.29-.33-.45-.5-.16-.17-.32-.33-.48-.47ZM1.2,9.59l.51.14c-.15.27-.35.54-.59.8-.24.26-.49.47-.75.63-.05-.05-.11-.1-.18-.16-.07-.06-.13-.11-.19-.15.17-.1.33-.22.48-.35.16-.14.3-.28.42-.44.13-.16.23-.31.3-.46ZM2.05,12.11c.25.38.59.71,1.02.98.44.27.95.49,1.53.65.58.16,1.22.27,1.91.33-.03.04-.07.09-.11.15-.04.06-.08.12-.11.18-.03.06-.06.12-.08.17-.71-.08-1.36-.21-1.96-.4-.59-.19-1.11-.44-1.56-.75-.44-.31-.81-.69-1.1-1.14l.46-.16ZM2.46,11.23l.57.11c-.26.36-.6.7-1.02,1.03-.41.32-.91.61-1.49.86-.02-.04-.06-.09-.1-.14-.04-.05-.08-.1-.12-.15-.04-.05-.08-.08-.12-.11.55-.21,1.02-.47,1.4-.75.38-.29.67-.57.87-.85ZM2.25,11.77h2.65v.44H1.86l.39-.44ZM4.76,11.77h.12l.1-.02.35.23c-.23.4-.52.74-.87,1.04-.35.29-.75.54-1.2.74-.45.2-.92.37-1.43.5-.5.13-1.02.24-1.55.31-.01-.04-.04-.1-.07-.16-.03-.06-.06-.12-.09-.18-.03-.06-.07-.1-.11-.14.52-.06,1.02-.15,1.51-.26.49-.11.94-.26,1.36-.43.42-.18.79-.4,1.12-.65.33-.26.58-.55.77-.89v-.09ZM10.46,8.01l.51.08c-.14.36-.34.72-.58,1.09-.25.36-.57.7-.96,1-.04-.06-.1-.12-.17-.18-.07-.07-.14-.12-.19-.15.24-.17.45-.36.63-.57.18-.21.34-.42.46-.64.13-.22.23-.43.3-.63ZM10.48,8.56h1.53v.43h-1.78l.26-.43ZM10.73,9.97h.41c-.02.26-.05.48-.11.68-.05.2-.14.36-.26.51-.12.14-.29.26-.51.35-.02-.05-.06-.1-.11-.16-.05-.07-.09-.11-.14-.14.27-.11.45-.27.55-.46.1-.19.16-.45.17-.77ZM11.61,9.98h.41v.83c0,.05,0,.09.03.1.02.01.06.02.13.02h.48s.08,0,.1,0c.02,0,.03-.02.04-.04.04.03.1.06.17.09.07.02.14.04.19.06-.02.1-.06.17-.14.21-.07.04-.17.06-.3.06h-.59c-.14,0-.25-.01-.33-.03-.08-.03-.13-.08-.16-.15-.03-.07-.04-.17-.04-.3v-.83ZM9.16,12.3h4.39v.46h-4.39v-.46ZM11.63,12.45c.14.44.38.79.71,1.07.34.27.77.46,1.31.57-.06.05-.12.12-.18.21-.06.09-.1.17-.14.23-.39-.09-.73-.22-1.02-.4-.29-.18-.52-.4-.71-.67-.19-.27-.34-.58-.45-.94l.47-.07ZM10.02,9.69h2.93v.44h-2.93v1.9h-.45v-2.35h.45ZM12.8,9.69h.47v2.32h-.47v-2.32ZM11.84,8.56h.11l.08-.02.34.21c-.06.14-.13.29-.22.44-.08.15-.17.3-.26.44-.09.14-.18.26-.26.37-.04-.03-.1-.07-.17-.11-.07-.04-.14-.08-.19-.1.07-.1.14-.22.22-.36.08-.13.14-.27.21-.4.07-.14.12-.27.16-.38v-.09ZM11.12,11.66h.5c-.03.39-.09.74-.17,1.05-.08.31-.21.59-.38.82-.17.24-.41.44-.71.61-.3.17-.69.31-1.17.42-.02-.06-.06-.13-.11-.21-.05-.08-.1-.15-.16-.19.44-.09.8-.21,1.08-.36.28-.15.5-.32.65-.52.15-.2.26-.44.33-.71.07-.27.12-.58.15-.92ZM6.99,11.7c.27-.08.61-.18.99-.3.39-.12.79-.25,1.19-.38l.08.49c-.37.12-.74.25-1.12.37-.37.12-.71.23-1.02.33l-.13-.51ZM7.09,9.45h2.15v.5h-2.15v-.5ZM7.98,8.02h.5v5.91c0,.14-.02.25-.06.33-.03.08-.1.14-.18.18-.08.04-.2.07-.34.09-.14.01-.33.02-.55.01,0-.06-.02-.14-.06-.24-.03-.1-.06-.18-.09-.26.15,0,.29,0,.41,0,.13,0,.21,0,.26,0,.04,0,.07,0,.09-.03.02-.01.03-.05.03-.1v-5.91Z"/>
    </g>
  </g>
</svg>