<?xml version="1.0" encoding="UTF-8"?>
<svg id="_レイヤー_2" data-name="レイヤー 2" xmlns="http://www.w3.org/2000/svg" xmlns:xlink="http://www.w3.org/1999/xlink" viewBox="0 0 32.58 21.24">
  <defs>
    <style>
      .cls-1 {
        fill: #f4f4f4;
      }

      .cls-2 {
        fill: url(#_名称未設定グラデーション_6);
      }
    </style>
    <linearGradient id="_名称未設定グラデーション_6" data-name="名称未設定グラデーション 6" x1="16.29" y1="-422.51" x2="16.29" y2="-443.75" gradientTransform="translate(0 -422.51) scale(1 -1)" gradientUnits="userSpaceOnUse">
      <stop offset="0" stop-color="#414344"/>
      <stop offset="1" stop-color="#2b2d2e"/>
    </linearGradient>
  </defs>
  <g id="_レイヤー_1-2" data-name="レイヤー 1">
    <rect class="cls-2" width="32.58" height="21.24" rx="2.12" ry="2.12"/>
    <path class="cls-1" d="M5.67,5.62h9.94v.79H5.67v-.79ZM10.18,4.48h.87v1.45h-.87v-1.45ZM11.71,5.93h.83v2.98c0,.21-.03.38-.08.5-.05.11-.16.2-.32.27-.15.06-.36.1-.62.11-.26,0-.58.01-.96.01-.02-.11-.06-.24-.1-.37-.05-.14-.09-.27-.14-.39.28,0,.53.01.76.01h.44c.08,0,.12-.02.15-.04.03-.02.04-.06.04-.12v-2.96ZM9.33,5.84h.8v.64c0,.29-.02.59-.07.92-.04.33-.12.65-.25.98-.13.33-.33.66-.59.97-.26.31-.62.6-1.07.88-.05-.07-.11-.14-.18-.2-.07-.08-.14-.15-.23-.22-.08-.07-.14-.12-.2-.17.41-.23.73-.49.97-.76.24-.27.42-.55.53-.84.11-.29.19-.57.22-.84.04-.27.06-.53.06-.76v-.61ZM13.11,7.33l.67-.39c.25.21.5.45.76.71.26.26.5.53.73.79.23.26.41.49.54.69l-.71.45c-.12-.21-.29-.45-.51-.71-.22-.26-.46-.53-.71-.8-.26-.27-.51-.52-.76-.75ZM7.38,7l.82.22c-.24.43-.55.85-.94,1.27-.38.41-.77.74-1.19,1.01-.07-.08-.17-.16-.29-.26-.11-.1-.22-.18-.31-.24.26-.16.52-.35.77-.57s.47-.45.67-.7c.2-.25.36-.49.48-.73ZM8.73,11.01c.4.61.94,1.13,1.63,1.56.69.43,1.51.78,2.44,1.04.93.26,1.94.43,3.05.52-.05.07-.11.15-.18.24-.07.1-.13.19-.18.28-.05.1-.1.19-.14.27-1.13-.12-2.17-.33-3.12-.64-.94-.3-1.76-.7-2.48-1.2-.71-.5-1.3-1.11-1.76-1.82l.74-.26ZM9.39,9.6l.91.17c-.42.57-.96,1.12-1.62,1.64-.66.51-1.45.97-2.37,1.37-.04-.07-.09-.14-.16-.22-.06-.08-.12-.16-.19-.24-.07-.08-.13-.13-.19-.17.88-.34,1.62-.74,2.23-1.2.61-.46,1.08-.91,1.39-1.36ZM9.06,10.47h4.23v.7h-4.85l.62-.7ZM13.06,10.47h.19l.16-.03.56.37c-.36.64-.83,1.19-1.39,1.65-.56.46-1.2.85-1.91,1.18-.71.33-1.47.59-2.28.8-.8.21-1.62.38-2.47.5-.02-.07-.06-.15-.11-.25-.04-.1-.09-.19-.15-.28-.05-.09-.11-.17-.17-.23.83-.1,1.63-.24,2.4-.42.78-.18,1.5-.41,2.18-.69.67-.29,1.26-.63,1.78-1.04.52-.41.93-.88,1.22-1.42v-.15ZM22.13,4.47l.82.12c-.23.57-.54,1.15-.93,1.73-.39.58-.9,1.11-1.53,1.6-.06-.09-.15-.19-.27-.29-.11-.11-.21-.18-.31-.24.39-.27.72-.57,1.01-.91.29-.33.54-.67.74-1.02.2-.35.36-.68.48-1ZM22.18,5.35h2.44v.68h-2.84l.41-.68ZM22.58,7.6h.65c-.02.41-.08.77-.17,1.09-.08.31-.22.58-.41.8-.19.22-.46.41-.82.57-.04-.08-.1-.16-.18-.26-.08-.11-.15-.18-.22-.23.43-.18.72-.43.87-.74.16-.31.25-.72.27-1.23ZM23.98,7.62h.66v1.32c0,.08.01.14.04.16.03.02.1.03.22.03h.76c.08,0,.13,0,.16-.01.03-.02.05-.04.06-.07.07.05.16.1.27.14.11.04.21.07.31.09-.03.16-.1.27-.21.34-.11.07-.26.1-.48.1h-.94c-.23,0-.4-.02-.52-.06-.12-.05-.2-.12-.25-.24-.05-.11-.07-.28-.07-.49v-1.32ZM20.07,11.32h6.99v.73h-6.99v-.73ZM24,11.55c.23.69.61,1.26,1.13,1.71.54.44,1.23.74,2.08.91-.09.08-.19.19-.28.33-.09.14-.16.27-.21.37-.62-.14-1.16-.36-1.62-.65-.45-.29-.83-.64-1.13-1.07-.3-.43-.54-.93-.71-1.5l.75-.11ZM21.44,7.16h4.67v.7h-4.67v3.04h-.73v-3.74h.73ZM25.87,7.16h.75v3.71h-.75v-3.71ZM24.34,5.35h.17l.12-.03.54.34c-.1.23-.22.46-.35.7-.14.24-.28.48-.42.7-.14.22-.28.42-.42.59-.07-.05-.16-.11-.27-.18-.11-.07-.21-.12-.31-.16.11-.17.23-.35.35-.57.12-.21.23-.43.33-.65.11-.23.19-.43.25-.6v-.15ZM23.2,10.29h.79c-.05.62-.14,1.18-.27,1.68-.13.5-.33.94-.61,1.32-.27.38-.65.7-1.13.97-.48.27-1.1.49-1.86.67-.04-.1-.1-.21-.18-.34-.08-.13-.17-.23-.25-.31.7-.15,1.28-.34,1.72-.57.45-.23.79-.51,1.03-.83.24-.33.41-.7.52-1.13.11-.43.19-.92.24-1.46ZM16.6,10.36c.44-.13.97-.29,1.59-.48.63-.2,1.26-.4,1.9-.6l.12.78c-.59.2-1.18.39-1.78.59-.6.2-1.14.37-1.62.52l-.22-.82ZM16.76,6.77h3.43v.79h-3.43v-.79ZM18.18,4.49h.79v9.43c0,.23-.03.4-.09.53-.05.13-.15.23-.29.29-.14.07-.32.11-.54.14-.23.02-.52.03-.88.02,0-.1-.04-.23-.09-.38-.05-.15-.09-.29-.15-.41.24,0,.46.01.66.01.2,0,.34,0,.41,0,.07,0,.12-.02.15-.04.03-.02.05-.08.05-.16V4.49Z"/>
  </g>
</svg>