<svg width="50" height="50" viewBox="0 0 50 50" fill="none" xmlns="http://www.w3.org/2000/svg">
<rect x="4.5" y="1.5" width="41" height="41" rx="4.5" stroke="url(#paint0_linear_2014_5481)"/>
<g filter="url(#filter0_di_2014_5481)">
<rect x="5" y="2" width="40" height="40" rx="4" fill="url(#paint1_linear_2014_5481)"/>
</g>
<g filter="url(#filter1_d_2014_5481)">
<path d="M13.23 36.7422C13.23 36.626 13.2118 36.5234 13.1753 36.4346C13.1411 36.3434 13.0796 36.2614 12.9907 36.1885C12.9041 36.1156 12.7834 36.0461 12.6284 35.98C12.4757 35.9139 12.2821 35.8467 12.0474 35.7783C11.8013 35.7054 11.5791 35.6245 11.3809 35.5356C11.1826 35.4445 11.0129 35.3408 10.8716 35.2246C10.7303 35.1084 10.6221 34.9751 10.5469 34.8247C10.4717 34.6743 10.4341 34.5023 10.4341 34.3086C10.4341 34.1149 10.474 33.936 10.5537 33.772C10.6335 33.6079 10.7474 33.4655 10.8955 33.3447C11.0459 33.2217 11.2248 33.126 11.4321 33.0576C11.6395 32.9893 11.8708 32.9551 12.126 32.9551C12.4997 32.9551 12.8164 33.0269 13.0762 33.1704C13.3382 33.3117 13.5376 33.4974 13.6743 33.7275C13.811 33.9554 13.8794 34.1992 13.8794 34.459H13.2231C13.2231 34.2721 13.1833 34.1069 13.1035 33.9634C13.0238 33.8175 12.903 33.7036 12.7412 33.6216C12.5794 33.5373 12.3743 33.4951 12.126 33.4951C11.8913 33.4951 11.6976 33.5304 11.5449 33.6011C11.3923 33.6717 11.2783 33.7674 11.2031 33.8882C11.1302 34.009 11.0938 34.1468 11.0938 34.3018C11.0938 34.4066 11.1154 34.5023 11.1587 34.5889C11.2043 34.6732 11.2738 34.7518 11.3672 34.8247C11.4629 34.8976 11.5837 34.9648 11.7295 35.0264C11.8776 35.0879 12.0542 35.1471 12.2593 35.2041C12.5418 35.2839 12.7856 35.3727 12.9907 35.4707C13.1958 35.5687 13.3644 35.6792 13.4966 35.8022C13.631 35.923 13.7301 36.0609 13.7939 36.2158C13.86 36.3685 13.8931 36.5417 13.8931 36.7354C13.8931 36.9382 13.8521 37.1216 13.77 37.2856C13.688 37.4497 13.5706 37.5898 13.418 37.7061C13.2653 37.8223 13.0819 37.9123 12.8677 37.9761C12.6558 38.0376 12.4188 38.0684 12.1567 38.0684C11.9266 38.0684 11.6999 38.0365 11.4766 37.9727C11.2555 37.9089 11.0539 37.8132 10.8716 37.6855C10.6916 37.5579 10.5469 37.4007 10.4375 37.2139C10.3304 37.0247 10.2769 36.806 10.2769 36.5576H10.9331C10.9331 36.7285 10.9661 36.8755 11.0322 36.9985C11.0983 37.1193 11.1883 37.2196 11.3022 37.2993C11.4185 37.3791 11.5495 37.4383 11.6953 37.4771C11.8434 37.5135 11.9972 37.5317 12.1567 37.5317C12.3869 37.5317 12.5817 37.4998 12.7412 37.436C12.9007 37.3722 13.0215 37.2811 13.1035 37.1626C13.1878 37.0441 13.23 36.904 13.23 36.7422ZM17.5811 33.0234H18.2373V36.3901C18.2373 36.7638 18.1541 37.0749 17.9878 37.3232C17.8215 37.5716 17.6004 37.7585 17.3247 37.8838C17.0513 38.0068 16.7539 38.0684 16.4326 38.0684C16.0954 38.0684 15.79 38.0068 15.5166 37.8838C15.2454 37.7585 15.0301 37.5716 14.8706 37.3232C14.7134 37.0749 14.6348 36.7638 14.6348 36.3901V33.0234H15.2876V36.3901C15.2876 36.6499 15.3354 36.8641 15.4312 37.0327C15.5269 37.2013 15.6602 37.3267 15.8311 37.4087C16.0042 37.4907 16.2048 37.5317 16.4326 37.5317C16.6628 37.5317 16.8633 37.4907 17.0342 37.4087C17.2074 37.3267 17.3418 37.2013 17.4375 37.0327C17.5332 36.8641 17.5811 36.6499 17.5811 36.3901V33.0234ZM21.1084 36.0483H19.7788V35.5117H21.1084C21.3659 35.5117 21.5744 35.4707 21.7339 35.3887C21.8934 35.3066 22.0096 35.1927 22.0825 35.0469C22.1577 34.901 22.1953 34.7347 22.1953 34.5479C22.1953 34.377 22.1577 34.2163 22.0825 34.0659C22.0096 33.9155 21.8934 33.7948 21.7339 33.7036C21.5744 33.6102 21.3659 33.5635 21.1084 33.5635H19.9326V38H19.2729V33.0234H21.1084C21.4844 33.0234 21.8022 33.0884 22.062 33.2183C22.3218 33.3481 22.5189 33.5282 22.6533 33.7583C22.7878 33.9862 22.855 34.2471 22.855 34.541C22.855 34.86 22.7878 35.1323 22.6533 35.3579C22.5189 35.5835 22.3218 35.7555 22.062 35.874C21.8022 35.9902 21.4844 36.0483 21.1084 36.0483ZM25.5244 36.0483H24.1948V35.5117H25.5244C25.7819 35.5117 25.9904 35.4707 26.1499 35.3887C26.3094 35.3066 26.4256 35.1927 26.4985 35.0469C26.5737 34.901 26.6113 34.7347 26.6113 34.5479C26.6113 34.377 26.5737 34.2163 26.4985 34.0659C26.4256 33.9155 26.3094 33.7948 26.1499 33.7036C25.9904 33.6102 25.7819 33.5635 25.5244 33.5635H24.3486V38H23.689V33.0234H25.5244C25.9004 33.0234 26.2183 33.0884 26.478 33.2183C26.7378 33.3481 26.9349 33.5282 27.0693 33.7583C27.2038 33.9862 27.271 34.2471 27.271 34.541C27.271 34.86 27.2038 35.1323 27.0693 35.3579C26.9349 35.5835 26.7378 35.7555 26.478 35.874C26.2183 35.9902 25.9004 36.0483 25.5244 36.0483ZM31.9365 35.3545V35.6689C31.9365 36.0426 31.8898 36.3776 31.7964 36.6738C31.703 36.9701 31.5685 37.2218 31.3931 37.4292C31.2176 37.6366 31.0068 37.7949 30.7607 37.9043C30.5169 38.0137 30.2435 38.0684 29.9404 38.0684C29.6465 38.0684 29.3765 38.0137 29.1304 37.9043C28.8866 37.7949 28.6746 37.6366 28.4946 37.4292C28.3169 37.2218 28.179 36.9701 28.0811 36.6738C27.9831 36.3776 27.9341 36.0426 27.9341 35.6689V35.3545C27.9341 34.9808 27.9819 34.647 28.0776 34.353C28.1756 34.0568 28.3135 33.805 28.4912 33.5977C28.6689 33.388 28.8797 33.2285 29.1235 33.1191C29.3696 33.0098 29.6396 32.9551 29.9336 32.9551C30.2367 32.9551 30.5101 33.0098 30.7539 33.1191C31 33.2285 31.2108 33.388 31.3862 33.5977C31.564 33.805 31.6995 34.0568 31.793 34.353C31.8887 34.647 31.9365 34.9808 31.9365 35.3545ZM31.2837 35.6689V35.3477C31.2837 35.0514 31.2529 34.7894 31.1914 34.5615C31.1322 34.3337 31.0444 34.1423 30.9282 33.9873C30.812 33.8324 30.6696 33.715 30.501 33.6353C30.3346 33.5555 30.1455 33.5156 29.9336 33.5156C29.7285 33.5156 29.5428 33.5555 29.3765 33.6353C29.2124 33.715 29.0711 33.8324 28.9526 33.9873C28.8364 34.1423 28.7464 34.3337 28.6826 34.5615C28.6188 34.7894 28.5869 35.0514 28.5869 35.3477V35.6689C28.5869 35.9674 28.6188 36.2318 28.6826 36.4619C28.7464 36.6898 28.8376 36.8823 28.9561 37.0396C29.0768 37.1945 29.2192 37.3118 29.3833 37.3916C29.5496 37.4714 29.7354 37.5112 29.9404 37.5112C30.1546 37.5112 30.3449 37.4714 30.5112 37.3916C30.6776 37.3118 30.8177 37.1945 30.9316 37.0396C31.0479 36.8823 31.1356 36.6898 31.1948 36.4619C31.2541 36.2318 31.2837 35.9674 31.2837 35.6689ZM32.9243 33.0234H34.5718C34.9455 33.0234 35.2611 33.0804 35.5186 33.1943C35.7783 33.3083 35.9754 33.4769 36.1099 33.7002C36.2466 33.9212 36.3149 34.1935 36.3149 34.5171C36.3149 34.745 36.2682 34.9535 36.1748 35.1426C36.0837 35.3294 35.9515 35.4889 35.7783 35.6211C35.6074 35.751 35.4023 35.8478 35.1631 35.9116L34.9785 35.9834H33.4302L33.4233 35.4468H34.5923C34.8293 35.4468 35.0264 35.4058 35.1836 35.3237C35.3408 35.2394 35.4593 35.1266 35.5391 34.9854C35.6188 34.8441 35.6587 34.688 35.6587 34.5171C35.6587 34.3257 35.6211 34.1582 35.5459 34.0146C35.4707 33.8711 35.3522 33.7606 35.1904 33.6831C35.0309 33.6034 34.8247 33.5635 34.5718 33.5635H33.584V38H32.9243V33.0234ZM35.833 38L34.623 35.7441L35.3101 35.7407L36.5371 37.959V38H35.833ZM38.8032 33.0234V38H38.1538V33.0234H38.8032ZM40.4028 33.0234V33.5635H36.5576V33.0234H40.4028Z" fill="#F4F4F4"/>
</g>
<path d="M31.2277 20.7359C31.5674 19.8935 31.7518 18.9915 31.7518 18.0004C31.7518 17.2867 31.6451 16.6029 31.4607 15.9685C30.8298 16.1172 30.1698 16.1965 29.4807 16.1965C28.0695 16.198 26.6786 15.8531 25.4253 15.1907C24.1719 14.5283 23.0929 13.5679 22.2792 12.3905C21.4095 14.542 19.7671 16.2725 17.6884 17.2273C17.6496 17.4751 17.6496 17.7427 17.6496 18.0004C17.6496 18.9466 17.8321 19.8836 18.1867 20.7579C18.5413 21.6321 19.0611 22.4264 19.7163 23.0955C21.0395 24.4469 22.8342 25.206 24.7056 25.206C25.7247 25.206 26.7049 24.9781 27.5881 24.5717C28.1413 25.652 28.3937 26.1873 28.3743 26.1873C26.7826 26.7324 25.55 27 24.7056 27C22.3568 27 20.1148 26.0584 18.4649 24.3635C17.4604 23.3426 16.7143 22.0874 16.2908 20.7062H15V16.1965H16.0579C16.3784 14.6032 17.1153 13.1283 18.1904 11.9282C19.2655 10.7281 20.6387 9.84759 22.1642 9.38012C23.6897 8.91265 25.3108 8.87564 26.8552 9.27303C28.3997 9.67041 29.81 10.4874 30.9366 11.6372C32.1592 12.8817 32.9934 14.4682 33.3338 16.1965H34.4111V20.7062H34.3529L30.8977 23.9473L25.7538 23.3526V21.6974H30.4416L31.2277 20.7359ZM22.056 17.7724C22.3471 17.7724 22.6286 17.8913 22.8324 18.1094C23.0372 18.3203 23.1522 18.6053 23.1522 18.9023C23.1522 19.1994 23.0372 19.4844 22.8324 19.6952C22.6286 19.9034 22.3471 20.0223 22.056 20.0223C21.4445 20.0223 20.9495 19.5267 20.9495 18.9023C20.9495 18.2779 21.4445 17.7724 22.056 17.7724ZM27.3455 17.7724C27.9569 17.7724 28.4422 18.2779 28.4422 18.9023C28.4422 19.5267 27.9569 20.0223 27.3455 20.0223C26.734 20.0223 26.2391 19.5267 26.2391 18.9023C26.2391 18.6026 26.3556 18.3153 26.5631 18.1034C26.7706 17.8915 27.052 17.7724 27.3455 17.7724Z" fill="#D9D9D9"/>
<path d="M27.5071 24.0586L27.3791 24.1175C26.559 24.4948 25.6498 24.706 24.7056 24.706C22.9703 24.706 21.3038 24.0021 20.0735 22.7457C19.4642 22.1235 18.9804 21.3843 18.6501 20.5699C18.3198 19.7556 18.1496 18.8824 18.1496 18.0004C18.1496 17.8396 18.15 17.6929 18.1573 17.5572C19.9769 16.6525 21.457 15.1773 22.3869 13.3575C23.1663 14.2917 24.1182 15.0654 25.1916 15.6328C26.5166 16.333 27.9877 16.698 29.4807 16.6965L27.5071 24.0586ZM27.5071 24.0586L25.6964 23.8493L25.2538 23.7981V23.3526V21.6974V21.1974H25.7538H30.2045L30.7916 20.4794C31.0899 19.7159 31.2518 18.8996 31.2518 18.0004C31.2518 17.5007 31.1955 17.0162 31.0943 16.5548C30.5738 16.6477 30.0358 16.6965 29.4808 16.6965C29.481 16.6965 29.4811 16.6965 29.4813 16.6965L27.5071 24.0586ZM15 21.2062H15.9287C16.3895 22.5239 17.1331 23.7226 18.1075 24.7133C19.8517 26.5044 22.2225 27.5 24.7056 27.5C25.6328 27.5 26.9256 27.2113 28.5265 26.6636C28.6372 26.6283 28.7315 26.5555 28.7938 26.46C28.8618 26.3557 28.8715 26.256 28.874 26.2214C28.8793 26.1473 28.8663 26.0884 28.8634 26.075L28.8631 26.0739C28.8546 26.0352 28.8428 26.0026 28.8384 25.9904C28.8265 25.9579 28.8107 25.9207 28.7949 25.885C28.7619 25.81 28.7119 25.7033 28.6462 25.5672C28.514 25.2935 28.3107 24.8858 28.0332 24.3438L27.9111 24.1053L30.8403 24.444L31.0707 24.4706L31.2398 24.3119L34.5507 21.2062H34.9111V20.7062V16.1965V15.6965H34.4111H33.7359C33.3324 14.0302 32.4893 12.5043 31.2935 11.287C30.1038 10.0728 28.6134 9.2091 26.9798 8.7888C25.3461 8.36845 23.6313 8.40762 22.0177 8.90206C20.4042 9.39649 18.9532 10.3274 17.818 11.5946C16.7738 12.7602 16.0325 14.1704 15.6574 15.6965H15H14.5V16.1965V20.7062V21.2062H15ZM23.1896 20.0451L23.1911 20.0436C23.4876 19.7383 23.6522 19.3279 23.6522 18.9023C23.6522 18.4783 23.4888 18.0694 23.1944 17.7645C22.895 17.4461 22.4821 17.2724 22.056 17.2724C21.1585 17.2724 20.4495 18.0117 20.4495 18.9023C20.4495 19.7987 21.1642 20.5223 22.056 20.5223C22.4823 20.5223 22.8923 20.3487 23.1896 20.0451ZM28.9422 18.9023C28.9422 18.0175 28.2486 17.2724 27.3455 17.2724C26.916 17.2724 26.5063 17.4467 26.2059 17.7535C25.9058 18.06 25.7391 18.4734 25.7391 18.9023C25.7391 19.7987 26.4538 20.5223 27.3455 20.5223C28.2429 20.5223 28.9422 19.7929 28.9422 18.9023Z" stroke="url(#paint2_linear_2014_5481)" stroke-opacity="0.7"/>
<g filter="url(#filter2_di_2014_5481)">
<path d="M31.2277 20.7359C31.5674 19.8935 31.7518 18.9915 31.7518 18.0004C31.7518 17.2867 31.6451 16.6029 31.4607 15.9685C30.8298 16.1172 30.1698 16.1965 29.4807 16.1965C28.0695 16.198 26.6786 15.8531 25.4253 15.1907C24.1719 14.5283 23.0929 13.5679 22.2792 12.3905C21.4095 14.542 19.7671 16.2725 17.6884 17.2273C17.6496 17.4751 17.6496 17.7427 17.6496 18.0004C17.6496 18.9466 17.8321 19.8836 18.1867 20.7579C18.5413 21.6321 19.0611 22.4264 19.7163 23.0955C21.0395 24.4469 22.8342 25.206 24.7056 25.206C25.7247 25.206 26.7049 24.9781 27.5881 24.5717C28.1413 25.652 28.3937 26.1873 28.3743 26.1873C26.7826 26.7324 25.55 27 24.7056 27C22.3568 27 20.1148 26.0584 18.4649 24.3635C17.4604 23.3426 16.7143 22.0874 16.2908 20.7062H15V16.1965H16.0579C16.3784 14.6032 17.1153 13.1283 18.1904 11.9282C19.2655 10.7281 20.6387 9.84759 22.1642 9.38012C23.6897 8.91265 25.3108 8.87564 26.8552 9.27303C28.3997 9.67041 29.81 10.4874 30.9366 11.6372C32.1592 12.8817 32.9934 14.4682 33.3338 16.1965H34.4111V20.7062H34.3529L30.8977 23.9473L25.7538 23.3526V21.6974H30.4416L31.2277 20.7359ZM22.056 17.7724C22.3471 17.7724 22.6286 17.8913 22.8324 18.1094C23.0372 18.3203 23.1522 18.6053 23.1522 18.9023C23.1522 19.1994 23.0372 19.4844 22.8324 19.6952C22.6286 19.9034 22.3471 20.0223 22.056 20.0223C21.4445 20.0223 20.9495 19.5267 20.9495 18.9023C20.9495 18.2779 21.4445 17.7724 22.056 17.7724ZM27.3455 17.7724C27.9569 17.7724 28.4422 18.2779 28.4422 18.9023C28.4422 19.5267 27.9569 20.0223 27.3455 20.0223C26.734 20.0223 26.2391 19.5267 26.2391 18.9023C26.2391 18.6026 26.3556 18.3153 26.5631 18.1034C26.7706 17.8915 27.052 17.7724 27.3455 17.7724Z" fill="url(#paint3_linear_2014_5481)"/>
</g>
<defs>
<filter id="filter0_di_2014_5481" x="0" y="0" width="50" height="50" filterUnits="userSpaceOnUse" color-interpolation-filters="sRGB">
<feFlood flood-opacity="0" result="BackgroundImageFix"/>
<feColorMatrix in="SourceAlpha" type="matrix" values="0 0 0 0 0 0 0 0 0 0 0 0 0 0 0 0 0 0 127 0" result="hardAlpha"/>
<feOffset dy="3"/>
<feGaussianBlur stdDeviation="2.5"/>
<feColorMatrix type="matrix" values="0 0 0 0 0 0 0 0 0 0 0 0 0 0 0 0 0 0 0.4 0"/>
<feBlend mode="normal" in2="BackgroundImageFix" result="effect1_dropShadow_2014_5481"/>
<feBlend mode="normal" in="SourceGraphic" in2="effect1_dropShadow_2014_5481" result="shape"/>
<feColorMatrix in="SourceAlpha" type="matrix" values="0 0 0 0 0 0 0 0 0 0 0 0 0 0 0 0 0 0 127 0" result="hardAlpha"/>
<feOffset dy="1"/>
<feComposite in2="hardAlpha" operator="arithmetic" k2="-1" k3="1"/>
<feColorMatrix type="matrix" values="0 0 0 0 1 0 0 0 0 1 0 0 0 0 1 0 0 0 0.3 0"/>
<feBlend mode="normal" in2="shape" result="effect2_innerShadow_2014_5481"/>
</filter>
<filter id="filter1_d_2014_5481" x="10.2769" y="32.4051" width="30.126" height="5.66328" filterUnits="userSpaceOnUse" color-interpolation-filters="sRGB">
<feFlood flood-opacity="0" result="BackgroundImageFix"/>
<feColorMatrix in="SourceAlpha" type="matrix" values="0 0 0 0 0 0 0 0 0 0 0 0 0 0 0 0 0 0 127 0" result="hardAlpha"/>
<feOffset dy="-0.55"/>
<feColorMatrix type="matrix" values="0 0 0 0 0 0 0 0 0 0 0 0 0 0 0 0 0 0 0.7 0"/>
<feBlend mode="normal" in2="BackgroundImageFix" result="effect1_dropShadow_2014_5481"/>
<feBlend mode="normal" in="SourceGraphic" in2="effect1_dropShadow_2014_5481" result="shape"/>
</filter>
<filter id="filter2_di_2014_5481" x="8.75" y="6.5" width="31.9111" height="30.5" filterUnits="userSpaceOnUse" color-interpolation-filters="sRGB">
<feFlood flood-opacity="0" result="BackgroundImageFix"/>
<feColorMatrix in="SourceAlpha" type="matrix" values="0 0 0 0 0 0 0 0 0 0 0 0 0 0 0 0 0 0 127 0" result="hardAlpha"/>
<feOffset dy="3.75"/>
<feGaussianBlur stdDeviation="3.125"/>
<feColorMatrix type="matrix" values="0 0 0 0 0 0 0 0 0 0 0 0 0 0 0 0 0 0 0.4 0"/>
<feBlend mode="normal" in2="BackgroundImageFix" result="effect1_dropShadow_2014_5481"/>
<feBlend mode="normal" in="SourceGraphic" in2="effect1_dropShadow_2014_5481" result="shape"/>
<feColorMatrix in="SourceAlpha" type="matrix" values="0 0 0 0 0 0 0 0 0 0 0 0 0 0 0 0 0 0 127 0" result="hardAlpha"/>
<feOffset dy="0.8"/>
<feComposite in2="hardAlpha" operator="arithmetic" k2="-1" k3="1"/>
<feColorMatrix type="matrix" values="0 0 0 0 1 0 0 0 0 1 0 0 0 0 1 0 0 0 0.6 0"/>
<feBlend mode="normal" in2="shape" result="effect2_innerShadow_2014_5481"/>
</filter>
<linearGradient id="paint0_linear_2014_5481" x1="25" y1="2" x2="25" y2="42" gradientUnits="userSpaceOnUse">
<stop stop-color="#1D262D"/>
<stop offset="1" stop-color="#12161A"/>
</linearGradient>
<linearGradient id="paint1_linear_2014_5481" x1="25" y1="2" x2="25" y2="42" gradientUnits="userSpaceOnUse">
<stop stop-color="#4F5254"/>
<stop offset="1" stop-color="#393B3A"/>
</linearGradient>
<linearGradient id="paint2_linear_2014_5481" x1="24.7056" y1="9" x2="24.7056" y2="27" gradientUnits="userSpaceOnUse">
<stop stop-color="#1D262D"/>
<stop offset="1" stop-color="#12161A"/>
</linearGradient>
<linearGradient id="paint3_linear_2014_5481" x1="24.7056" y1="9" x2="24.7056" y2="27" gradientUnits="userSpaceOnUse">
<stop stop-color="#808181"/>
<stop offset="1" stop-color="#5B5A5B"/>
</linearGradient>
</defs>
</svg>
