<svg width="84" height="15" viewBox="0 0 84 15" fill="none" xmlns="http://www.w3.org/2000/svg">
<rect x="0.695068" y="0.5" width="82.6364" height="13.3377" rx="1.88961" stroke="#FF0000"/>
<path d="M35.5835 10.9868V3.16627H38.7147C39.2901 3.16627 39.7699 3.25155 40.1543 3.42212C40.5388 3.59268 40.8277 3.82944 41.0212 4.13238C41.2147 4.43278 41.3114 4.779 41.3114 5.17105C41.3114 5.47654 41.2503 5.74512 41.1281 5.97678C41.0059 6.2059 40.8379 6.39428 40.624 6.54194C40.4127 6.68704 40.1709 6.79015 39.8985 6.85124V6.92762C40.1964 6.94035 40.4751 7.02436 40.7348 7.17965C40.997 7.33494 41.2096 7.5526 41.3725 7.83263C41.5354 8.11012 41.6169 8.44107 41.6169 8.82547C41.6169 9.24043 41.5138 9.61084 41.3076 9.93669C41.1039 10.26 40.8022 10.5159 40.4026 10.7042C40.0029 10.8926 39.5103 10.9868 38.9247 10.9868H35.5835ZM37.2369 9.63502H38.5849C39.0457 9.63502 39.3817 9.54719 39.593 9.37154C39.8043 9.19334 39.91 8.95658 39.91 8.66127C39.91 8.44488 39.8578 8.25395 39.7534 8.08848C39.649 7.92301 39.5001 7.79317 39.3066 7.69898C39.1157 7.60479 38.8878 7.55769 38.6231 7.55769H37.2369V9.63502ZM37.2369 6.43883H38.4627C38.6893 6.43883 38.8904 6.39937 39.066 6.32046C39.2442 6.23899 39.3843 6.12443 39.4861 5.97678C39.5905 5.82913 39.6427 5.6522 39.6427 5.44599C39.6427 5.16341 39.5421 4.93557 39.341 4.76246C39.1424 4.58935 38.8598 4.50279 38.4932 4.50279H37.2369V6.43883ZM42.6928 10.9868V3.16627H45.8241C46.3994 3.16627 46.8793 3.25155 47.2637 3.42212C47.6481 3.59268 47.937 3.82944 48.1305 4.13238C48.324 4.43278 48.4207 4.779 48.4207 5.17105C48.4207 5.47654 48.3596 5.74512 48.2374 5.97678C48.1152 6.2059 47.9472 6.39428 47.7334 6.54194C47.5221 6.68704 47.2802 6.79015 47.0078 6.85124V6.92762C47.3057 6.94035 47.5844 7.02436 47.8441 7.17965C48.1063 7.33494 48.3189 7.5526 48.4818 7.83263C48.6447 8.11012 48.7262 8.44107 48.7262 8.82547C48.7262 9.24043 48.6231 9.61084 48.4169 9.93669C48.2132 10.26 47.9116 10.5159 47.5119 10.7042C47.1122 10.8926 46.6196 10.9868 46.0341 10.9868H42.6928ZM44.3462 9.63502H45.6942C46.155 9.63502 46.491 9.54719 46.7023 9.37154C46.9136 9.19334 47.0193 8.95658 47.0193 8.66127C47.0193 8.44488 46.9671 8.25395 46.8627 8.08848C46.7583 7.92301 46.6094 7.79317 46.4159 7.69898C46.225 7.60479 45.9972 7.55769 45.7324 7.55769H44.3462V9.63502ZM44.3462 6.43883H45.572C45.7986 6.43883 45.9997 6.39937 46.1754 6.32046C46.3536 6.23899 46.4936 6.12443 46.5954 5.97678C46.6998 5.82913 46.752 5.6522 46.752 5.44599C46.752 5.16341 46.6514 4.93557 46.4503 4.76246C46.2517 4.58935 45.9692 4.50279 45.6026 4.50279H44.3462V6.43883Z" fill="#FF0000"/>
</svg>
