<?xml version="1.0" encoding="UTF-8"?>
<svg id="_レイヤー_2" data-name="レイヤー 2" xmlns="http://www.w3.org/2000/svg" viewBox="0 0 83.29 21.29">
  <defs>
    <style>
      .cls-1 {
        fill: rgba(255, 255, 255, .1);
      }
    </style>
  </defs>
  <g id="_レイヤー_1-2" data-name="レイヤー 1">
    <path class="cls-1" d="M14.69,0l-3.44,3.19h-5.96L2.4,0h12.29ZM12.83,21.29H.55l3.44-3.16h5.96l2.89,3.16ZM3.8,13.23l-.37,4.29-3.44,3.16.7-8.24,1.31-1.19,1.79,1.98ZM1.03,8.85L1.73.61l2.89,3.16-.36,4.29-2.16,2.01-1.06-1.22ZM14.17,12.44l-.7,8.24-2.89-3.16.37-4.29,2.16-1.98,1.06,1.19ZM11.4,8.06l.36-4.29,3.44-3.16-.7,8.24-1.31,1.22-1.79-2.01ZM31.71,0l-3.44,3.19h-5.96l-2.89-3.19h12.29ZM29.85,21.29h-12.29l3.44-3.16h5.96l2.89,3.16ZM20.82,13.23l-.37,4.29-3.44,3.16.7-8.24,1.31-1.19,1.8,1.98ZM18.05,8.85l.7-8.24,2.89,3.16-.36,4.29-2.16,2.01-1.06-1.22ZM31.19,12.44l-.7,8.24-2.89-3.16.37-4.29,2.16-1.98,1.06,1.19ZM28.43,8.06l.36-4.29,3.44-3.16-.7,8.24-1.31,1.22-1.79-2.01ZM48.73,0l-3.44,3.19h-5.96l-2.89-3.19h12.29ZM46.88,21.29h-12.29l3.44-3.16h5.96l2.89,3.16ZM37.84,13.23l-.37,4.29-3.44,3.16.7-8.24,1.31-1.19,1.8,1.98ZM35.08,8.85l.7-8.24,2.89,3.16-.36,4.29-2.16,2.01-1.07-1.22ZM48.21,12.44l-.7,8.24-2.89-3.16.37-4.29,2.16-1.98,1.07,1.19ZM45.45,8.06l.36-4.29,3.44-3.16-.7,8.24-1.31,1.22-1.79-2.01ZM65.75,0l-3.44,3.19h-5.96l-2.89-3.19h12.29ZM63.9,21.29h-12.29l3.44-3.16h5.96l2.89,3.16ZM54.86,13.23l-.36,4.29-3.44,3.16.7-8.24,1.31-1.19,1.79,1.98ZM52.1,8.85l.7-8.24,2.89,3.16-.36,4.29-2.16,2.01-1.06-1.22ZM65.24,12.44l-.7,8.24-2.89-3.16.37-4.29,2.16-1.98,1.06,1.19ZM62.47,8.06l.36-4.29,3.44-3.16-.7,8.24-1.31,1.22-1.8-2.01ZM82.77,0l-3.44,3.19h-5.96l-2.89-3.19h12.29ZM80.92,21.29h-12.29l3.44-3.16h5.96l2.89,3.16ZM71.89,13.23l-.37,4.29-3.44,3.16.7-8.24,1.31-1.19,1.8,1.98ZM69.12,8.85l.7-8.24,2.89,3.16-.36,4.29-2.16,2.01-1.06-1.22ZM82.26,12.44l-.7,8.24-2.89-3.16.37-4.29,2.16-1.98,1.06,1.19ZM79.49,8.06l.36-4.29,3.44-3.16-.7,8.24-1.31,1.22-1.79-2.01Z"/>
  </g>
</svg>