<svg width="103" height="40" viewBox="0 0 103 40" fill="none" xmlns="http://www.w3.org/2000/svg">
<g filter="url(#filter0_d_2015_4206)">
<g filter="url(#filter1_di_2015_4206)">
<rect x="4.50488" y="5.3291" width="93.1646" height="27.3418" rx="13.6709" fill="white" shape-rendering="crispEdges"/>
<path d="M56.7256 20.625V21.03H59.4962V20.625H56.7256ZM56.7256 19.5394H59.4962V19.1181H56.7256V19.5394ZM56.2071 24.5622C55.9587 24.411 55.6778 24.1949 55.3646 23.9141C54.9325 24.1733 54.5815 24.3623 54.3114 24.4812L53.5661 23.347V24.9834C54.495 24.8646 55.3754 24.7242 56.2071 24.5622ZM58.2 24.0599C58.6969 23.8979 59.129 23.6926 59.4962 23.4442H56.8714C57.2495 23.6926 57.6923 23.8979 58.2 24.0599ZM50.7631 20.7708C51.692 20.0687 52.5291 19.2045 53.2744 18.1784L53.7767 18.5186C54.414 17.6977 54.9217 16.7958 55.2998 15.8128H53.8739L54.6193 16.4285C54.1008 17.055 53.6093 17.5627 53.1448 17.9515C52.6804 18.3404 52.0917 18.7293 51.3788 19.1181L50.8441 18.0488V18.7131C50.8441 19.3828 50.8171 20.0687 50.7631 20.7708ZM53.5661 20.9652V23.1202C54.3222 22.7853 54.9757 22.4072 55.5266 21.986H54.6193V20.1713L54.3438 20.0093C54.1062 20.3549 53.8469 20.6736 53.5661 20.9652ZM50.8441 15.8128V17.271C51.503 16.8822 52.1349 16.3961 52.7398 15.8128H50.8441ZM50.8441 14.2412H59.5448V13.5769H50.8441V14.2412ZM48.5109 11.8432H62.0238V15.8128H57.3251C57.2819 15.964 57.2225 16.1369 57.1469 16.3313H62.1858V17.6761H56.5474C56.4717 17.8165 56.3961 17.9515 56.3205 18.0812H61.878V21.986H57.8274C57.795 22.0292 57.7571 22.0724 57.7139 22.1156C57.6707 22.148 57.6221 22.1912 57.5681 22.2452C57.5249 22.2884 57.4871 22.3262 57.4547 22.3586H61.6998V23.4442C61.3433 23.8331 60.868 24.2057 60.2739 24.5622C61.1597 24.7242 61.8942 24.843 62.4775 24.9186L61.878 26.4255C60.463 26.2202 59.2208 25.9178 58.1514 25.5181C57.1252 25.8746 55.829 26.177 54.2628 26.4255L53.5661 25.0321V26.4579H51.4436V22.6827C51.3571 22.7691 51.1789 22.9203 50.9089 23.1364L50.6172 22.1156C50.3472 23.725 49.7693 25.1671 48.8836 26.4417L47.2795 24.2219C47.7548 23.3362 48.0788 22.3802 48.2517 21.3541C48.4245 20.3279 48.5109 18.8157 48.5109 16.8174V11.8432ZM70.9838 16.4609C71.7075 17.163 72.2692 17.7247 72.6689 18.146C73.3062 17.5735 73.7923 17.0118 74.1271 16.4609H72.6689V14.8083H74.2729V13.9981H70.9676V14.8083H72.1666V16.4609H70.9838ZM66.9818 18.2594C67.6191 17.6761 68.1268 17.0766 68.5048 16.4609H67.3382V14.8083H68.8613V13.9981H66.9818V18.2594ZM66.9818 19.0695C66.971 21.1326 66.7171 22.8555 66.2203 24.2381H67.8567V21.3541H70.0765V24.2381H71.5023V20.3495H72.6365L71.9074 19.1343L71.5995 19.507C71.5563 19.453 71.4915 19.372 71.4051 19.264C71.3187 19.1559 71.2377 19.0587 71.162 18.9723C71.0972 18.8859 71.0324 18.8049 70.9676 18.7293V20.6736H68.8613V18.8589C68.5156 19.3882 68.1376 19.858 67.7271 20.2685L66.9818 19.0695ZM77.7079 21.5161V23.2174H74.0137V24.2381H78.7124V26.2148H66.1231V24.4974C65.8746 25.1347 65.5236 25.7828 65.0699 26.4417L63.482 24.2219C63.9573 23.3362 64.2814 22.3856 64.4542 21.3703C64.627 20.3441 64.7134 18.8265 64.7134 16.8174V12.0376H78.7124V13.9981H76.3631V14.8083H78.3884V16.4609H76.8491C77.346 17.163 78.0157 17.8975 78.8582 18.6645L77.7727 20.4305C77.2326 19.8796 76.7627 19.3342 76.3631 18.7941V20.6736H74.2729V18.8913C73.8517 19.4098 73.371 19.8959 72.8309 20.3495H74.0137V21.5161H77.7079Z" fill="#282828"/>
</g>
<path d="M32.8593 19.2837L37.153 11.8609L38.9049 12.8736L33.6087 22.0381L27.0163 18.2407L22.1859 26.5951H38.9353V28.6204H18.6821V10.3926H20.7074V25.1166L26.2771 15.4559L32.8593 19.2837Z" fill="black"/>
</g>
<defs>
<filter id="filter0_d_2015_4206" x="0.150452" y="0.974671" width="101.873" height="36.0507" filterUnits="userSpaceOnUse" color-interpolation-filters="sRGB">
<feFlood flood-opacity="0" result="BackgroundImageFix"/>
<feColorMatrix in="SourceAlpha" type="matrix" values="0 0 0 0 0 0 0 0 0 0 0 0 0 0 0 0 0 0 127 0" result="hardAlpha"/>
<feOffset/>
<feGaussianBlur stdDeviation="2.17722"/>
<feComposite in2="hardAlpha" operator="out"/>
<feColorMatrix type="matrix" values="0 0 0 0 1 0 0 0 0 1 0 0 0 0 1 0 0 0 0.75 0"/>
<feBlend mode="normal" in2="BackgroundImageFix" result="effect1_dropShadow_2015_4206"/>
<feBlend mode="normal" in="SourceGraphic" in2="effect1_dropShadow_2015_4206" result="shape"/>
</filter>
<filter id="filter1_di_2015_4206" x="0.45425" y="4.31644" width="101.266" height="35.4431" filterUnits="userSpaceOnUse" color-interpolation-filters="sRGB">
<feFlood flood-opacity="0" result="BackgroundImageFix"/>
<feColorMatrix in="SourceAlpha" type="matrix" values="0 0 0 0 0 0 0 0 0 0 0 0 0 0 0 0 0 0 127 0" result="hardAlpha"/>
<feOffset dy="3.03797"/>
<feGaussianBlur stdDeviation="2.02532"/>
<feComposite in2="hardAlpha" operator="out"/>
<feColorMatrix type="matrix" values="0 0 0 0 0 0 0 0 0 0 0 0 0 0 0 0 0 0 0.75 0"/>
<feBlend mode="normal" in2="BackgroundImageFix" result="effect1_dropShadow_2015_4206"/>
<feBlend mode="normal" in="SourceGraphic" in2="effect1_dropShadow_2015_4206" result="shape"/>
<feColorMatrix in="SourceAlpha" type="matrix" values="0 0 0 0 0 0 0 0 0 0 0 0 0 0 0 0 0 0 127 0" result="hardAlpha"/>
<feOffset dy="2.02532"/>
<feGaussianBlur stdDeviation="2.02532"/>
<feComposite in2="hardAlpha" operator="arithmetic" k2="-1" k3="1"/>
<feColorMatrix type="matrix" values="0 0 0 0 0 0 0 0 0 0 0 0 0 0 0 0 0 0 0.25 0"/>
<feBlend mode="normal" in2="shape" result="effect2_innerShadow_2015_4206"/>
</filter>
</defs>
</svg>
