<svg width="18" height="19" viewBox="0 0 18 19" fill="none" xmlns="http://www.w3.org/2000/svg">
<path d="M6.7124 13.7124C4.89574 13.7124 3.3584 13.0831 2.1004 11.8244C0.842403 10.5657 0.21307 9.0284 0.212403 7.2124C0.211736 5.3964 0.841069 3.85907 2.1004 2.6004C3.35974 1.34174 4.89707 0.712402 6.7124 0.712402C8.52774 0.712402 10.0654 1.34174 11.3254 2.6004C12.5854 3.85907 13.2144 5.3964 13.2124 7.2124C13.2124 7.94574 13.0957 8.6374 12.8624 9.2874C12.6291 9.9374 12.3124 10.5124 11.9124 11.0124L17.5124 16.6124C17.6957 16.7957 17.7874 17.0291 17.7874 17.3124C17.7874 17.5957 17.6957 17.8291 17.5124 18.0124C17.3291 18.1957 17.0957 18.2874 16.8124 18.2874C16.5291 18.2874 16.2957 18.1957 16.1124 18.0124L10.5124 12.4124C10.0124 12.8124 9.4374 13.1291 8.7874 13.3624C8.1374 13.5957 7.44574 13.7124 6.7124 13.7124ZM6.7124 11.7124C7.9624 11.7124 9.02507 11.2751 9.9004 10.4004C10.7757 9.52574 11.2131 8.46307 11.2124 7.2124C11.2117 5.96174 10.7744 4.8994 9.9004 4.0254C9.0264 3.1514 7.96374 2.71374 6.7124 2.7124C5.46107 2.71107 4.39874 3.14874 3.5254 4.0254C2.65207 4.90207 2.2144 5.9644 2.2124 7.2124C2.2104 8.4604 2.64807 9.52307 3.5254 10.4004C4.40274 11.2777 5.46507 11.7151 6.7124 11.7124Z" fill="white"/>
</svg>
