<svg width="49" height="22" viewBox="0 0 49 22" fill="none" xmlns="http://www.w3.org/2000/svg">
<path d="M14.5597 0.319412L11.2077 3.4341H5.39362L2.57557 0.319412H14.5597ZM12.7502 21.084H0.766087L4.11808 17.999H9.93216L12.7502 21.084ZM3.9401 13.2231L3.58414 17.4057L0.232141 20.4907L0.914405 12.4519L2.18994 11.295L3.9401 13.2231ZM1.24071 8.95154L1.92297 0.912685L4.74102 3.99771L4.38506 8.18029L2.27893 10.1381L1.24071 8.95154ZM14.0554 12.4519L13.3731 20.4907L10.5551 17.4057L10.9111 13.2231L13.0172 11.295L14.0554 12.4519ZM11.356 8.18029L11.712 3.99771L15.064 0.912685L14.3817 8.95154L13.1062 10.1381L11.356 8.18029ZM31.1615 0.319412L27.8095 3.4341H21.9954L19.1774 0.319412H31.1615ZM29.352 21.084H17.3679L20.7199 17.999H26.534L29.352 21.084ZM20.5419 13.2231L20.1859 17.4057L16.8339 20.4907L17.5162 12.4519L18.7918 11.295L20.5419 13.2231ZM17.8425 8.95154L18.5248 0.912685L21.3428 3.99771L20.9869 8.18029L18.8807 10.1381L17.8425 8.95154ZM30.6572 12.4519L29.975 20.4907L27.1569 17.4057L27.5129 13.2231L29.619 11.295L30.6572 12.4519ZM27.9578 8.18029L28.3138 3.99771L31.6658 0.912685L30.9835 8.95154L29.708 10.1381L27.9578 8.18029ZM47.7633 0.319412L44.4113 3.4341H38.5972L35.7792 0.319412H47.7633ZM45.9538 21.084H33.9697L37.3217 17.999H43.1358L45.9538 21.084ZM37.1437 13.2231L36.7878 17.4057L33.4358 20.4907L34.118 12.4519L35.3936 11.295L37.1437 13.2231ZM34.4443 8.95154L35.1266 0.912685L37.9446 3.99771L37.5887 8.18029L35.4826 10.1381L34.4443 8.95154ZM47.259 12.4519L46.5768 20.4907L43.7587 17.4057L44.1147 13.2231L46.2208 11.295L47.259 12.4519ZM44.5596 8.18029L44.9156 3.99771L48.2676 0.912685L47.5853 8.95154L46.3098 10.1381L44.5596 8.18029Z" fill="white" fill-opacity="0.1"/>
</svg>
