<svg width="150" height="38" viewBox="0 0 150 38" fill="none" xmlns="http://www.w3.org/2000/svg">
<path d="M26.9491 0.112062L20.8329 5.79525H10.2243L5.08236 0.112062H26.9491ZM23.6475 38H1.7807L7.89689 32.3709H18.5055L23.6475 38ZM7.57214 23.6567L6.92263 31.2884L0.806437 36.9175L2.05133 22.2494L4.37873 20.1385L7.57214 23.6567ZM2.64671 15.8626L3.8916 1.19457L9.03353 6.82364L8.38402 14.4554L4.5411 18.0276L2.64671 15.8626ZM26.029 22.2494L24.7841 36.9175L19.6422 31.2884L20.2917 23.6567L24.1346 20.1385L26.029 22.2494ZM21.1035 14.4554L21.7531 6.82364L27.8692 1.19457L26.6244 15.8626L24.297 18.0276L21.1035 14.4554ZM20.6164 16.2415L23.2144 19.056L20.1293 21.8706H8.1134L5.56949 19.056L8.60053 16.2415H20.6164ZM57.2415 0.112062L51.1253 5.79525H40.5167L35.3747 0.112062H57.2415ZM53.9398 38H32.0731L38.1893 32.3709H48.7979L53.9398 38ZM37.8645 23.6567L37.215 31.2884L31.0988 36.9175L32.3437 22.2494L34.6711 20.1385L37.8645 23.6567ZM32.9391 15.8626L34.184 1.19457L39.3259 6.82364L38.6764 14.4554L34.8335 18.0276L32.9391 15.8626ZM56.3214 22.2494L55.0765 36.9175L49.9345 31.2884L50.584 23.6567L54.427 20.1385L56.3214 22.2494ZM51.3959 14.4554L52.0454 6.82364L58.1616 1.19457L56.9167 15.8626L54.5893 18.0276L51.3959 14.4554ZM50.9088 16.2415L53.5068 19.056L50.4217 21.8706H38.4058L35.8619 19.056L38.8929 16.2415H50.9088ZM87.5339 0.112062L81.4177 5.79525H70.8091L65.6671 0.112062H87.5339ZM84.2322 38H62.3655L68.4817 32.3709H79.0903L84.2322 38ZM68.1569 23.6567L67.5074 31.2884L61.3912 36.9175L62.6361 22.2494L64.9635 20.1385L68.1569 23.6567ZM63.2315 15.8626L64.4764 1.19457L69.6183 6.82364L68.9688 14.4554L65.1259 18.0276L63.2315 15.8626ZM86.6137 22.2494L85.3688 36.9175L80.2269 31.2884L80.8764 23.6567L84.7193 20.1385L86.6137 22.2494ZM81.6883 14.4554L82.3378 6.82364L88.454 1.19457L87.2091 15.8626L84.8817 18.0276L81.6883 14.4554ZM81.2012 16.2415L83.7992 19.056L80.714 21.8706H68.6982L66.1543 19.056L69.1853 16.2415H81.2012ZM117.826 0.112062L111.71 5.79525H101.101L95.9595 0.112062H117.826ZM114.525 38H92.6578L98.774 32.3709H109.383L114.525 38ZM98.4493 23.6567L97.7998 31.2884L91.6836 36.9175L92.9285 22.2494L95.2559 20.1385L98.4493 23.6567ZM93.5238 15.8626L94.7687 1.19457L99.9107 6.82364L99.2612 14.4554L95.4182 18.0276L93.5238 15.8626ZM116.906 22.2494L115.661 36.9175L110.519 31.2884L111.169 23.6567L115.012 20.1385L116.906 22.2494ZM111.981 14.4554L112.63 6.82364L118.746 1.19457L117.501 15.8626L115.174 18.0276L111.981 14.4554ZM111.494 16.2415L114.092 19.056L111.006 21.8706H98.9905L96.4466 19.056L99.4777 16.2415H111.494ZM148.119 0.112062L142.002 5.79525H131.394L126.252 0.112062H148.119ZM144.817 38H122.95L129.066 32.3709H139.675L144.817 38ZM128.742 23.6567L128.092 31.2884L121.976 36.9175L123.221 22.2494L125.548 20.1385L128.742 23.6567ZM123.816 15.8626L125.061 1.19457L130.203 6.82364L129.554 14.4554L125.711 18.0276L123.816 15.8626ZM147.198 22.2494L145.954 36.9175L140.812 31.2884L141.461 23.6567L145.304 20.1385L147.198 22.2494ZM142.273 14.4554L142.923 6.82364L149.039 1.19457L147.794 15.8626L145.466 18.0276L142.273 14.4554ZM141.786 16.2415L144.384 19.056L141.299 21.8706H129.283L126.739 19.056L129.77 16.2415H141.786Z" fill="white" fill-opacity="0.1"/>
</svg>
