<svg width="74" height="32" viewBox="0 0 74 32" fill="none" xmlns="http://www.w3.org/2000/svg">
<rect x="3.1036" y="1.1036" width="67.7928" height="25.7928" rx="3.58559" stroke="url(#paint0_linear_2014_5356)" stroke-width="1.79279"/>
<g filter="url(#filter0_di_2014_5356)">
<rect x="4" y="2" width="66" height="24" rx="2.68919" fill="url(#paint1_linear_2014_5356)"/>
</g>
<g filter="url(#filter1_d_2014_5356)">
<path d="M30.2611 13.9942C30.0985 13.9942 29.8786 13.9895 29.6013 13.9799C29.324 13.9608 28.9846 13.9417 28.583 13.9225L28.5257 12.9903C28.8603 13.0094 29.1424 13.0285 29.3719 13.0477C29.6109 13.0572 29.7973 13.062 29.9312 13.062C30.1129 13.062 30.242 13.0572 30.3185 13.0477C30.3949 13.0285 30.438 12.9807 30.4475 12.9042C30.4667 12.8182 30.4762 12.6843 30.4762 12.5026V9.76325H23.1903V8.831H28.7551V7.56887H29.9025V8.831H35.4674V9.76325H31.5519V12.474C31.5519 12.8086 31.5328 13.0811 31.4945 13.2915C31.4658 13.4923 31.4085 13.6452 31.3224 13.7504C31.2364 13.8556 31.1073 13.9225 30.9352 13.9512C30.7631 13.9799 30.5384 13.9942 30.2611 13.9942ZM23.4915 17.6372L23.0039 16.8053C23.9887 16.4229 24.8875 15.9687 25.7002 15.4428C26.5129 14.9074 27.1775 14.3576 27.6938 13.7935L28.5543 14.2667C28.1719 14.7066 27.7129 15.1321 27.1775 15.5432C26.6516 15.9544 26.0731 16.3416 25.4421 16.7049C24.8206 17.0587 24.1704 17.3695 23.4915 17.6372ZM23.3481 20.4626L23.0899 19.4874C24.3042 19.3439 25.4086 19.1479 26.403 18.8993C27.407 18.6507 28.3057 18.3495 29.0994 17.9958C29.9025 17.6324 30.6101 17.2213 31.222 16.7623C31.8435 16.3034 32.379 15.7966 32.8284 15.242L33.6602 15.8444C33.0578 16.5998 32.269 17.2882 31.2937 17.9097C30.3185 18.5216 29.1663 19.0428 27.8372 19.473C26.5177 19.9129 25.0213 20.2427 23.3481 20.4626ZM23.807 14.2524L22.9608 13.607C23.4867 13.1672 23.96 12.6747 24.3807 12.1297C24.811 11.5847 25.16 11.0206 25.4277 10.4373L26.403 10.8246C26.1257 11.4652 25.7624 12.0819 25.313 12.6747C24.8636 13.2676 24.3616 13.7935 23.807 14.2524ZM35.3096 20.4626C34.124 20.3001 32.9622 20.0324 31.8244 19.6595C30.6961 19.2961 29.6539 18.8563 28.6978 18.34C27.7512 17.8237 26.948 17.2643 26.2883 16.6619L27.0341 15.9161C27.6747 16.5185 28.43 17.0587 29.3001 17.5368C30.1702 18.0149 31.1312 18.4212 32.183 18.7559C33.2443 19.0906 34.3726 19.3344 35.5677 19.4874L35.3096 20.4626ZM26.489 15.8444V14.9552H33.6602V15.8444H26.489ZM26.1448 14.4819L25.356 13.7935C25.9201 13.411 26.3695 13.0094 26.7042 12.5887C27.0388 12.168 27.2779 11.6851 27.4213 11.1401C27.5647 10.5951 27.6364 9.94492 27.6364 9.18956H28.6834C28.6834 10.0405 28.5974 10.7816 28.4253 11.4126C28.2627 12.0437 27.995 12.603 27.6221 13.0907C27.2492 13.5783 26.7568 14.0421 26.1448 14.4819ZM34.8219 14.1807C34.4586 13.6357 34.0331 13.0859 33.5455 12.5313C33.0674 11.9768 32.5654 11.4557 32.0395 10.968L32.9001 10.4087C33.426 10.8963 33.9327 11.4222 34.4204 11.9863C34.9176 12.5409 35.3478 13.0859 35.7112 13.6213L34.8219 14.1807ZM40.1143 17.0778V16.1456H48.7197V11.4126H46.7835V12.8899C46.7835 13.215 46.7978 13.454 46.8265 13.607C46.8647 13.7504 46.9508 13.8413 47.0846 13.8795C47.2281 13.9082 47.4623 13.9225 47.7874 13.9225H48.7197V14.8404H47.2854C46.8552 14.8404 46.5301 14.8022 46.3102 14.7257C46.0998 14.6397 45.9564 14.4819 45.8799 14.2524C45.813 14.0134 45.7795 13.6644 45.7795 13.2054V11.4126H44.8759C44.8568 11.9768 44.809 12.4644 44.7325 12.8755C44.6656 13.2771 44.5556 13.6357 44.4026 13.9512C44.2592 14.2572 44.0489 14.5488 43.7716 14.8261C43.5038 15.0938 43.1692 15.3711 42.7676 15.658L42.1652 14.74C42.5094 14.5201 42.7867 14.3098 42.9971 14.109C43.217 13.8986 43.3891 13.6739 43.5134 13.4349C43.6377 13.1863 43.7238 12.9042 43.7716 12.5887C43.8289 12.2636 43.8624 11.8716 43.872 11.4126H42.1509V16.1456H41.1469V10.5091H49.738V16.1456H50.4121V17.0778H40.1143ZM37.088 16.4324L36.959 15.4285C37.4179 15.3137 37.8625 15.1894 38.2928 15.0556C38.7326 14.9122 39.1533 14.7544 39.5549 14.5823C39.9661 14.4102 40.3485 14.2333 40.7023 14.0516L40.8744 15.0412C40.5111 15.2325 40.1191 15.4189 39.6983 15.6006C39.2872 15.7727 38.8569 15.9305 38.4075 16.0739C37.9677 16.2077 37.5279 16.3273 37.088 16.4324ZM38.3358 20.5917C38.2115 20.5917 38.0442 20.5822 37.8338 20.563C37.633 20.5535 37.3988 20.5391 37.1311 20.52L37.1024 19.5878C37.3892 19.6164 37.6235 19.6356 37.8052 19.6451C37.9868 19.6547 38.1159 19.6595 38.1924 19.6595C38.3071 19.6595 38.3884 19.6451 38.4362 19.6164C38.484 19.5973 38.5127 19.5304 38.5223 19.4157C38.5318 19.3009 38.5366 19.1049 38.5366 18.8276V11.1975H37.002V10.2509H38.5366V7.87006H39.6123V10.2509H40.774V11.1975H39.6123V18.7702C39.6123 19.1718 39.5979 19.4921 39.5693 19.7312C39.5501 19.9798 39.4975 20.1662 39.4115 20.2905C39.3254 20.4148 39.1964 20.4961 39.0243 20.5344C38.8617 20.5726 38.6322 20.5917 38.3358 20.5917ZM40.4585 20.6348L40.143 19.6882C40.8601 19.5639 41.4959 19.387 42.0505 19.1575C42.6146 18.9184 43.0927 18.6507 43.4847 18.3543C43.8863 18.0579 44.1875 17.7519 44.3883 17.4364C44.5986 17.1113 44.7038 16.791 44.7038 16.4755V14.9695H45.7938V16.4755C45.7938 16.8579 45.6648 17.2643 45.4066 17.6946C45.1484 18.1153 44.7803 18.5216 44.3022 18.9137C43.8242 19.3057 43.26 19.6547 42.6098 19.9607C41.9597 20.2666 41.2425 20.4913 40.4585 20.6348ZM50.0679 20.6348C49.3029 20.4913 48.5954 20.2666 47.9452 19.9607C47.3046 19.6643 46.75 19.32 46.2815 18.928C45.813 18.536 45.4448 18.1296 45.1771 17.7089C44.919 17.2786 44.7899 16.8675 44.7899 16.4755H45.7938C45.7938 16.7814 45.899 17.097 46.1094 17.4221C46.3197 17.7472 46.6209 18.0579 47.0129 18.3543C47.4145 18.6507 47.8974 18.9184 48.4615 19.1575C49.0256 19.387 49.6615 19.5639 50.369 19.6882L50.0679 20.6348ZM40.8314 12.0724L40.143 11.3983C40.5923 11.0254 41.0083 10.6238 41.3907 10.1935C41.7828 9.75369 42.127 9.29474 42.4234 8.81666C42.7198 8.32902 42.9636 7.84138 43.1548 7.35374L44.2018 7.54019C44.0584 7.95134 43.8767 8.36248 43.6568 8.77363C43.4369 9.17522 43.1835 9.57202 42.8967 9.96405C42.6098 10.3561 42.2943 10.729 41.9501 11.0827C41.6059 11.4365 41.233 11.7664 40.8314 12.0724ZM42.9971 9.26127V8.3577H47.9022V9.26127H42.9971ZM46.1381 11.4126L45.2919 10.8676C45.4831 10.6764 45.6791 10.466 45.8799 10.2366C46.0902 9.99751 46.2863 9.75847 46.4679 9.51943C46.6592 9.2804 46.8265 9.0557 46.9699 8.84534L47.9022 9.26127C47.6822 9.60549 47.4145 9.96883 47.099 10.3513C46.7835 10.7242 46.4631 11.078 46.1381 11.4126Z" fill="#F4F4F4"/>
</g>
<defs>
<filter id="filter0_di_2014_5356" x="0.638513" y="0.655405" width="72.723" height="30.723" filterUnits="userSpaceOnUse" color-interpolation-filters="sRGB">
<feFlood flood-opacity="0" result="BackgroundImageFix"/>
<feColorMatrix in="SourceAlpha" type="matrix" values="0 0 0 0 0 0 0 0 0 0 0 0 0 0 0 0 0 0 127 0" result="hardAlpha"/>
<feOffset dy="2.01689"/>
<feGaussianBlur stdDeviation="1.68074"/>
<feColorMatrix type="matrix" values="0 0 0 0 0 0 0 0 0 0 0 0 0 0 0 0 0 0 0.4 0"/>
<feBlend mode="normal" in2="BackgroundImageFix" result="effect1_dropShadow_2014_5356"/>
<feBlend mode="normal" in="SourceGraphic" in2="effect1_dropShadow_2014_5356" result="shape"/>
<feColorMatrix in="SourceAlpha" type="matrix" values="0 0 0 0 0 0 0 0 0 0 0 0 0 0 0 0 0 0 127 0" result="hardAlpha"/>
<feOffset dy="0.672297"/>
<feComposite in2="hardAlpha" operator="arithmetic" k2="-1" k3="1"/>
<feColorMatrix type="matrix" values="0 0 0 0 1 0 0 0 0 1 0 0 0 0 1 0 0 0 0.3 0"/>
<feBlend mode="normal" in2="shape" result="effect2_innerShadow_2014_5356"/>
</filter>
<filter id="filter1_d_2014_5356" x="22.9609" y="6.68122" width="27.4512" height="13.9535" filterUnits="userSpaceOnUse" color-interpolation-filters="sRGB">
<feFlood flood-opacity="0" result="BackgroundImageFix"/>
<feColorMatrix in="SourceAlpha" type="matrix" values="0 0 0 0 0 0 0 0 0 0 0 0 0 0 0 0 0 0 127 0" result="hardAlpha"/>
<feOffset dy="-0.672297"/>
<feColorMatrix type="matrix" values="0 0 0 0 0 0 0 0 0 0 0 0 0 0 0 0 0 0 0.7 0"/>
<feBlend mode="normal" in2="BackgroundImageFix" result="effect1_dropShadow_2014_5356"/>
<feBlend mode="normal" in="SourceGraphic" in2="effect1_dropShadow_2014_5356" result="shape"/>
</filter>
<linearGradient id="paint0_linear_2014_5356" x1="37" y1="2" x2="37" y2="26" gradientUnits="userSpaceOnUse">
<stop stop-color="#1D262D"/>
<stop offset="1" stop-color="#12161A"/>
</linearGradient>
<linearGradient id="paint1_linear_2014_5356" x1="37" y1="2" x2="37" y2="26" gradientUnits="userSpaceOnUse">
<stop stop-color="#414344"/>
<stop offset="1" stop-color="#2B2D2E"/>
</linearGradient>
</defs>
</svg>
