<svg width="19" height="24" viewBox="0 0 19 24" fill="none" xmlns="http://www.w3.org/2000/svg">
<g style="mix-blend-mode:multiply" opacity="0.5">
<path opacity="0.1" d="M18.1001 2.0502V0.450195H0.100098L0.300102 1.8502L7.5001 23.1502C7.7001 23.7502 8.5001 23.7502 8.7001 23.1502L18.1001 2.0502Z" fill="#E7E7E7"/>
<path opacity="0.1" d="M17.9002 2.0502V0.450195H0.200195L0.4002 1.8502L7.5002 22.9502C7.6002 23.5502 8.5002 23.5502 8.7002 22.9502L17.9002 2.0502Z" fill="#DBDBDB"/>
<path opacity="0.2" d="M17.6002 2.0502V0.450195H0.200195L0.4002 1.8502L7.4002 22.7502C7.6002 23.3502 8.4002 23.3502 8.6002 22.7502L17.7002 2.0502H17.6002Z" fill="#CECECE"/>
<path opacity="0.2" d="M17.4002 1.9502V0.450195H0.200195L0.4002 1.8502L7.4002 22.5502C7.6002 23.1502 8.4002 23.1502 8.6002 22.5502L17.4002 1.9502Z" fill="#C2C2C2"/>
<path opacity="0.3" d="M17.1998 1.9502V0.450195H0.299805L0.499802 1.8502L7.3998 22.3502C7.4998 22.8502 8.2998 22.8502 8.4998 22.3502L17.1998 1.9502Z" fill="#B6B6B6"/>
<path opacity="0.3" d="M16.8998 1.9502V0.450195H0.299805L0.499802 1.8502L7.2998 22.1502C7.4998 22.6502 8.2998 22.6502 8.4998 22.1502L16.9998 1.9502H16.8998Z" fill="#AAAAAA"/>
<path opacity="0.4" d="M16.6999 1.9502V0.450195H0.399902L0.499901 1.7502L7.2999 21.9502C7.4999 22.4502 8.1999 22.4502 8.3999 21.9502L16.6999 1.9502Z" fill="#9E9E9E"/>
<path opacity="0.4" d="M16.4999 1.9502V0.450195H0.399902L0.599899 1.7502L7.2999 21.7502C7.3999 22.2502 8.1999 22.2502 8.3999 21.7502L16.4999 1.9502Z" fill="#929292"/>
<path opacity="0.5" d="M16.3 1.8502V0.450195H0.5L0.599998 1.7502L7.2 21.5502C7.4 22.0502 8.1 22.0502 8.3 21.5502L16.3 1.8502Z" fill="#868686"/>
<path opacity="0.5" d="M16 1.8502V0.450195H0.5L0.599998 1.7502L7.2 21.3502C7.4 21.8502 8.1 21.8502 8.3 21.3502L16 1.8502Z" fill="#797979"/>
<path opacity="0.6" d="M15.8 1.8502V0.450195H0.5L0.599998 1.7502L7.2 21.1502C7.3 21.6502 8.1 21.6502 8.2 21.1502L15.8 1.8502Z" fill="#6D6D6D"/>
<path opacity="0.6" d="M15.6001 1.8502V0.450195H0.600098L0.700096 1.7502L7.1001 20.9502C7.3001 21.4502 8.0001 21.4502 8.2001 20.9502L15.6001 1.8502Z" fill="#616161"/>
<path opacity="0.7" d="M15.3001 1.8502V0.450195H0.600098L0.700096 1.7502L7.1001 20.7502C7.3001 21.2502 8.0001 21.2502 8.1001 20.7502L15.4001 1.8502H15.3001Z" fill="#555555"/>
<path opacity="0.7" d="M15.1002 1.7502V0.450195H0.700195V1.7502L7.1002 20.5502C7.2002 21.0502 7.9002 21.0502 8.1002 20.5502L15.1002 1.7502Z" fill="#494949"/>
<path opacity="0.8" d="M14.9002 1.7502V0.450195H0.700195L0.800201 1.7502L7.1002 20.3502C7.2002 20.7502 7.9002 20.7502 8.0002 20.3502L14.9002 1.7502Z" fill="#3D3D3D"/>
<path opacity="0.8" d="M14.5998 1.7502V0.450195H0.799805V1.7502L6.9998 20.1502C7.1998 20.5502 7.7998 20.5502 7.9998 20.1502L14.6998 1.7502H14.5998Z" fill="#313131"/>
<path opacity="0.9" d="M14.3998 1.7502V0.450195H0.799805V1.65019L6.9998 19.9502C7.0998 20.3502 7.7998 20.3502 7.8998 19.9502L14.3998 1.7502Z" fill="#242424"/>
<path opacity="0.9" d="M14.1998 1.7502V0.450195H0.799805L0.899803 1.65019L6.9998 19.7502C7.0998 20.1502 7.6998 20.1502 7.8998 19.7502L14.1998 1.7502Z" fill="#181818"/>
<path d="M13.8999 1.65019V0.450195H0.899902V1.65019L6.8999 19.5502C7.0999 19.9502 7.6999 19.9502 7.7999 19.5502L13.9999 1.65019H13.8999Z" fill="#0C0C0C"/>
<path d="M13.6999 1.65019V0.450195H0.899902V1.65019L6.8999 19.3502C6.9999 19.7502 7.5999 19.7502 7.7999 19.3502L13.6999 1.65019Z" fill="black"/>
</g>
<path d="M13.6999 1.65019V0.450195H0.899902V1.65019L6.8999 19.3502C6.9999 19.7502 7.5999 19.7502 7.7999 19.3502L13.6999 1.65019Z" fill="url(#paint0_linear_2002_18504)"/>
<path d="M0.899902 0.35L6.8999 18.45C6.9999 18.85 7.5999 18.85 7.7999 18.45L13.6999 0.35C9.63323 -0.116667 5.36657 -0.116667 0.899902 0.35Z" fill="url(#paint1_linear_2002_18504)"/>
<path d="M7.1999 18.4496L1.2999 0.349609H0.899902L6.8999 18.4496C6.9999 18.7496 7.2999 18.8496 7.4999 18.7496C7.36657 18.6829 7.26656 18.5829 7.1999 18.4496Z" fill="url(#paint2_linear_2002_18504)"/>
<g style="mix-blend-mode:multiply" opacity="0.3">
<path opacity="0.1" d="M13.0999 2.44999L13.6999 0.35C9.63323 -0.116667 5.36657 -0.116667 0.899902 0.35L1.5999 2.44999C5.53323 2.04999 9.36657 2.04999 13.0999 2.44999Z" fill="#F5F3F1"/>
<path opacity="0.1" d="M13.0999 2.35L13.6999 0.35C9.63323 -0.116667 5.36657 -0.116667 0.899902 0.35L1.5999 2.44999C5.4999 2.04999 9.3999 2.05 13.0999 2.35Z" fill="#F2F0EC"/>
<path opacity="0.1" d="M13.0999 2.35L13.6999 0.35C9.63323 -0.116667 5.36657 -0.116667 0.899902 0.35L1.5999 2.35C5.5999 2.05 9.3999 1.95 13.0999 2.35Z" fill="#EFECE8"/>
<path opacity="0.1" d="M13.0999 2.35L13.6999 0.35C9.63323 -0.116667 5.36657 -0.116667 0.899902 0.35L1.5999 2.35C5.5999 1.95 9.3999 1.95 13.0999 2.35Z" fill="#ECE8E3"/>
<path opacity="0.1" d="M13.0999 2.35L13.6999 0.35C9.63323 -0.116667 5.36657 -0.116667 0.899902 0.35L1.5999 2.35C5.5999 1.95 9.3999 1.95 13.0999 2.35Z" fill="#E9E4DF"/>
<path opacity="0.2" d="M13.0999 2.35L13.6999 0.35C9.63323 -0.116667 5.36657 -0.116667 0.899902 0.35L1.5999 2.35C5.5999 1.95 9.3999 1.95 13.0999 2.35Z" fill="#E5E0DA"/>
<path opacity="0.2" d="M13.0999 2.24999L13.6999 0.35C9.63323 -0.116667 5.36657 -0.116667 0.899902 0.35L1.5999 2.35C5.5999 1.95 9.3999 1.94999 13.0999 2.24999Z" fill="#E2DCD5"/>
<path opacity="0.2" d="M13.0999 2.24999L13.6999 0.35C9.63323 -0.116667 5.36657 -0.116667 0.899902 0.35L1.5999 2.24999C5.5999 1.94999 9.3999 1.84999 13.0999 2.24999Z" fill="#DFD9D1"/>
<path opacity="0.2" d="M13.0999 2.24999L13.6999 0.35C9.63323 -0.116667 5.36657 -0.116667 0.899902 0.35L1.5999 2.24999C5.5999 1.84999 9.3999 1.84999 13.0999 2.24999Z" fill="#DCD5CC"/>
<path opacity="0.2" d="M13.0999 2.24999L13.6999 0.35C9.63323 -0.116667 5.36657 -0.116667 0.899902 0.35L1.4999 2.24999C5.5999 1.84999 9.3999 1.84999 13.0999 2.24999Z" fill="#D9D1C7"/>
<path opacity="0.3" d="M13.0999 2.24999L13.6999 0.35C9.63323 -0.116667 5.36657 -0.116667 0.899902 0.35L1.4999 2.24999C5.5999 1.84999 9.3999 1.84999 13.0999 2.24999Z" fill="#D5CDC3"/>
<path opacity="0.3" d="M13.0999 2.14999L13.6999 0.35C9.63323 -0.116667 5.36657 -0.116667 0.899902 0.35L1.4999 2.24999C5.5999 1.84999 9.3999 1.74999 13.0999 2.14999Z" fill="#D2C9BE"/>
<path opacity="0.3" d="M13.0999 2.14999L13.6999 0.35C9.63323 -0.116667 5.36657 -0.116667 0.899902 0.35L1.4999 2.14999C5.5999 1.84999 9.3999 1.74999 13.0999 2.14999Z" fill="#CFC5B9"/>
<path opacity="0.3" d="M13.1999 2.14999L13.6999 0.35C9.63323 -0.116667 5.36657 -0.116667 0.899902 0.35L1.4999 2.14999C5.5999 1.74999 9.3999 1.74999 13.1999 2.14999Z" fill="#CCC1B5"/>
<path opacity="0.3" d="M13.1999 2.14999L13.6999 0.35C9.63323 -0.116667 5.36657 -0.116667 0.899902 0.35L1.4999 2.14999C5.5999 1.74999 9.3999 1.74999 13.1999 2.14999Z" fill="#C9BEB0"/>
<path opacity="0.3" d="M13.1999 2.14999L13.6999 0.35C9.63323 -0.116667 5.36657 -0.116667 0.899902 0.35L1.4999 2.14999C5.5999 1.74999 9.3999 1.74999 13.1999 2.14999Z" fill="#C6BAAC"/>
<path opacity="0.4" d="M13.1999 2.14999L13.6999 0.35C9.63323 -0.116667 5.36657 -0.116667 0.899902 0.35L1.4999 2.14999C5.5999 1.74999 9.3999 1.64999 13.1999 2.14999Z" fill="#C2B6A7"/>
<path opacity="0.4" d="M13.1999 2.05L13.6999 0.35C9.63323 -0.116667 5.36657 -0.116667 0.899902 0.35L1.4999 2.14999C5.5999 1.74999 9.3999 1.65 13.1999 2.05Z" fill="#BFB2A2"/>
<path opacity="0.4" d="M13.1999 2.05L13.6999 0.35C9.63323 -0.116667 5.36657 -0.116667 0.899902 0.35L1.4999 2.05C5.5999 1.65 9.3999 1.65 13.1999 2.05Z" fill="#BCAE9E"/>
<path opacity="0.4" d="M13.1999 2.05L13.6999 0.35C9.63323 -0.116667 5.36657 -0.116667 0.899902 0.35L1.4999 2.05C5.5999 1.65 9.3999 1.65 13.1999 2.05Z" fill="#B9AA99"/>
<path opacity="0.4" d="M13.1999 2.05L13.6999 0.35C9.63323 -0.116667 5.36657 -0.116667 0.899902 0.35L1.4999 2.05C5.5999 1.65 9.3999 1.65 13.1999 2.05Z" fill="#B6A794"/>
<path opacity="0.5" d="M13.1999 2.05L13.6999 0.35C9.63323 -0.116667 5.36657 -0.116667 0.899902 0.35L1.4999 2.05C5.5999 1.65 9.3999 1.55 13.1999 2.05Z" fill="#B2A390"/>
<path opacity="0.5" d="M13.1999 1.94999L13.6999 0.35C9.63323 -0.116667 5.36657 -0.116667 0.899902 0.35L1.4999 2.05C5.5999 1.65 9.3999 1.54999 13.1999 1.94999Z" fill="#AF9F8B"/>
<path opacity="0.5" d="M13.1999 1.94999L13.6999 0.35C9.63323 -0.116667 5.36657 -0.116667 0.899902 0.35L1.4999 1.94999C5.5999 1.54999 9.3999 1.54999 13.1999 1.94999Z" fill="#AC9B87"/>
<path opacity="0.5" d="M13.1999 1.94999L13.6999 0.35C9.63323 -0.116667 5.36657 -0.116667 0.899902 0.35L1.4999 1.94999C5.5999 1.54999 9.3999 1.54999 13.1999 1.94999Z" fill="#A99782"/>
<path opacity="0.5" d="M13.1999 1.94999L13.6999 0.35C9.63323 -0.116667 5.36657 -0.116667 0.899902 0.35L1.4999 1.94999C5.5999 1.54999 9.3999 1.54999 13.1999 1.94999Z" fill="#A6937D"/>
<path opacity="0.6" d="M13.1999 1.94999L13.6999 0.35C9.63323 -0.116667 5.36657 -0.116667 0.899902 0.35L1.4999 1.94999C5.5999 1.54999 9.3999 1.44999 13.1999 1.94999Z" fill="#A28F79"/>
<path opacity="0.6" d="M13.1999 1.85L13.6999 0.35C9.63323 -0.116667 5.36657 -0.116667 0.899902 0.35L1.3999 1.94999C5.5999 1.54999 9.3999 1.45 13.1999 1.85Z" fill="#9F8C74"/>
<path opacity="0.6" d="M13.2999 1.85L13.6999 0.35C9.63323 -0.116667 5.36657 -0.116667 0.899902 0.35L1.3999 1.85C5.5999 1.45 9.3999 1.45 13.2999 1.85Z" fill="#9C886F"/>
<path opacity="0.6" d="M13.2999 1.85L13.6999 0.35C9.63323 -0.116667 5.36657 -0.116667 0.899902 0.35L1.3999 1.85C5.5999 1.45 9.3999 1.45 13.2999 1.85Z" fill="#99846B"/>
<path opacity="0.6" d="M13.2999 1.85L13.6999 0.35C9.63323 -0.116667 5.36657 -0.116667 0.899902 0.35L1.3999 1.85C5.5999 1.45 9.3999 1.45 13.2999 1.85Z" fill="#968066"/>
<path opacity="0.7" d="M13.2999 1.85L13.6999 0.35C9.63323 -0.116667 5.36657 -0.116667 0.899902 0.35L1.3999 1.85C5.5999 1.45 9.3999 1.35 13.2999 1.85Z" fill="#927C61"/>
<path opacity="0.7" d="M13.2999 1.74999L13.6999 0.35C9.63323 -0.116667 5.36657 -0.116667 0.899902 0.35L1.3999 1.85C5.5999 1.45 9.3999 1.34999 13.2999 1.74999Z" fill="#8F785D"/>
<path opacity="0.7" d="M13.2999 1.74999L13.6999 0.35C9.63323 -0.116667 5.36657 -0.116667 0.899902 0.35L1.3999 1.85C5.5999 1.35 9.3999 1.34999 13.2999 1.74999Z" fill="#8C7558"/>
<path opacity="0.7" d="M13.2999 1.74999L13.6999 0.35C9.63323 -0.116667 5.36657 -0.116667 0.899902 0.35L1.3999 1.74999C5.5999 1.34999 9.3999 1.34999 13.2999 1.74999Z" fill="#897154"/>
<path opacity="0.7" d="M13.2999 1.74999L13.6999 0.35C9.63323 -0.116667 5.36657 -0.116667 0.899902 0.35L1.3999 1.74999C5.5999 1.34999 9.3999 1.24999 13.2999 1.74999Z" fill="#866D4F"/>
<path opacity="0.7" d="M13.2999 1.74999L13.6999 0.35C9.63323 -0.116667 5.36657 -0.116667 0.899902 0.35L1.3999 1.74999C5.5999 1.34999 9.3999 1.24999 13.2999 1.74999Z" fill="#83694A"/>
<path opacity="0.8" d="M13.2999 1.64999L13.6999 0.35C9.63323 -0.116667 5.36657 -0.116667 0.899902 0.35L1.3999 1.74999C5.5999 1.34999 9.3999 1.24999 13.2999 1.64999Z" fill="#7F6546"/>
<path opacity="0.8" d="M13.2999 1.64999L13.6999 0.35C9.63323 -0.116667 5.36657 -0.116667 0.899902 0.35L1.3999 1.74999C5.5999 1.24999 9.3999 1.24999 13.2999 1.64999Z" fill="#7C6141"/>
<path opacity="0.8" d="M13.2999 1.64999L13.6999 0.35C9.63323 -0.116667 5.36657 -0.116667 0.899902 0.35L1.3999 1.64999C5.5999 1.24999 9.3999 1.24999 13.2999 1.64999Z" fill="#795D3C"/>
<path opacity="0.8" d="M13.2999 1.64999L13.6999 0.35C9.63323 -0.116667 5.36657 -0.116667 0.899902 0.35L1.3999 1.64999C5.5999 1.24999 9.3999 1.14999 13.2999 1.64999Z" fill="#765A38"/>
<path opacity="0.8" d="M13.2999 1.64999L13.6999 0.35C9.63323 -0.116667 5.36657 -0.116667 0.899902 0.35L1.3999 1.64999C5.5999 1.24999 9.3999 1.14999 13.2999 1.64999Z" fill="#735633"/>
<path opacity="0.9" d="M13.2999 1.55L13.6999 0.35C9.63323 -0.116667 5.36657 -0.116667 0.899902 0.35L1.3999 1.64999C5.5999 1.14999 9.3999 1.15 13.2999 1.55Z" fill="#6F522E"/>
<path opacity="0.9" d="M13.3999 1.55L13.6999 0.35C9.63323 -0.116667 5.36657 -0.116667 0.899902 0.35L1.3999 1.64999C5.5999 1.14999 9.3999 1.15 13.3999 1.55Z" fill="#6C4E2A"/>
<path opacity="0.9" d="M13.3999 1.55L13.6999 0.35C9.63323 -0.116667 5.36657 -0.116667 0.899902 0.35L1.2999 1.55C5.5999 1.15 9.3999 1.15 13.3999 1.55Z" fill="#694A25"/>
<path opacity="0.9" d="M13.3999 1.55L13.6999 0.35C9.63323 -0.116667 5.36657 -0.116667 0.899902 0.35L1.2999 1.55C5.5999 1.15 9.3999 1.05 13.3999 1.55Z" fill="#664621"/>
<path opacity="0.9" d="M13.3999 1.55L13.6999 0.35C9.63323 -0.116667 5.36657 -0.116667 0.899902 0.35L1.2999 1.55C5.5999 1.15 9.3999 1.05 13.3999 1.55Z" fill="#63431C"/>
<path d="M13.3999 1.44999L13.6999 0.35C9.63323 -0.116667 5.36657 -0.116667 0.899902 0.35L1.2999 1.55C5.5999 1.05 9.3999 1.04999 13.3999 1.44999Z" fill="#5F3F17"/>
<path d="M13.3999 1.44999L13.6999 0.35C9.63323 -0.116667 5.36657 -0.116667 0.899902 0.35L1.2999 1.55C5.5999 1.05 9.3999 1.04999 13.3999 1.44999Z" fill="#5C3B13"/>
<path d="M13.3999 1.44999L13.6999 0.35C9.63323 -0.116667 5.36657 -0.116667 0.899902 0.35L1.2999 1.55C5.5999 1.05 9.3999 1.04999 13.3999 1.44999Z" fill="#59370E"/>
</g>
<defs>
<linearGradient id="paint0_linear_2002_18504" x1="0.927902" y1="0.482195" x2="13.7349" y2="0.482195" gradientUnits="userSpaceOnUse">
<stop stop-color="#D98A36"/>
<stop offset="0.488" stop-color="#FFBC36"/>
<stop offset="0.519" stop-color="#BD7639"/>
<stop offset="1" stop-color="#A87927"/>
</linearGradient>
<linearGradient id="paint1_linear_2002_18504" x1="0.927902" y1="0.037" x2="13.7349" y2="0.037" gradientUnits="userSpaceOnUse">
<stop stop-color="#FFD962"/>
<stop offset="1" stop-color="#FF8921"/>
</linearGradient>
<linearGradient id="paint2_linear_2002_18504" x1="0.927902" y1="0.389609" x2="7.5009" y2="0.389609" gradientUnits="userSpaceOnUse">
<stop stop-color="#FFDA62"/>
<stop offset="1" stop-color="#FFFCFA"/>
</linearGradient>
</defs>
</svg>
