<svg width="144" height="144" viewBox="0 0 144 144" fill="none" xmlns="http://www.w3.org/2000/svg">
<g style="mix-blend-mode:multiply" opacity="0.5">
<path opacity="0.1" fill-rule="evenodd" clip-rule="evenodd" d="M143.9 71.8C143.9 111.4 111.7 143.5 71.9 143.5C32.2 143.5 0 111.4 0 71.8C0 32.1 32.2 0 71.9 0C111.7 0 143.9 32.1 143.9 71.8ZM126.7 71.8C126.7 41.6 102.2 17.2 71.9 17.2C41.7 17.2 17.2 41.6 17.2 71.8C17.2 101.9 41.7 126.3 71.9 126.3C102.2 126.3 126.7 101.9 126.7 71.8Z" fill="#E7E7E7"/>
<path opacity="0.1" fill-rule="evenodd" clip-rule="evenodd" d="M143.9 71.8C143.9 111.4 111.7 143.5 71.9 143.5C32.2 143.5 0 111.4 0 71.8C0 32.1 32.2 0 71.9 0C111.7 0 143.9 32.1 143.9 71.8ZM127.4 71.8C127.4 41.2 102.6 16.4 71.9 16.4C41.3 16.4 16.4 41.2 16.4 71.8C16.4 102.3 41.3 127.1 71.9 127.1C102.6 127.1 127.4 102.3 127.4 71.8Z" fill="#DBDBDB"/>
<path opacity="0.2" fill-rule="evenodd" clip-rule="evenodd" d="M143.9 71.8C143.9 111.4 111.7 143.5 71.9 143.5C32.2 143.5 0 111.4 0 71.8C0 32.1 32.2 0 71.9 0C111.7 0 143.9 32.1 143.9 71.8ZM128.2 71.8C128.2 40.8 103 15.7 71.9 15.7C40.9 15.7 15.7 40.8 15.7 71.8C15.7 102.7 40.9 127.9 71.9 127.9C103 127.9 128.2 102.7 128.2 71.8Z" fill="#CECECE"/>
<path opacity="0.2" fill-rule="evenodd" clip-rule="evenodd" d="M143.9 71.8C143.9 111.4 111.7 143.5 71.9 143.5C32.2 143.5 0 111.4 0 71.8C0 32.1 32.2 0 71.9 0C111.7 0 143.9 32.1 143.9 71.8ZM129 71.8C129 40.4 103.4 14.9 71.9 14.9C40.4 14.9 14.9 40.4 14.9 71.8C14.9 103.2 40.4 128.6 71.9 128.6C103.4 128.6 129 103.2 129 71.8Z" fill="#C2C2C2"/>
<path opacity="0.3" fill-rule="evenodd" clip-rule="evenodd" d="M143.9 71.8C143.9 111.4 111.7 143.5 71.9 143.5C32.2 143.5 0 111.4 0 71.8C0 32.1 32.2 0 71.9 0C111.7 0 143.9 32.1 143.9 71.8ZM129.7 71.8C129.7 39.9 103.8 14.1 71.9 14.1C40 14.1 14.1 39.9 14.1 71.8C14.1 103.6 40 129.4 71.9 129.4C103.8 129.4 129.7 103.6 129.7 71.8Z" fill="#B6B6B6"/>
<path opacity="0.3" fill-rule="evenodd" clip-rule="evenodd" d="M143.9 71.8C143.9 111.4 111.7 143.5 71.9 143.5C32.2 143.5 0 111.4 0 71.8C0 32.1 32.2 0 71.9 0C111.7 0 143.9 32.1 143.9 71.8ZM130.5 71.8C130.5 39.5 104.3 13.4 71.9 13.4C39.6 13.4 13.4 39.5 13.4 71.8C13.4 104 39.6 130.2 71.9 130.2C104.3 130.2 130.5 104 130.5 71.8Z" fill="#AAAAAA"/>
<path opacity="0.4" fill-rule="evenodd" clip-rule="evenodd" d="M143.9 71.8C143.9 111.4 111.7 143.5 71.9 143.5C32.2 143.5 0 111.4 0 71.8C0 32.1 32.2 0 71.9 0C111.7 0 143.9 32.1 143.9 71.8ZM131.3 71.8C131.3 39.1 104.7 12.6 71.9 12.6C39.2 12.6 12.6 39.1 12.6 71.8C12.6 104.4 39.2 130.9 71.9 130.9C104.7 130.9 131.3 104.4 131.3 71.8Z" fill="#9E9E9E"/>
<path opacity="0.4" fill-rule="evenodd" clip-rule="evenodd" d="M143.9 71.8C143.9 111.4 111.7 143.5 71.9 143.5C32.2 143.5 0 111.4 0 71.8C0 32.1 32.2 0 71.9 0C111.7 0 143.9 32.1 143.9 71.8ZM132 71.8C132 38.7 105.1 11.8 71.9 11.8C38.7 11.8 11.8 38.7 11.8 71.8C11.8 104.9 38.7 131.7 71.9 131.7C105.1 131.7 132 104.9 132 71.8Z" fill="#929292"/>
<path opacity="0.5" fill-rule="evenodd" clip-rule="evenodd" d="M143.9 71.8C143.9 111.4 111.7 143.5 71.9 143.5C32.2 143.5 0 111.4 0 71.8C0 32.1 32.2 0 71.9 0C111.7 0 143.9 32.1 143.9 71.8ZM132.8 71.8C132.8 38.2 105.5 11.1 71.9 11.1C38.3 11.1 11.1 38.2 11.1 71.8C11.1 105.3 38.3 132.4 71.9 132.4C105.5 132.4 132.8 105.3 132.8 71.8Z" fill="#868686"/>
<path opacity="0.5" fill-rule="evenodd" clip-rule="evenodd" d="M143.9 71.8C143.9 111.4 111.7 143.5 71.9 143.5C32.2 143.5 0 111.4 0 71.8C0 32.1 32.2 0 71.9 0C111.7 0 143.9 32.1 143.9 71.8ZM133.5 71.8C133.5 37.8 106 10.3 71.9 10.3C37.9 10.3 10.3 37.8 10.3 71.8C10.3 105.7 37.9 133.2 71.9 133.2C106 133.2 133.5 105.7 133.5 71.8Z" fill="#797979"/>
<path opacity="0.6" fill-rule="evenodd" clip-rule="evenodd" d="M143.9 71.8C143.9 111.4 111.7 143.5 71.9 143.5C32.2 143.5 0 111.4 0 71.8C0 32.1 32.2 0 71.9 0C111.7 0 143.9 32.1 143.9 71.8ZM134.3 71.8C134.3 37.4 106.4 9.59999 71.9 9.59999C37.5 9.59999 9.5 37.4 9.5 71.8C9.5 106.1 37.5 134 71.9 134C106.4 134 134.3 106.1 134.3 71.8Z" fill="#6D6D6D"/>
<path opacity="0.6" fill-rule="evenodd" clip-rule="evenodd" d="M143.9 71.8C143.9 111.4 111.7 143.5 71.9 143.5C32.2 143.5 0 111.4 0 71.8C0 32.1 32.2 0 71.9 0C111.7 0 143.9 32.1 143.9 71.8ZM135.1 71.8C135.1 37 106.8 8.8 71.9 8.8C37.1 8.8 8.8 37 8.8 71.8C8.8 106.5 37.1 134.7 71.9 134.7C106.8 134.7 135.1 106.5 135.1 71.8Z" fill="#616161"/>
<path opacity="0.7" fill-rule="evenodd" clip-rule="evenodd" d="M143.9 71.8C143.9 111.4 111.7 143.5 71.9 143.5C32.2 143.5 0 111.4 0 71.8C0 32.1 32.2 0 71.9 0C111.7 0 143.9 32.1 143.9 71.8ZM135.8 71.8C135.8 36.6 107.2 8 71.9 8C36.6 8 8 36.6 8 71.8C8 107 36.6 135.5 71.9 135.5C107.2 135.5 135.8 107 135.8 71.8Z" fill="#555555"/>
<path opacity="0.7" fill-rule="evenodd" clip-rule="evenodd" d="M143.9 71.8C143.9 111.4 111.7 143.5 71.9 143.5C32.2 143.5 0 111.4 0 71.8C0 32.1 32.2 0 71.9 0C111.7 0 143.9 32.1 143.9 71.8ZM136.6 71.8C136.6 36.1 107.6 7.3 71.9 7.3C36.2 7.3 7.3 36.1 7.3 71.8C7.3 107.4 36.2 136.3 71.9 136.3C107.6 136.3 136.6 107.4 136.6 71.8Z" fill="#494949"/>
<path opacity="0.8" fill-rule="evenodd" clip-rule="evenodd" d="M143.9 71.8C143.9 111.4 111.7 143.5 71.9 143.5C32.2 143.5 0 111.4 0 71.8C0 32.1 32.2 0 71.9 0C111.7 0 143.9 32.1 143.9 71.8ZM137.4 71.8C137.4 35.7 108.1 6.5 71.9 6.5C35.8 6.5 6.5 35.7 6.5 71.8C6.5 107.8 35.8 137 71.9 137C108.1 137 137.4 107.8 137.4 71.8Z" fill="#3D3D3D"/>
<path opacity="0.8" fill-rule="evenodd" clip-rule="evenodd" d="M143.9 71.8C143.9 111.4 111.7 143.5 71.9 143.5C32.2 143.5 0 111.4 0 71.8C0 32.1 32.2 0 71.9 0C111.7 0 143.9 32.1 143.9 71.8ZM138.1 71.8C138.1 35.3 108.5 5.7 71.9 5.7C35.4 5.7 5.7 35.3 5.7 71.8C5.7 108.2 35.4 137.8 71.9 137.8C108.5 137.8 138.1 108.2 138.1 71.8Z" fill="#313131"/>
<path opacity="0.9" fill-rule="evenodd" clip-rule="evenodd" d="M143.9 71.8C143.9 111.4 111.7 143.5 71.9 143.5C32.2 143.5 0 111.4 0 71.8C0 32.1 32.2 0 71.9 0C111.7 0 143.9 32.1 143.9 71.8ZM138.9 71.8C138.9 34.9 108.9 5 71.9 5C34.9 5 5 34.9 5 71.8C5 108.6 34.9 138.5 71.9 138.5C108.9 138.5 138.9 108.6 138.9 71.8Z" fill="#242424"/>
<path opacity="0.9" fill-rule="evenodd" clip-rule="evenodd" d="M143.9 71.8C143.9 111.4 111.7 143.5 71.9 143.5C32.2 143.5 0 111.4 0 71.8C0 32.1 32.2 0 71.9 0C111.7 0 143.9 32.1 143.9 71.8ZM139.7 71.8C139.7 34.5 109.3 4.2 71.9 4.2C34.5 4.2 4.2 34.5 4.2 71.8C4.2 109.1 34.5 139.3 71.9 139.3C109.3 139.3 139.7 109.1 139.7 71.8Z" fill="#181818"/>
<path fill-rule="evenodd" clip-rule="evenodd" d="M143.9 71.8C143.9 111.4 111.7 143.5 71.9 143.5C32.2 143.5 0 111.4 0 71.8C0 32.1 32.2 0 71.9 0C111.7 0 143.9 32.1 143.9 71.8ZM140.4 71.8C140.4 34 109.8 3.5 71.9 3.5C34.1 3.5 3.4 34 3.4 71.8C3.4 109.5 34.1 140.1 71.9 140.1C109.8 140.1 140.4 109.5 140.4 71.8Z" fill="#0C0C0C"/>
<path fill-rule="evenodd" clip-rule="evenodd" d="M143.9 71.8C143.9 111.4 111.7 143.5 71.9 143.5C32.2 143.5 0 111.4 0 71.8C0 32.1 32.2 0 71.9 0C111.7 0 143.9 32.1 143.9 71.8ZM141.2 71.8C141.2 33.6 110.2 2.7 71.9 2.7C33.7 2.7 2.7 33.6 2.7 71.8C2.7 109.9 33.7 140.8 71.9 140.8C110.2 140.8 141.2 109.9 141.2 71.8Z" fill="black"/>
</g>
</svg>
