<svg width="201" height="200" viewBox="0 0 201 200" fill="none" xmlns="http://www.w3.org/2000/svg">
<g style="mix-blend-mode:screen">
<path opacity="0.1" d="M199.2 100.1C199.2 154.3 155.2 198.2 100.8 198.2C46.4999 198.2 2.3999 154.3 2.3999 100.1C2.3999 45.9004 46.4999 1.90039 100.8 1.90039C155.2 1.90039 199.2 45.9004 199.2 100.1Z" fill="#100C05"/>
<path opacity="0.1" d="M198.5 100.1C198.5 153.8 154.8 197.4 100.8 197.4C46.8997 197.4 3.19971 153.8 3.19971 100.1C3.19971 46.3002 46.8997 2.7002 100.8 2.7002C154.8 2.7002 198.5 46.3002 198.5 100.1Z" fill="#191207"/>
<path opacity="0.1" d="M197.7 100.1C197.7 153.4 154.3 196.7 100.8 196.7C47.3 196.7 4 153.4 4 100.1C4 46.7 47.3 3.5 100.8 3.5C154.3 3.5 197.7 46.7 197.7 100.1Z" fill="#21190A"/>
<path opacity="0.2" d="M196.9 100.1C196.9 153 153.9 195.9 100.8 195.9C47.7997 195.9 4.69971 153 4.69971 100.1C4.69971 47.1002 47.7997 4.2002 100.8 4.2002C153.9 4.2002 196.9 47.1002 196.9 100.1Z" fill="#291F0C"/>
<path opacity="0.2" d="M196.2 100.1C196.2 152.6 153.5 195.1 100.8 195.1C48.2 195.1 5.5 152.6 5.5 100.1C5.5 47.6 48.2 5 100.8 5C153.5 5 196.2 47.6 196.2 100.1Z" fill="#31250F"/>
<path opacity="0.2" d="M195.4 100.101C195.4 152.101 153 194.301 100.8 194.301C48.5998 194.301 6.2998 152.101 6.2998 100.101C6.2998 48.0008 48.5998 5.80078 100.8 5.80078C153 5.80078 195.4 48.0008 195.4 100.101Z" fill="#3A2B11"/>
<path opacity="0.3" d="M194.6 100.1C194.6 151.7 152.6 193.6 100.8 193.6C49 193.6 7 151.7 7 100.1C7 48.4 49 6.5 100.8 6.5C152.6 6.5 194.6 48.4 194.6 100.1Z" fill="#423114"/>
<path opacity="0.3" d="M193.8 100.101C193.8 151.301 152.2 192.801 100.8 192.801C49.4998 192.801 7.7998 151.301 7.7998 100.101C7.7998 48.8008 49.4998 7.30078 100.8 7.30078C152.2 7.30078 193.8 48.8008 193.8 100.101Z" fill="#4A3716"/>
<path opacity="0.3" d="M193.1 100.101C193.1 150.901 151.8 192.001 100.8 192.001C49.9001 192.001 8.6001 150.901 8.6001 100.101C8.6001 49.3006 49.9001 8.10059 100.8 8.10059C151.8 8.10059 193.1 49.3006 193.1 100.101Z" fill="#523E19"/>
<path opacity="0.4" d="M192.3 100.1C192.3 150.4 151.3 191.3 100.8 191.3C50.2999 191.3 9.3999 150.4 9.3999 100.1C9.3999 49.7004 50.2999 8.90039 100.8 8.90039C151.3 8.90039 192.3 49.7004 192.3 100.1Z" fill="#5A441B"/>
<path opacity="0.4" d="M191.5 100.101C191.5 150.001 150.9 190.501 100.8 190.501C50.7001 190.501 10.1001 150.001 10.1001 100.101C10.1001 50.1006 50.7001 9.60059 100.8 9.60059C150.9 9.60059 191.5 50.1006 191.5 100.101Z" fill="#634A1E"/>
<path opacity="0.4" d="M190.8 100.1C190.8 149.6 150.5 189.7 100.8 189.7C51.1999 189.7 10.8999 149.6 10.8999 100.1C10.8999 50.5004 51.1999 10.4004 100.8 10.4004C150.5 10.4004 190.8 50.5004 190.8 100.1Z" fill="#6B5020"/>
<path opacity="0.5" d="M190 100.1C190 149.2 150.1 189 100.8 189C51.5997 189 11.6997 149.2 11.6997 100.1C11.6997 51.0002 51.5997 11.2002 100.8 11.2002C150.1 11.2002 190 51.0002 190 100.1Z" fill="#735623"/>
<path opacity="0.5" d="M189.2 100.1C189.2 148.7 149.6 188.2 100.8 188.2C51.9999 188.2 12.3999 148.7 12.3999 100.1C12.3999 51.4004 51.9999 11.9004 100.8 11.9004C149.6 11.9004 189.2 51.4004 189.2 100.1Z" fill="#7B5C25"/>
<path opacity="0.5" d="M188.4 100.1C188.4 148.3 149.2 187.4 100.8 187.4C52.3997 187.4 13.1997 148.3 13.1997 100.1C13.1997 51.8002 52.3997 12.7002 100.8 12.7002C149.2 12.7002 188.4 51.8002 188.4 100.1Z" fill="#846328"/>
<path opacity="0.5" d="M187.7 100.1C187.7 147.9 148.8 186.7 100.8 186.7C52.9 186.7 14 147.9 14 100.1C14 52.2 52.9 13.5 100.8 13.5C148.8 13.5 187.7 52.2 187.7 100.1Z" fill="#8C692A"/>
<path opacity="0.6" d="M186.9 100.1C186.9 147.5 148.4 185.9 100.8 185.9C53.2998 185.9 14.7998 147.5 14.7998 100.1C14.7998 52.7002 53.2998 14.2002 100.8 14.2002C148.4 14.2002 186.9 52.7002 186.9 100.1Z" fill="#946F2D"/>
<path opacity="0.6" d="M186.1 100.1C186.1 147 147.9 185.1 100.8 185.1C53.7 185.1 15.5 147 15.5 100.1C15.5 53.1 53.7 15 100.8 15C147.9 15 186.1 53.1 186.1 100.1Z" fill="#9C752F"/>
<path opacity="0.6" d="M185.4 100.101C185.4 146.601 147.5 184.301 100.8 184.301C54.0998 184.301 16.2998 146.601 16.2998 100.101C16.2998 53.5008 54.0998 15.8008 100.8 15.8008C147.5 15.8008 185.4 53.5008 185.4 100.101Z" fill="#A57B32"/>
<path opacity="0.7" d="M184.6 100.1C184.6 146.2 147.1 183.6 100.8 183.6C54.6001 183.6 17.1001 146.2 17.1001 100.1C17.1001 53.9 54.6001 16.5 100.8 16.5C147.1 16.5 184.6 53.9 184.6 100.1Z" fill="#AD8134"/>
<path opacity="0.7" d="M183.8 100.101C183.8 145.801 146.7 182.801 100.8 182.801C54.9998 182.801 17.7998 145.801 17.7998 100.101C17.7998 54.4008 54.9998 17.3008 100.8 17.3008C146.7 17.3008 183.8 54.4008 183.8 100.101Z" fill="#B58837"/>
<path opacity="0.7" d="M183 100.101C183 145.301 146.2 182.001 100.8 182.001C55.4001 182.001 18.6001 145.301 18.6001 100.101C18.6001 54.8006 55.4001 18.1006 100.8 18.1006C146.2 18.1006 183 54.8006 183 100.101Z" fill="#BD8E39"/>
<path opacity="0.8" d="M182.3 100.1C182.3 144.9 145.8 181.3 100.8 181.3C55.8999 181.3 19.3999 144.9 19.3999 100.1C19.3999 55.2004 55.8999 18.9004 100.8 18.9004C145.8 18.9004 182.3 55.2004 182.3 100.1Z" fill="#C5943C"/>
<path opacity="0.8" d="M181.5 100.101C181.5 144.501 145.4 180.501 100.8 180.501C56.2997 180.501 20.1997 144.501 20.1997 100.101C20.1997 55.6006 56.2997 19.6006 100.8 19.6006C145.4 19.6006 181.5 55.6006 181.5 100.101Z" fill="#CE9A3E"/>
<path opacity="0.8" d="M180.7 100.1C180.7 144.1 145 179.7 100.8 179.7C56.6999 179.7 20.8999 144.1 20.8999 100.1C20.8999 56.1004 56.6999 20.4004 100.8 20.4004C145 20.4004 180.7 56.1004 180.7 100.1Z" fill="#D6A041"/>
<path opacity="0.9" d="M180 100.1C180 143.6 144.5 179 100.8 179C57.0997 179 21.6997 143.6 21.6997 100.1C21.6997 56.5002 57.0997 21.2002 100.8 21.2002C144.5 21.2002 180 56.5002 180 100.1Z" fill="#DEA643"/>
</g>
</svg>
