<svg width="15" height="9" viewBox="0 0 15 9" fill="none" xmlns="http://www.w3.org/2000/svg">
<rect width="14.6182" height="8.22273" transform="translate(0.000488281 0.59082)" fill="white"/>
<path d="M2.14533 3.02921H7.01416V3.70756H2.14533V3.02921ZM4.95722 3.30274C5.06663 3.7185 5.21798 4.10691 5.41128 4.46797C5.60457 4.82903 5.84345 5.1445 6.12792 5.41438C6.41604 5.68427 6.75157 5.89762 7.13451 6.05444C7.07981 6.10185 7.02145 6.16203 6.95945 6.23497C6.9011 6.30791 6.84275 6.38268 6.78439 6.45927C6.72969 6.5395 6.6841 6.61062 6.64763 6.67262C6.22822 6.47568 5.86716 6.22221 5.56445 5.91221C5.26539 5.60221 5.01375 5.24115 4.80951 4.82903C4.60528 4.41327 4.43386 3.95556 4.29528 3.45591L4.95722 3.30274ZM4.20228 1.55762H4.91892C4.91528 1.83479 4.90616 2.12838 4.89157 2.43838C4.88063 2.74474 4.85328 3.05656 4.80951 3.37385C4.76575 3.69115 4.69463 4.00662 4.59616 4.32027C4.50133 4.63027 4.36639 4.92932 4.19133 5.21744C4.01992 5.50191 3.79745 5.76815 3.52392 6.01615C3.25404 6.26415 2.92398 6.48297 2.53375 6.67262C2.48269 6.58509 2.41157 6.48844 2.32039 6.38268C2.22922 6.27691 2.13622 6.18938 2.04139 6.12009C2.41339 5.95232 2.72522 5.75903 2.97686 5.54021C3.22851 5.31774 3.43275 5.07885 3.58957 4.82356C3.75004 4.56462 3.87222 4.29656 3.9561 4.01938C4.03998 3.73856 4.09651 3.45591 4.12569 3.17144C4.15851 2.88697 4.17857 2.60797 4.18586 2.33444C4.19316 2.06091 4.19863 1.80197 4.20228 1.55762ZM7.59404 4.67038H12.4957V5.2448H7.59404V4.67038ZM9.71116 4.34215H10.395C10.3695 4.59015 10.3293 4.81991 10.2746 5.03144C10.2199 5.23932 10.1397 5.4308 10.0339 5.60585C9.92816 5.78091 9.78228 5.93774 9.59628 6.07632C9.41392 6.21127 9.17686 6.3298 8.8851 6.43191C8.59698 6.53403 8.24322 6.61791 7.82381 6.68356C7.80192 6.59968 7.75998 6.50303 7.69798 6.39362C7.63598 6.28421 7.57398 6.19668 7.51198 6.13103C7.89128 6.07997 8.20675 6.01797 8.45839 5.94503C8.71004 5.86844 8.91428 5.77909 9.0711 5.67697C9.22792 5.57121 9.34828 5.45268 9.43216 5.32138C9.51604 5.19009 9.57622 5.04421 9.61269 4.88374C9.65281 4.71962 9.68563 4.53909 9.71116 4.34215ZM10.4333 5.12444C10.6047 5.4235 10.8746 5.6478 11.2429 5.79732C11.6113 5.94685 12.0745 6.03985 12.6325 6.07632C12.5887 6.12009 12.5413 6.17662 12.4902 6.24591C12.4392 6.31521 12.3917 6.38632 12.348 6.45927C12.3042 6.53221 12.2696 6.59968 12.244 6.66168C11.8356 6.61062 11.4782 6.52856 11.1718 6.4155C10.8691 6.30609 10.6102 6.15474 10.395 5.96144C10.1798 5.76815 9.99745 5.52927 9.84792 5.2448L10.4333 5.12444ZM7.59404 2.08827L8.08092 1.82568C8.17575 1.94238 8.27057 2.07732 8.36539 2.2305C8.46022 2.38003 8.52769 2.51132 8.56781 2.62438L8.0481 2.9198C8.00798 2.80674 7.94416 2.6718 7.85663 2.51497C7.77275 2.35815 7.68522 2.21591 7.59404 2.08827ZM8.69363 1.55215H9.32822V4.34762H8.69363V1.55215ZM7.4901 3.49421C7.65786 3.41762 7.86028 3.31915 8.09734 3.1988C8.33439 3.0748 8.57692 2.94532 8.82492 2.81038L8.99451 3.32462C8.79028 3.45591 8.57875 3.58538 8.35992 3.71303C8.14475 3.84068 7.94416 3.95921 7.75816 4.06862L7.4901 3.49421ZM10.0613 2.99638L10.5263 2.71191C10.6065 2.77756 10.6886 2.85232 10.7725 2.93621C10.8563 3.02009 10.9366 3.10215 11.0132 3.18238C11.0897 3.26262 11.1499 3.33738 11.1937 3.40668L10.7013 3.72397C10.6576 3.65468 10.601 3.57809 10.5317 3.49421C10.4625 3.40668 10.3859 3.32097 10.302 3.23709C10.2181 3.14956 10.1379 3.06932 10.0613 2.99638ZM10.3731 2.00621H12.0526V2.55327H10.3731V2.00621ZM10.5044 1.53574L11.128 1.74362C10.9676 1.99891 10.7652 2.24509 10.5208 2.48215C10.2801 2.71921 10.0266 2.91432 9.76039 3.0675C9.73122 3.02009 9.69292 2.96721 9.64551 2.90885C9.60175 2.84685 9.55434 2.7885 9.50328 2.7338C9.45586 2.67544 9.4121 2.62621 9.37198 2.58609C9.52881 2.50221 9.68016 2.40374 9.82604 2.29068C9.97557 2.17397 10.1087 2.04997 10.2254 1.91868C10.3457 1.78738 10.4387 1.65974 10.5044 1.53574ZM11.965 2.00621H12.0909L12.2057 1.99527L12.5942 2.17032C12.4519 2.62256 12.2422 2.99456 11.965 3.28632C11.6915 3.57444 11.3633 3.80238 10.9803 3.97015C10.601 4.13791 10.1816 4.26191 9.7221 4.34215C9.70386 4.29109 9.67469 4.23091 9.63457 4.16162C9.59445 4.09232 9.55069 4.02485 9.50328 3.95921C9.45951 3.88991 9.41757 3.83521 9.37745 3.79509C9.8151 3.73674 10.209 3.64556 10.5591 3.52156C10.9092 3.39391 11.2028 3.21703 11.4399 2.99091C11.6806 2.76115 11.8556 2.46574 11.965 2.10468V2.00621Z" fill="black"/>
</svg>
