<svg width="20" height="20" viewBox="0 0 20 20" fill="none" xmlns="http://www.w3.org/2000/svg">
<path fill-rule="evenodd" clip-rule="evenodd" d="M10.3649 1.04004C13.9233 1.04004 16.8233 3.94004 16.8233 7.49837C16.8233 9.56504 15.8399 11.4067 14.3233 12.59V17.09C14.3233 17.9484 14.3233 18.5734 13.7483 18.8567C13.6066 18.9234 13.4733 18.9567 13.3399 18.9567C12.9233 18.9567 12.5149 18.6567 11.9983 18.265L10.9899 17.5067L10.9141 17.4509C10.6783 17.275 10.4391 17.0975 10.3641 17.09C10.2891 17.0984 10.0508 17.275 9.81493 17.4509L9.73993 17.5067L8.73993 18.2567L8.71743 18.2734C8.03743 18.7817 7.55076 19.145 6.98076 18.8567C6.40576 18.5734 6.40576 17.9484 6.40576 17.09V12.59C4.8891 11.4067 3.90576 9.56504 3.90576 7.49837C3.90576 3.94004 6.80659 1.04004 10.3649 1.04004ZM10.3641 2.29004C7.4891 2.29004 5.15576 4.62337 5.15576 7.49837C5.15576 10.3734 7.4891 12.7067 10.3641 12.7067C13.2391 12.7067 15.5724 10.3734 15.5724 7.49837C15.5724 4.62337 13.2391 2.29004 10.3641 2.29004ZM13.0724 17.0984V13.3567C12.2242 13.7516 11.2998 13.9563 10.3641 13.9563C9.4284 13.9563 8.50403 13.7516 7.65576 13.3567V17.515L7.77826 17.4242C7.84604 17.3748 7.91326 17.3245 7.97993 17.2734L8.98826 16.515C9.5216 16.115 9.87993 15.8484 10.3633 15.8484C10.8466 15.8484 11.2049 16.115 11.7383 16.515L12.7383 17.265C12.8549 17.3484 12.9716 17.4317 13.0716 17.5067L13.0724 17.0984ZM7.83076 9.52337L8.0391 8.12337H8.07243L7.11409 7.12337C6.86409 6.86504 6.78076 6.49837 6.89743 6.1567C7.00576 5.82337 7.28909 5.58171 7.63076 5.52337L8.9391 5.3067L9.54743 4.05671C9.70576 3.73171 10.0308 3.53171 10.3808 3.53171C10.7308 3.53171 11.0558 3.73171 11.2141 4.05671L11.8224 5.3067L13.1308 5.52337C13.4724 5.58171 13.7558 5.82337 13.8641 6.1567C13.9724 6.49837 13.8891 6.86504 13.6474 7.12337L12.6891 8.12337L12.8974 9.52337C12.9474 9.89004 12.7974 10.24 12.5058 10.4484C12.2224 10.6484 11.8474 10.6734 11.5391 10.5067L10.3641 9.8817L9.1891 10.5067C9.05576 10.5817 8.90576 10.615 8.75576 10.615C8.57243 10.615 8.38076 10.565 8.22243 10.4484C7.92243 10.24 7.78076 9.88171 7.83076 9.52337ZM9.97243 5.99837C9.8391 6.27337 9.58076 6.46504 9.2891 6.51504L8.38076 6.66504L9.04743 7.36504C9.24743 7.57337 9.33909 7.87337 9.29743 8.16504L9.15576 9.10671L9.93076 8.69837C10.0641 8.62337 10.2141 8.59004 10.3641 8.59004C10.5141 8.59004 10.6641 8.62337 10.7974 8.69837L11.5724 9.10671L11.4308 8.16504C11.3891 7.87337 11.4808 7.57337 11.6808 7.36504L12.3474 6.66504L11.4391 6.51504C11.2925 6.48909 11.1541 6.42873 11.0353 6.33891C10.9165 6.2491 10.8207 6.13239 10.7558 5.99837L10.3641 5.19004L9.97243 5.99837Z" fill="#C4A490"/>
</svg>
