<svg width="20" height="20" viewBox="0 0 20 20" fill="none" xmlns="http://www.w3.org/2000/svg">
<path fill-rule="evenodd" clip-rule="evenodd" d="M15.4756 11.425L17.259 15.075H17.2756C17.5673 15.6667 17.7673 16.075 17.6256 16.475C17.5849 16.6192 17.4969 16.7454 17.3756 16.8334C17.0173 17.0917 16.409 17.125 15.6756 16.925C15.3756 16.8417 15.009 16.75 14.9423 16.7667C14.834 16.8417 14.7173 17.1334 14.609 17.4084C14.2173 18.3834 13.8006 18.875 13.3006 18.95H13.109C12.514 18.8584 12.3123 18.325 11.984 17.4534L11.9756 17.4334L10.659 13.9417L10.6373 13.9434C10.5456 13.9517 10.4606 13.9584 10.3673 13.9584C10.3179 13.9578 10.2693 13.955 10.2215 13.95C10.1737 13.945 10.1251 13.9423 10.0756 13.9417L8.75898 17.425C8.39231 18.4 8.00064 18.8667 7.49231 18.95H7.30064C6.70398 18.8667 6.49481 18.3384 6.14814 17.4634L6.14231 17.45L6.10481 17.3575C5.99981 17.1009 5.89398 16.8425 5.83398 16.7825C5.70898 16.7409 5.36731 16.8325 5.05898 16.9159C4.33398 17.1159 3.70898 17.0825 3.35064 16.8242C3.27331 16.7744 3.21016 16.7056 3.16731 16.6242C2.91398 16.1825 3.11898 15.7559 3.42648 15.1159L3.44314 15.0825L5.22648 11.4242C4.39314 10.3409 3.89314 8.98253 3.89314 7.50753C3.89314 3.94919 6.79314 1.04919 10.3515 1.04919C13.9098 1.04919 16.8098 3.94919 16.8098 7.50753C16.8098 8.98253 16.3098 10.3325 15.4765 11.4242M7.44314 17.3325C7.48481 17.2409 7.53481 17.1242 7.58481 16.9909L7.59314 16.9825L8.80981 13.7575C7.8303 13.5194 6.92179 13.0508 6.15981 12.3909L4.58481 15.6159L4.50981 15.7659C4.58481 15.7575 4.65981 15.7409 4.74314 15.7159C5.37648 15.5409 5.75981 15.4409 6.17648 15.5742C6.30981 15.6159 6.42648 15.6742 6.54314 15.7492C6.90814 15.9925 7.05981 16.37 7.29064 16.9425L7.30981 16.9909C7.33703 17.0642 7.36509 17.1364 7.39398 17.2075L7.44314 17.3325ZM10.3598 2.29919C7.48481 2.29919 5.15148 4.63253 5.15148 7.50753C5.15148 10.3825 7.48481 12.7159 10.3598 12.7159C13.2348 12.7159 15.5681 10.3825 15.5681 7.50753C15.5681 4.63253 13.2348 2.29919 10.3598 2.29919ZM14.5515 15.5825C14.9681 15.4492 15.3515 15.5492 15.9848 15.7242V15.7325C16.0765 15.7492 16.1515 15.7659 16.2181 15.7825L16.1848 15.7117C16.1748 15.6889 16.1637 15.6653 16.1515 15.6409L14.5681 12.3992C13.8181 13.0409 12.9098 13.5159 11.9181 13.7659L13.1348 16.9909C13.1709 17.0759 13.2043 17.1595 13.2348 17.2417L13.2681 17.3325C13.3181 17.2325 13.3765 17.1075 13.4348 16.9575C13.6681 16.3659 13.8098 16.0075 14.1848 15.7575C14.3015 15.6825 14.4181 15.6242 14.5515 15.5825ZM11.8098 5.32419L13.1181 5.54086H13.1515C13.4931 5.5992 13.7765 5.84086 13.8848 6.17419C13.9931 6.51586 13.9098 6.88253 13.6681 7.14086L12.7098 8.14086L12.9181 9.54086C12.9681 9.90753 12.8181 10.2575 12.5265 10.4659C12.2431 10.6659 11.8681 10.6909 11.5598 10.5242L10.3848 9.89919L9.20981 10.5242C9.07648 10.5992 8.92648 10.6325 8.77648 10.6325C8.59314 10.6325 8.40148 10.5825 8.24314 10.4659C7.94314 10.2575 7.80148 9.8992 7.85148 9.54086L8.05981 8.14086L7.10148 7.14086C6.85148 6.88253 6.76814 6.51586 6.88481 6.17419C6.99314 5.84086 7.27648 5.5992 7.61814 5.54086L8.92648 5.32419L9.53481 4.07419C9.69314 3.74919 10.0181 3.54919 10.3681 3.54919C10.7181 3.54919 11.0431 3.74919 11.2015 4.07419L11.8098 5.32419ZM11.4265 8.17419C11.3848 7.88253 11.4765 7.58253 11.6765 7.37419L12.3431 6.67419L11.4348 6.52419C11.2882 6.49824 11.1498 6.43788 11.031 6.34807C10.9122 6.25825 10.8164 6.14155 10.7515 6.00753L10.3598 5.19919L9.96814 6.00753C9.83481 6.28253 9.57648 6.47419 9.28481 6.52419L8.37648 6.67419L9.04314 7.37419C9.24314 7.58253 9.33481 7.88253 9.29314 8.17419L9.15148 9.11586L9.92648 8.70753C10.0598 8.63253 10.2098 8.5992 10.3598 8.5992C10.5098 8.5992 10.6598 8.63253 10.7931 8.70753L11.5681 9.11586L11.4265 8.17419Z" fill="#FFCC00"/>
</svg>
