<svg width="20" height="21" viewBox="0 0 20 21" fill="none" xmlns="http://www.w3.org/2000/svg">
<path d="M7.62704 4.92301C8.68288 3.02967 9.21038 2.08301 9.99954 2.08301C10.7887 2.08301 11.3162 3.02967 12.372 4.92301L12.6454 5.41301C12.9454 5.95134 13.0954 6.22051 13.3287 6.39801C13.562 6.57551 13.8537 6.64134 14.437 6.77301L14.967 6.89301C17.017 7.35717 18.0412 7.58884 18.2854 8.37301C18.5287 9.15634 17.8304 9.97384 16.4329 11.608L16.0712 12.0305C15.6745 12.4947 15.4754 12.7272 15.3862 13.0138C15.297 13.3013 15.327 13.6113 15.387 14.2305L15.442 14.7947C15.6529 16.9755 15.7587 18.0655 15.1204 18.5497C14.482 19.0338 13.522 18.5922 11.6037 17.7088L11.1062 17.4805C10.5612 17.2288 10.2887 17.1038 9.99954 17.1038C9.71038 17.1038 9.43788 17.2288 8.89288 17.4805L8.39621 17.7088C6.47704 18.5922 5.51704 19.0338 4.87954 18.5505C4.24038 18.0655 4.34621 16.9755 4.55704 14.7947L4.61204 14.2313C4.67204 13.6113 4.70204 13.3013 4.61204 13.0147C4.52371 12.7272 4.32454 12.4947 3.92788 12.0313L3.56621 11.608C2.16871 9.97468 1.47038 9.15718 1.71371 8.37301C1.95704 7.58884 2.98288 7.35634 5.03288 6.89301L5.56288 6.77301C6.14538 6.64134 6.43621 6.57551 6.67038 6.39801C6.90454 6.22051 7.05371 5.95134 7.35371 5.41301L7.62704 4.92301Z" fill="#61CFFF"/>
<path d="M6.69531 13.708V8.47363H7.54688V13.708H6.69531ZM5.79688 13.708V12.9346H8.44531V13.708H5.79688ZM5.79688 9.24707V8.47363H8.44531V9.24707H5.79688ZM11.7578 13.7158L9.32812 8.47363H10.3438L11.9688 12.2861L13.6094 8.47363H14.625L12.1875 13.7158H11.7578Z" fill="black"/>
</svg>
