<svg width="32" height="33" viewBox="0 0 32 33" fill="none" xmlns="http://www.w3.org/2000/svg">
<g clip-path="url(#clip0_2340_1881)">
<path d="M24.734 17.418C24.694 13.366 28.038 11.422 28.188 11.326C26.308 8.57601 23.38 8.19801 22.336 8.15601C19.844 7.90401 17.474 9.62401 16.208 9.62401C14.946 9.62401 12.994 8.19401 10.928 8.23201C8.21199 8.27201 5.70799 9.81201 4.30799 12.244C1.48599 17.14 3.58599 24.396 6.33599 28.366C7.67999 30.31 9.28199 32.494 11.386 32.416C13.412 32.336 14.178 31.104 16.628 31.104C19.078 31.104 19.766 32.416 21.91 32.374C24.09 32.334 25.472 30.392 26.806 28.442C28.35 26.186 28.984 24.004 29.022 23.892C28.974 23.87 24.77 22.26 24.728 17.42L24.734 17.418ZM20.706 5.52602C21.822 4.17202 22.576 2.29202 22.37 0.416016C20.762 0.482016 18.812 1.48802 17.658 2.84002C16.622 4.04002 15.716 5.95401 15.958 7.79201C17.754 7.93201 19.588 6.88001 20.704 5.52802L20.706 5.52602Z" fill="white"/>
</g>
<defs>
<clipPath id="clip0_2340_1881">
<rect width="32" height="32" fill="white" transform="translate(0 0.416016)"/>
</clipPath>
</defs>
</svg>
