<svg width="32" height="33" viewBox="0 0 32 33" fill="none" xmlns="http://www.w3.org/2000/svg">
<g clip-path="url(#clip0_2340_1873)">
<path d="M32 16.416C32 7.57951 24.8365 0.416016 16 0.416016C7.1635 0.416016 0 7.57951 0 16.416C0 24.402 5.851 31.0214 13.5 32.2216V21.041H9.4375V16.416H13.5V12.891C13.5 8.88101 15.8888 6.66601 19.5435 6.66601C21.294 6.66601 23.125 6.97851 23.125 6.97851V10.916H21.1075C19.1199 10.916 18.5 12.1494 18.5 13.4148V16.416H22.9375L22.2281 21.041H18.5V32.2216C26.149 31.0214 32 24.4021 32 16.416Z" fill="#1877F2"/>
<path d="M22.2281 21.041L22.9375 16.416H18.5V13.4148C18.5 12.1493 19.1199 10.916 21.1075 10.916H23.125V6.97852C23.125 6.97852 21.294 6.66602 19.5434 6.66602C15.8888 6.66602 13.5 8.88102 13.5 12.891V16.416H9.4375V21.041H13.5V32.2216C14.327 32.3512 15.1629 32.4162 16 32.416C16.8371 32.4162 17.673 32.3512 18.5 32.2216V21.041H22.2281Z" fill="white"/>
</g>
<defs>
<clipPath id="clip0_2340_1873">
<rect width="32" height="32" fill="white" transform="translate(0 0.416016)"/>
</clipPath>
</defs>
</svg>
