<svg width="32" height="33" viewBox="0 0 32 33" fill="none" xmlns="http://www.w3.org/2000/svg">
<g clip-path="url(#clip0_2340_1868)">
<path d="M11.1475 1.46827C7.95019 2.57744 5.19285 4.68268 3.28046 7.47477C1.36808 10.2669 0.401465 13.5986 0.522592 16.9807C0.643719 20.3627 1.84621 23.6168 3.95343 26.2649C6.06065 28.9131 8.96153 30.8157 12.23 31.6933C14.8798 32.377 17.656 32.407 20.32 31.7808C22.7333 31.2387 24.9644 30.0792 26.795 28.4158C28.7002 26.6316 30.0831 24.362 30.795 21.8508C31.5688 19.1199 31.7065 16.2481 31.1975 13.4558H16.3175V19.6283H24.935C24.7628 20.6127 24.3937 21.5523 23.8499 22.3908C23.306 23.2294 22.5986 23.9495 21.77 24.5083C20.7177 25.2043 19.5315 25.6727 18.2875 25.8833C17.0398 26.1153 15.7601 26.1153 14.5125 25.8833C13.248 25.6218 12.0517 25.0999 11 24.3508C9.31036 23.1547 8.04168 21.4556 7.37499 19.4958C6.69702 17.4993 6.69702 15.3348 7.37499 13.3383C7.84955 11.9388 8.63407 10.6646 9.66999 9.61077C10.8555 8.38263 12.3563 7.50476 14.0079 7.07346C15.6594 6.64216 17.3979 6.67409 19.0325 7.16577C20.3094 7.55774 21.4771 8.24261 22.4425 9.16577C23.4142 8.1991 24.3842 7.22993 25.3525 6.25827C25.8525 5.73577 26.3975 5.23827 26.89 4.70327C25.4164 3.33196 23.6867 2.26491 21.8 1.56327C18.3642 0.315741 14.6049 0.282215 11.1475 1.46827Z" fill="white"/>
<path d="M11.1475 1.4685C14.6047 0.281648 18.364 0.314291 21.8 1.561C23.687 2.26741 25.416 3.3396 26.8875 4.716C26.3875 5.251 25.86 5.751 25.35 6.271C24.38 7.23934 23.4108 8.20434 22.4425 9.166C21.4771 8.24285 20.3094 7.55798 19.0325 7.166C17.3984 6.67261 15.6601 6.63882 14.0081 7.06836C12.3561 7.4979 10.8543 8.37416 9.6675 9.601C8.63159 10.6548 7.84707 11.929 7.3725 13.3285L2.19 9.316C4.04502 5.63741 7.25688 2.82356 11.1475 1.4685Z" fill="#E33629"/>
<path d="M0.814998 13.2914C1.09355 11.9109 1.55601 10.574 2.19 9.31641L7.3725 13.3389C6.69453 15.3354 6.69453 17.4999 7.3725 19.4964C5.64583 20.8297 3.91833 22.1697 2.19 23.5164C0.602874 20.3572 0.118829 16.7577 0.814998 13.2914Z" fill="#F8BD00"/>
<path d="M16.3175 13.4531H31.1975C31.7065 16.2455 31.5688 19.1173 30.795 21.8481C30.0831 24.3593 28.7002 26.629 26.795 28.4131C25.1225 27.1081 23.4425 25.8131 21.77 24.5081C22.5992 23.9488 23.3069 23.2279 23.8508 22.3885C24.3946 21.549 24.7634 20.6085 24.935 19.6231H16.3175C16.315 17.5681 16.3175 15.5106 16.3175 13.4531Z" fill="#587DBD"/>
<path d="M2.1875 23.5161C3.91583 22.1828 5.64333 20.8428 7.37 19.4961C8.03802 21.4566 9.30851 23.1558 11 24.3511C12.055 25.0968 13.2538 25.6144 14.52 25.8711C15.7676 26.1031 17.0474 26.1031 18.295 25.8711C19.539 25.6605 20.7252 25.1922 21.7775 24.4961C23.45 25.8011 25.13 27.0961 26.8025 28.4011C24.9722 30.0654 22.741 31.2258 20.3275 31.7686C17.6635 32.3949 14.8873 32.3648 12.2375 31.6811C10.1418 31.1215 8.18419 30.1351 6.4875 28.7836C4.69165 27.3578 3.22489 25.561 2.1875 23.5161Z" fill="#319F43"/>
</g>
<defs>
<clipPath id="clip0_2340_1868">
<rect width="32" height="32" fill="white" transform="translate(0 0.416016)"/>
</clipPath>
</defs>
</svg>
