<svg width="20" height="20" viewBox="0 0 20 20" fill="none" xmlns="http://www.w3.org/2000/svg">
<g clip-path="url(#clip0_4224_6822)">
<path d="M10 19.375C15.1777 19.375 19.375 15.1777 19.375 10C19.375 4.82233 15.1777 0.625 10 0.625C4.82233 0.625 0.625 4.82233 0.625 10C0.625 15.1777 4.82233 19.375 10 19.375Z" fill="#ED4C5C"/>
<path d="M6.875 8.875L9.375 10.625L8.4375 7.75L10.9375 5.9375H7.84375L6.875 3.125L5.9375 5.9375H2.8125L5.3125 7.75L4.375 10.625L6.875 8.875ZM11.0312 11.0312L10.3125 11.1875L11 11.4688V12.1875L11.4688 11.6562L12.1562 11.9062L11.75 11.3125L12.1875 10.75L11.4688 10.9062L11.0312 10.3125V11.0312ZM12.0938 8.90625L11.5625 9.375L12.2812 9.3125L12.5938 10L12.7188 9.28125L13.4375 9.21875L12.8125 8.84375L12.9688 8.125L12.4375 8.59375L11.8125 8.21875L12.0938 8.90625ZM12.2812 6.46875L12.5 7.1875L12.7188 6.5H13.4375L12.875 6.0625L13.0938 5.34375L12.5 5.78125L11.9375 5.3125L12.1562 6.03125L11.5625 6.4375L12.2812 6.46875ZM11.0312 3.96875V4.6875L11.4688 4.09375L12.1875 4.25L11.75 3.6875L12.1562 3.09375L11.4688 3.375L11 2.8125V3.53125L10.3125 3.8125L11.0312 3.96875Z" fill="#FFE62E"/>
</g>
<defs>
<clipPath id="clip0_4224_6822">
<rect width="20" height="20" fill="white"/>
</clipPath>
</defs>
</svg>
