<svg width="20" height="20" viewBox="0 0 20 20" fill="none" xmlns="http://www.w3.org/2000/svg">
<g clip-path="url(#clip0_4224_6744)">
<path d="M10 19.375C15.1777 19.375 19.375 15.1777 19.375 10C19.375 4.82233 15.1777 0.625 10 0.625C4.82233 0.625 0.625 4.82233 0.625 10C0.625 15.1777 4.82233 19.375 10 19.375Z" fill="#F5F5F5"/>
<path d="M7.31247 10.5313C8.18747 11.125 9.40622 10.875 9.99997 10C10.5937 9.125 11.7812 8.875 12.6875 9.46875C13.5312 10.0313 13.7812 11.125 13.3125 11.9688C14.3437 10.2188 13.875 7.9375 12.125 6.78125C10.3437 5.59375 7.93747 6.0625 6.74997 7.84375C6.71872 7.90625 6.68747 7.96875 6.65622 8C6.21872 8.90625 6.49997 9.96875 7.31247 10.5313Z" fill="#ED4C5C"/>
<path d="M12.6875 9.46875C11.8125 8.875 10.5938 9.125 10 10C9.40627 10.875 8.21877 11.125 7.31252 10.5312C6.46877 9.96875 6.21877 8.875 6.68752 8.03125C5.62502 9.78125 6.12502 12.0625 7.87502 13.2187C9.65627 14.4062 12.0625 13.9375 13.25 12.1562C13.2813 12.0938 13.3125 12.0313 13.3438 12C13.7813 11.0938 13.5 10.0312 12.6875 9.46875Z" fill="#428BC1"/>
<path d="M2.4375 7.28125L4.59375 4.0625L4.375 3.90625L4.15625 3.78125L2 7L2.21875 7.125L2.4375 7.28125ZM3.03125 7.6875L3.25 7.8125L5.375 4.59375L5.1875 4.46875L4.96875 4.3125L2.8125 7.53125L3.03125 7.6875ZM5.75 4.84375L3.625 8.0625L3.84375 8.21875L4.0625 8.34375L6.1875 5.125L5.96875 5L5.75 4.84375ZM15.1562 13.2812L15.375 13.4375L16.375 11.9375L16.1562 11.7812L15.9375 11.6562L14.9375 13.1562L15.1562 13.2812ZM17.5625 12.7188L16.5625 14.2188L16.7812 14.375L17 14.5L18 13L17.7812 12.875L17.5625 12.7188ZM16.1875 13.9688L17.1875 12.4688L16.9687 12.3125L16.75 12.1875L15.75 13.6875L15.9687 13.8125L16.1875 13.9688ZM15.0312 13.5L14.8125 13.375L13.8125 14.875L14.0312 15L14.25 15.1562L15.25 13.6562L15.0312 13.5ZM15.8125 14.0313L15.625 13.9062L14.625 15.4062L14.8125 15.5312L15.0312 15.6875L16.0312 14.1875L15.8125 14.0313ZM16.4062 14.4375L15.4062 15.9375L15.625 16.0938L15.8438 16.2188L16.8438 14.7188L16.625 14.5625L16.4062 14.4375ZM2.21875 12.875L2 13L4.15625 16.2188L4.375 16.0938L4.59375 15.9375L2.4375 12.7188L2.21875 12.875ZM4.1875 14.0313L3.96875 14.1875L4.96875 15.6875L5.1875 15.5312L5.375 15.4062L4.375 13.9062L4.1875 14.0313ZM3.84375 11.7812L3.625 11.9375L5.75 15.1562L5.96875 15L6.1875 14.875L4.0625 11.6562L3.84375 11.7812ZM2.8125 12.4688L3.8125 13.9688L4.03125 13.8125L4.25 13.6875L3.25 12.1875L3.03125 12.3125L2.8125 12.4688ZM16.625 5.4375L16.8438 5.28125L15.8438 3.78125L15.625 3.90625L15.4062 4.0625L16.4062 5.5625L16.625 5.4375ZM15.0312 6.5L15.25 6.34375L14.25 4.84375L14.0312 5L13.8125 5.125L14.8125 6.625L15.0312 6.5ZM16.5625 5.78125L17.5625 7.28125L17.7812 7.125L18 7L17 5.5L16.7812 5.625L16.5625 5.78125ZM16.9687 7.6875L17.1875 7.53125L15.0312 4.3125L14.8125 4.46875L14.625 4.59375L16.75 7.8125L16.9687 7.6875ZM16.1562 8.21875L16.375 8.0625L15.375 6.5625L15.1562 6.71875L14.9375 6.84375L15.9375 8.34375L16.1562 8.21875Z" fill="#3E4347"/>
</g>
<defs>
<clipPath id="clip0_4224_6744">
<rect width="20" height="20" fill="white"/>
</clipPath>
</defs>
</svg>
