<svg width="50" height="50" viewBox="0 0 50 50" fill="none" xmlns="http://www.w3.org/2000/svg">
<g clip-path="url(#clip0_12001_68598)">
<mask id="mask0_12001_68598" style="mask-type:luminance" maskUnits="userSpaceOnUse" x="0" y="0" width="50" height="50">
<path d="M50 0H0V50H50V0Z" fill="white"/>
</mask>
<g mask="url(#mask0_12001_68598)">
<path d="M48.8891 10.2355V38.1384C48.8891 40.1312 47.2734 41.745 45.2826 41.745H39.8728V50.7614L27.2479 41.745H5.60656C3.61377 41.745 2 40.1293 2 38.1384V10.2355C2 8.24268 3.61572 6.62891 5.60656 6.62891H45.2826C47.2754 6.62891 48.8891 8.24463 48.8891 10.2355Z" fill="white" stroke="#202020" stroke-width="0.78" stroke-linecap="round" stroke-linejoin="round"/>
<path d="M44.3798 13.3712H42.5766L43.166 13.5009C43.7286 13.3734 42.1721 13.3711 41.6739 13.3711C41.1757 13.3711 39.7942 13.3712 40.666 13.5012L40.7713 13.3712H38.968C38.4698 13.3712 38.0654 13.7756 38.0654 14.2738C38.0654 14.772 38.4698 15.1764 38.968 15.1764L40.7987 15.1765L40.7713 15.0012C39.2918 15.1764 41.1757 15.1765 41.6739 15.1765C42.1721 15.1765 43.304 15.1765 42.666 15.0012L42.3417 15.1765L44.3798 15.1764C44.878 15.1764 45.2825 14.772 45.2825 14.2738C45.2825 13.7756 44.878 13.3712 44.3798 13.3712Z" fill="#202020"/>
<path d="M45.2825 41.745V38.5096C45.2825 34.0024 39.2084 31.4567 39.2084 31.4567L29.7973 27.4399V19.7031H21.0935V27.4399L11.6825 31.4567C11.6825 31.4567 5.6084 34.0024 5.6084 38.5096V41.745H45.2844H45.2825Z" fill="white" stroke="#202020" stroke-width="0.78" stroke-linecap="round" stroke-linejoin="round"/>
<path d="M20.2718 18.4334C18.9609 19.1583 15.8682 18.6171 15.8682 15.6728C15.8682 12.5508 19.4356 14.6139 19.4356 14.6139L20.2718 18.4334Z" fill="white"/>
<path d="M30.6182 18.4334C31.9291 19.1583 35.0218 18.6171 35.0218 15.6728C35.0218 12.5508 31.4544 14.6139 31.4544 14.6139L30.6182 18.4334Z" fill="white"/>
<path d="M20.2718 18.4334C18.9609 19.1583 15.8682 18.6171 15.8682 15.6728C15.8682 12.5508 19.4356 14.6139 19.4356 14.6139L20.2718 18.4334Z" fill="white" stroke="#202020" stroke-width="1.44109" stroke-linecap="round" stroke-linejoin="round"/>
<path d="M30.6182 18.4334C31.9291 19.1583 35.0218 18.6171 35.0218 15.6728C35.0218 12.5508 31.4544 14.6139 31.4544 14.6139L30.6182 18.4334Z" fill="white" stroke="#202020" stroke-width="1.44109" stroke-linecap="round" stroke-linejoin="round"/>
<path d="M20.2718 18.4334C18.9609 19.1583 15.8682 18.6171 15.8682 15.6728C15.8682 12.5508 19.4356 14.6139 19.4356 14.6139L20.2718 18.4334Z" stroke="#202020" stroke-width="1.44109" stroke-linecap="round" stroke-linejoin="round"/>
<path d="M30.6182 18.4334C31.9291 19.1583 35.0218 18.6171 35.0218 15.6728C35.0218 12.5508 31.4544 14.6139 31.4544 14.6139L30.6182 18.4334Z" stroke="#202020" stroke-width="1.44109" stroke-linecap="round" stroke-linejoin="round"/>
<path d="M25.4446 6.59766C31.8762 6.59766 32.8101 11.1518 32.8101 12.7382C32.8101 14.8267 32.1517 19.2577 31.1788 20.8012C30.2722 22.2391 28.6995 24.3765 25.4446 24.269C22.1917 24.3765 20.617 22.2391 19.7105 20.8012C18.7375 19.2577 18.0791 14.8267 18.0791 12.7382C18.0791 11.1498 19.011 6.59766 25.4446 6.59766Z" fill="white" stroke="#202020" stroke-width="0.78" stroke-linecap="round" stroke-linejoin="round"/>
<path d="M28.3908 15.6764C28.7976 15.6764 29.1274 15.1822 29.1274 14.5725C29.1274 13.9629 28.7976 13.4688 28.3908 13.4688C27.9841 13.4688 27.6543 13.9629 27.6543 14.5725C27.6543 15.1822 27.9841 15.6764 28.3908 15.6764Z" fill="#202020"/>
<path d="M22.4983 15.6764C22.9051 15.6764 23.2348 15.1822 23.2348 14.5725C23.2348 13.9629 22.9051 13.4688 22.4983 13.4688C22.0915 13.4688 21.7617 13.9629 21.7617 14.5725C21.7617 15.1822 22.0915 15.6764 22.4983 15.6764Z" fill="#202020"/>
<path d="M25.5911 14.5703L24.708 16.9284L26.1811 17.5165" stroke="#202020" stroke-width="0.776688" stroke-linecap="round" stroke-linejoin="round"/>
<path d="M21.9885 9.22626C21.9885 9.22626 21.2512 12.1167 18.1416 14.0773C18.1416 14.0773 17.6767 12.3835 17.5497 11.6196C17.323 10.25 18.5398 7.30391 20.167 5.88042C20.9806 5.16869 22.1292 3.76953 26.4274 3.76953C30.3739 3.76953 34.0293 7.54997 33.324 11.4672L32.7457 14.0773C32.8023 14.0207 32.4471 7.23614 21.9885 9.22626Z" fill="#202020" stroke="#202020" stroke-width="0.78" stroke-linecap="round" stroke-linejoin="round"/>
<path d="M22.9004 19.8516C23.4084 20.2912 24.3559 20.5862 25.4441 20.5862C26.5323 20.5862 27.4779 20.2892 27.9879 19.8516" stroke="#202020" stroke-width="0.776688" stroke-linecap="round" stroke-linejoin="round"/>
<path d="M45.2825 38.5088C45.2825 34.0016 39.2084 31.4559 39.2084 31.4559L33.0483 28.8281C32.1008 31.0436 29.0549 32.6652 25.4445 32.6652C21.834 32.6652 18.7862 31.0436 17.8406 28.8281L11.6805 31.4559C11.6805 31.4559 5.60645 34.0016 5.60645 38.5088V41.7441H27.2477L39.8726 50.7605V41.7441H45.2825V38.5088Z" fill="#FF9C2E" stroke="#202020" stroke-width="0.776688" stroke-linecap="round" stroke-linejoin="round"/>
<path fill-rule="evenodd" clip-rule="evenodd" d="M31.5383 5.57575L31.5429 5.57952C31.7522 5.78021 32.0232 5.878 32.292 5.87261C32.4469 5.86965 32.6021 5.83301 32.7433 5.7627C33.4283 6.57678 33.9803 7.50588 34.3644 8.51715C34.7653 9.57098 34.9853 10.7156 34.9853 11.913C34.9853 12.4849 34.935 13.0431 34.8396 13.5853C34.758 14.0495 34.4708 14.9339 34.4708 14.9339L32.7748 21.2633L33.0679 21.342C33.3039 21.4045 33.5444 21.3657 33.7413 21.252C33.9399 21.1375 34.0948 20.9481 34.1575 20.7121L35.3932 16.1022C35.4565 15.8662 35.4169 15.6256 35.3029 15.4279C35.241 15.3202 35.1564 15.2256 35.0548 15.1515C35.2143 14.6779 35.3396 14.1885 35.4282 13.6877C35.5298 13.1104 35.5831 12.517 35.5831 11.913C35.5831 10.6439 35.3496 9.4282 34.9226 8.30649C34.5102 7.2206 33.9162 6.22415 33.1799 5.35431C33.2799 5.18406 33.3273 4.99172 33.3243 4.80073C33.3189 4.53108 33.2106 4.26385 33.0021 4.06316C32.5006 3.57908 31.9515 3.1416 31.3627 2.7588C30.7808 2.38086 30.1593 2.05625 29.5072 1.7928C28.8674 1.53392 28.1977 1.33377 27.5065 1.20015C26.8306 1.06869 26.135 1 25.4263 1C24.7175 1 24.0228 1.06869 23.3469 1.20015C22.6559 1.33377 21.9862 1.53392 21.3454 1.7928C20.6932 2.05625 20.0725 2.38086 19.4899 2.7588C18.9018 3.14133 18.3528 3.57881 17.8512 4.06316C17.6419 4.26412 17.5344 4.53135 17.529 4.80073C17.5253 4.99172 17.5732 5.18406 17.6734 5.35431C16.9367 6.22415 16.3432 7.2206 15.9302 8.30649C15.5041 9.4282 15.2705 10.6439 15.2705 11.913C15.2705 12.517 15.3233 13.1112 15.4254 13.6885C15.514 14.1893 15.6393 14.6782 15.7988 15.1515C15.6964 15.2256 15.6124 15.3202 15.5507 15.4271C15.437 15.6256 15.3971 15.8662 15.4607 16.1022L16.6961 20.7121C16.7594 20.9489 16.9138 21.1375 17.1107 21.252C17.3092 21.3657 17.5498 21.4047 17.7857 21.342L18.0788 21.2633L16.3828 14.9339C16.3828 14.9339 16.0956 14.0495 16.014 13.5853C15.9187 13.0439 15.8683 12.4849 15.8683 11.913C15.8683 10.7156 16.0881 9.57098 16.4884 8.51715C16.8733 7.50615 17.4245 6.57678 18.1104 5.7627C18.2515 5.83301 18.4059 5.86965 18.5608 5.87261C18.8304 5.878 19.1014 5.78021 19.3099 5.57952L19.3145 5.57575C19.7199 5.18487 20.162 4.83198 20.6347 4.52515C21.1035 4.21967 21.6037 3.95864 22.129 3.74636C22.6422 3.53948 23.1812 3.37839 23.741 3.27063C24.2838 3.16611 24.8474 3.11116 25.4263 3.11116C26.0052 3.11116 26.5693 3.16611 27.1123 3.27063C27.6713 3.37839 28.2112 3.53948 28.7243 3.74636C29.2488 3.95864 29.7491 4.21994 30.2181 4.52515C30.6908 4.83225 31.1337 5.18487 31.5383 5.57575Z" fill="#FF9C2E" stroke="black" stroke-width="0.78" stroke-miterlimit="10"/>
<path fill-rule="evenodd" clip-rule="evenodd" d="M36.0749 12.7787L35.0043 12.4915C34.7005 12.4107 34.3912 12.4611 34.1377 12.6076C33.8834 12.755 33.6857 12.9971 33.6046 13.3002L31.8407 19.8834C31.7591 20.1864 31.8094 20.4965 31.956 20.75C32.1033 21.0035 32.3461 21.202 32.6486 21.2831L33.7199 21.5703C34.0224 21.6511 34.3317 21.6007 34.5852 21.4542C34.8403 21.3084 35.038 21.0646 35.1196 20.7616L36.8835 14.1787C36.9644 13.8756 36.914 13.5655 36.7674 13.312C36.6201 13.0586 36.3779 12.8598 36.0749 12.7787Z" fill="#FF9C2E" stroke="#202020" stroke-width="0.78" stroke-miterlimit="10"/>
<path fill-rule="evenodd" clip-rule="evenodd" d="M15.9104 12.4918L14.8391 12.7789C14.536 12.8597 14.2939 13.0583 14.1465 13.3126C14 13.5653 13.9496 13.8753 14.0312 14.1787L15.7951 20.7616C15.876 21.0646 16.0748 21.3084 16.3274 21.4542C16.5825 21.6007 16.8918 21.6511 17.1949 21.5703L18.2654 21.2831C18.5684 21.2023 18.8106 21.0035 18.958 20.75C19.1045 20.4965 19.1549 20.1864 19.0741 19.8834L17.3102 13.3002C17.2293 12.9971 17.0308 12.7542 16.7765 12.6076C16.5238 12.4611 16.2135 12.411 15.9104 12.4918Z" fill="#FF9C2E" stroke="#202020" stroke-width="0.78" stroke-miterlimit="10"/>
</g>
</g>
<defs>
<clipPath id="clip0_12001_68598">
<rect width="50" height="50" fill="white"/>
</clipPath>
</defs>
</svg>
