<?xml version="1.0" encoding="UTF-8"?><svg id="_レイヤー_2" xmlns="http://www.w3.org/2000/svg" viewBox="0 0 21 21"><defs><style>.cls-1{fill:#4285f4;}.cls-2{fill:#fbbc05;}.cls-3{fill:#34a853;}.cls-4{fill:#eb4335;}</style></defs><g id="_レイヤー_1-2"><path class="cls-1" d="M21,10.73c0-.86-.07-1.49-.23-2.15h-10.06v3.9h5.9c-.12.97-.76,2.43-2.19,3.41l-.02.13,3.18,2.41.22.02c2.02-1.83,3.19-4.53,3.19-7.72Z"/><path class="cls-3" d="M10.71,21c2.89,0,5.32-.93,7.1-2.54l-3.38-2.57c-.9.62-2.12,1.05-3.71,1.05-2.83,0-5.24-1.83-6.1-4.36h-.13s-3.31,2.52-3.31,2.52l-.04.12c1.76,3.43,5.38,5.79,9.57,5.79Z"/><path class="cls-2" d="M4.62,12.58c-.23-.65-.36-1.35-.36-2.08s.13-1.42.35-2.08v-.14s-3.36-2.55-3.36-2.55l-.11.05c-.73,1.42-1.14,3.02-1.14,4.71s.42,3.29,1.14,4.71l3.48-2.64Z"/><path class="cls-4" d="M10.71,4.06c2.01,0,3.37.85,4.14,1.56l3.02-2.89c-1.86-1.69-4.27-2.73-7.17-2.73C6.52,0,2.9,2.36,1.14,5.79l3.46,2.64c.87-2.53,3.27-4.36,6.11-4.36Z"/></g></svg>