<?xml version="1.0" encoding="UTF-8"?>
<svg id="_レイヤー_2" data-name="レイヤー 2" xmlns="http://www.w3.org/2000/svg" viewBox="0 0 13.06 13.06">
  <g id="_レイヤー_1-2" data-name="レイヤー 1">
    <path d="M6.53,0c3.61,0,6.53,2.92,6.53,6.53s-2.93,6.53-6.53,6.53S0,10.14,0,6.53,2.92,0,6.53,0ZM6.52,5.23h-.65c-.17,0-.33.06-.45.18-.12.11-.19.27-.2.44,0,.17.04.33.15.46.11.13.26.21.42.23h.08v3.26c0,.34.26.62.59.66h.07s.32,0,.32,0c.14,0,.27-.04.38-.12.11-.08.19-.19.24-.32.04-.13.04-.27,0-.4-.04-.13-.12-.25-.23-.33l-.06-.04v-3.35c0-.34-.26-.62-.59-.66h-.07ZM6.53,3.27c-.17,0-.34.07-.46.19-.12.12-.19.29-.19.46s.07.34.19.46c.12.12.29.19.46.19s.34-.07.46-.19c.12-.12.19-.29.19-.46s-.07-.34-.19-.46c-.12-.12-.29-.19-.46-.19Z"/>
  </g>
</svg>