<svg width="32" height="32" viewBox="0 0 32 32" fill="none" xmlns="http://www.w3.org/2000/svg">
<g filter="url(#filter0_d_2811_11800)">
<path d="M17.3333 24C16.9556 24 16.6391 23.872 16.384 23.616C16.1289 23.36 16.0009 23.0436 16 22.6667C15.9991 22.2898 16.1271 21.9733 16.384 21.7173C16.6409 21.4613 16.9573 21.3333 17.3333 21.3333H25.3333V2.66667H17.3333C16.9556 2.66667 16.6391 2.53867 16.384 2.28267C16.1289 2.02667 16.0009 1.71022 16 1.33333C15.9991 0.956444 16.1271 0.64 16.384 0.384C16.6409 0.128 16.9573 0 17.3333 0H25.3333C26.0667 0 26.6947 0.261333 27.2173 0.784C27.74 1.30667 28.0009 1.93422 28 2.66667V21.3333C28 22.0667 27.7391 22.6947 27.2173 23.2173C26.6956 23.74 26.0676 24.0009 25.3333 24H17.3333ZM14.9 13.3333H5.33334C4.95556 13.3333 4.63912 13.2053 4.384 12.9493C4.12889 12.6933 4.00089 12.3769 4 12C3.99912 11.6231 4.12712 11.3067 4.384 11.0507C4.64089 10.7947 4.95734 10.6667 5.33334 10.6667H14.9L12.4 8.16667C12.1556 7.92222 12.0333 7.62222 12.0333 7.26667C12.0333 6.91111 12.1556 6.6 12.4 6.33333C12.6444 6.06667 12.9556 5.92756 13.3333 5.916C13.7111 5.90444 14.0333 6.03244 14.3 6.3L19.0667 11.0667C19.3333 11.3333 19.4667 11.6444 19.4667 12C19.4667 12.3556 19.3333 12.6667 19.0667 12.9333L14.3 17.7C14.0333 17.9667 13.7169 18.0947 13.3507 18.084C12.9844 18.0733 12.6676 17.9342 12.4 17.6667C12.1556 17.4 12.0391 17.0836 12.0507 16.7173C12.0622 16.3511 12.1898 16.0453 12.4333 15.8L14.9 13.3333Z" fill="white"/>
</g>
<defs>
<filter id="filter0_d_2811_11800" x="0" y="0" width="32" height="32" filterUnits="userSpaceOnUse" color-interpolation-filters="sRGB">
<feFlood flood-opacity="0" result="BackgroundImageFix"/>
<feColorMatrix in="SourceAlpha" type="matrix" values="0 0 0 0 0 0 0 0 0 0 0 0 0 0 0 0 0 0 127 0" result="hardAlpha"/>
<feOffset dy="4"/>
<feGaussianBlur stdDeviation="2"/>
<feComposite in2="hardAlpha" operator="out"/>
<feColorMatrix type="matrix" values="0 0 0 0 0 0 0 0 0 0 0 0 0 0 0 0 0 0 0.25 0"/>
<feBlend mode="normal" in2="BackgroundImageFix" result="effect1_dropShadow_2811_11800"/>
<feBlend mode="normal" in="SourceGraphic" in2="effect1_dropShadow_2811_11800" result="shape"/>
</filter>
</defs>
</svg>
