<svg width="24" height="25" viewBox="0 0 24 25" fill="none" xmlns="http://www.w3.org/2000/svg">
<path d="M19.5 2H4.50001C4.10218 2 3.72065 2.15804 3.43935 2.43934C3.15804 2.72064 3.00001 3.10218 3.00001 3.5V13.25C2.99825 14.7458 3.40393 16.2138 4.17348 17.4964C4.94303 18.7791 6.0474 19.8279 7.36801 20.5303L12 23L16.632 20.5303C17.9526 19.8279 19.057 18.7791 19.8265 17.4964C20.5961 16.2138 21.0018 14.7458 21 13.25V3.5C21 3.10218 20.842 2.72064 20.5607 2.43934C20.2794 2.15804 19.8978 2 19.5 2ZM17.25 14H6.75001V12.5H17.25V14ZM17.25 9.5H6.75001V8H17.25V9.5Z" fill="white"/>
</svg>
