<?xml version="1.0" encoding="UTF-8"?>
<svg id="_レイヤー_2" data-name="レイヤー 2" xmlns="http://www.w3.org/2000/svg" viewBox="0 0 18.08 17.2">
  <defs>
    <style>
      .cls-1 {
        fill: #fc0;
      }
    </style>
  </defs>
  <g id="_レイヤー_1-2" data-name="レイヤー 1">
    <path class="cls-1" d="M14.63,17.2l-5.59-3.36-5.58,3.36,1.46-6.35L0,6.57l6.49-.57L9.04,0l2.55,6,6.49.57-4.92,4.27,1.47,6.36Z"/>
    <path d="M10.9,6.94l-1.86-4.38-1.86,4.39-4.75.41,3.61,3.14-1.08,4.63,4.08-2.46,4.09,2.46-1.09-4.63,3.61-3.14-4.75-.42ZM14.63,17.2l-5.59-3.36-5.58,3.36,1.46-6.35L0,6.57l6.49-.57L9.04,0l2.55,6,6.49.57-4.92,4.27,1.47,6.36Z"/>
  </g>
</svg>