<svg width="66" height="15" viewBox="0 0 66 15" fill="none" xmlns="http://www.w3.org/2000/svg">
<rect x="1" y="0.5" width="64" height="14" rx="3.5" stroke="black"/>
<path d="M7.06 8.17C7.06 9.67 7.68333 10.42 8.93 10.42C10.1767 10.42 10.8 9.67 10.8 8.17V3.7H11.58V8.13C11.58 9.10333 11.35 9.84333 10.89 10.35C10.4367 10.85 9.78 11.1 8.92 11.1C8.06 11.1 7.4 10.85 6.94 10.35C6.48 9.84333 6.25 9.10333 6.25 8.13V3.7H7.06V8.17ZM15.0985 4.25C14.6385 4.25 14.2818 4.35333 14.0285 4.56C13.7752 4.76 13.6485 5.04 13.6485 5.4C13.6485 6.04667 14.1218 6.51333 15.0685 6.8C15.8952 7.04 16.4818 7.34 16.8285 7.7C17.1818 8.06 17.3585 8.52667 17.3585 9.1C17.3585 9.74667 17.1552 10.2433 16.7485 10.59C16.3485 10.93 15.7752 11.1 15.0285 11.1C14.2018 11.1 13.4685 10.89 12.8285 10.47L13.0685 9.81C13.6485 10.2233 14.3018 10.43 15.0285 10.43C15.5218 10.43 15.8985 10.3167 16.1585 10.09C16.4252 9.86333 16.5585 9.53333 16.5585 9.1C16.5585 8.7 16.4452 8.38333 16.2185 8.15C15.9985 7.91 15.6085 7.70333 15.0485 7.53C13.5885 7.09667 12.8585 6.38667 12.8585 5.4C12.8585 4.85333 13.0552 4.41667 13.4485 4.09C13.8485 3.76333 14.3985 3.6 15.0985 3.6C15.8518 3.6 16.5518 3.75667 17.1985 4.07L16.9985 4.69C16.4185 4.39667 15.7852 4.25 15.0985 4.25ZM19.6109 4.37V6.75H22.8809V7.39H19.6109V10.33H23.0809V11H18.8109V3.7H23.0809V4.37H19.6109ZM24.6801 11V3.75C25.2601 3.65 25.8834 3.6 26.5501 3.6C27.4834 3.6 28.1867 3.77333 28.6601 4.12C29.1401 4.46 29.3801 4.94667 29.3801 5.58C29.3801 6.08667 29.2434 6.51 28.9701 6.85C28.6967 7.19 28.3101 7.42333 27.8101 7.55V7.57C28.1101 7.73 28.4067 8.16333 28.7001 8.87L29.5801 11H28.7501L27.8901 8.89C27.6901 8.41 27.5001 8.11333 27.3201 8C27.1467 7.88 26.8001 7.82 26.2801 7.82H25.4801V11H24.6801ZM25.4801 7.18H26.2801C27.0734 7.18 27.6567 7.05333 28.0301 6.8C28.4034 6.54 28.5901 6.15667 28.5901 5.65C28.5901 4.71667 27.8867 4.25 26.4801 4.25C26.1267 4.25 25.7934 4.28 25.4801 4.34V7.18ZM37.0316 4.27C36.1516 4.27 35.4483 4.55 34.9216 5.11C34.4016 5.66333 34.1416 6.41 34.1416 7.35C34.1416 8.29 34.4083 9.04 34.9416 9.6C35.4816 10.1533 36.1783 10.43 37.0316 10.43C37.725 10.43 38.3683 10.24 38.9616 9.86L39.2316 10.46C38.5783 10.8867 37.8216 11.1 36.9616 11.1C35.8616 11.1 34.9816 10.76 34.3216 10.08C33.6616 9.4 33.3316 8.49 33.3316 7.35C33.3316 6.19667 33.6583 5.28333 34.3116 4.61C34.965 3.93667 35.8483 3.6 36.9616 3.6C37.8216 3.6 38.5783 3.81333 39.2316 4.24L38.9616 4.84C38.3683 4.46 37.725 4.27 37.0316 4.27ZM46.2395 10.08C45.5928 10.76 44.7328 11.1 43.6595 11.1C42.5861 11.1 41.7228 10.76 41.0695 10.08C40.4161 9.39333 40.0895 8.48333 40.0895 7.35C40.0895 6.21667 40.4161 5.31 41.0695 4.63C41.7228 3.94333 42.5861 3.6 43.6595 3.6C44.7328 3.6 45.5928 3.94333 46.2395 4.63C46.8928 5.31 47.2195 6.21667 47.2195 7.35C47.2195 8.48333 46.8928 9.39333 46.2395 10.08ZM43.6595 10.43C44.4861 10.43 45.1495 10.1533 45.6495 9.6C46.1561 9.04 46.4095 8.29 46.4095 7.35C46.4095 6.41 46.1561 5.66333 45.6495 5.11C45.1495 4.55 44.4861 4.27 43.6595 4.27C42.8261 4.27 42.1561 4.55 41.6495 5.11C41.1495 5.66333 40.8995 6.41 40.8995 7.35C40.8995 8.29 41.1495 9.04 41.6495 9.6C42.1561 10.1533 42.8261 10.43 43.6595 10.43ZM50.2391 4.27C49.8925 4.27 49.5691 4.3 49.2691 4.36V10.34C49.5691 10.4 49.8925 10.43 50.2391 10.43C52.2591 10.43 53.2691 9.37 53.2691 7.25C53.2691 6.26333 53.0125 5.52 52.4991 5.02C51.9858 4.52 51.2325 4.27 50.2391 4.27ZM54.0391 7.25C54.0391 8.51 53.7125 9.46667 53.0591 10.12C52.4058 10.7733 51.4658 11.1 50.2391 11.1C49.6458 11.1 49.0558 11.0467 48.4691 10.94V3.76C49.0691 3.65333 49.6591 3.6 50.2391 3.6C51.4591 3.6 52.3958 3.91667 53.0491 4.55C53.7091 5.17667 54.0391 6.07667 54.0391 7.25ZM56.0855 4.37V6.75H59.3555V7.39H56.0855V10.33H59.5555V11H55.2855V3.7H59.5555V4.37H56.0855Z" fill="black"/>
</svg>
