<?xml version="1.0" encoding="UTF-8"?>
<svg id="_レイヤー_2" data-name="レイヤー 2" xmlns="http://www.w3.org/2000/svg" viewBox="0 0 13 34">
  <defs>
    <style>
      .cls-1 {
        fill: lime;
      }

      .cls-2 {
        fill: none;
        stroke: lime;
        stroke-width: .89px;
      }
    </style>
  </defs>
  <g id="_レイヤー_1-2" data-name="レイヤー 1">
    <rect class="cls-2" x=".45" y=".45" width="12.11" height="33.11" rx="3.13" ry="3.13"/>
    <path class="cls-1" d="M3.18,3.68h2.77v.78h-2.77v-.78ZM4.53,4.9h.82v4.73h-.82v-4.73ZM3.12,7.68c.25-.03.54-.07.87-.11.33-.04.68-.09,1.04-.14.37-.05.73-.11,1.1-.16l.04.74c-.5.09-1.01.18-1.52.27-.51.09-.96.16-1.36.23l-.16-.82ZM3.44,6.78c-.01-.05-.04-.12-.06-.21-.03-.09-.06-.18-.09-.27-.03-.1-.07-.18-.1-.24.07-.02.14-.08.19-.18.06-.1.12-.23.19-.39.03-.07.07-.19.13-.37.06-.18.12-.38.19-.62.07-.24.13-.49.19-.77.06-.28.11-.55.14-.82l.83.15c-.09.39-.19.79-.32,1.19-.12.4-.26.77-.41,1.13-.14.36-.29.68-.43.97h0s-.02.03-.07.06c-.04.03-.09.07-.15.11-.06.04-.11.09-.16.14-.04.05-.06.09-.06.12ZM3.44,6.78v-.69l.37-.19h2.08v.77h-1.89c-.11,0-.22,0-.34.03-.11.02-.19.05-.21.08ZM6.94,6.37h2.1v.8h-2.1v-.8ZM8.84,6.37h.13l.13-.04.61.3c-.15.22-.32.45-.5.7-.18.24-.36.49-.56.74-.19.24-.38.48-.56.71l-.74-.35c.18-.21.37-.44.55-.69.19-.24.36-.48.52-.7.17-.23.31-.42.42-.58v-.09ZM6.5,8.16l.55-.55c.27.14.54.29.81.46.27.16.53.33.77.49.24.16.44.31.59.45l-.56.67c-.15-.14-.35-.3-.59-.49-.24-.18-.5-.36-.77-.54-.27-.19-.54-.35-.8-.49ZM7.58,2.93l.85.1c-.08.34-.16.7-.26,1.08-.1.38-.19.75-.29,1.12-.1.37-.19.73-.29,1.06-.09.33-.18.62-.26.87h-.91c.09-.27.19-.58.29-.92.1-.35.21-.71.31-1.1.1-.38.21-.76.3-1.14.1-.38.18-.74.25-1.08ZM6.23,3.68h3.36v.78h-3.36v-.78ZM5.98,5.01h3.87v.8h-3.87v-.8ZM6.53,11.48h2.81v.82h-2.81v-.82ZM8.9,11.48h.84v.07s0,.1,0,.17v.15c-.01.73-.03,1.34-.06,1.85-.02.51-.04.92-.07,1.25-.03.33-.06.59-.11.78-.04.19-.09.32-.15.4-.09.12-.17.21-.26.26-.09.05-.2.09-.33.12-.11.02-.26.03-.43.03-.17,0-.35,0-.54,0,0-.12-.03-.27-.08-.42-.05-.16-.11-.3-.18-.42.17.01.33.02.47.03h.33c.06,0,.11,0,.15-.02.04-.02.08-.05.11-.09.04-.06.08-.17.11-.33.03-.17.06-.4.09-.71.02-.31.04-.7.06-1.18.02-.48.04-1.06.06-1.75v-.18ZM7.34,10.05h.85c0,.56,0,1.1-.02,1.62,0,.52-.04,1.02-.09,1.5-.05.48-.12.93-.23,1.35-.1.42-.25.81-.43,1.17-.18.36-.41.68-.69.96-.04-.08-.1-.16-.18-.24-.07-.08-.15-.16-.23-.24-.08-.08-.16-.14-.23-.18.26-.25.47-.53.62-.85.16-.32.28-.66.37-1.04.09-.38.15-.78.18-1.21.04-.43.06-.88.06-1.35,0-.48.01-.97.01-1.49ZM3.5,10.47h2.81v.75h-2.81v-.75ZM3.26,12.14h3.18v.78h-3.18v-.78ZM5.32,13.56l.69-.19c.09.2.17.41.26.64.09.23.17.45.25.67.08.22.13.41.17.57l-.74.24c-.03-.16-.08-.36-.15-.58-.07-.22-.14-.46-.23-.69-.08-.24-.16-.46-.25-.67ZM3.57,15.86l-.09-.72.36-.27,2.32-.54c0,.11.02.24.04.38.03.14.05.26.08.34-.43.11-.8.21-1.1.29-.3.08-.54.14-.74.2-.19.05-.34.1-.46.14s-.21.07-.27.1c-.06.02-.11.05-.16.09ZM3.57,15.86c0-.05-.03-.13-.06-.22-.03-.1-.06-.19-.1-.29-.04-.1-.07-.19-.11-.26.07-.02.13-.08.19-.16.06-.08.11-.19.17-.32.03-.07.07-.17.11-.32.05-.15.11-.32.16-.52.06-.2.11-.41.17-.64.06-.23.1-.45.14-.68l.84.24c-.07.31-.15.63-.26.96-.1.32-.22.63-.34.93-.12.3-.24.56-.36.8v.02s-.03.01-.09.04c-.06.03-.12.07-.19.11-.07.05-.14.1-.19.15-.06.05-.09.09-.09.13ZM5.96,16.95l.89.16c-.09.42-.21.83-.34,1.23-.13.4-.29.76-.46,1.1-.17.34-.35.63-.54.89-.06-.05-.14-.1-.24-.16-.1-.06-.2-.12-.31-.17-.1-.06-.19-.1-.26-.14.2-.22.38-.48.54-.79.17-.31.31-.65.43-1.01.12-.36.22-.74.29-1.12ZM7.29,18.96h.45v.79c0,.16.02.34.06.55s.1.43.2.67c.1.23.23.46.39.69.17.23.38.46.63.67.25.2.56.38.92.54-.06.07-.12.15-.19.24-.07.1-.13.2-.2.29-.06.1-.12.18-.16.26-.26-.12-.5-.26-.7-.43-.21-.16-.39-.34-.55-.52-.16-.19-.3-.37-.42-.56-.11-.19-.21-.37-.28-.54-.07-.17-.11-.32-.14-.45-.03.13-.09.28-.17.45-.08.17-.18.34-.31.53-.13.19-.28.37-.47.56-.18.19-.39.36-.62.52-.23.17-.5.32-.79.44-.03-.07-.08-.15-.14-.24-.06-.09-.13-.18-.19-.27-.07-.09-.13-.15-.18-.21.39-.15.72-.33.99-.54.28-.21.51-.43.69-.67.19-.24.33-.48.44-.71.11-.24.19-.46.23-.67.04-.21.06-.4.06-.57v-.79h.47ZM3.12,21.9c.13-.13.29-.28.47-.47.18-.19.37-.38.57-.59.2-.21.4-.43.59-.64l.49.74c-.24.29-.51.59-.79.89-.28.3-.54.57-.78.82l-.55-.74ZM3.32,18l.61-.64c.15.1.3.2.47.32.17.11.32.23.47.36.15.12.27.23.36.34l-.64.71c-.08-.1-.19-.22-.34-.35-.14-.13-.29-.26-.45-.39-.16-.13-.32-.25-.47-.35ZM6.27,18.15h2.94v.86h-3.36l.42-.86ZM8.93,18.15h.12l.16-.04.64.37c-.07.24-.15.48-.24.71-.09.24-.19.47-.29.68-.1.21-.2.41-.3.58-.06-.03-.13-.07-.22-.11-.09-.05-.17-.09-.26-.14-.09-.04-.17-.08-.24-.1.08-.15.16-.32.24-.52.09-.2.16-.42.23-.63.07-.22.13-.42.16-.61v-.19ZM3.13,27.65h3.62v.69h-3.62v-.69ZM3.21,25.13h3.51v.68h-3.51v-.68ZM4.42,27.14l.79.16c-.12.25-.25.5-.39.77-.13.26-.27.52-.4.76-.13.24-.26.46-.37.65l-.75-.23c.11-.18.24-.39.37-.64.13-.24.26-.49.39-.75.13-.26.25-.51.36-.73ZM5.43,28.13l.79.07c-.07.38-.17.7-.3.97-.13.27-.3.5-.52.69-.21.19-.48.34-.79.46-.31.13-.68.24-1.11.32-.02-.12-.07-.24-.14-.38-.07-.13-.14-.24-.21-.33.47-.06.86-.16,1.17-.29.31-.13.55-.32.73-.56.18-.24.3-.56.37-.95ZM5.94,24l.72.29c-.11.16-.23.31-.34.47-.11.15-.21.28-.3.39l-.55-.24c.08-.12.17-.27.26-.44.09-.18.16-.33.21-.47ZM4.58,23.91h.79v3.33h-.79v-3.33ZM3.39,24.3l.62-.26c.1.13.18.28.26.45.08.17.14.31.17.44l-.66.29c-.02-.12-.07-.27-.15-.44-.08-.17-.16-.33-.24-.47ZM4.6,25.46l.55.34c-.11.19-.26.38-.45.57-.18.19-.38.37-.59.54-.21.16-.41.3-.61.42-.05-.09-.11-.2-.2-.32-.08-.12-.16-.22-.24-.3.19-.08.38-.19.58-.32.2-.13.38-.28.54-.44.17-.16.31-.33.41-.49ZM5.3,25.67c.07.03.16.08.27.15.12.07.25.14.38.22.14.08.26.15.37.21.11.07.2.12.24.15l-.45.59c-.07-.06-.15-.14-.26-.23-.11-.09-.22-.18-.34-.28-.12-.1-.23-.19-.34-.27-.11-.09-.21-.15-.29-.21l.41-.34ZM7.22,25.21h2.63v.79h-2.63v-.79ZM7.3,23.91l.87.13c-.08.49-.17.97-.29,1.43-.12.46-.26.88-.44,1.27-.17.39-.36.73-.59,1.02-.04-.06-.11-.12-.19-.2-.08-.08-.17-.15-.26-.22-.09-.08-.17-.14-.23-.19.2-.25.37-.54.52-.88.15-.34.27-.72.37-1.12.1-.4.18-.82.23-1.25ZM8.6,25.7l.88.09c-.1.82-.27,1.53-.49,2.15-.21.62-.51,1.15-.89,1.6-.38.45-.87.82-1.47,1.12-.03-.07-.07-.15-.13-.25s-.12-.2-.19-.3c-.07-.1-.13-.17-.19-.23.54-.24.98-.55,1.32-.93.34-.38.6-.84.78-1.38.18-.54.31-1.17.38-1.88ZM7.71,25.85c.1.6.24,1.17.42,1.7.18.53.42.99.72,1.4.3.4.66.71,1.1.94-.06.05-.13.12-.21.21-.08.09-.15.18-.22.28-.07.1-.12.18-.16.26-.48-.29-.88-.66-1.2-1.11-.31-.45-.56-.98-.75-1.57-.19-.6-.35-1.26-.47-1.97l.77-.13ZM3.94,29.27l.46-.58c.28.11.56.23.84.36.28.14.54.28.78.43.24.14.45.28.61.42l-.6.61c-.15-.13-.33-.27-.56-.42-.22-.15-.47-.29-.73-.43-.26-.14-.53-.27-.79-.39Z"/>
  </g>
</svg>