<svg width="25" height="24" viewBox="0 0 25 24" fill="none" xmlns="http://www.w3.org/2000/svg">
<path d="M4.3584 20.0061C3.8084 20.0061 3.33773 19.8104 2.9464 19.4191C2.55507 19.0278 2.35907 18.5568 2.3584 18.0061V6.0061C2.3584 5.4561 2.5544 4.98544 2.9464 4.5941C3.3384 4.20277 3.80907 4.00677 4.3584 4.0061H20.3584C20.9084 4.0061 21.3794 4.2021 21.7714 4.5941C22.1634 4.9861 22.3591 5.45677 22.3584 6.0061V18.0061C22.3584 18.5561 22.1627 19.0271 21.7714 19.4191C21.3801 19.8111 20.9091 20.0068 20.3584 20.0061H4.3584ZM12.3584 13.0061L4.3584 8.0061V18.0061H20.3584V8.0061L12.3584 13.0061ZM12.3584 11.0061L20.3584 6.0061H4.3584L12.3584 11.0061ZM4.3584 8.0061V6.0061V18.0061V8.0061Z" fill="white"/>
</svg>
