<?xml version="1.0" encoding="UTF-8"?>
<svg id="_レイヤー_2" data-name="レイヤー 2" xmlns="http://www.w3.org/2000/svg" xmlns:xlink="http://www.w3.org/1999/xlink" viewBox="0 0 41.4 21.24">
  <defs>
    <style>
      .cls-1 {
        fill: none;
        stroke: url(#_名称未設定グラデーション_7);
        stroke-width: 1.42px;
      }

      .cls-2 {
        fill: #f4f4f4;
      }

      .cls-3 {
        fill: url(#_名称未設定グラデーション_8);
      }

      .cls-4 {
        opacity: .6;
      }
    </style>
    <linearGradient id="_名称未設定グラデーション_7" data-name="名称未設定グラデーション 7" x1="30.78" y1="-424.63" x2="30.78" y2="-443.04" gradientTransform="translate(0 -423.22) scale(1 -1)" gradientUnits="userSpaceOnUse">
      <stop offset="0" stop-color="#12161a"/>
      <stop offset="1" stop-color="#1e242b"/>
    </linearGradient>
    <linearGradient id="_名称未設定グラデーション_8" data-name="名称未設定グラデーション 8" x1="30.78" y1="-424.63" x2="30.78" y2="-443.04" gradientTransform="translate(0 -423.22) scale(1 -1)" gradientUnits="userSpaceOnUse">
      <stop offset="0" stop-color="#2c2e2f"/>
      <stop offset="1" stop-color="#404142"/>
    </linearGradient>
  </defs>
  <g id="_レイヤー_1-2" data-name="レイヤー 1">
    <g class="cls-4">
      <path class="cls-2" d="M1.44,3.61h4.94v.6H1.44v-.6ZM1.44,5.46h4.94v.59H1.44v-.59ZM1.44,7.32h4.94v.6H1.44v-.6ZM1,1.73h5.86v6.62h-.67V2.35H1.65v6.05h-.65V1.73ZM3.48.55l.74.1c-.09.26-.19.51-.3.76-.1.26-.2.48-.3.66l-.57-.11c.06-.14.11-.29.16-.45.06-.17.11-.34.15-.5.05-.17.09-.33.11-.47ZM8.7,6.12h3.88v.49h-3.88v-.49ZM8.47,2.02h4.25v.5h-4.25v-.5ZM10.32,1.26h.59v6.25h-.59V1.26ZM8.47,7.52c.35-.03.74-.07,1.19-.11.45-.04.93-.08,1.44-.14.51-.05,1.01-.1,1.51-.16v.5c-.47.06-.96.11-1.45.17-.49.06-.95.12-1.4.16-.44.05-.84.1-1.21.14l-.08-.56ZM9.25,4.54v.62h2.76v-.62h-2.76ZM9.25,3.5v.61h2.76v-.61h-2.76ZM8.73,3.06h3.83v2.54h-3.83v-2.54ZM12.25.66l.31.49c-.33.07-.72.13-1.16.19-.44.06-.89.1-1.36.14-.46.03-.91.06-1.33.07-.01-.07-.03-.15-.07-.24-.03-.09-.06-.17-.08-.24.32-.02.64-.04.98-.06.34-.03.67-.06,1-.09.33-.03.65-.07.93-.12.29-.04.55-.09.77-.14ZM12.65,2.56h3.07v.59h-3.07v-.59ZM15.47,2.56h.61v.32c-.02.9-.05,1.66-.08,2.28-.02.61-.05,1.11-.08,1.5-.03.39-.08.69-.13.91-.05.21-.1.36-.18.45-.07.11-.15.19-.25.24-.09.05-.2.07-.32.09-.12.02-.27.02-.46.02-.19,0-.38,0-.59,0,0-.09-.03-.2-.06-.31-.03-.11-.08-.21-.13-.3.21.02.4.03.58.03.17,0,.3,0,.38,0,.07,0,.12,0,.17-.03.04-.02.09-.05.13-.1.06-.07.11-.2.14-.4.04-.2.07-.5.1-.88.03-.38.05-.87.08-1.47.03-.6.05-1.33.08-2.19v-.14ZM13.68.68h.62c0,.67-.02,1.33-.03,1.95-.01.63-.05,1.23-.11,1.79-.06.57-.17,1.1-.32,1.59-.14.49-.34.94-.6,1.35-.26.4-.59.76-.99,1.06-.03-.05-.07-.11-.13-.16-.06-.06-.12-.11-.18-.17-.06-.05-.11-.09-.16-.13.39-.28.7-.6.94-.98.24-.38.43-.8.56-1.26.14-.46.23-.96.28-1.49.06-.54.09-1.1.1-1.7.01-.6.02-1.22.02-1.86ZM.15,10.42h7.45v.6H.15v-.6ZM3.53,9.57h.65v1.09h-.65v-1.09ZM4.68,10.66h.62v2.23c0,.16-.02.28-.06.37-.04.08-.12.15-.24.2-.11.05-.27.07-.47.09-.2,0-.44,0-.72,0-.02-.09-.04-.18-.08-.28-.03-.11-.07-.2-.1-.29.21,0,.4,0,.57,0h.33c.06,0,.09-.02.11-.03.02-.02.03-.05.03-.09v-2.22ZM2.9,10.59h.6v.48c0,.22-.02.45-.05.69-.03.24-.09.49-.19.74-.1.25-.24.49-.44.73-.2.23-.46.45-.8.66-.03-.05-.08-.1-.14-.15-.05-.06-.11-.11-.17-.16-.06-.05-.11-.09-.15-.13.31-.18.55-.37.73-.57.18-.2.31-.41.4-.63.09-.22.14-.42.16-.63.03-.2.04-.39.04-.57v-.46ZM5.74,11.7l.5-.29c.19.16.38.34.57.54.19.2.37.4.54.59.17.19.31.37.41.52l-.54.34c-.09-.16-.22-.34-.38-.54s-.34-.4-.53-.6c-.19-.2-.38-.39-.57-.56ZM1.44,11.46l.61.16c-.18.32-.42.64-.7.95-.28.31-.58.56-.89.76-.06-.06-.13-.12-.22-.2-.08-.07-.16-.13-.23-.18.2-.12.39-.26.58-.42.19-.16.35-.34.5-.53.15-.19.27-.37.36-.54ZM2.45,14.46c.3.46.71.85,1.22,1.17.52.32,1.13.58,1.83.78.7.19,1.46.32,2.29.39-.04.05-.09.11-.14.18-.05.07-.1.15-.14.21-.04.07-.07.14-.1.2-.85-.09-1.63-.25-2.34-.48-.7-.23-1.32-.53-1.86-.9-.53-.37-.97-.83-1.32-1.37l.55-.2ZM2.94,13.41l.68.13c-.32.43-.72.84-1.21,1.23-.49.39-1.09.73-1.78,1.03-.03-.05-.07-.1-.12-.16-.04-.06-.09-.12-.14-.18-.05-.06-.1-.1-.15-.13.66-.26,1.21-.56,1.67-.9.46-.35.81-.68,1.04-1.02ZM2.69,14.06h3.17v.53h-3.64l.47-.53ZM5.69,14.06h.14l.12-.03.42.28c-.27.48-.62.89-1.05,1.24-.42.35-.9.64-1.44.88-.53.24-1.1.45-1.71.6-.6.16-1.22.28-1.85.37-.02-.05-.05-.11-.08-.19-.03-.07-.07-.14-.11-.21s-.08-.12-.13-.17c.62-.07,1.22-.18,1.8-.32.58-.14,1.13-.31,1.63-.52.5-.22.95-.48,1.33-.78.39-.31.7-.66.92-1.06v-.11ZM12.5,9.56l.61.09c-.17.43-.4.86-.7,1.3-.3.44-.68.84-1.15,1.2-.04-.07-.11-.14-.2-.22-.09-.08-.16-.14-.23-.18.29-.2.54-.43.76-.68.22-.25.4-.5.55-.77.15-.26.27-.51.36-.75ZM12.53,10.22h1.83v.51h-2.13l.31-.51ZM12.83,11.91h.48c-.02.31-.06.58-.13.82-.06.23-.16.43-.31.6-.14.16-.35.31-.61.42-.03-.06-.07-.12-.14-.2-.06-.08-.11-.14-.16-.17.32-.14.54-.32.65-.55.12-.23.19-.54.2-.93ZM13.89,11.92h.49v.99c0,.06.01.1.03.12.02.02.08.03.16.03h.57c.06,0,.1,0,.12,0,.02-.01.04-.03.04-.05.05.04.12.07.2.1.09.03.16.05.23.07-.02.12-.08.2-.16.26-.08.05-.2.08-.36.08h-.7c-.17,0-.3-.01-.39-.04-.09-.03-.15-.09-.19-.18s-.05-.21-.05-.37v-.99ZM10.95,14.69h5.24v.54h-5.24v-.54ZM13.9,14.87c.17.52.45.95.85,1.28.4.33.92.55,1.56.68-.07.06-.14.15-.21.25-.07.11-.12.2-.16.28-.46-.11-.87-.27-1.21-.48-.34-.22-.62-.48-.85-.8-.23-.32-.4-.7-.54-1.12l.56-.09ZM11.98,11.58h3.5v.53h-3.5v2.28h-.54v-2.8h.54ZM15.3,11.58h.56v2.78h-.56v-2.78ZM14.16,10.22h.13l.09-.02.41.25c-.07.17-.16.35-.26.53-.1.18-.21.36-.31.53-.11.16-.21.31-.32.44-.05-.04-.12-.09-.2-.14-.08-.05-.16-.09-.23-.12.08-.12.17-.27.26-.42.09-.16.17-.32.25-.48.08-.17.14-.32.19-.45v-.11ZM13.3,13.93h.6c-.04.47-.11.88-.2,1.26-.1.37-.25.7-.46.99-.2.28-.49.53-.85.73-.36.2-.83.37-1.39.5-.03-.07-.07-.16-.14-.26-.06-.1-.12-.17-.19-.23.53-.11.96-.26,1.29-.42.33-.18.59-.38.77-.62.18-.24.31-.53.39-.85.09-.32.14-.69.18-1.1ZM8.35,13.98c.33-.1.73-.22,1.19-.36.47-.15.95-.3,1.43-.45l.09.59c-.44.15-.89.29-1.33.44-.45.15-.85.28-1.21.39l-.16-.61ZM8.47,11.29h2.57v.6h-2.57v-.6ZM9.53,9.58h.6v7.07c0,.17-.02.3-.07.4-.04.1-.11.17-.22.22-.1.05-.24.08-.41.1-.17.02-.39.02-.66.02,0-.07-.03-.17-.07-.29-.03-.11-.07-.21-.11-.31.18,0,.35,0,.49,0,.15,0,.26,0,.31,0,.05,0,.09-.01.11-.03.02-.02.03-.06.03-.12v-7.07Z"/>
    </g>
    <rect class="cls-1" x="20.86" y=".71" width="19.83" height="19.83" rx="3.78" ry="3.78"/>
    <rect class="cls-3" x="21.57" y="1.42" width="18.41" height="18.41" rx="3.07" ry="3.07"/>
  </g>
</svg>