<svg width="39" height="28" viewBox="0 0 39 28" fill="none" xmlns="http://www.w3.org/2000/svg">
<rect x="2.5726" y="1.54526" width="33.9916" height="22.6611" rx="2.83264" stroke="url(#paint0_linear_2011_19662)" stroke-width="1.41632"/>
<g filter="url(#filter0_di_2011_19662)">
<rect x="3.28076" y="2.25342" width="32.5753" height="21.2447" rx="2.12448" fill="url(#paint1_linear_2011_19662)"/>
</g>
<g filter="url(#filter1_d_2011_19662)">
<path d="M8.95167 7.86881H18.8886V8.66195H8.95167V7.86881ZM13.4612 6.73576H14.3337V8.18607H13.4612V6.73576ZM14.9908 8.18607H15.818V11.166C15.818 11.3775 15.7915 11.5437 15.7387 11.6645C15.6858 11.7779 15.58 11.8685 15.4214 11.9365C15.2703 11.9969 15.0626 12.0347 14.7982 12.0498C14.5338 12.0573 14.2128 12.0611 13.8351 12.0611C13.8125 11.9478 13.7785 11.8232 13.7332 11.6872C13.6878 11.5437 13.6425 11.4153 13.5972 11.302C13.8767 11.3095 14.1297 11.3133 14.3563 11.3133C14.5829 11.3133 14.7302 11.3133 14.7982 11.3133C14.8738 11.3057 14.9229 11.2906 14.9455 11.268C14.9757 11.2453 14.9908 11.2038 14.9908 11.1433V8.18607ZM12.6114 8.09542H13.4159V8.72993C13.4159 9.01697 13.3932 9.3229 13.3479 9.64771C13.3102 9.97252 13.2271 10.3011 13.0986 10.6335C12.9702 10.9658 12.7738 11.2906 12.5095 11.6079C12.2451 11.9176 11.8901 12.2122 11.4444 12.4917C11.3991 12.4237 11.3386 12.3557 11.2631 12.2877C11.1951 12.2122 11.1196 12.1404 11.0365 12.0724C10.9609 12.0045 10.893 11.9478 10.8325 11.9025C11.2404 11.6683 11.5652 11.4153 11.807 11.1433C12.0487 10.8714 12.2262 10.5919 12.3395 10.3049C12.4528 10.0178 12.5246 9.73835 12.5548 9.46642C12.5925 9.19449 12.6114 8.94144 12.6114 8.70727V8.09542ZM16.3958 9.57972L17.0643 9.19449C17.3136 9.40599 17.5667 9.64393 17.8235 9.90831C18.0803 10.1727 18.322 10.4371 18.5486 10.7014C18.7753 10.9583 18.9565 11.1887 19.0925 11.3926L18.3787 11.8458C18.2578 11.6343 18.0879 11.3964 17.8688 11.132C17.6498 10.8676 17.4118 10.5995 17.155 10.3275C16.8982 10.0556 16.6451 9.80634 16.3958 9.57972ZM10.6626 9.25114L11.4784 9.46642C11.2367 9.89698 10.9232 10.32 10.5379 10.7354C10.1603 11.1433 9.76369 11.4795 9.34823 11.7439C9.2727 11.6683 9.1745 11.5815 9.05364 11.4833C8.94033 11.3851 8.83836 11.3057 8.74772 11.2453C9.01209 11.0867 9.26892 10.8978 9.51819 10.6788C9.76746 10.4597 9.9903 10.2256 10.1867 9.97629C10.3906 9.72702 10.5493 9.4853 10.6626 9.25114ZM12.0109 13.2622C12.4113 13.874 12.9551 14.3952 13.6425 14.8258C14.3375 15.2563 15.1495 15.6038 16.0786 15.8682C17.0077 16.125 18.0237 16.2987 19.1265 16.3894C19.0736 16.4574 19.0132 16.5367 18.9452 16.6273C18.8772 16.7255 18.8168 16.8199 18.7639 16.9106C18.711 17.0088 18.6657 17.0994 18.628 17.1825C17.4949 17.0617 16.4563 16.8502 15.5121 16.548C14.5754 16.2459 13.7483 15.8455 13.0307 15.347C12.3206 14.8484 11.7352 14.2404 11.2744 13.5228L12.0109 13.2622ZM12.6681 11.8572L13.5745 12.0271C13.1515 12.6012 12.6114 13.1488 11.9543 13.6701C11.2971 14.1837 10.5077 14.6407 9.58618 15.041C9.54841 14.9731 9.49553 14.9013 9.42755 14.8258C9.36712 14.7427 9.30291 14.6634 9.23493 14.5878C9.16695 14.5123 9.10274 14.4556 9.04231 14.4179C9.91854 14.078 10.6626 13.6776 11.2744 13.2168C11.8863 12.7561 12.3508 12.3028 12.6681 11.8572ZM12.3395 12.7183H16.5658V13.4208H11.7163L12.3395 12.7183ZM16.3392 12.7183H16.5318L16.6904 12.6843L17.2456 13.0582C16.8831 13.6927 16.4185 14.2441 15.852 14.7125C15.293 15.1732 14.6547 15.566 13.9371 15.8908C13.2271 16.2156 12.4679 16.4838 11.6597 16.6953C10.859 16.9068 10.0356 17.073 9.18961 17.1939C9.16695 17.1259 9.12918 17.0428 9.0763 16.9446C9.03098 16.8464 8.98188 16.752 8.929 16.6613C8.87613 16.5707 8.81948 16.4951 8.75905 16.4347C9.58995 16.3365 10.3906 16.1968 11.1611 16.0155C11.9392 15.8342 12.6643 15.6038 13.3366 15.3243C14.0089 15.0373 14.6018 14.6898 15.1155 14.2819C15.6367 13.874 16.0446 13.4019 16.3392 12.8656V12.7183ZM25.415 6.72443L26.2308 6.84906C26.0041 7.42314 25.6944 8.001 25.3016 8.58264C24.9089 9.16427 24.399 9.69681 23.772 10.1802C23.7116 10.0896 23.6209 9.9914 23.5001 9.88565C23.3868 9.7799 23.2848 9.70058 23.1942 9.64771C23.5794 9.37577 23.9155 9.07363 24.2026 8.74126C24.4972 8.4089 24.7427 8.06898 24.9391 7.72151C25.143 7.37404 25.3016 7.04168 25.415 6.72443ZM25.4603 7.60821H27.8963V8.28804H25.0524L25.4603 7.60821ZM25.8568 9.85166H26.5027C26.48 10.2596 26.4234 10.6221 26.3327 10.9394C26.2496 11.2491 26.1137 11.5172 25.9248 11.7439C25.736 11.9629 25.4641 12.1518 25.109 12.3104C25.0713 12.2348 25.0108 12.148 24.9277 12.0498C24.8522 11.944 24.7804 11.8685 24.7125 11.8232C25.143 11.6419 25.4338 11.3964 25.5849 11.0867C25.7435 10.777 25.8342 10.3653 25.8568 9.85166ZM27.2618 9.87432H27.919V11.1887C27.919 11.2718 27.9341 11.3246 27.9643 11.3473C27.9945 11.37 28.0663 11.3813 28.1796 11.3813C28.2174 11.3813 28.2854 11.3813 28.3836 11.3813C28.4893 11.3813 28.5951 11.3813 28.7008 11.3813C28.8141 11.3813 28.8934 11.3813 28.9388 11.3813C29.0143 11.3813 29.0672 11.3775 29.0974 11.37C29.1276 11.3548 29.1465 11.3322 29.154 11.302C29.222 11.3548 29.3127 11.4002 29.426 11.4379C29.5393 11.4757 29.6412 11.5059 29.7319 11.5286C29.7017 11.6872 29.6299 11.8005 29.5166 11.8685C29.4109 11.9365 29.2522 11.9705 29.0407 11.9705C29.0105 11.9705 28.9501 11.9705 28.8594 11.9705C28.7763 11.9705 28.6819 11.9705 28.5762 11.9705C28.4704 11.9705 28.3722 11.9705 28.2816 11.9705C28.1985 11.9705 28.1381 11.9705 28.1003 11.9705C27.8737 11.9705 27.6999 11.9516 27.5791 11.9138C27.4582 11.8685 27.3751 11.7892 27.3298 11.6759C27.2845 11.5626 27.2618 11.4002 27.2618 11.1887V9.87432ZM23.3528 13.5681H30.3437V14.2932H23.3528V13.5681ZM27.2845 13.806C27.5111 14.501 27.8888 15.0713 28.4175 15.5169C28.9539 15.955 29.6488 16.2572 30.5024 16.4234C30.4117 16.5065 30.3173 16.616 30.2191 16.752C30.1285 16.8955 30.0567 17.0201 30.0038 17.1259C29.3844 16.9824 28.8443 16.7671 28.3836 16.48C27.9303 16.193 27.5527 15.838 27.2505 15.415C26.9484 14.9844 26.7104 14.4859 26.5367 13.9193L27.2845 13.806ZM24.7238 9.40977H29.392V10.1123H24.7238V13.1488H23.9986V9.40977H24.01H24.7238ZM29.154 9.40977H29.9019V13.1149H29.154V9.40977ZM27.6244 7.60821H27.7944L27.919 7.57422L28.4629 7.91413C28.3647 8.14074 28.2476 8.37491 28.1116 8.61663C27.9757 8.85835 27.8359 9.09251 27.6924 9.31912C27.5489 9.53818 27.4091 9.73458 27.2732 9.90831C27.2052 9.85543 27.1145 9.795 27.0012 9.72702C26.8879 9.65904 26.786 9.60616 26.6953 9.56839C26.8086 9.40221 26.9257 9.21337 27.0466 9.00187C27.1674 8.79036 27.2769 8.57508 27.3751 8.35602C27.4809 8.12941 27.564 7.92924 27.6244 7.75551V7.60821ZM26.48 12.5483H27.2732C27.2203 13.1677 27.1296 13.7267 27.0012 14.2252C26.8728 14.7238 26.6689 15.1619 26.3894 15.5396C26.1174 15.9173 25.7398 16.2421 25.2563 16.514C24.7729 16.786 24.1535 17.0088 23.3981 17.1825C23.3603 17.0843 23.2999 16.971 23.2168 16.8426C23.1337 16.7142 23.0506 16.6122 22.9676 16.5367C23.67 16.3856 24.2441 16.1968 24.6898 15.9702C25.1355 15.736 25.4792 15.4603 25.7209 15.143C25.9626 14.8182 26.1363 14.4405 26.2421 14.01C26.3554 13.5794 26.4347 13.0922 26.48 12.5483ZM19.8856 12.6163C20.3238 12.4879 20.8525 12.3293 21.4719 12.1404C22.0989 11.944 22.7334 11.7439 23.3755 11.5399L23.5001 12.3217C22.9109 12.5181 22.3179 12.7145 21.7212 12.9109C21.1245 13.1073 20.5844 13.281 20.1009 13.4321L19.8856 12.6163ZM20.0443 9.02453H23.4774V9.81767H20.0443V9.02453ZM21.4606 6.74709H22.2537V16.1741C22.2537 16.4007 22.2235 16.5782 22.1631 16.7066C22.1102 16.8351 22.012 16.9333 21.8685 17.0012C21.7325 17.0692 21.5512 17.1145 21.3246 17.1372C21.098 17.1599 20.8034 17.1674 20.4408 17.1599C20.4333 17.0617 20.4031 16.9333 20.3502 16.7746C20.3049 16.6235 20.2558 16.4876 20.2029 16.3667C20.4446 16.3743 20.6637 16.3781 20.8601 16.3781C21.064 16.3856 21.2 16.3856 21.268 16.3781C21.336 16.3781 21.3851 16.3629 21.4153 16.3327C21.4455 16.3101 21.4606 16.2572 21.4606 16.1741V6.74709Z" fill="#F4F4F4"/>
</g>
<defs>
<filter id="filter0_di_2011_19662" x="0.625164" y="1.19118" width="37.8864" height="26.5558" filterUnits="userSpaceOnUse" color-interpolation-filters="sRGB">
<feFlood flood-opacity="0" result="BackgroundImageFix"/>
<feColorMatrix in="SourceAlpha" type="matrix" values="0 0 0 0 0 0 0 0 0 0 0 0 0 0 0 0 0 0 127 0" result="hardAlpha"/>
<feOffset dy="1.59336"/>
<feGaussianBlur stdDeviation="1.3278"/>
<feColorMatrix type="matrix" values="0 0 0 0 0 0 0 0 0 0 0 0 0 0 0 0 0 0 0.4 0"/>
<feBlend mode="normal" in2="BackgroundImageFix" result="effect1_dropShadow_2011_19662"/>
<feBlend mode="normal" in="SourceGraphic" in2="effect1_dropShadow_2011_19662" result="shape"/>
<feColorMatrix in="SourceAlpha" type="matrix" values="0 0 0 0 0 0 0 0 0 0 0 0 0 0 0 0 0 0 127 0" result="hardAlpha"/>
<feOffset dy="0.531119"/>
<feComposite in2="hardAlpha" operator="arithmetic" k2="-1" k3="1"/>
<feColorMatrix type="matrix" values="0 0 0 0 1 0 0 0 0 1 0 0 0 0 1 0 0 0 0.3 0"/>
<feBlend mode="normal" in2="shape" result="effect2_innerShadow_2011_19662"/>
</filter>
<filter id="filter1_d_2011_19662" x="8.7478" y="6.19349" width="21.7546" height="11.0004" filterUnits="userSpaceOnUse" color-interpolation-filters="sRGB">
<feFlood flood-opacity="0" result="BackgroundImageFix"/>
<feColorMatrix in="SourceAlpha" type="matrix" values="0 0 0 0 0 0 0 0 0 0 0 0 0 0 0 0 0 0 127 0" result="hardAlpha"/>
<feOffset dy="-0.531119"/>
<feColorMatrix type="matrix" values="0 0 0 0 0 0 0 0 0 0 0 0 0 0 0 0 0 0 0.7 0"/>
<feBlend mode="normal" in2="BackgroundImageFix" result="effect1_dropShadow_2011_19662"/>
<feBlend mode="normal" in="SourceGraphic" in2="effect1_dropShadow_2011_19662" result="shape"/>
</filter>
<linearGradient id="paint0_linear_2011_19662" x1="19.5684" y1="2.25342" x2="19.5684" y2="23.4982" gradientUnits="userSpaceOnUse">
<stop stop-color="#1D262D"/>
<stop offset="1" stop-color="#12161A"/>
</linearGradient>
<linearGradient id="paint1_linear_2011_19662" x1="19.5684" y1="2.25342" x2="19.5684" y2="23.4982" gradientUnits="userSpaceOnUse">
<stop stop-color="#414344"/>
<stop offset="1" stop-color="#2B2D2E"/>
</linearGradient>
</defs>
</svg>
