<svg width="750" height="26" viewBox="0 0 750 26" fill="none" xmlns="http://www.w3.org/2000/svg">
<path d="M12.4827 9.816C12.9307 10.072 13.448 10.392 14.0347 10.776L13.3627 11.752C13.7253 11.8053 14.04 11.832 14.3067 11.832C14.808 11.832 15.0747 10.5413 15.1067 7.96H13.0907C12.984 8.504 12.7813 9.12267 12.4827 9.816ZM4.38666 19.88V20.52H2.86666V15.72H7.71466V18.44C8.13066 17.3093 8.45066 16.0667 8.67466 14.712L10.0987 15.048C9.8 16.9253 9.37333 18.4933 8.81866 19.752L7.71466 19.24V19.88H4.38666ZM4.38666 18.52H6.27466V17.08H4.38666V18.52ZM8.56266 9.48L9.18666 8.28C9.82666 8.51467 10.4507 8.776 11.0587 9.064C11.1973 8.68 11.304 8.312 11.3787 7.96H8.41866V6.52H16.7387C16.7387 8.38667 16.6693 9.82133 16.5307 10.824C16.392 11.8267 16.1947 12.4933 15.9387 12.824C15.6933 13.1547 15.352 13.32 14.9147 13.32C14.5627 13.32 13.928 13.2667 13.0107 13.16L12.9627 11.832C12.3547 11.4373 11.9653 11.1867 11.7947 11.08C10.8987 12.4453 9.74666 13.448 8.33866 14.088L7.63466 12.696C8.808 12.1627 9.74133 11.368 10.4347 10.312C9.80533 9.992 9.18133 9.71467 8.56266 9.48ZM14.4827 15.112L15.9387 14.6C16.536 16.0507 17.032 17.5333 17.4267 19.048L15.9547 19.544C15.752 18.776 15.544 18.0613 15.3307 17.4C15.2773 18.264 15.2027 18.8827 15.1067 19.256C15.0107 19.6293 14.8827 19.8693 14.7227 19.976C14.5627 20.0933 14.2907 20.168 13.9067 20.2C13.5653 20.232 13.1653 20.248 12.7067 20.248C12.5787 20.248 12.1787 20.232 11.5067 20.2C11.016 20.168 10.696 20.072 10.5467 19.912C10.408 19.752 10.3387 19.3947 10.3387 18.84V14.36H11.7787C11.3627 14.04 11 13.7787 10.6907 13.576L11.6027 12.504C12.744 13.2613 13.6933 14.024 14.4507 14.792L13.4907 15.848C12.9893 15.368 12.5147 14.9467 12.0667 14.584V18.2C12.0667 18.488 12.0773 18.664 12.0987 18.728C12.1307 18.7813 12.2267 18.8133 12.3867 18.824C12.472 18.8347 12.6267 18.84 12.8507 18.84C13.0533 18.84 13.2027 18.8347 13.2987 18.824C13.416 18.8133 13.5013 18.7707 13.5547 18.696C13.6187 18.6107 13.672 18.4293 13.7147 18.152C13.7573 17.864 13.7947 17.416 13.8267 16.808L15.1707 16.952C14.8933 16.1627 14.664 15.5493 14.4827 15.112ZM2.86666 7.928V6.52H7.66666V7.928H2.86666ZM2.43466 10.232V8.792H7.98666V10.232H2.43466ZM2.97866 12.52V11.16H7.61866V12.52H2.97866ZM2.97866 14.808V13.432H7.61866V14.808H2.97866ZM20.3547 19.88V20.52H18.8187V15.72H23.6667V19.88H20.3547ZM20.3547 18.52H22.2267V17.08H20.3547V18.52ZM24.3547 6.76H33.0587V8.248H30.0667V12.04H32.7067V13.528H30.0667V18.392H33.1867V19.88H24.0667V18.392H25.2667V10.488H26.8667V18.392H28.3547V8.248H24.3547V6.76ZM18.8187 7.928V6.52H23.6187V7.928H18.8187ZM18.3867 10.232V8.792H23.9387V10.232H18.3867ZM18.9467 12.52V11.16H23.5867V12.52H18.9467ZM18.9467 14.808V13.432H23.5867V14.808H18.9467ZM35.9067 7.72H47.2667V18.76H35.9067V17.24H45.5867V9.24H35.9067V7.72ZM51.1067 14.072V12.392H64.2267V14.072H51.1067ZM74.1147 7.832L75.5547 7.112C76.056 7.976 76.5733 8.92533 77.1067 9.96L75.6827 10.648C75.2453 9.79467 74.7227 8.856 74.1147 7.832ZM76.5787 7.176L78.0187 6.44C78.5947 7.38933 79.128 8.34933 79.6187 9.32L78.1787 10.024C77.688 9.08533 77.1547 8.136 76.5787 7.176ZM69.1867 6.84H70.9467V11.416C73.8373 12.1093 76.7813 13.0107 79.7787 14.12L79.2347 15.72C76.4293 14.6747 73.6667 13.816 70.9467 13.144V19.96H69.1867V6.84ZM87.2667 6.008L88.8507 6.376C88.616 7.02667 88.4293 7.528 88.2907 7.88H95.1067V9.24H87.7467C87.576 9.656 87.3307 10.2213 87.0107 10.936L87.0427 10.952C87.7467 10.664 88.3813 10.52 88.9467 10.52C90.2907 10.52 91.192 11.1813 91.6507 12.504C92.696 12.28 93.8693 12.088 95.1707 11.928L95.3147 13.32C93.9493 13.4907 92.8347 13.6773 91.9707 13.88C92.088 14.68 92.1467 15.6133 92.1467 16.68H90.4667C90.4667 15.7307 90.4347 14.9413 90.3707 14.312C88.1947 14.984 87.1067 15.7733 87.1067 16.68C87.1067 16.936 87.1547 17.1547 87.2507 17.336C87.3467 17.5173 87.528 17.688 87.7947 17.848C88.0613 18.008 88.4613 18.1307 88.9947 18.216C89.5387 18.2907 90.216 18.328 91.0267 18.328C92.0933 18.328 93.4107 18.2053 94.9787 17.96L95.1227 19.4C93.8427 19.6133 92.4773 19.72 91.0267 19.72C89.0427 19.72 87.6133 19.4853 86.7387 19.016C85.864 18.5573 85.4267 17.832 85.4267 16.84C85.4267 15.1547 86.9787 13.8427 90.0827 12.904C89.9333 12.52 89.7413 12.2587 89.5067 12.12C89.2827 11.9707 88.9893 11.896 88.6267 11.896C88.072 11.896 87.4053 12.1947 86.6267 12.792C85.848 13.3893 85.0693 14.2373 84.2907 15.336L82.9627 14.472C84.232 12.7333 85.2613 10.9893 86.0507 9.24H83.1067V7.88H86.6107C86.8667 7.19733 87.0853 6.57333 87.2667 6.008ZM105.283 10.328C104.973 9.624 104.675 8.984 104.387 8.408C103.544 8.45067 102.888 8.47733 102.419 8.488C102.696 9.02133 102.984 9.63467 103.283 10.328H105.283ZM108.243 10.328C108.637 9.54933 108.984 8.76533 109.283 7.976C108.184 8.11467 107.091 8.22133 106.003 8.296C106.323 8.92533 106.632 9.60267 106.931 10.328H108.243ZM111.027 11.64H100.307V14.072H98.6267V10.328H101.651C101.373 9.69867 101.08 9.096 100.771 8.52H99.5867L99.4107 7.08C104.541 7.08 108.648 6.74933 111.731 6.088L112.099 7.512C111.309 7.68267 110.547 7.816 109.811 7.912L110.867 8.152C110.568 8.93067 110.253 9.656 109.923 10.328H112.707V14.072H111.027V11.64ZM101.283 15.16L102.547 14.248C103.357 15.112 104.333 15.8587 105.475 16.488C106.637 15.784 107.592 14.9787 108.339 14.072H100.947V12.728H110.227V14.072C109.373 15.2987 108.312 16.36 107.043 17.256C108.771 17.992 110.664 18.5093 112.723 18.808L112.211 20.232C109.779 19.9013 107.544 19.224 105.507 18.2C103.693 19.16 101.565 19.8373 99.1227 20.232L98.6107 18.808C100.477 18.5627 102.248 18.0613 103.923 17.304C102.909 16.6747 102.029 15.96 101.283 15.16ZM119.587 9.56H124.707V6.52H126.307V9.56H128.787V11H126.307V13.16C126.307 14.6747 126.173 15.848 125.907 16.68C125.651 17.512 125.208 18.1573 124.579 18.616C123.949 19.0747 123.011 19.4693 121.763 19.8L121.251 18.36C121.795 18.2107 122.227 18.0773 122.547 17.96C122.867 17.8427 123.171 17.688 123.459 17.496C123.747 17.304 123.96 17.1067 124.099 16.904C124.237 16.6907 124.36 16.4027 124.467 16.04C124.573 15.6773 124.637 15.2773 124.659 14.84C124.691 14.4027 124.707 13.8427 124.707 13.16V11H119.587V9.56ZM117.795 6.856C117.283 8.82933 117.027 10.9573 117.027 13.24C117.027 15.5227 117.283 17.6507 117.795 19.624L116.147 19.816C115.613 17.7893 115.347 15.5973 115.347 13.24C115.347 10.8827 115.613 8.69067 116.147 6.664L117.795 6.856ZM132.867 13.272H135.875V11.192H132.867V13.272ZM135.875 17.8C133.933 18.1413 132.083 18.408 130.323 18.6L130.179 17.16C130.413 17.1387 130.776 17.096 131.267 17.032V7.96H130.387V6.52H138.467V7.288H144.787V8.76C144.349 11.608 143.517 14.0347 142.291 16.04C143.08 17.096 144.088 18.008 145.315 18.776L144.499 20.184C143.304 19.4053 142.259 18.472 141.363 17.384C140.499 18.4933 139.496 19.4267 138.355 20.184L137.539 18.936V20.472H135.875V17.8ZM135.875 16.344V14.552H132.867V16.824C133.976 16.664 134.979 16.504 135.875 16.344ZM138.067 9.576L139.619 9.224C140.003 11.3147 140.563 13.064 141.299 14.472C142.173 12.8293 142.781 10.9253 143.123 8.76H138.147V7.96H137.539V18.696C138.616 17.992 139.56 17.0853 140.371 15.976C139.325 14.2587 138.557 12.1253 138.067 9.576ZM135.875 7.96H132.867V9.912H135.875V7.96ZM155.843 18.12C157.272 17.6827 157.987 16.7493 157.987 15.32C157.987 14.4773 157.72 13.864 157.187 13.48C156.653 13.0853 155.757 12.888 154.499 12.888C152.355 12.888 150.157 13.48 147.907 14.664L147.299 13.496L155.363 8.504V8.472H148.419V7.08H158.339L158.387 8.504L152.659 11.8L152.675 11.816C153.517 11.6453 154.317 11.56 155.075 11.56C156.685 11.56 157.869 11.8587 158.627 12.456C159.395 13.0533 159.779 13.944 159.779 15.128C159.779 16.6213 159.24 17.7733 158.163 18.584C157.085 19.3947 155.544 19.8 153.539 19.8C151.992 19.8 150.829 19.5653 150.051 19.096C149.283 18.6267 148.899 17.9547 148.899 17.08C148.899 16.408 149.219 15.8427 149.859 15.384C150.499 14.9147 151.405 14.68 152.579 14.68C153.805 14.68 154.685 14.888 155.219 15.304C155.763 15.7093 156.035 16.3013 156.035 17.08C156.035 17.4 155.971 17.7467 155.843 18.12ZM154.211 18.376C154.435 17.9387 154.547 17.56 154.547 17.24C154.547 16.44 153.869 16.04 152.515 16.04C151.907 16.04 151.432 16.1467 151.091 16.36C150.76 16.5627 150.595 16.8027 150.595 17.08C150.595 17.4747 150.829 17.7947 151.299 18.04C151.779 18.2747 152.525 18.392 153.539 18.392C153.848 18.392 154.072 18.3867 154.211 18.376Z" fill="#1D262D"/>
<path d="M324.04 12.408V13.24H329.96V12.408H324.04ZM324.04 10.44V11.288H329.96V10.44H324.04ZM324.04 9.32H329.96V8.472H324.04V9.32ZM330.792 16.2C330.077 15.72 329.458 15.1867 328.936 14.6H325.096C324.552 15.208 323.933 15.7413 323.24 16.2H326.12V15H327.88V16.2H330.792ZM327.88 17.528V18.68H333.912V20.04H320.088V18.68H326.12V17.528H322.232V16.792C321.592 17.1333 320.85 17.4587 320.008 17.768L319.448 16.36C320.952 15.8693 322.184 15.2827 323.144 14.6H319.88V13.24H322.328V8.472H320.04V7.128H322.328V5.72H324.04V7.128H329.96V5.72H331.672V7.128H333.96V8.472H331.672V13.24H334.12V14.6H330.856C331.816 15.2827 333.048 15.8693 334.552 16.36L333.992 17.768C333.149 17.4587 332.408 17.1333 331.768 16.792V17.528H327.88ZM341.224 9.88H335.88V8.408H342.136V5.88H343.864V8.408H350.12V9.88H344.776C346.066 12.3547 348.066 14.776 350.776 17.144L349.864 18.6C347.474 16.5093 345.474 14.056 343.864 11.24V16.472H347.288V17.912H343.864V20.6H342.136V17.912H338.712V16.472H342.136V11.24C340.525 14.056 338.525 16.5093 336.136 18.6L335.224 17.144C337.933 14.776 339.933 12.3547 341.224 9.88ZM358.328 16.088V16.888H363.8V16.088H358.328ZM358.328 14.872H363.8V14.072H358.328V14.872ZM352.44 14.744L351.16 14.504C351.533 12.68 351.8 10.8293 351.96 8.952L353.24 9.08C353.08 11 352.813 12.888 352.44 14.744ZM362.072 10.872H366.28V12.152H356.568L355.56 12.36C355.421 11.5707 355.277 10.792 355.128 10.024V20.44H353.432V6.04H355.128V8.712L356.04 8.504C356.2 9.15467 356.376 9.944 356.568 10.872H360.312V10.168H356.84V8.92H360.312V8.2H356.28V6.872H360.312V5.8H362.072V6.872H365.96V8.2H362.072V8.92H365.48V10.168H362.072V10.872ZM363.4 20.312C362.824 20.312 362.168 20.2907 361.432 20.248L361.4 18.808C362.21 18.8507 362.797 18.872 363.16 18.872C363.48 18.872 363.666 18.856 363.72 18.824C363.773 18.792 363.8 18.664 363.8 18.44V18.072H358.328V20.36H356.6V12.76H365.528V18.44C365.528 19.2933 365.416 19.816 365.192 20.008C364.968 20.2107 364.37 20.312 363.4 20.312ZM370.84 13.848H371.944C372.242 12.92 372.482 12.0133 372.664 11.128H370.28C370.504 12.0987 370.69 13.0053 370.84 13.848ZM374.92 13.848V11.128H374.168C373.976 12.088 373.741 12.9947 373.464 13.848H374.92ZM376.888 13.384L378.216 12.664C378.482 13.7307 378.904 14.7387 379.48 15.688C380.013 14.6533 380.376 13.5227 380.568 12.296H376.52V20.376H374.92V15.24H372.2V16.888H374.552V18.2H372.2V20.52H370.52V18.2H368.088V16.888H370.52V15.24H367.832V13.848H369.384C369.181 12.824 368.989 11.9173 368.808 11.128H367.768V9.72H370.52V8.248H368.2V6.92H370.52V5.8H372.2V6.92H374.488V8.248H372.2V9.72H374.92V6.408H382.168L382.136 7.08C382.072 8.08267 381.997 8.79733 381.912 9.224C381.826 9.65067 381.709 9.92267 381.56 10.04C381.421 10.1573 381.181 10.216 380.84 10.216C380.413 10.216 379.437 10.1893 377.912 10.136L377.88 8.808C378.968 8.86133 379.714 8.888 380.12 8.888C380.28 8.888 380.381 8.84 380.424 8.744C380.466 8.63733 380.509 8.312 380.552 7.768H376.52V10.888H382.088V12.296C381.853 14.024 381.309 15.608 380.456 17.048C381.085 17.8053 381.778 18.424 382.536 18.904L381.944 20.392C381.08 19.8907 380.28 19.2187 379.544 18.376C378.946 19.1333 378.274 19.7893 377.528 20.344L376.712 18.952C377.448 18.4187 378.072 17.8107 378.584 17.128C377.816 15.976 377.25 14.728 376.888 13.384ZM392.44 17.96C393.666 17.8107 394.61 17.3307 395.272 16.52C395.944 15.6987 396.28 14.6053 396.28 13.24C396.28 12.0133 395.885 10.9893 395.096 10.168C394.306 9.336 393.293 8.872 392.056 8.776C391.81 10.824 391.517 12.5467 391.176 13.944C390.845 15.3413 390.472 16.4027 390.056 17.128C389.64 17.8533 389.218 18.36 388.792 18.648C388.376 18.936 387.912 19.08 387.4 19.08C386.578 19.08 385.826 18.6 385.144 17.64C384.461 16.68 384.12 15.5067 384.12 14.12C384.12 12.0827 384.813 10.4293 386.2 9.16C387.586 7.88 389.4 7.24 391.64 7.24C393.442 7.24 394.93 7.80533 396.104 8.936C397.288 10.0667 397.88 11.5013 397.88 13.24C397.88 15.0533 397.416 16.5147 396.488 17.624C395.57 18.7227 394.328 19.3413 392.76 19.48L392.44 17.96ZM390.392 8.856C388.962 9.08 387.826 9.66667 386.984 10.616C386.141 11.5547 385.72 12.7227 385.72 14.12C385.72 15.0267 385.906 15.816 386.28 16.488C386.664 17.1493 387.037 17.48 387.4 17.48C387.57 17.48 387.746 17.4107 387.928 17.272C388.109 17.1227 388.312 16.8507 388.536 16.456C388.77 16.0507 388.989 15.5387 389.192 14.92C389.405 14.3013 389.618 13.4693 389.832 12.424C390.045 11.3787 390.232 10.1893 390.392 8.856ZM402.312 6.6H408.408V8.04C408.408 10.472 408.93 12.6747 409.976 14.648C411.032 16.6107 412.45 18.0773 414.232 19.048L413.32 20.36C412.029 19.7093 410.866 18.696 409.832 17.32C408.808 15.9333 408.029 14.3653 407.496 12.616C406.845 14.2907 405.917 15.8213 404.712 17.208C403.506 18.584 402.162 19.6347 400.68 20.36L399.768 19.048C401.794 17.992 403.448 16.4933 404.728 14.552C406.008 12.6 406.648 10.6427 406.648 8.68V8.12H402.312V6.6ZM420.856 5.848H422.616C422.616 6.744 422.6 7.58133 422.568 8.36H429.208C429.208 10.1627 429.186 11.6827 429.144 12.92C429.112 14.1573 429.042 15.2133 428.936 16.088C428.829 16.9627 428.712 17.6453 428.584 18.136C428.456 18.6267 428.264 19.0107 428.008 19.288C427.762 19.5653 427.512 19.7413 427.256 19.816C427 19.8907 426.658 19.928 426.232 19.928C425.656 19.928 424.562 19.8587 422.952 19.72L422.92 18.12C424.328 18.2587 425.288 18.328 425.8 18.328C426.098 18.328 426.333 18.2427 426.504 18.072C426.685 17.8907 426.85 17.5173 427 16.952C427.149 16.376 427.256 15.5227 427.32 14.392C427.384 13.2507 427.421 11.7467 427.432 9.88H422.488C422.285 12.4933 421.81 14.5627 421.064 16.088C420.317 17.6133 419.154 18.9893 417.576 20.216L416.392 18.936C417.789 17.8693 418.813 16.68 419.464 15.368C420.125 14.056 420.546 12.2267 420.728 9.88H416.472V8.36H420.808C420.84 7.592 420.856 6.75467 420.856 5.848Z" fill="#1D262D"/>
<path d="M638.174 7.48H650.494V19H639.934H638.174V7.48ZM639.934 17.432H648.734V9.048H639.934V17.432ZM663.374 6.408L664.558 5.8C665.006 6.568 665.432 7.35733 665.838 8.168L665.294 8.44V8.52C665.294 12.1573 664.446 14.856 662.75 16.616C661.064 18.376 658.366 19.4107 654.654 19.72L654.414 18.2C657.507 17.9013 659.747 17.1227 661.134 15.864C662.531 14.6053 663.315 12.6107 663.486 9.88H657.79C657.139 11.5867 656.099 13.112 654.67 14.456L653.486 13.416C654.435 12.5093 655.203 11.4693 655.79 10.296C656.376 9.112 656.744 7.87467 656.894 6.584L658.526 6.696C658.451 7.336 658.36 7.89067 658.254 8.36H664.446C664.19 7.85867 663.832 7.208 663.374 6.408ZM665.646 6.168L666.862 5.56C667.363 6.424 667.8 7.22933 668.174 7.976L666.958 8.568C666.638 7.96 666.2 7.16 665.646 6.168ZM669.806 12.808C672.078 12.488 674.291 11.8053 676.446 10.76C678.611 9.704 680.392 8.44533 681.79 6.984L682.83 8.168C681.592 9.448 680.024 10.6107 678.126 11.656V19.768H676.334V12.536C674.254 13.4533 672.163 14.0613 670.062 14.36L669.806 12.808ZM686.542 8.664L687.326 7.176C689.128 8.05067 690.771 8.93067 692.254 9.816L691.406 11.304C689.624 10.2587 688.003 9.37867 686.542 8.664ZM697.534 8.664L699.134 9.016C698.046 15.224 694.046 18.632 687.134 19.24L686.894 17.608C689.998 17.3093 692.408 16.4347 694.126 14.984C695.854 13.5333 696.99 11.4267 697.534 8.664Z" fill="#1D262D"/>
</svg>
