<?xml version="1.0" encoding="UTF-8"?>
<svg id="_レイヤー_2" data-name="レイヤー 2" xmlns="http://www.w3.org/2000/svg" xmlns:xlink="http://www.w3.org/1999/xlink" viewBox="0 0 34.3 31.37">
  <defs>
    <style>
      .cls-1 {
        fill: #f4f4f4;
      }

      .cls-2 {
        fill: url(#_名称未設定グラデーション_30);
      }
    </style>
    <linearGradient id="_名称未設定グラデーション_30" data-name="名称未設定グラデーション 30" x1="15.86" y1="-612" x2="15.86" y2="-631.05" gradientTransform="translate(0 -612) scale(1 -1)" gradientUnits="userSpaceOnUse">
      <stop offset="0" stop-color="#808181"/>
      <stop offset="1" stop-color="#5b5a5b"/>
    </linearGradient>
  </defs>
  <g id="_レイヤー_1-2" data-name="レイヤー 1">
    <path class="cls-1" d="M.25,25.26h.77l1.97,4.91,1.97-4.91h.78l-2.45,6.02h-.6L.25,25.26ZM0,25.26h.68l.11,3.67v2.35h-.79v-6.02ZM5.31,25.26h.68v6.02h-.79v-2.35l.11-3.67ZM7.55,25.26l1.56,3.02,1.57-3.02h.91l-2.08,3.77v2.25h-.8v-2.25l-2.08-3.77h.91ZM16.68,28.92h-1.61v-.65h1.61c.31,0,.56-.05.76-.15.19-.1.33-.24.42-.41.09-.18.14-.38.14-.6,0-.21-.05-.4-.14-.58-.09-.18-.23-.33-.42-.44-.19-.11-.44-.17-.76-.17h-1.42v5.37h-.8v-6.02h2.22c.45,0,.84.08,1.15.24s.55.38.71.65c.16.28.24.59.24.95,0,.39-.08.72-.24.99-.16.27-.4.48-.71.62-.31.14-.7.21-1.15.21ZM21.46,25.8l-1.99,5.49h-.81l2.29-6.02h.52v.53ZM23.13,31.28l-2-5.49v-.53s.51,0,.51,0l2.3,6.02h-.82ZM23.03,29.05v.65h-3.38v-.65h3.38ZM29.15,28.29v2.2c-.08.11-.19.23-.36.37-.16.14-.39.25-.67.36-.28.1-.65.15-1.1.15-.37,0-.7-.06-1.01-.19-.31-.13-.57-.32-.8-.56-.22-.25-.4-.55-.52-.9-.12-.36-.18-.76-.18-1.21v-.47c0-.45.05-.85.16-1.2.11-.35.26-.65.47-.9.21-.25.46-.43.76-.56.3-.13.64-.19,1.03-.19.46,0,.85.08,1.15.24.31.16.55.38.73.65.18.28.29.59.34.95h-.8c-.04-.22-.11-.42-.21-.6-.11-.18-.26-.32-.45-.43-.2-.11-.45-.16-.76-.16-.28,0-.52.05-.72.15-.2.1-.37.25-.5.44-.13.19-.23.42-.3.69-.06.27-.1.57-.1.91v.48c0,.35.04.66.12.93.08.27.2.51.35.7.15.19.33.34.54.43.21.1.45.15.7.15.28,0,.51-.02.69-.07.18-.05.31-.11.41-.17.1-.07.17-.13.23-.19v-1.35h-1.39v-.65h2.19ZM34.3,30.63v.65h-3.19v-.65h3.19ZM31.27,25.26v6.02h-.8v-6.02h.8ZM33.88,27.85v.65h-2.77v-.65h2.77ZM34.26,25.26v.65h-3.15v-.65h3.15Z"/>
    <path class="cls-2" d="M15.86,9.52c.96,0,1.89-.28,2.68-.8.79-.52,1.41-1.27,1.78-2.14.37-.87.46-1.83.27-2.75-.19-.92-.65-1.77-1.32-2.44-.67-.67-1.54-1.12-2.47-1.3-.94-.18-1.91-.09-2.79.27-.88.36-1.64.97-2.17,1.75-.53.78-.81,1.7-.81,2.65,0,1.26.51,2.47,1.41,3.37.91.89,2.13,1.4,3.41,1.4ZM15.86,10.89c-2.99,0-8.96,1.82-8.96,5.44v2.72h17.93v-2.72c0-3.62-5.97-5.44-8.96-5.44Z"/>
  </g>
</svg>