<?xml version="1.0" encoding="UTF-8"?>
<svg id="_レイヤー_2" data-name="レイヤー 2" xmlns="http://www.w3.org/2000/svg" viewBox="0 0 13.32 6.47">
  <defs>
    <style>
      .cls-1 {
        fill: #ff9500;
      }
    </style>
  </defs>
  <g id="_レイヤー_1-2" data-name="レイヤー 1">
    <path class="cls-1" d="M2.73.47h.8v1.93h-.8V.47ZM2.73,4.63h.82v1.84h-.82v-1.84ZM2.5,2.42l.75.35c-.22.17-.45.34-.69.51-.24.16-.45.3-.65.41l-.55-.31c.13-.08.26-.18.4-.29.14-.11.28-.22.41-.34.13-.12.25-.22.34-.33ZM4.08,2.78l.71.39c-.29.2-.6.4-.94.6-.34.2-.68.39-1.02.56-.34.18-.65.33-.95.46l-.52-.37c.23-.1.46-.22.7-.35.24-.13.49-.27.73-.42.24-.15.48-.3.69-.44.22-.15.42-.29.59-.43ZM.6,3.42l.58-.44c.18.08.36.18.55.3.2.12.39.23.57.35.18.12.33.23.44.33l-.63.48c-.1-.1-.24-.21-.41-.33-.17-.12-.35-.25-.55-.37-.19-.12-.38-.23-.56-.32ZM4.1,4l.6-.38c.18.11.38.23.58.37.21.14.4.28.58.42.18.14.34.27.46.39l-.64.42c-.11-.12-.25-.25-.43-.39-.18-.15-.36-.3-.57-.44-.2-.15-.39-.28-.58-.39ZM3.98,5.43l.6-.42c.18.08.37.18.57.29.2.11.4.22.59.34.19.12.35.22.48.32l-.65.46c-.11-.09-.26-.2-.44-.32-.18-.12-.37-.24-.57-.35-.2-.12-.4-.23-.58-.32ZM.14,4.38c.33,0,.71,0,1.12,0,.42,0,.87,0,1.34-.01.47,0,.95-.02,1.45-.02.5,0,.99-.02,1.48-.02l-.04.6c-.48.01-.97.03-1.46.04-.48.01-.96.03-1.43.03-.46,0-.9.02-1.32.03-.41,0-.78.02-1.12.02l-.02-.66ZM1.56,5.07l.75.29c-.15.14-.32.27-.51.41-.19.13-.39.26-.6.37-.2.12-.4.21-.59.3-.05-.05-.11-.11-.18-.18-.07-.07-.15-.14-.23-.21-.07-.06-.14-.12-.2-.16.29-.1.57-.22.85-.36.29-.15.52-.3.71-.46ZM1.36,1.75v.37h3.6v-.37H1.36ZM1.36.8v.36h3.6v-.36H1.36ZM.58.18h5.2v2.56H.58V.18ZM7.42.57L7.95.03c.13.1.27.21.42.34.15.12.3.24.43.36.13.12.24.23.33.33l-.56.6c-.08-.1-.18-.22-.31-.35-.12-.13-.26-.26-.41-.39-.15-.13-.29-.25-.42-.36ZM7.93,6.44l-.19-.81.19-.27,1.52-1.07c.02.08.04.17.07.26.03.1.06.19.1.28.04.09.07.16.1.22-.35.25-.63.46-.85.62s-.39.29-.51.38c-.12.1-.22.17-.28.23-.06.06-.11.11-.15.15ZM6.89,2.1h1.54v.82h-1.54v-.82ZM9.17,2.15h4.15v.87h-4.15v-.87ZM10.83,0h.89v6.47h-.89V0ZM7.93,6.44c-.02-.07-.05-.16-.1-.26-.05-.1-.1-.19-.15-.29-.06-.09-.11-.17-.15-.23.08-.05.17-.13.25-.24.09-.12.13-.25.13-.4v-2.91h.84v3.54s-.03.02-.08.06c-.06.03-.12.08-.2.14-.08.06-.16.12-.24.19-.08.07-.15.14-.21.21-.06.07-.08.14-.08.2Z"/>
  </g>
</svg>