<?xml version="1.0" encoding="UTF-8"?>
<svg id="_レイヤー_1" data-name="レイヤー_1" xmlns="http://www.w3.org/2000/svg" version="1.1" viewBox="0 0 370 75">
  <!-- Generator: Adobe Illustrator 29.3.1, SVG Export Plug-In . SVG Version: 2.1.0 Build 151)  -->
  <defs>
    <style>
      .st0, .st1 {
        fill: #fff;
      }

      .st1 {
        stroke: #1d262d;
      }

      .st2 {
        fill: red;
      }

      .st3 {
        fill: #1d262d;
      }

      .st4 {
        fill: none;
        stroke: #000;
      }
    </style>
  </defs>
  <circle class="st1" cx="41" cy="11" r="10"/>
  <path d="M38.3,6h3.9v9.5h-2v-7.7h-1.9v-1.8Z"/>
  <line class="st4" x1="91" y1="10.5" x2="135.5" y2="10.5"/>
  <circle class="st1" cx="185.5" cy="11" r="9.5"/>
  <path d="M187.1,11.9l-3,.4c-.7,0-1.1.2-1.1,1.1v.3h6.5v1.8h-8.5v-1.7c0-1,0-3,2.4-3.3l3.1-.3c.9,0,1.2-.4,1.2-1.2s-.3-1.3-2.1-1.3-2.4.2-2.4,1.6h-1.9c0-2.1.3-3.4,4.1-3.4s4.2.1,4.2,3,0,1.6-.6,2.2c-.4.4-1.2.7-1.9.8Z"/>
  <line class="st4" x1="235.5" y1="10.5" x2="280" y2="10.5"/>
  <circle class="st2" cx="330" cy="11" r="10.5"/>
  <path class="st0" d="M325.5,12.2h2c0,1.4.1,1.6,2.6,1.6s2.1-.1,2.1-1.2-.8-1.2-1.4-1.2h-2v-1.6h2c.5,0,1.3,0,1.3-1s-.9-1.1-2.3-1.1-2,.4-2,1.4h-2c0-2.6,1-3.2,4.1-3.2s4.2,0,4.2,2.7,0,1.5-1.2,1.9c.4.1,1.3.5,1.3,2.2,0,2.6-2.1,2.8-4.1,2.8-3.9,0-4.5-.8-4.5-3.4Z"/>
  <path class="st3" d="M17.5,39.8c.4.3,1,.6,1.6,1l-.7,1c.4,0,.7,0,.9,0,.5,0,.8-1.3.8-3.9h-2c-.1.5-.3,1.2-.6,1.9ZM9.4,49.9v.6h-1.5v-4.8h4.8v2.7c.4-1.1.7-2.4,1-3.7l1.4.3c-.3,1.9-.7,3.4-1.3,4.7l-1.1-.5v.6h-3.3ZM9.4,48.5h1.9v-1.4h-1.9v1.4ZM13.6,39.5l.6-1.2c.6.2,1.3.5,1.9.8.1-.4.2-.8.3-1.1h-3v-1.4h8.3c0,1.9,0,3.3-.2,4.3-.1,1-.3,1.7-.6,2-.2.3-.6.5-1,.5s-1,0-1.9-.2v-1.3c-.7-.4-1-.6-1.2-.8-.9,1.4-2,2.4-3.5,3l-.7-1.4c1.2-.5,2.1-1.3,2.8-2.4-.6-.3-1.3-.6-1.9-.8ZM19.5,45.1l1.5-.5c.6,1.5,1.1,2.9,1.5,4.4l-1.5.5c-.2-.8-.4-1.5-.6-2.1,0,.9-.1,1.5-.2,1.9,0,.4-.2.6-.4.7-.2.1-.4.2-.8.2-.3,0-.7,0-1.2,0s-.5,0-1.2,0c-.5,0-.8-.1-1-.3-.1-.2-.2-.5-.2-1.1v-4.5h1.4c-.4-.3-.8-.6-1.1-.8l.9-1.1c1.1.8,2.1,1.5,2.8,2.3l-1,1.1c-.5-.5-1-.9-1.4-1.3v3.6c0,.3,0,.5,0,.5,0,0,.1,0,.3,0,0,0,.2,0,.5,0s.4,0,.4,0c.1,0,.2,0,.3-.1,0,0,.1-.3.2-.5,0-.3,0-.7.1-1.3h1.3c-.3-.6-.5-1.3-.7-1.7ZM7.9,37.9v-1.4h4.8v1.4h-4.8ZM7.4,40.2v-1.4h5.6v1.4h-5.6ZM8,42.5v-1.4h4.6v1.4h-4.6ZM8,44.8v-1.4h4.6v1.4h-4.6ZM25.4,49.9v.6h-1.5v-4.8h4.8v4.2h-3.3ZM25.4,48.5h1.9v-1.4h-1.9v1.4ZM29.4,36.8h8.7v1.5h-3v3.8h2.6v1.5h-2.6v4.9h3.1v1.5h-9.1v-1.5h1.2v-7.9h1.6v7.9h1.5v-10.1h-4v-1.5ZM23.8,37.9v-1.4h4.8v1.4h-4.8ZM23.4,40.2v-1.4h5.6v1.4h-5.6ZM23.9,42.5v-1.4h4.6v1.4h-4.6ZM23.9,44.8v-1.4h4.6v1.4h-4.6ZM40.9,37.7h11.4v11h-11.4v-1.5h9.7v-8h-9.7v-1.5ZM56.1,44.1v-1.7h13.1v1.7h-13.1ZM79.1,37.8l1.4-.7c.5.9,1,1.8,1.6,2.8l-1.4.7c-.4-.9-1-1.8-1.6-2.8ZM81.6,37.2l1.4-.7c.6.9,1.1,1.9,1.6,2.9l-1.4.7c-.5-.9-1-1.9-1.6-2.8ZM74.2,36.8h1.8v4.6c2.9.7,5.8,1.6,8.8,2.7l-.5,1.6c-2.8-1-5.6-1.9-8.3-2.6v6.8h-1.8v-13.1ZM12.3,57l1.6.4c-.2.7-.4,1.2-.6,1.5h6.8v1.4h-7.4c-.2.4-.4,1-.7,1.7h0c.7-.3,1.3-.4,1.9-.4,1.3,0,2.2.7,2.7,2,1-.2,2.2-.4,3.5-.6v1.4c-1.2.2-2.3.4-3.2.6.1.8.2,1.7.2,2.8h-1.7c0-.9,0-1.7,0-2.4-2.2.7-3.3,1.5-3.3,2.4s0,.5.1.7c0,.2.3.4.5.5.3.2.7.3,1.2.4.5,0,1.2.1,2,.1s2.4-.1,4-.4v1.4c-1.1.2-2.5.3-4,.3s-3.4-.2-4.3-.7c-.9-.5-1.3-1.2-1.3-2.2,0-1.7,1.6-3,4.7-3.9-.1-.4-.3-.6-.6-.8-.2-.1-.5-.2-.9-.2-.6,0-1.2.3-2,.9-.8.6-1.6,1.4-2.3,2.5l-1.3-.9c1.3-1.7,2.3-3.5,3.1-5.2h-2.9v-1.4h3.5c.3-.7.5-1.3.7-1.9ZM30.3,61.3c-.3-.7-.6-1.3-.9-1.9-.8,0-1.5,0-2,0,.3.5.6,1.1.9,1.8h2ZM33.2,61.3c.4-.8.7-1.6,1-2.4-1.1.1-2.2.2-3.3.3.3.6.6,1.3.9,2h1.3ZM36,62.6h-10.7v2.4h-1.7v-3.7h3c-.3-.6-.6-1.2-.9-1.8h-1.2l-.2-1.4c5.1,0,9.2-.3,12.3-1l.4,1.4c-.8.2-1.6.3-2.3.4l1.1.2c-.3.8-.6,1.5-.9,2.2h2.8v3.7h-1.7v-2.4ZM26.3,66.2l1.3-.9c.8.9,1.8,1.6,2.9,2.2,1.2-.7,2.1-1.5,2.9-2.4h-7.4v-1.3h9.3v1.3c-.9,1.2-1.9,2.3-3.2,3.2,1.7.7,3.6,1.3,5.7,1.6l-.5,1.4c-2.4-.3-4.7-1-6.7-2-1.8,1-3.9,1.6-6.4,2l-.5-1.4c1.9-.2,3.6-.7,5.3-1.5-1-.6-1.9-1.3-2.6-2.1ZM44.6,60.6h5.1v-3h1.6v3h2.5v1.4h-2.5v2.2c0,1.5-.1,2.7-.4,3.5-.3.8-.7,1.5-1.3,1.9-.6.5-1.6.9-2.8,1.2l-.5-1.4c.5-.1,1-.3,1.3-.4s.6-.3.9-.5c.3-.2.5-.4.6-.6.1-.2.3-.5.4-.9.1-.4.2-.8.2-1.2,0-.4,0-1,0-1.7v-2.2h-5.1v-1.4ZM42.8,57.9c-.5,2-.8,4.1-.8,6.4s.3,4.4.8,6.4l-1.6.2c-.5-2-.8-4.2-.8-6.6s.3-4.5.8-6.6l1.6.2ZM57.9,64.3h3v-2.1h-3v2.1ZM60.9,68.8c-1.9.3-3.8.6-5.6.8v-1.4c0,0,.5,0,.9-.1v-9.1h-.9v-1.4h8.1v.8h6.3v1.5c-.4,2.8-1.3,5.3-2.5,7.3.8,1.1,1.8,2,3,2.7l-.8,1.4c-1.2-.8-2.2-1.7-3.1-2.8-.9,1.1-1.9,2-3,2.8l-.8-1.2v1.5h-1.7v-2.7ZM60.9,67.3v-1.8h-3v2.3c1.1-.2,2.1-.3,3-.5ZM63.1,60.6l1.6-.4c.4,2.1.9,3.8,1.7,5.2.9-1.6,1.5-3.5,1.8-5.7h-5v-.8h-.6v10.7c1.1-.7,2-1.6,2.8-2.7-1-1.7-1.8-3.9-2.3-6.4ZM60.9,59h-3v2h3v-2ZM80.8,69.1c1.4-.4,2.1-1.4,2.1-2.8s-.3-1.5-.8-1.8c-.5-.4-1.4-.6-2.7-.6-2.1,0-4.3.6-6.6,1.8l-.6-1.2,8.1-5h0s-6.9,0-6.9,0v-1.4h9.9v1.4s-5.7,3.3-5.7,3.3h0c.8-.2,1.6-.2,2.4-.2,1.6,0,2.8.3,3.6.9.8.6,1.2,1.5,1.2,2.7s-.5,2.6-1.6,3.5c-1.1.8-2.6,1.2-4.6,1.2s-2.7-.2-3.5-.7c-.8-.5-1.2-1.1-1.2-2s.3-1.2,1-1.7c.6-.5,1.5-.7,2.7-.7s2.1.2,2.6.6c.5.4.8,1,.8,1.8s0,.7-.2,1ZM79.2,69.4c.2-.4.3-.8.3-1.1,0-.8-.7-1.2-2-1.2s-1.1.1-1.4.3c-.3.2-.5.4-.5.7,0,.4.2.7.7,1,.5.2,1.2.4,2.2.4s.5,0,.7,0Z"/>
  <path class="st3" d="M150,42.4v.8h5.9v-.8h-5.9ZM150,40.4v.8h5.9v-.8h-5.9ZM150,39.3h5.9v-.8h-5.9v.8ZM156.8,46.2c-.7-.5-1.3-1-1.9-1.6h-3.8c-.5.6-1.2,1.1-1.9,1.6h2.9v-1.2h1.8v1.2h2.9ZM153.9,47.5v1.2h6v1.4h-13.8v-1.4h6v-1.2h-3.9v-.7c-.6.3-1.4.7-2.2,1l-.6-1.4c1.5-.5,2.7-1.1,3.7-1.8h-3.3v-1.4h2.4v-4.8h-2.3v-1.3h2.3v-1.4h1.7v1.4h5.9v-1.4h1.7v1.4h2.3v1.3h-2.3v4.8h2.4v1.4h-3.3c1,.7,2.2,1.3,3.7,1.8l-.6,1.4c-.8-.3-1.6-.6-2.2-1v.7h-3.9ZM167.2,39.9h-5.3v-1.5h6.3v-2.5h1.7v2.5h6.3v1.5h-5.3c1.3,2.5,3.3,4.9,6,7.3l-.9,1.5c-2.4-2.1-4.4-4.5-6-7.4v5.2h3.4v1.4h-3.4v2.7h-1.7v-2.7h-3.4v-1.4h3.4v-5.2c-1.6,2.8-3.6,5.3-6,7.4l-.9-1.5c2.7-2.4,4.7-4.8,6-7.3ZM184.3,46.1v.8h5.5v-.8h-5.5ZM184.3,44.9h5.5v-.8h-5.5v.8ZM178.4,44.7l-1.3-.2c.4-1.8.6-3.7.8-5.6h1.3c-.2,2-.4,3.9-.8,5.8ZM188.1,40.9h4.2v1.3h-9.7l-1,.2c-.1-.8-.3-1.6-.4-2.3v10.4h-1.7v-14.4h1.7v2.7l.9-.2c.2.7.3,1.4.5,2.4h3.7v-.7h-3.5v-1.2h3.5v-.7h-4v-1.3h4v-1.1h1.8v1.1h3.9v1.3h-3.9v.7h3.4v1.2h-3.4v.7ZM189.4,50.3c-.6,0-1.2,0-2,0v-1.4c.8,0,1.4,0,1.7,0s.5,0,.6,0c0,0,0-.2,0-.4v-.4h-5.5v2.3h-1.7v-7.6h8.9v5.7c0,.9-.1,1.4-.3,1.6-.2.2-.8.3-1.8.3ZM196.8,43.8h1.1c.3-.9.5-1.8.7-2.7h-2.4c.2,1,.4,1.9.6,2.7ZM200.9,43.8v-2.7h-.8c-.2,1-.4,1.9-.7,2.7h1.5ZM202.9,43.4l1.3-.7c.3,1.1.7,2.1,1.3,3,.5-1,.9-2.2,1.1-3.4h-4v8.1h-1.6v-5.1h-2.7v1.6h2.4v1.3h-2.4v2.3h-1.7v-2.3h-2.4v-1.3h2.4v-1.6h-2.7v-1.4h1.6c-.2-1-.4-1.9-.6-2.7h-1v-1.4h2.8v-1.5h-2.3v-1.3h2.3v-1.1h1.7v1.1h2.3v1.3h-2.3v1.5h2.7v-3.3h7.2v.7c0,1-.2,1.7-.3,2.1,0,.4-.2.7-.4.8-.1.1-.4.2-.7.2s-1.4,0-2.9,0v-1.3c1.1,0,1.8,0,2.2,0s.3,0,.3-.1c0-.1,0-.4.1-1h-4v3.1h5.6v1.4c-.2,1.7-.8,3.3-1.6,4.8.6.8,1.3,1.4,2.1,1.9l-.6,1.5c-.9-.5-1.7-1.2-2.4-2-.6.8-1.3,1.4-2,2l-.8-1.4c.7-.5,1.4-1.1,1.9-1.8-.8-1.2-1.3-2.4-1.7-3.7ZM218.4,48c1.2-.1,2.2-.6,2.8-1.4.7-.8,1-1.9,1-3.3s-.4-2.3-1.2-3.1c-.8-.8-1.8-1.3-3-1.4-.2,2-.5,3.8-.9,5.2-.3,1.4-.7,2.5-1.1,3.2s-.8,1.2-1.3,1.5c-.4.3-.9.4-1.4.4-.8,0-1.6-.5-2.3-1.4s-1-2.1-1-3.5c0-2,.7-3.7,2.1-5,1.4-1.3,3.2-1.9,5.4-1.9s3.3.6,4.5,1.7c1.2,1.1,1.8,2.6,1.8,4.3s-.5,3.3-1.4,4.4c-.9,1.1-2.2,1.7-3.7,1.9l-.3-1.5ZM216.4,38.9c-1.4.2-2.6.8-3.4,1.8-.8.9-1.3,2.1-1.3,3.5s.2,1.7.6,2.4c.4.7.8,1,1.1,1s.3,0,.5-.2c.2-.1.4-.4.6-.8.2-.4.5-.9.7-1.5.2-.6.4-1.5.6-2.5s.4-2.2.6-3.6ZM172.3,57.6h6.1v1.4c0,2.4.5,4.6,1.6,6.6,1.1,2,2.5,3.4,4.3,4.4l-.9,1.3c-1.3-.7-2.5-1.7-3.5-3-1-1.4-1.8-3-2.3-4.7-.7,1.7-1.6,3.2-2.8,4.6-1.2,1.4-2.5,2.4-4,3.2l-.9-1.3c2-1.1,3.7-2.6,5-4.5,1.3-2,1.9-3.9,1.9-5.9v-.6h-4.3v-1.5ZM190.9,56.8h1.8c0,.9,0,1.7,0,2.5h6.6c0,1.8,0,3.3,0,4.6,0,1.2-.1,2.3-.2,3.2-.1.9-.2,1.6-.4,2s-.3.9-.6,1.2c-.2.3-.5.5-.8.5s-.6.1-1,.1-1.7,0-3.3-.2v-1.6c1.4.1,2.3.2,2.8.2s.5,0,.7-.3c.2-.2.3-.6.5-1.1.1-.6.3-1.4.3-2.6,0-1.1.1-2.6.1-4.5h-4.9c-.2,2.6-.7,4.7-1.4,6.2-.7,1.5-1.9,2.9-3.5,4.1l-1.2-1.3c1.4-1.1,2.4-2.3,3.1-3.6.7-1.3,1.1-3.1,1.3-5.5h-4.3v-1.5h4.3c0-.8,0-1.6,0-2.5Z"/>
  <path class="st3" d="M293.2,47.5h12.3v11.5h-12.3v-11.5ZM294.9,57.4h8.8v-8.4h-8.8v8.4ZM318.4,46.4l1.2-.6c.4.8.9,1.6,1.3,2.4l-.5.3h0c0,3.7-.8,6.4-2.5,8.2-1.7,1.8-4.4,2.8-8.1,3.1l-.2-1.5c3.1-.3,5.3-1.1,6.7-2.3,1.4-1.3,2.2-3.3,2.4-6h-5.7c-.6,1.7-1.7,3.2-3.1,4.6l-1.2-1c1-.9,1.7-1.9,2.3-3.1.6-1.2,1-2.4,1.1-3.7h1.6c0,.8-.2,1.3-.3,1.8h6.2c-.3-.5-.6-1.2-1.1-2ZM320.6,46.2l1.2-.6c.5.9.9,1.7,1.3,2.4l-1.2.6c-.3-.6-.8-1.4-1.3-2.4ZM324.8,52.8c2.3-.3,4.5-1,6.6-2,2.2-1.1,3.9-2.3,5.3-3.8l1,1.2c-1.2,1.3-2.8,2.4-4.7,3.5v8.1h-1.8v-7.2c-2.1.9-4.2,1.5-6.3,1.8l-.3-1.6ZM341.5,48.7l.8-1.5c1.8.9,3.4,1.8,4.9,2.6l-.8,1.5c-1.8-1-3.4-1.9-4.9-2.6ZM352.5,48.7l1.6.4c-1.1,6.2-5.1,9.6-12,10.2l-.2-1.6c3.1-.3,5.5-1.2,7.2-2.6,1.7-1.5,2.9-3.6,3.4-6.3Z"/>
</svg>