<svg width="601" height="22" viewBox="0 0 601 22" fill="none" xmlns="http://www.w3.org/2000/svg">
<circle cx="10" cy="11" r="10" fill="#FF0000"/>
<path d="M7.2852 6.044H11.1852V15.5H9.2052V7.844H7.2852V6.044Z" fill="white"/>
<line x1="60" y1="10.5" x2="250" y2="10.5" stroke="black"/>
<circle cx="300" cy="11" r="9.5" fill="white" stroke="#1D262D"/>
<path d="M301.569 11.924L298.617 12.284C297.957 12.368 297.489 12.5 297.489 13.4V13.7H304.017V15.5H295.521V13.82C295.521 12.824 295.545 10.82 297.885 10.556L300.957 10.208C301.845 10.112 302.121 9.848 302.121 9.056C302.121 8.168 301.845 7.748 300.021 7.748C297.849 7.748 297.657 7.976 297.633 9.308H295.689C295.713 7.208 295.965 5.948 299.829 5.948C302.013 5.948 304.077 6.068 304.077 8.936C304.077 9.368 304.029 10.532 303.429 11.096C303.021 11.48 302.253 11.84 301.569 11.924Z" fill="black"/>
<line x1="350" y1="10.5" x2="540" y2="10.5" stroke="black"/>
<circle cx="590" cy="11" r="10.5" fill="white" stroke="#1D262D"/>
<path d="M585.461 12.164H587.441C587.417 13.544 587.549 13.784 590.057 13.784C591.221 13.784 592.109 13.64 592.109 12.596C592.109 11.468 591.281 11.444 590.681 11.444H588.713V9.86H590.681C591.221 9.86 591.965 9.86 591.965 8.864C591.965 7.796 591.101 7.772 589.637 7.772C587.681 7.772 587.621 8.204 587.621 9.14H585.653C585.701 6.584 586.649 5.948 589.733 5.948C591.533 5.948 593.921 5.96 593.921 8.624C593.921 8.912 593.921 10.16 592.745 10.556C593.105 10.7 594.089 11.084 594.089 12.764C594.089 15.392 592.001 15.596 589.949 15.596C586.085 15.596 585.461 14.816 585.461 12.164Z" fill="black"/>
</svg>
