<svg width="370" height="75" viewBox="0 0 370 75" fill="none" xmlns="http://www.w3.org/2000/svg">
<circle cx="41" cy="11" r="10" fill="#FF0000"/>
<path d="M38.2852 6.044H42.1852V15.5H40.2052V7.844H38.2852V6.044Z" fill="white"/>
<line x1="91" y1="10.5" x2="135.5" y2="10.5" stroke="black"/>
<circle cx="185.5" cy="11" r="9.5" fill="white" stroke="#1D262D"/>
<path d="M187.069 11.924L184.117 12.284C183.457 12.368 182.989 12.5 182.989 13.4V13.7H189.517V15.5H181.021V13.82C181.021 12.824 181.045 10.82 183.385 10.556L186.457 10.208C187.345 10.112 187.621 9.848 187.621 9.056C187.621 8.168 187.345 7.748 185.521 7.748C183.349 7.748 183.157 7.976 183.133 9.308H181.189C181.213 7.208 181.465 5.948 185.329 5.948C187.513 5.948 189.577 6.068 189.577 8.936C189.577 9.368 189.529 10.532 188.929 11.096C188.521 11.48 187.753 11.84 187.069 11.924Z" fill="black"/>
<line x1="235.5" y1="10.5" x2="280" y2="10.5" stroke="black"/>
<circle cx="330" cy="11" r="10.5" fill="white" stroke="#1D262D"/>
<path d="M325.461 12.164H327.441C327.417 13.544 327.549 13.784 330.057 13.784C331.221 13.784 332.109 13.64 332.109 12.596C332.109 11.468 331.281 11.444 330.681 11.444H328.713V9.86H330.681C331.221 9.86 331.965 9.86 331.965 8.864C331.965 7.796 331.101 7.772 329.637 7.772C327.681 7.772 327.621 8.204 327.621 9.14H325.653C325.701 6.584 326.649 5.948 329.733 5.948C331.533 5.948 333.921 5.96 333.921 8.624C333.921 8.912 333.921 10.16 332.745 10.556C333.105 10.7 334.089 11.084 334.089 12.764C334.089 15.392 332.001 15.596 329.949 15.596C326.085 15.596 325.461 14.816 325.461 12.164Z" fill="black"/>
<path d="M17.4827 39.816C17.9307 40.072 18.448 40.392 19.0347 40.776L18.3627 41.752C18.7253 41.8053 19.04 41.832 19.3067 41.832C19.808 41.832 20.0747 40.5413 20.1067 37.96H18.0907C17.984 38.504 17.7813 39.1227 17.4827 39.816ZM9.38667 49.88V50.52H7.86667V45.72H12.7147V48.44C13.1307 47.3093 13.4507 46.0667 13.6747 44.712L15.0987 45.048C14.8 46.9253 14.3733 48.4933 13.8187 49.752L12.7147 49.24V49.88H9.38667ZM9.38667 48.52H11.2747V47.08H9.38667V48.52ZM13.5627 39.48L14.1867 38.28C14.8267 38.5147 15.4507 38.776 16.0587 39.064C16.1973 38.68 16.304 38.312 16.3787 37.96H13.4187V36.52H21.7387C21.7387 38.3867 21.6693 39.8213 21.5307 40.824C21.392 41.8267 21.1947 42.4933 20.9387 42.824C20.6933 43.1547 20.352 43.32 19.9147 43.32C19.5627 43.32 18.928 43.2667 18.0107 43.16L17.9627 41.832C17.3547 41.4373 16.9653 41.1867 16.7947 41.08C15.8987 42.4453 14.7467 43.448 13.3387 44.088L12.6347 42.696C13.808 42.1627 14.7413 41.368 15.4347 40.312C14.8053 39.992 14.1813 39.7147 13.5627 39.48ZM19.4827 45.112L20.9387 44.6C21.536 46.0507 22.032 47.5333 22.4267 49.048L20.9547 49.544C20.752 48.776 20.544 48.0613 20.3307 47.4C20.2773 48.264 20.2027 48.8827 20.1067 49.256C20.0107 49.6293 19.8827 49.8693 19.7227 49.976C19.5627 50.0933 19.2907 50.168 18.9067 50.2C18.5653 50.232 18.1653 50.248 17.7067 50.248C17.5787 50.248 17.1787 50.232 16.5067 50.2C16.016 50.168 15.696 50.072 15.5467 49.912C15.408 49.752 15.3387 49.3947 15.3387 48.84V44.36H16.7787C16.3627 44.04 16 43.7787 15.6907 43.576L16.6027 42.504C17.744 43.2613 18.6933 44.024 19.4507 44.792L18.4907 45.848C17.9893 45.368 17.5147 44.9467 17.0667 44.584V48.2C17.0667 48.488 17.0773 48.664 17.0987 48.728C17.1307 48.7813 17.2267 48.8133 17.3867 48.824C17.472 48.8347 17.6267 48.84 17.8507 48.84C18.0533 48.84 18.2027 48.8347 18.2987 48.824C18.416 48.8133 18.5013 48.7707 18.5547 48.696C18.6187 48.6107 18.672 48.4293 18.7147 48.152C18.7573 47.864 18.7947 47.416 18.8267 46.808L20.1707 46.952C19.8933 46.1627 19.664 45.5493 19.4827 45.112ZM7.86667 37.928V36.52H12.6667V37.928H7.86667ZM7.43467 40.232V38.792H12.9867V40.232H7.43467ZM7.97867 42.52V41.16H12.6187V42.52H7.97867ZM7.97867 44.808V43.432H12.6187V44.808H7.97867ZM25.3547 49.88V50.52H23.8187V45.72H28.6667V49.88H25.3547ZM25.3547 48.52H27.2267V47.08H25.3547V48.52ZM29.3547 36.76H38.0587V38.248H35.0667V42.04H37.7067V43.528H35.0667V48.392H38.1867V49.88H29.0667V48.392H30.2667V40.488H31.8667V48.392H33.3547V38.248H29.3547V36.76ZM23.8187 37.928V36.52H28.6187V37.928H23.8187ZM23.3867 40.232V38.792H28.9387V40.232H23.3867ZM23.9467 42.52V41.16H28.5867V42.52H23.9467ZM23.9467 44.808V43.432H28.5867V44.808H23.9467ZM40.9067 37.72H52.2667V48.76H40.9067V47.24H50.5867V39.24H40.9067V37.72ZM56.1067 44.072V42.392H69.2267V44.072H56.1067ZM79.1147 37.832L80.5547 37.112C81.056 37.976 81.5733 38.9253 82.1067 39.96L80.6827 40.648C80.2453 39.7947 79.7227 38.856 79.1147 37.832ZM81.5787 37.176L83.0187 36.44C83.5947 37.3893 84.128 38.3493 84.6187 39.32L83.1787 40.024C82.688 39.0853 82.1547 38.136 81.5787 37.176ZM74.1867 36.84H75.9467V41.416C78.8373 42.1093 81.7813 43.0107 84.7787 44.12L84.2347 45.72C81.4293 44.6747 78.6667 43.816 75.9467 43.144V49.96H74.1867V36.84ZM12.2667 57.008L13.8507 57.376C13.616 58.0267 13.4293 58.528 13.2907 58.88H20.1067V60.24H12.7467C12.576 60.656 12.3307 61.2213 12.0107 61.936L12.0427 61.952C12.7467 61.664 13.3813 61.52 13.9467 61.52C15.2907 61.52 16.192 62.1813 16.6507 63.504C17.696 63.28 18.8693 63.088 20.1707 62.928L20.3147 64.32C18.9493 64.4907 17.8347 64.6773 16.9707 64.88C17.088 65.68 17.1467 66.6133 17.1467 67.68H15.4667C15.4667 66.7307 15.4347 65.9413 15.3707 65.312C13.1947 65.984 12.1067 66.7733 12.1067 67.68C12.1067 67.936 12.1547 68.1547 12.2507 68.336C12.3467 68.5173 12.528 68.688 12.7947 68.848C13.0613 69.008 13.4613 69.1307 13.9947 69.216C14.5387 69.2907 15.216 69.328 16.0267 69.328C17.0933 69.328 18.4107 69.2053 19.9787 68.96L20.1227 70.4C18.8427 70.6133 17.4773 70.72 16.0267 70.72C14.0427 70.72 12.6133 70.4853 11.7387 70.016C10.864 69.5573 10.4267 68.832 10.4267 67.84C10.4267 66.1547 11.9787 64.8427 15.0827 63.904C14.9333 63.52 14.7413 63.2587 14.5067 63.12C14.2827 62.9707 13.9893 62.896 13.6267 62.896C13.072 62.896 12.4053 63.1947 11.6267 63.792C10.848 64.3893 10.0693 65.2373 9.29067 66.336L7.96267 65.472C9.232 63.7333 10.2613 61.9893 11.0507 60.24H8.10667V58.88H11.6107C11.8667 58.1973 12.0853 57.5733 12.2667 57.008ZM30.2827 61.328C29.9733 60.624 29.6747 59.984 29.3867 59.408C28.544 59.4507 27.888 59.4773 27.4187 59.488C27.696 60.0213 27.984 60.6347 28.2827 61.328H30.2827ZM33.2427 61.328C33.6373 60.5493 33.984 59.7653 34.2827 58.976C33.184 59.1147 32.0907 59.2213 31.0027 59.296C31.3227 59.9253 31.632 60.6027 31.9307 61.328H33.2427ZM36.0267 62.64H25.3067V65.072H23.6267V61.328H26.6507C26.3733 60.6987 26.08 60.096 25.7707 59.52H24.5867L24.4107 58.08C29.5413 58.08 33.648 57.7493 36.7307 57.088L37.0987 58.512C36.3093 58.6827 35.5467 58.816 34.8107 58.912L35.8667 59.152C35.568 59.9307 35.2533 60.656 34.9227 61.328H37.7067V65.072H36.0267V62.64ZM26.2827 66.16L27.5467 65.248C28.3573 66.112 29.3333 66.8587 30.4747 67.488C31.6373 66.784 32.592 65.9787 33.3387 65.072H25.9467V63.728H35.2267V65.072C34.3733 66.2987 33.312 67.36 32.0427 68.256C33.7707 68.992 35.664 69.5093 37.7227 69.808L37.2107 71.232C34.7787 70.9013 32.544 70.224 30.5067 69.2C28.6933 70.16 26.5653 70.8373 24.1227 71.232L23.6107 69.808C25.4773 69.5627 27.248 69.0613 28.9227 68.304C27.9093 67.6747 27.0293 66.96 26.2827 66.16ZM44.5867 60.56H49.7067V57.52H51.3067V60.56H53.7867V62H51.3067V64.16C51.3067 65.6747 51.1733 66.848 50.9067 67.68C50.6507 68.512 50.208 69.1573 49.5787 69.616C48.9493 70.0747 48.0107 70.4693 46.7627 70.8L46.2507 69.36C46.7947 69.2107 47.2267 69.0773 47.5467 68.96C47.8667 68.8427 48.1707 68.688 48.4587 68.496C48.7467 68.304 48.96 68.1067 49.0987 67.904C49.2373 67.6907 49.36 67.4027 49.4667 67.04C49.5733 66.6773 49.6373 66.2773 49.6587 65.84C49.6907 65.4027 49.7067 64.8427 49.7067 64.16V62H44.5867V60.56ZM42.7947 57.856C42.2827 59.8293 42.0267 61.9573 42.0267 64.24C42.0267 66.5227 42.2827 68.6507 42.7947 70.624L41.1467 70.816C40.6133 68.7893 40.3467 66.5973 40.3467 64.24C40.3467 61.8827 40.6133 59.6907 41.1467 57.664L42.7947 57.856ZM57.8667 64.272H60.8747V62.192H57.8667V64.272ZM60.8747 68.8C58.9333 69.1413 57.0827 69.408 55.3227 69.6L55.1787 68.16C55.4133 68.1387 55.776 68.096 56.2667 68.032V58.96H55.3867V57.52H63.4667V58.288H69.7867V59.76C69.3493 62.608 68.5173 65.0347 67.2907 67.04C68.08 68.096 69.088 69.008 70.3147 69.776L69.4987 71.184C68.304 70.4053 67.2587 69.472 66.3627 68.384C65.4987 69.4933 64.496 70.4267 63.3547 71.184L62.5387 69.936V71.472H60.8747V68.8ZM60.8747 67.344V65.552H57.8667V67.824C58.976 67.664 59.9787 67.504 60.8747 67.344ZM63.0667 60.576L64.6187 60.224C65.0027 62.3147 65.5627 64.064 66.2987 65.472C67.1733 63.8293 67.7813 61.9253 68.1227 59.76H63.1467V58.96H62.5387V69.696C63.616 68.992 64.56 68.0853 65.3707 66.976C64.3253 65.2587 63.5573 63.1253 63.0667 60.576ZM60.8747 58.96H57.8667V60.912H60.8747V58.96ZM80.8427 69.12C82.272 68.6827 82.9867 67.7493 82.9867 66.32C82.9867 65.4773 82.72 64.864 82.1867 64.48C81.6533 64.0853 80.7573 63.888 79.4987 63.888C77.3547 63.888 75.1573 64.48 72.9067 65.664L72.2987 64.496L80.3627 59.504V59.472H73.4187V58.08H83.3387L83.3867 59.504L77.6587 62.8L77.6747 62.816C78.5173 62.6453 79.3173 62.56 80.0747 62.56C81.6853 62.56 82.8693 62.8587 83.6267 63.456C84.3947 64.0533 84.7787 64.944 84.7787 66.128C84.7787 67.6213 84.24 68.7733 83.1627 69.584C82.0853 70.3947 80.544 70.8 78.5387 70.8C76.992 70.8 75.8293 70.5653 75.0507 70.096C74.2827 69.6267 73.8987 68.9547 73.8987 68.08C73.8987 67.408 74.2187 66.8427 74.8587 66.384C75.4987 65.9147 76.4053 65.68 77.5787 65.68C78.8053 65.68 79.6853 65.888 80.2187 66.304C80.7627 66.7093 81.0347 67.3013 81.0347 68.08C81.0347 68.4 80.9707 68.7467 80.8427 69.12ZM79.2107 69.376C79.4347 68.9387 79.5467 68.56 79.5467 68.24C79.5467 67.44 78.8693 67.04 77.5147 67.04C76.9067 67.04 76.432 67.1467 76.0907 67.36C75.76 67.5627 75.5947 67.8027 75.5947 68.08C75.5947 68.4747 75.8293 68.7947 76.2987 69.04C76.7787 69.2747 77.5253 69.392 78.5387 69.392C78.848 69.392 79.072 69.3867 79.2107 69.376Z" fill="#1D262D"/>
<path d="M150.04 42.408V43.24H155.96V42.408H150.04ZM150.04 40.44V41.288H155.96V40.44H150.04ZM150.04 39.32H155.96V38.472H150.04V39.32ZM156.792 46.2C156.077 45.72 155.459 45.1867 154.936 44.6H151.096C150.552 45.208 149.933 45.7413 149.24 46.2H152.12V45H153.88V46.2H156.792ZM153.88 47.528V48.68H159.912V50.04H146.088V48.68H152.12V47.528H148.232V46.792C147.592 47.1333 146.851 47.4587 146.008 47.768L145.448 46.36C146.952 45.8693 148.184 45.2827 149.144 44.6H145.88V43.24H148.328V38.472H146.04V37.128H148.328V35.72H150.04V37.128H155.96V35.72H157.672V37.128H159.96V38.472H157.672V43.24H160.12V44.6H156.856C157.816 45.2827 159.048 45.8693 160.552 46.36L159.992 47.768C159.149 47.4587 158.408 47.1333 157.768 46.792V47.528H153.88ZM167.224 39.88H161.88V38.408H168.136V35.88H169.864V38.408H176.12V39.88H170.776C172.067 42.3547 174.067 44.776 176.776 47.144L175.864 48.6C173.475 46.5093 171.475 44.056 169.864 41.24V46.472H173.288V47.912H169.864V50.6H168.136V47.912H164.712V46.472H168.136V41.24C166.525 44.056 164.525 46.5093 162.136 48.6L161.224 47.144C163.933 44.776 165.933 42.3547 167.224 39.88ZM184.328 46.088V46.888H189.8V46.088H184.328ZM184.328 44.872H189.8V44.072H184.328V44.872ZM178.44 44.744L177.16 44.504C177.533 42.68 177.8 40.8293 177.96 38.952L179.24 39.08C179.08 41 178.813 42.888 178.44 44.744ZM188.072 40.872H192.28V42.152H182.568L181.56 42.36C181.421 41.5707 181.277 40.792 181.128 40.024V50.44H179.432V36.04H181.128V38.712L182.04 38.504C182.2 39.1547 182.376 39.944 182.568 40.872H186.312V40.168H182.84V38.92H186.312V38.2H182.28V36.872H186.312V35.8H188.072V36.872H191.96V38.2H188.072V38.92H191.48V40.168H188.072V40.872ZM189.4 50.312C188.824 50.312 188.168 50.2907 187.432 50.248L187.4 48.808C188.211 48.8507 188.797 48.872 189.16 48.872C189.48 48.872 189.667 48.856 189.72 48.824C189.773 48.792 189.8 48.664 189.8 48.44V48.072H184.328V50.36H182.6V42.76H191.528V48.44C191.528 49.2933 191.416 49.816 191.192 50.008C190.968 50.2107 190.371 50.312 189.4 50.312ZM196.84 43.848H197.944C198.243 42.92 198.483 42.0133 198.664 41.128H196.28C196.504 42.0987 196.691 43.0053 196.84 43.848ZM200.92 43.848V41.128H200.168C199.976 42.088 199.741 42.9947 199.464 43.848H200.92ZM202.888 43.384L204.216 42.664C204.483 43.7307 204.904 44.7387 205.48 45.688C206.013 44.6533 206.376 43.5227 206.568 42.296H202.52V50.376H200.92V45.24H198.2V46.888H200.552V48.2H198.2V50.52H196.52V48.2H194.088V46.888H196.52V45.24H193.832V43.848H195.384C195.181 42.824 194.989 41.9173 194.808 41.128H193.768V39.72H196.52V38.248H194.2V36.92H196.52V35.8H198.2V36.92H200.488V38.248H198.2V39.72H200.92V36.408H208.168L208.136 37.08C208.072 38.0827 207.997 38.7973 207.912 39.224C207.827 39.6507 207.709 39.9227 207.56 40.04C207.421 40.1573 207.181 40.216 206.84 40.216C206.413 40.216 205.437 40.1893 203.912 40.136L203.88 38.808C204.968 38.8613 205.715 38.888 206.12 38.888C206.28 38.888 206.381 38.84 206.424 38.744C206.467 38.6373 206.509 38.312 206.552 37.768H202.52V40.888H208.088V42.296C207.853 44.024 207.309 45.608 206.456 47.048C207.085 47.8053 207.779 48.424 208.536 48.904L207.944 50.392C207.08 49.8907 206.28 49.2187 205.544 48.376C204.947 49.1333 204.275 49.7893 203.528 50.344L202.712 48.952C203.448 48.4187 204.072 47.8107 204.584 47.128C203.816 45.976 203.251 44.728 202.888 43.384ZM218.44 47.96C219.667 47.8107 220.611 47.3307 221.272 46.52C221.944 45.6987 222.28 44.6053 222.28 43.24C222.28 42.0133 221.885 40.9893 221.096 40.168C220.307 39.336 219.293 38.872 218.056 38.776C217.811 40.824 217.517 42.5467 217.176 43.944C216.845 45.3413 216.472 46.4027 216.056 47.128C215.64 47.8533 215.219 48.36 214.792 48.648C214.376 48.936 213.912 49.08 213.4 49.08C212.579 49.08 211.827 48.6 211.144 47.64C210.461 46.68 210.12 45.5067 210.12 44.12C210.12 42.0827 210.813 40.4293 212.2 39.16C213.587 37.88 215.4 37.24 217.64 37.24C219.443 37.24 220.931 37.8053 222.104 38.936C223.288 40.0667 223.88 41.5013 223.88 43.24C223.88 45.0533 223.416 46.5147 222.488 47.624C221.571 48.7227 220.328 49.3413 218.76 49.48L218.44 47.96ZM216.392 38.856C214.963 39.08 213.827 39.6667 212.984 40.616C212.141 41.5547 211.72 42.7227 211.72 44.12C211.72 45.0267 211.907 45.816 212.28 46.488C212.664 47.1493 213.037 47.48 213.4 47.48C213.571 47.48 213.747 47.4107 213.928 47.272C214.109 47.1227 214.312 46.8507 214.536 46.456C214.771 46.0507 214.989 45.5387 215.192 44.92C215.405 44.3013 215.619 43.4693 215.832 42.424C216.045 41.3787 216.232 40.1893 216.392 38.856ZM172.312 57.6H178.408V59.04C178.408 61.472 178.931 63.6747 179.976 65.648C181.032 67.6107 182.451 69.0773 184.232 70.048L183.32 71.36C182.029 70.7093 180.867 69.696 179.832 68.32C178.808 66.9333 178.029 65.3653 177.496 63.616C176.845 65.2907 175.917 66.8213 174.712 68.208C173.507 69.584 172.163 70.6347 170.68 71.36L169.768 70.048C171.795 68.992 173.448 67.4933 174.728 65.552C176.008 63.6 176.648 61.6427 176.648 59.68V59.12H172.312V57.6ZM190.856 56.848H192.616C192.616 57.744 192.6 58.5813 192.568 59.36H199.208C199.208 61.1627 199.187 62.6827 199.144 63.92C199.112 65.1573 199.043 66.2133 198.936 67.088C198.829 67.9627 198.712 68.6453 198.584 69.136C198.456 69.6267 198.264 70.0107 198.008 70.288C197.763 70.5653 197.512 70.7413 197.256 70.816C197 70.8907 196.659 70.928 196.232 70.928C195.656 70.928 194.563 70.8587 192.952 70.72L192.92 69.12C194.328 69.2587 195.288 69.328 195.8 69.328C196.099 69.328 196.333 69.2427 196.504 69.072C196.685 68.8907 196.851 68.5173 197 67.952C197.149 67.376 197.256 66.5227 197.32 65.392C197.384 64.2507 197.421 62.7467 197.432 60.88H192.488C192.285 63.4933 191.811 65.5627 191.064 67.088C190.317 68.6133 189.155 69.9893 187.576 71.216L186.392 69.936C187.789 68.8693 188.813 67.68 189.464 66.368C190.125 65.056 190.547 63.2267 190.728 60.88H186.472V59.36H190.808C190.84 58.592 190.856 57.7547 190.856 56.848Z" fill="#1D262D"/>
<path d="M293.173 47.48H305.493V59H294.933H293.173V47.48ZM294.933 57.432H303.733V49.048H294.933V57.432ZM318.373 46.408L319.557 45.8C320.005 46.568 320.432 47.3573 320.837 48.168L320.293 48.44V48.52C320.293 52.1573 319.445 54.856 317.749 56.616C316.064 58.376 313.365 59.4107 309.653 59.72L309.413 58.2C312.507 57.9013 314.747 57.1227 316.133 55.864C317.531 54.6053 318.315 52.6107 318.485 49.88H312.789C312.139 51.5867 311.099 53.112 309.669 54.456L308.485 53.416C309.435 52.5093 310.203 51.4693 310.789 50.296C311.376 49.112 311.744 47.8747 311.893 46.584L313.525 46.696C313.451 47.336 313.36 47.8907 313.253 48.36H319.445C319.189 47.8587 318.832 47.208 318.373 46.408ZM320.645 46.168L321.861 45.56C322.363 46.424 322.8 47.2293 323.173 47.976L321.957 48.568C321.637 47.96 321.2 47.16 320.645 46.168ZM324.805 52.808C327.077 52.488 329.291 51.8053 331.445 50.76C333.611 49.704 335.392 48.4453 336.789 46.984L337.829 48.168C336.592 49.448 335.024 50.6107 333.125 51.656V59.768H331.333V52.536C329.253 53.4533 327.163 54.0613 325.061 54.36L324.805 52.808ZM341.541 48.664L342.325 47.176C344.128 48.0507 345.771 48.9307 347.253 49.816L346.405 51.304C344.624 50.2587 343.003 49.3787 341.541 48.664ZM352.533 48.664L354.133 49.016C353.045 55.224 349.045 58.632 342.133 59.24L341.893 57.608C344.997 57.3093 347.408 56.4347 349.125 54.984C350.853 53.5333 351.989 51.4267 352.533 48.664Z" fill="#1D262D"/>
</svg>
