<?xml version="1.0" encoding="UTF-8"?>
<svg id="_レイヤー_2" data-name="レイヤー 2" xmlns="http://www.w3.org/2000/svg" viewBox="0 0 12.53 21.47">
  <defs>
    <style>
      .cls-1 {
        fill: none;
        stroke: #ff9500;
        stroke-width: .89px;
      }

      .cls-2 {
        fill: #ff9500;
      }
    </style>
  </defs>
  <g id="_レイヤー_1-2" data-name="レイヤー 1">
    <rect class="cls-1" x=".45" y=".45" width="11.63" height="20.58" rx="3.13" ry="3.13"/>
    <path class="cls-2" d="M5.82,4.33h.83v2h-.83v-2ZM5.82,8.64h.85v1.9h-.85v-1.9ZM5.58,6.35l.77.37c-.23.18-.47.35-.72.52-.24.17-.47.31-.67.42l-.57-.32c.13-.09.27-.19.42-.3.15-.11.29-.23.42-.35.14-.12.25-.23.35-.34ZM7.21,6.72l.74.41c-.3.21-.62.41-.97.62-.35.2-.7.4-1.05.58-.35.18-.68.34-.98.47l-.54-.38c.23-.1.48-.22.72-.36.25-.14.51-.28.76-.44.25-.15.49-.31.72-.46.23-.15.43-.3.61-.44ZM3.61,7.38l.6-.46c.18.09.37.19.57.31.21.12.4.24.59.36.19.12.34.23.46.34l-.65.5c-.11-.1-.25-.22-.42-.34-.18-.13-.36-.26-.57-.38-.2-.12-.39-.23-.58-.33ZM7.23,7.98l.62-.39c.19.11.39.24.6.39.21.14.41.29.6.44.19.14.35.28.47.41l-.67.43c-.11-.12-.26-.26-.44-.41-.18-.15-.38-.31-.59-.46-.21-.15-.4-.29-.6-.4ZM7.11,9.47l.62-.44c.19.09.38.19.59.3.21.11.41.23.61.35.2.12.37.23.49.33l-.67.48c-.11-.1-.26-.21-.45-.33-.19-.12-.38-.24-.59-.36-.21-.12-.41-.23-.6-.33ZM3.14,8.38c.34,0,.73,0,1.16,0,.43,0,.89-.01,1.38-.01.49,0,.99-.02,1.5-.02.51,0,1.03-.02,1.53-.02l-.04.62c-.5.01-1,.03-1.51.04-.5.01-.99.03-1.47.04-.48,0-.93.02-1.36.03-.42,0-.81.02-1.16.02l-.02-.68ZM4.6,9.09l.77.3c-.15.14-.33.28-.53.42-.2.14-.4.27-.62.39-.21.12-.41.22-.61.31-.05-.05-.11-.11-.19-.19-.08-.07-.16-.14-.24-.21-.08-.07-.15-.12-.21-.16.3-.1.59-.22.88-.37.3-.15.54-.31.73-.48ZM4.4,5.66v.38h3.72v-.38h-3.72ZM4.4,4.68v.37h3.72v-.37h-3.72ZM3.59,4.03h5.38v2.65H3.59v-2.65ZM3.51,11.44l.55-.56c.13.11.28.22.43.35.16.12.3.25.44.37.14.12.25.24.34.34l-.58.62c-.08-.1-.19-.22-.32-.36-.13-.13-.27-.27-.42-.4-.15-.14-.3-.26-.44-.37ZM4.03,17.5l-.19-.84.19-.28,1.57-1.11c.02.08.04.17.07.27.03.1.07.2.1.29.04.09.07.17.1.23-.36.26-.66.48-.88.65s-.4.3-.53.39c-.13.1-.22.18-.29.24-.06.06-.11.11-.15.16ZM2.96,13.02h1.6v.85h-1.6v-.85ZM5.31,13.07h4.29v.9h-4.29v-.9ZM7.03,10.85h.92v6.69h-.92v-6.69ZM4.03,17.5c-.02-.08-.05-.16-.11-.26-.05-.1-.1-.2-.16-.3-.06-.1-.11-.17-.16-.24.09-.05.17-.14.26-.25.09-.12.14-.26.14-.41v-3.01h.87v3.66s-.03.02-.09.06c-.06.03-.13.08-.21.14-.08.06-.16.13-.25.2-.09.07-.16.14-.21.21-.06.08-.09.15-.09.21Z"/>
  </g>
</svg>