<svg width="24" height="24" viewBox="0 0 24 24" fill="none" xmlns="http://www.w3.org/2000/svg">
<g clip-path="url(#clip0_2790_16509)">
<path d="M11.25 3C12.2446 3 13.1984 3.39509 13.9017 4.09835C14.6049 4.80161 15 5.75544 15 6.75C15 7.5345 14.7495 8.1345 14.3655 8.61C14.0945 8.93296 13.7794 9.21623 13.4295 9.4515L13.179 9.627C12.786 9.9 12.5025 10.1025 12.3 10.3515C12.0926 10.6032 11.9858 10.9227 12 11.2485V12.7485C12 12.9474 11.921 13.1382 11.7803 13.2788C11.6397 13.4195 11.4489 13.4985 11.25 13.4985C11.0511 13.4985 10.8603 13.4195 10.7197 13.2788C10.579 13.1382 10.5 12.9474 10.5 12.7485V11.2485C10.5 10.47 10.752 9.8745 11.1375 9.4035C11.415 9.0645 11.757 8.7975 12.0615 8.5785L12.321 8.397C12.711 8.1255 12.9945 7.9215 13.197 7.6695C13.4082 7.411 13.5162 7.08342 13.5 6.75C13.5 6.15326 13.2629 5.58097 12.841 5.15901C12.419 4.73705 11.8467 4.5 11.25 4.5C10.6533 4.5 10.081 4.73705 9.65901 5.15901C9.23705 5.58097 9 6.15326 9 6.75C9 6.94891 8.92098 7.13968 8.78033 7.28033C8.63968 7.42098 8.44891 7.5 8.25 7.5C8.05109 7.5 7.86032 7.42098 7.71967 7.28033C7.57902 7.13968 7.5 6.94891 7.5 6.75C7.5 5.75544 7.89509 4.80161 8.59835 4.09835C9.30161 3.39509 10.2554 3 11.25 3ZM11.25 15.15C11.5981 15.15 11.9319 15.2883 12.1781 15.5344C12.4242 15.7806 12.5625 16.1144 12.5625 16.4625C12.5625 16.8106 12.4242 17.1444 12.1781 17.3906C11.9319 17.6367 11.5981 17.775 11.25 17.775C10.9019 17.775 10.5681 17.6367 10.3219 17.3906C10.0758 17.1444 9.9375 16.8106 9.9375 16.4625C9.9375 16.1144 10.0758 15.7806 10.3219 15.5344C10.5681 15.2883 10.9019 15.15 11.25 15.15Z" fill="white"/>
<path fill-rule="evenodd" clip-rule="evenodd" d="M11.2494 21C13.0194 21 14.5344 20.7945 15.8244 20.4165C17.3244 21.465 19.3194 22.5465 21.8994 23.8215C23.2734 24.5055 24.5844 22.9545 23.7144 21.6915C22.6239 20.0865 21.6744 18.5265 20.9244 16.7565C22.0284 15.0015 22.4844 12.8415 22.4844 10.5015C22.4844 4.69647 19.6644 0.00146484 11.2344 0.00146484C2.80437 0.00146484 -0.015625 4.71147 -0.015625 10.5015C-0.015625 16.3065 2.80437 21.0015 11.2344 21.0015L11.2494 21ZM19.6644 15.96C19.5357 16.1638 19.4579 16.3956 19.4378 16.6358C19.4177 16.8761 19.4558 17.1176 19.5489 17.34C20.3229 19.185 21.3039 20.805 22.3839 22.395C19.9089 21.1605 18.0639 20.145 16.6839 19.185C16.5001 19.0567 16.2899 18.9713 16.0687 18.9349C15.8475 18.8986 15.6211 18.9123 15.4059 18.975C14.2689 19.3065 12.9009 19.4985 11.2509 19.4985C7.30588 19.4985 4.95088 18.4065 3.55588 16.9035C2.14438 15.3735 1.49937 13.1835 1.49937 10.4985C1.49937 7.81347 2.15037 5.60847 3.55437 4.09347C4.94487 2.59347 7.30438 1.49847 11.2494 1.49847C15.1944 1.49847 17.5494 2.59047 18.9444 4.09347C20.3544 5.62347 20.9994 7.81347 20.9994 10.4985C20.9994 12.6585 20.5734 14.5185 19.6674 15.9585L19.6644 15.96Z" fill="white"/>
</g>
<defs>
<clipPath id="clip0_2790_16509">
<rect width="24" height="24" fill="white"/>
</clipPath>
</defs>
</svg>
