<svg width="25" height="24" viewBox="0 0 25 24" fill="none" xmlns="http://www.w3.org/2000/svg">
<g clip-path="url(#clip0_2586_12160)">
<path d="M17.6429 4.28575V12.8572M17.6429 4.28575L15.0715 0.857178M17.6429 4.28575L20.2143 0.857178M1.35718 18.8572L5.54689 22.3475C6.16302 22.8605 6.93945 23.1413 7.74118 23.1412H18.7846C19.5732 23.1412 20.2143 22.5018 20.2143 21.7132C20.2143 20.136 18.9355 18.8555 17.3566 18.8555H9.67832M23.6429 4.28575H11.6429V12.8572H23.6429V4.28575Z" stroke="white" stroke-width="1.71429" stroke-linecap="round" stroke-linejoin="round"/>
<path d="M6.50003 17.1429L7.78575 18.4286C8.12674 18.7696 8.58923 18.9612 9.07146 18.9612C9.5537 18.9612 10.0162 18.7696 10.3572 18.4286C10.6982 18.0876 10.8897 17.6251 10.8897 17.1429C10.8897 16.6607 10.6982 16.1982 10.3572 15.8572L8.36175 13.86C8.0429 13.5415 7.66439 13.289 7.24787 13.117C6.83135 12.9449 6.38499 12.8566 5.93432 12.8572H1.35718" stroke="white" stroke-width="1.71429" stroke-linecap="round" stroke-linejoin="round"/>
</g>
<defs>
<clipPath id="clip0_2586_12160">
<rect width="24" height="24" fill="white" transform="translate(0.5)"/>
</clipPath>
</defs>
</svg>
