<svg width="24" height="24" viewBox="0 0 24 24" fill="none" xmlns="http://www.w3.org/2000/svg">
<path d="M9.99965 11.627L5.07464 17.422C4.91858 17.6059 4.72605 17.7554 4.50923 17.861C4.29241 17.9666 4.05603 18.0261 3.81503 18.0357C3.57404 18.0453 3.33367 18.0048 3.10915 17.9167C2.88463 17.8286 2.68083 17.6949 2.51064 17.524C2.33979 17.3531 2.20616 17.1487 2.11818 16.9237C2.0302 16.6987 1.98977 16.4579 1.99945 16.2164C2.00913 15.975 2.06869 15.7382 2.1744 15.5209C2.28011 15.3036 2.42966 15.1106 2.61365 14.954L8.39465 10.019M17.9996 10.067L13.0476 15.03M9.95164 2.00098L4.99964 6.96498M19.9996 11.659L21.9996 10.019M19.9996 14.939L21.9996 16.032M11.0016 21.999H20.9996M12.2266 21.999C12.7776 21.011 13.1896 19.121 15.1416 19.016C15.7216 18.984 16.3116 18.984 16.8916 19.016C18.8426 19.121 19.2566 21.011 19.8086 21.999M9.33264 2.62198L5.61964 6.34398C5.61964 6.34398 7.47664 8.82598 9.33364 10.687C11.1916 12.548 13.6676 14.41 13.6676 14.41L17.3816 10.687C17.3816 10.687 15.5246 8.20598 13.6676 6.34398C11.8106 4.48398 9.33264 2.62198 9.33264 2.62198Z" stroke="white" stroke-width="1.5" stroke-linecap="round" stroke-linejoin="round"/>
</svg>
