<svg width="25" height="24" viewBox="0 0 25 24" fill="none" xmlns="http://www.w3.org/2000/svg">
<path d="M21.125 2.625H3.875C3.46016 2.625 3.125 2.96016 3.125 3.375V20.625C3.125 21.0398 3.46016 21.375 3.875 21.375H21.125C21.5398 21.375 21.875 21.0398 21.875 20.625V3.375C21.875 2.96016 21.5398 2.625 21.125 2.625ZM20.1875 19.6875H4.8125V4.3125H20.1875V19.6875ZM12.0312 9.375H16.3438C16.4469 9.375 16.5312 9.29063 16.5312 9.1875V8.0625C16.5312 7.95937 16.4469 7.875 16.3438 7.875H12.0312C11.9281 7.875 11.8438 7.95937 11.8438 8.0625V9.1875C11.8438 9.29063 11.9281 9.375 12.0312 9.375ZM12.0312 12.75H16.3438C16.4469 12.75 16.5312 12.6656 16.5312 12.5625V11.4375C16.5312 11.3344 16.4469 11.25 16.3438 11.25H12.0312C11.9281 11.25 11.8438 11.3344 11.8438 11.4375V12.5625C11.8438 12.6656 11.9281 12.75 12.0312 12.75ZM12.0312 16.125H16.3438C16.4469 16.125 16.5312 16.0406 16.5312 15.9375V14.8125C16.5312 14.7094 16.4469 14.625 16.3438 14.625H12.0312C11.9281 14.625 11.8438 14.7094 11.8438 14.8125V15.9375C11.8438 16.0406 11.9281 16.125 12.0312 16.125ZM8.46875 8.625C8.46875 8.87364 8.56752 9.1121 8.74334 9.28791C8.91915 9.46373 9.15761 9.5625 9.40625 9.5625C9.65489 9.5625 9.89335 9.46373 10.0692 9.28791C10.245 9.1121 10.3438 8.87364 10.3438 8.625C10.3438 8.37636 10.245 8.1379 10.0692 7.96209C9.89335 7.78627 9.65489 7.6875 9.40625 7.6875C9.15761 7.6875 8.91915 7.78627 8.74334 7.96209C8.56752 8.1379 8.46875 8.37636 8.46875 8.625ZM8.46875 12C8.46875 12.2486 8.56752 12.4871 8.74334 12.6629C8.91915 12.8387 9.15761 12.9375 9.40625 12.9375C9.65489 12.9375 9.89335 12.8387 10.0692 12.6629C10.245 12.4871 10.3438 12.2486 10.3438 12C10.3438 11.7514 10.245 11.5129 10.0692 11.3371C9.89335 11.1613 9.65489 11.0625 9.40625 11.0625C9.15761 11.0625 8.91915 11.1613 8.74334 11.3371C8.56752 11.5129 8.46875 11.7514 8.46875 12ZM8.46875 15.375C8.46875 15.6236 8.56752 15.8621 8.74334 16.0379C8.91915 16.2137 9.15761 16.3125 9.40625 16.3125C9.65489 16.3125 9.89335 16.2137 10.0692 16.0379C10.245 15.8621 10.3438 15.6236 10.3438 15.375C10.3438 15.1264 10.245 14.8879 10.0692 14.7121C9.89335 14.5363 9.65489 14.4375 9.40625 14.4375C9.15761 14.4375 8.91915 14.5363 8.74334 14.7121C8.56752 14.8879 8.46875 15.1264 8.46875 15.375Z" fill="white"/>
</svg>
