<?xml version="1.0" encoding="UTF-8"?>
<svg id="_レイヤー_2" data-name="レイヤー 2" xmlns="http://www.w3.org/2000/svg" xmlns:xlink="http://www.w3.org/1999/xlink" viewBox="0 0 29.41 29.41">
  <defs>
    <style>
      .cls-1 {
        fill: url(#_名称未設定グラデーション_4);
      }
    </style>
    <linearGradient id="_名称未設定グラデーション_4" data-name="名称未設定グラデーション 4" x1="14.7" y1="-414.7" x2="14.7" y2="-444.11" gradientTransform="translate(0 -414.7) scale(1 -1)" gradientUnits="userSpaceOnUse">
      <stop offset="0" stop-color="#808181"/>
      <stop offset="1" stop-color="#5b5a5b"/>
    </linearGradient>
  </defs>
  <g id="_レイヤー_1-2" data-name="レイヤー 1">
    <path class="cls-1" d="M29.41,4.6c0,1.03-.82,1.99-2.21,2.76-1.67.92-4.16,1.58-7.03,1.77-.21-.1-.43-.2-.65-.29-2.26-.95-5.27-1.49-8.5-1.49-.48,0-.94.01-1.41.03l-.06-.03c-1.38-.77-2.21-1.72-2.21-2.76C7.35,2.06,12.29,0,18.38,0s11.03,2.06,11.03,4.6ZM9.23,9.25c.59-.04,1.19-.06,1.8-.06,3.57,0,6.74.71,8.76,1.8,1.42.78,2.27,1.74,2.27,2.79,0,.23-.04.45-.12.67-.26.76-.98,1.45-2.01,2.04,0,0-.02,0-.02.01-.02.01-.03.02-.05.03-2.01,1.11-5.22,1.84-8.82,1.84s-6.49-.65-8.51-1.67c-.11-.05-.21-.11-.32-.17-1.38-.76-2.2-1.72-2.2-2.75,0-2,3.07-3.71,7.35-4.33.6-.09,1.23-.16,1.88-.2ZM23.9,13.79c0-1.26-.61-2.29-1.38-3.07,1.63-.25,3.11-.65,4.38-1.18.94-.39,1.81-.87,2.52-1.46v2.03c0,1.11-.95,2.13-2.52,2.92-.84.42-1.86.79-3.01,1.06,0-.1.01-.2.01-.3h0ZM22.06,19.3c0,1.03-.82,1.99-2.21,2.76-.1.06-.21.11-.32.17-2.02,1.02-5.08,1.67-8.51,1.67-3.61,0-6.81-.72-8.82-1.84-1.38-.77-2.21-1.72-2.21-2.76v-2.03c.72.59,1.59,1.07,2.52,1.46,2.27.95,5.28,1.49,8.51,1.49s6.24-.54,8.51-1.49c.45-.18.88-.4,1.29-.63.35-.2.68-.41.99-.64.09-.06.17-.13.25-.2v2.03ZM23.9,19.3v-3.33c1.09-.24,2.1-.55,2.99-.92.94-.39,1.81-.87,2.52-1.47v2.03c0,.6-.29,1.21-.86,1.77-.94.94-2.58,1.71-4.67,2.21,0-.1.01-.2.01-.3ZM11.03,25.73c3.23,0,6.24-.54,8.51-1.49.94-.39,1.81-.87,2.52-1.46v2.03c0,2.54-4.94,4.59-11.03,4.59S0,27.35,0,24.81v-2.03c.72.59,1.59,1.07,2.52,1.46,2.27.95,5.28,1.49,8.51,1.49Z"/>
  </g>
</svg>