<svg width="25" height="24" viewBox="0 0 25 24" fill="none" xmlns="http://www.w3.org/2000/svg">
<g clip-path="url(#clip0_2271_12179)">
<path d="M20.75 0H2.75C1.5125 0 0.5 1.0125 0.5 2.25V21.75C0.5 22.9875 1.5125 24 2.75 24H20.75C21.9875 24 23 22.9875 23 21.75V2.25C23 1.0125 21.9875 0 20.75 0ZM20 21H3.5V3H20V21ZM6.5 13.5H17V15H6.5V13.5ZM6.5 16.5H17V18H6.5V16.5ZM8 6.75C8.0001 6.45443 8.05841 6.16177 8.17161 5.88873C8.28482 5.6157 8.45069 5.36763 8.65976 5.1587C8.86883 4.94977 9.11701 4.78406 9.39012 4.67104C9.66323 4.55802 9.95593 4.4999 10.2515 4.5C10.5471 4.5001 10.8397 4.55841 11.1128 4.67162C11.3858 4.78482 11.6339 4.95069 11.8428 5.15976C12.0517 5.36883 12.2174 5.61701 12.3305 5.89012C12.4435 6.16323 12.5016 6.45593 12.5015 6.7515C12.5013 7.34844 12.264 7.92084 11.8417 8.3428C11.4195 8.76476 10.8469 9.0017 10.25 9.0015C9.65306 9.0013 9.08066 8.76398 8.6587 8.34174C8.23674 7.9195 7.9998 7.34694 8 6.75ZM11.75 9H8.75C7.5125 9 6.5 9.675 6.5 10.5V12H14V10.5C14 9.675 12.9875 9 11.75 9Z" fill="white"/>
</g>
<defs>
<clipPath id="clip0_2271_12179">
<rect width="24" height="24" fill="white" transform="translate(0.5)"/>
</clipPath>
</defs>
</svg>
