<svg width="18" height="19" viewBox="0 0 18 19" fill="none" xmlns="http://www.w3.org/2000/svg">
<path d="M6.92481 13.7124C5.10814 13.7124 3.57081 13.0831 2.31281 11.8244C1.05481 10.5657 0.425472 9.0284 0.424805 7.2124C0.424139 5.3964 1.05347 3.85907 2.31281 2.6004C3.57214 1.34174 5.10947 0.712402 6.92481 0.712402C8.74014 0.712402 10.2778 1.34174 11.5378 2.6004C12.7978 3.85907 13.4268 5.3964 13.4248 7.2124C13.4248 7.94574 13.3081 8.6374 13.0748 9.2874C12.8415 9.9374 12.5248 10.5124 12.1248 11.0124L17.7248 16.6124C17.9081 16.7957 17.9998 17.0291 17.9998 17.3124C17.9998 17.5957 17.9081 17.8291 17.7248 18.0124C17.5415 18.1957 17.3081 18.2874 17.0248 18.2874C16.7415 18.2874 16.5081 18.1957 16.3248 18.0124L10.7248 12.4124C10.2248 12.8124 9.64981 13.1291 8.99981 13.3624C8.34981 13.5957 7.65814 13.7124 6.92481 13.7124ZM6.92481 11.7124C8.17481 11.7124 9.23747 11.2751 10.1128 10.4004C10.9881 9.52574 11.4255 8.46307 11.4248 7.2124C11.4241 5.96174 10.9868 4.8994 10.1128 4.0254C9.23881 3.1514 8.17614 2.71374 6.92481 2.7124C5.67347 2.71107 4.61114 3.14874 3.73781 4.0254C2.86447 4.90207 2.42681 5.9644 2.42481 7.2124C2.42281 8.4604 2.86047 9.52307 3.73781 10.4004C4.61514 11.2777 5.67747 11.7151 6.92481 11.7124Z" fill="#063E5F"/>
</svg>
