<svg width="13" height="20" viewBox="0 0 13 20" fill="none" xmlns="http://www.w3.org/2000/svg">
<path d="M10.5 0H2.5C1.96957 0 1.46086 0.210714 1.08579 0.585786C0.710714 0.960859 0.5 1.46957 0.5 2V18C0.5 18.5304 0.710714 19.0391 1.08579 19.4142C1.46086 19.7893 1.96957 20 2.5 20H10.5C11.0304 20 11.5391 19.7893 11.9142 19.4142C12.2893 19.0391 12.5 18.5304 12.5 18V2C12.5 1.46957 12.2893 0.960859 11.9142 0.585786C11.5391 0.210714 11.0304 0 10.5 0ZM7.5 19H5.5V18H7.5V19ZM10.5 17H2.5V3H10.5V17Z" fill="white"/>
</svg>
