<svg width="65" height="12" viewBox="0 0 65 12" fill="none" xmlns="http://www.w3.org/2000/svg">
<rect x="0.710461" y="0.957287" width="63.7341" height="10.5459" rx="1.60482" fill="#32ADE6"/>
<rect x="0.710461" y="0.957287" width="63.7341" height="10.5459" rx="1.60482" stroke="#32ADE6" stroke-width="0.458519"/>
<path d="M10.4889 4.41061H16.1636V5.19377H10.4889V4.41061ZM11.8049 7.31854H14.7898V8.10169H11.8049V7.31854ZM12.909 3.16528H13.7242V9.19297H12.909V3.16528ZM12.6779 4.69306L13.384 4.91774C13.2 5.37992 12.9775 5.82071 12.7164 6.24011C12.4554 6.6595 12.1622 7.04037 11.837 7.38274C11.516 7.72082 11.1694 8.00968 10.7971 8.24934C10.7543 8.18514 10.6986 8.11453 10.6302 8.0375C10.5617 7.95619 10.4932 7.87702 10.4247 7.79999C10.3605 7.71868 10.2964 7.65448 10.2322 7.60741C10.4975 7.46191 10.7521 7.28431 10.9961 7.07461C11.24 6.86491 11.4668 6.63168 11.6765 6.37491C11.8905 6.11814 12.0809 5.84853 12.2478 5.56608C12.419 5.27936 12.5624 4.98835 12.6779 4.69306ZM13.9618 4.71232C14.1158 5.08892 14.317 5.45909 14.5652 5.82285C14.8177 6.18233 15.1044 6.50971 15.4253 6.805C15.7463 7.10029 16.0844 7.34208 16.4396 7.53038C16.3754 7.58173 16.3048 7.64806 16.2278 7.72938C16.155 7.81069 16.0844 7.89628 16.0159 7.98615C15.9474 8.07174 15.8897 8.15091 15.8426 8.22366C15.4703 7.99257 15.1215 7.71012 14.7963 7.37632C14.4753 7.03823 14.1864 6.66164 13.9297 6.24653C13.6729 5.83141 13.4503 5.39704 13.2621 4.94341L13.9618 4.71232ZM17.518 3.55043H21.9987V9.1031H21.1706V4.32716H18.3076V9.11594H17.518V3.55043ZM18.0572 5.70731H21.5108V6.46478H18.0572V5.70731ZM18.0572 7.91553H21.5172V8.69227H18.0572V7.91553ZM24.7782 4.59035V4.85354H27.5128V4.59035H24.7782ZM24.7782 3.86498V4.12175H27.5128V3.86498H24.7782ZM24.04 3.36427H28.2831V5.35425H24.04V3.36427ZM23.2825 5.58534H29.0213V6.19517H23.2825V5.58534ZM26.229 6.43268H28.3281V7.02326H26.229V6.43268ZM24.2711 6.45194H25.7283V6.98474H24.2711V6.45194ZM24.2711 7.26077H25.7283V7.79357H24.2711V7.26077ZM27.0121 6.96548C27.1919 7.3592 27.4657 7.69728 27.8338 7.97973C28.2061 8.26217 28.649 8.46331 29.1626 8.58314C29.1155 8.63021 29.062 8.68799 29.0021 8.75646C28.9422 8.82921 28.8865 8.9041 28.8352 8.98113C28.7838 9.05816 28.741 9.12664 28.7068 9.18655C28.1547 9.01965 27.6861 8.76288 27.301 8.41624C26.9201 8.0696 26.6184 7.64379 26.3959 7.1388L27.0121 6.96548ZM28.097 6.43268H28.2382L28.3666 6.41343L28.8416 6.59317C28.7132 7.03823 28.5313 7.42981 28.296 7.76789C28.0606 8.10169 27.7824 8.38414 27.4615 8.61523C27.1448 8.85061 26.7939 9.04105 26.4087 9.18655C26.3659 9.0924 26.3039 8.98541 26.2225 8.86559C26.1412 8.75004 26.0642 8.65589 25.9915 8.58314C26.2397 8.50611 26.475 8.4034 26.6976 8.27501C26.9244 8.14663 27.1298 7.99471 27.3138 7.81925C27.4978 7.64379 27.6562 7.44907 27.7889 7.23509C27.9258 7.02112 28.0285 6.79216 28.097 6.54823V6.43268ZM23.2248 8.19156C23.443 8.17872 23.6869 8.16375 23.9565 8.14663C24.2262 8.12523 24.5107 8.10383 24.8103 8.08244C25.1099 8.05676 25.4116 8.03108 25.7154 8.0054V8.63449C25.2832 8.67301 24.8531 8.71152 24.4252 8.75004C24.0015 8.79283 23.6206 8.82921 23.2825 8.85917L23.2248 8.19156ZM25.3367 5.78434H26.0685V9.19297H25.3367V5.78434ZM23.7896 5.79718H24.4893V8.42266H23.7896V5.79718ZM29.7275 4.89206H35.4406V5.68805H29.7275V4.89206ZM33.027 5.21302C33.1554 5.70089 33.333 6.15666 33.5598 6.58033C33.7866 7.004 34.0669 7.37418 34.4007 7.69086C34.7388 8.00754 35.1325 8.2579 35.5818 8.44191C35.5176 8.49755 35.4492 8.56816 35.3764 8.65375C35.308 8.73934 35.2395 8.82707 35.171 8.91694C35.1068 9.01109 35.0533 9.09454 35.0105 9.16729C34.5184 8.9362 34.0947 8.63877 33.7395 8.27501C33.3886 7.91125 33.0933 7.48758 32.8537 7.004C32.614 6.51613 32.4129 5.97906 32.2502 5.39276L33.027 5.21302ZM32.1411 3.16528H32.982C32.9778 3.49052 32.9671 3.83502 32.9499 4.19878C32.9371 4.55826 32.905 4.92416 32.8537 5.29647C32.8023 5.66879 32.7188 6.03897 32.6033 6.40701C32.492 6.77077 32.3337 7.12169 32.1283 7.45977C31.9271 7.79357 31.6661 8.10597 31.3451 8.39698C31.0284 8.68799 30.6411 8.94476 30.1832 9.16729C30.1233 9.06458 30.0399 8.95118 29.9329 8.82707C29.8259 8.70296 29.7168 8.60026 29.6055 8.51895C30.042 8.32209 30.4079 8.09527 30.7032 7.8385C30.9985 7.57745 31.2381 7.29714 31.4222 6.99758C31.6105 6.69373 31.7538 6.37919 31.8522 6.05395C31.9507 5.72442 32.017 5.39276 32.0512 5.05896C32.0898 4.72516 32.1133 4.39778 32.1219 4.07681C32.1304 3.75585 32.1368 3.452 32.1411 3.16528ZM35.9927 3.58895L36.5255 3.19095C36.8165 3.45628 37.0476 3.72803 37.2188 4.0062C37.3942 4.28009 37.5247 4.56254 37.6103 4.85354C37.7002 5.14027 37.758 5.43556 37.7836 5.7394C37.8136 6.04325 37.8286 6.35351 37.8286 6.6702C37.8286 6.96976 37.82 7.26505 37.8029 7.55606C37.7858 7.84278 37.7516 8.10169 37.7002 8.33279C37.6531 8.56388 37.5804 8.74576 37.4819 8.87842C37.3878 9.01109 37.2573 9.09454 37.0904 9.12878C36.9791 9.15873 36.8593 9.17585 36.7309 9.18013C36.6068 9.18869 36.4763 9.19083 36.3393 9.18655C36.3393 9.06244 36.3243 8.9362 36.2944 8.80781C36.2644 8.67943 36.2173 8.5596 36.1532 8.44833C36.2901 8.45689 36.4056 8.46117 36.4998 8.46117C36.5982 8.46117 36.6774 8.45903 36.7373 8.45475C36.8186 8.44191 36.8828 8.40554 36.9299 8.34563C36.977 8.28571 37.0112 8.17444 37.0326 8.01182C37.0583 7.84492 37.0775 7.64379 37.0904 7.40841C37.1032 7.16876 37.1096 6.91841 37.1096 6.65736C37.1096 6.25508 37.0818 5.87849 37.0262 5.52757C36.9748 5.17237 36.87 4.83429 36.7116 4.51332C36.5533 4.19236 36.3136 3.88423 35.9927 3.58895ZM37.161 5.55966L37.7195 5.88705C37.621 6.0839 37.4991 6.29146 37.3536 6.50971C37.2081 6.72369 37.0519 6.92697 36.885 7.11955C36.7223 7.31212 36.5597 7.47902 36.3971 7.62025C36.3372 7.5261 36.2601 7.42339 36.166 7.31212C36.0718 7.20086 35.982 7.11313 35.8964 7.04893C36.0547 6.94195 36.2131 6.80714 36.3714 6.64452C36.534 6.4819 36.6838 6.30644 36.8208 6.11814C36.962 5.92556 37.0754 5.7394 37.161 5.55966ZM37.4242 3.22305L38.0982 3.55685C37.8928 3.93773 37.6424 4.30791 37.3471 4.66739C37.0519 5.02259 36.7459 5.32429 36.4292 5.5725C36.3735 5.49547 36.2922 5.40988 36.1853 5.31573C36.0825 5.2173 35.9905 5.13813 35.9092 5.07822C36.1104 4.92844 36.3051 4.75298 36.4934 4.55184C36.686 4.34642 36.8614 4.13031 37.0198 3.90349C37.1781 3.6724 37.3129 3.44559 37.4242 3.22305ZM38.0597 3.58895H41.9498V4.16668H38.0597V3.58895ZM38.4063 6.56107H41.9112V7.01684H38.4063V6.56107ZM38.1881 7.22225H41.2501V7.76789H38.1881V7.22225ZM38.6567 5.38634H41.5646V5.7394H38.6567V5.38634ZM38.6631 5.9705H41.571V6.32356H38.6631V5.9705ZM38.8749 3.14602H39.5682V4.42345H38.8749V3.14602ZM39.8057 4.95625H40.4797V6.805H39.8057V4.95625ZM40.377 3.14602H41.0767V4.42345H40.377V3.14602ZM38.631 4.23088L39.2408 4.39778C39.1167 4.69734 38.9584 4.98835 38.7658 5.2708C38.5732 5.54896 38.3721 5.78434 38.1624 5.97692C38.1324 5.92984 38.0896 5.87635 38.034 5.81643C37.9784 5.75652 37.9227 5.69661 37.8671 5.63669C37.8115 5.57678 37.7601 5.52757 37.713 5.48905C37.9099 5.33499 38.0875 5.14669 38.2458 4.92416C38.4085 4.70162 38.5368 4.47053 38.631 4.23088ZM38.4063 5.14883L39.0675 4.82787V6.88845H38.4063V5.14883ZM38.708 4.71874H41.7379V5.17451H38.4769L38.708 4.71874ZM39.9726 4.29507L40.7044 4.41061C40.6359 4.53044 40.5696 4.64385 40.5054 4.75084C40.4412 4.85354 40.3856 4.94555 40.3385 5.02686L39.7544 4.89848C39.7929 4.80433 39.8335 4.70162 39.8763 4.59035C39.9191 4.47481 39.9512 4.37638 39.9726 4.29507ZM41.0639 7.22225H41.2051L41.3271 7.203L41.7379 7.44693C41.5839 7.7251 41.3827 7.96475 41.1345 8.16589C40.8863 8.36274 40.6017 8.52964 40.2807 8.66659C39.9641 8.80353 39.6238 8.9148 39.2601 9.00039C38.9006 9.08598 38.524 9.15445 38.1303 9.20581C38.1132 9.15017 38.0854 9.08384 38.0468 9.00681C38.0126 8.93406 37.9741 8.86131 37.9313 8.78855C37.8885 8.7158 37.8478 8.65803 37.8093 8.61523C38.1816 8.58528 38.5368 8.54034 38.8749 8.48043C39.2173 8.41624 39.5297 8.33279 39.8121 8.23008C40.0989 8.12737 40.3492 8.00112 40.5632 7.85134C40.7772 7.70156 40.9441 7.52396 41.0639 7.31854V7.22225ZM39.2986 7.69086C39.4698 7.86632 39.6966 8.0161 39.979 8.14021C40.2615 8.26003 40.5824 8.35846 40.9419 8.43549C41.3057 8.50825 41.693 8.5596 42.1038 8.58956C42.0268 8.66231 41.9476 8.7586 41.8663 8.87842C41.7893 8.99825 41.7272 9.10524 41.6801 9.19939C41.2479 9.14803 40.8435 9.06672 40.4669 8.95546C40.0903 8.84847 39.7522 8.70938 39.4527 8.5382C39.1531 8.36274 38.8985 8.15305 38.6888 7.90912L39.2986 7.69086ZM45.5445 4.71874V5.0397H47.2264V4.71874H45.5445ZM45.5445 3.89065V4.2052H47.2264V3.89065H45.5445ZM44.8063 3.34502H48.0031V5.58534H44.8063V3.34502ZM44.4789 5.86779H48.2085V6.49688H44.4789V5.86779ZM44.3185 6.85636H48.3433V7.51112H44.3185V6.85636ZM46.6808 6.41985H47.4575V8.42908C47.4575 8.60454 47.4361 8.74148 47.3933 8.83991C47.3548 8.94262 47.2735 9.01965 47.1494 9.071C47.0295 9.12664 46.8862 9.15873 46.7193 9.16729C46.5566 9.18013 46.3662 9.18655 46.148 9.18655C46.1351 9.08384 46.1052 8.96829 46.0581 8.83991C46.011 8.71152 45.9618 8.59812 45.9104 8.49969C46.0431 8.50397 46.1736 8.50825 46.302 8.51253C46.4347 8.51253 46.5224 8.51253 46.5652 8.51253C46.6123 8.50825 46.6422 8.49969 46.6551 8.48685C46.6722 8.46973 46.6808 8.44405 46.6808 8.40982V6.41985ZM44.7421 7.83208L45.2814 7.4726C45.4183 7.59671 45.5617 7.73793 45.7114 7.89628C45.8612 8.05462 45.9768 8.19584 46.0581 8.31995L45.4868 8.72436C45.4397 8.64305 45.3734 8.55104 45.2878 8.44833C45.2065 8.34563 45.1166 8.24078 45.0182 8.13379C44.924 8.02252 44.832 7.92195 44.7421 7.83208ZM43.8627 4.57752L44.5367 4.85996C44.3827 5.12529 44.2008 5.39062 43.9911 5.65595C43.7814 5.92128 43.561 6.17377 43.3299 6.41343C43.0988 6.6488 42.872 6.85422 42.6495 7.02968C42.6281 6.96976 42.596 6.89059 42.5532 6.79216C42.5146 6.68945 42.4697 6.58675 42.4184 6.48404C42.3713 6.38133 42.3264 6.30002 42.2836 6.24011C42.4761 6.10316 42.6687 5.94696 42.8613 5.7715C43.0539 5.59176 43.2379 5.40132 43.4133 5.20018C43.5888 4.99477 43.7386 4.78721 43.8627 4.57752ZM43.6958 3.1717L44.4276 3.46698C44.2864 3.66384 44.1216 3.86284 43.9333 4.06397C43.7493 4.26083 43.5546 4.44699 43.3492 4.62245C43.1437 4.79791 42.9383 4.95197 42.7329 5.08464C42.7072 5.02472 42.6709 4.95411 42.6238 4.8728C42.581 4.79149 42.5339 4.71018 42.4826 4.62887C42.4355 4.54756 42.3927 4.48123 42.3542 4.42987C42.5211 4.32716 42.6901 4.2052 42.8613 4.06397C43.0325 3.92275 43.1908 3.77511 43.3363 3.62104C43.4861 3.4627 43.6059 3.31292 43.6958 3.1717ZM43.2272 6.01543L43.9397 5.30289L43.9782 5.31573V9.18655H43.2272V6.01543ZM48.8119 6.50971H52.0601V7.13238H48.8119V6.50971ZM48.889 4.24371H52.0408V4.85354H48.889V4.24371ZM49.9738 6.05395L50.6864 6.20159C50.5794 6.42412 50.4638 6.65308 50.3397 6.88845C50.2199 7.12382 50.1001 7.35278 49.9803 7.57531C49.8604 7.79357 49.7492 7.98829 49.6465 8.15947L48.9724 7.95405C49.0751 7.79143 49.1843 7.60099 49.2998 7.38274C49.4196 7.16448 49.5373 6.93981 49.6529 6.70871C49.7727 6.47334 49.8797 6.25508 49.9738 6.05395ZM50.879 6.93981L51.5915 7.004C51.5316 7.34208 51.4417 7.63309 51.3219 7.87702C51.2063 8.11667 51.0501 8.32209 50.8533 8.49327C50.6607 8.66017 50.4253 8.79925 50.1472 8.91052C49.869 9.02607 49.5373 9.12236 49.1522 9.19939C49.1308 9.0924 49.0901 8.97899 49.0302 8.85917C48.9703 8.73934 48.9082 8.64091 48.844 8.56388C49.2677 8.50825 49.6165 8.42052 49.8904 8.30069C50.1686 8.18086 50.3868 8.01182 50.5452 7.79357C50.7035 7.57531 50.8148 7.29073 50.879 6.93981ZM51.3347 3.23589L51.9831 3.49908C51.8804 3.6403 51.7776 3.78153 51.6749 3.92275C51.5765 4.05969 51.4866 4.17738 51.4053 4.27581L50.911 4.05756C50.9838 3.94629 51.0608 3.81362 51.1421 3.65956C51.2235 3.50122 51.2876 3.35999 51.3347 3.23589ZM50.1151 3.15244H50.8212V6.14382H50.1151V3.15244ZM49.0495 3.49908L49.6015 3.26799C49.6871 3.38781 49.7663 3.52262 49.839 3.6724C49.9118 3.82218 49.9631 3.95271 49.9931 4.06397L49.4025 4.32075C49.3811 4.20948 49.3362 4.07681 49.2677 3.92275C49.1992 3.76869 49.1265 3.62746 49.0495 3.49908ZM50.1343 4.54542L50.6286 4.84713C50.5259 5.01831 50.3911 5.18949 50.2242 5.36067C50.0616 5.53185 49.8861 5.69233 49.6978 5.84211C49.5138 5.98761 49.3319 6.11172 49.1522 6.21443C49.1094 6.13312 49.0495 6.03683 48.9724 5.92556C48.8997 5.81429 48.8291 5.72442 48.7606 5.65595C48.9318 5.5832 49.1051 5.48905 49.2806 5.3735C49.456 5.25368 49.6186 5.12315 49.7684 4.98193C49.9225 4.83643 50.0444 4.69092 50.1343 4.54542ZM50.757 4.73158C50.8169 4.76153 50.8982 4.80647 51.0009 4.86638C51.1079 4.9263 51.2213 4.99263 51.3411 5.06538C51.4652 5.13385 51.5765 5.19804 51.6749 5.25796C51.7776 5.31787 51.8504 5.36281 51.8932 5.39276L51.4888 5.92556C51.4289 5.86993 51.3518 5.80146 51.2577 5.72015C51.1635 5.63883 51.063 5.55538 50.956 5.46979C50.849 5.3842 50.7463 5.30289 50.6479 5.22586C50.5494 5.14883 50.4638 5.08678 50.3911 5.0397L50.757 4.73158ZM52.4838 4.32075H54.8461V5.03328H52.4838V4.32075ZM52.5544 3.15244L53.3375 3.26799C53.2691 3.70878 53.1813 4.13673 53.0743 4.55184C52.9674 4.96267 52.8368 5.34355 52.6828 5.69447C52.533 6.04111 52.3575 6.34709 52.1564 6.61242C52.1179 6.56107 52.0622 6.50116 51.9895 6.43268C51.9167 6.36421 51.8397 6.29788 51.7584 6.23369C51.6771 6.16521 51.6086 6.10958 51.553 6.06679C51.7327 5.84425 51.8868 5.58106 52.0152 5.27722C52.1478 4.96909 52.2591 4.63529 52.349 4.27581C52.4388 3.91205 52.5073 3.53759 52.5544 3.15244ZM53.7227 4.75726L54.5123 4.83429C54.4181 5.56608 54.2726 6.21015 54.0757 6.76649C53.8832 7.32282 53.6157 7.80213 53.2733 8.2044C52.931 8.60668 52.4902 8.94262 51.951 9.21223C51.9253 9.15231 51.8868 9.07742 51.8354 8.98755C51.7841 8.89768 51.7284 8.80781 51.6685 8.71794C51.6086 8.63235 51.553 8.56388 51.5016 8.51253C51.9895 8.29855 52.3832 8.02038 52.6828 7.67802C52.9866 7.33566 53.2198 6.92269 53.3825 6.4391C53.5451 5.95124 53.6585 5.39062 53.7227 4.75726ZM52.9203 4.89206C53.0101 5.43128 53.1364 5.9384 53.299 6.41343C53.4616 6.88845 53.6756 7.3057 53.9409 7.66518C54.2063 8.02466 54.5337 8.30711 54.9231 8.51253C54.8675 8.5596 54.8054 8.62165 54.7369 8.69868C54.6685 8.78 54.6021 8.86345 54.5379 8.94904C54.478 9.03463 54.4288 9.11166 54.3903 9.18013C53.9581 8.92336 53.6007 8.5917 53.3183 8.18514C53.0401 7.77859 52.8154 7.30784 52.6443 6.7729C52.4731 6.23369 52.334 5.64525 52.227 5.00761L52.9203 4.89206ZM49.5373 7.96047L49.9482 7.44051C50.2006 7.53466 50.451 7.64379 50.6992 7.76789C50.9517 7.892 51.1849 8.02038 51.3989 8.15305C51.6172 8.28143 51.799 8.40554 51.9446 8.52536L51.4053 9.071C51.2727 8.95118 51.1058 8.82493 50.9046 8.69227C50.7035 8.5596 50.4852 8.43122 50.2499 8.30711C50.0145 8.17872 49.777 8.06318 49.5373 7.96047Z" fill="black"/>
</svg>
