<svg width="85" height="15" viewBox="0 0 85 15" fill="none" xmlns="http://www.w3.org/2000/svg">
<rect x="1.08447" y="0.5" width="82.6364" height="13.3377" rx="1.88961" stroke="#FFCC00"/>
<path d="M35.9993 10.9868V3.16627H39.0848C39.6754 3.16627 40.1795 3.27192 40.597 3.48322C41.017 3.69197 41.3365 3.98855 41.5554 4.37296C41.7769 4.75482 41.8877 5.20414 41.8877 5.72093C41.8877 6.24026 41.7757 6.68704 41.5516 7.06127C41.3276 7.43295 41.003 7.71807 40.5779 7.91664C40.1553 8.11521 39.6436 8.21449 39.0428 8.21449H36.9769V6.88561H38.7755C39.0912 6.88561 39.3534 6.84233 39.5621 6.75578C39.7709 6.66922 39.9262 6.53939 40.028 6.36628C40.1324 6.19317 40.1846 5.97805 40.1846 5.72093C40.1846 5.46127 40.1324 5.24233 40.028 5.06413C39.9262 4.88593 39.7696 4.751 39.5583 4.65935C39.3496 4.56516 39.0861 4.51806 38.7678 4.51806H37.6528V10.9868H35.9993ZM40.2227 7.42786L42.1664 10.9868H40.3411L38.4394 7.42786H40.2227ZM43.0562 10.9868V3.16627H46.1874C46.7628 3.16627 47.2426 3.25155 47.6271 3.42212C48.0115 3.59268 48.3004 3.82944 48.4939 4.13238C48.6874 4.43278 48.7841 4.779 48.7841 5.17105C48.7841 5.47654 48.723 5.74512 48.6008 5.97678C48.4786 6.2059 48.3106 6.39428 48.0967 6.54194C47.8855 6.68704 47.6436 6.79015 47.3712 6.85124V6.92762C47.6691 6.94035 47.9478 7.02436 48.2075 7.17965C48.4697 7.33494 48.6823 7.5526 48.8452 7.83263C49.0081 8.11012 49.0896 8.44107 49.0896 8.82547C49.0896 9.24043 48.9865 9.61084 48.7803 9.93669C48.5766 10.26 48.275 10.5159 47.8753 10.7042C47.4756 10.8926 46.983 10.9868 46.3975 10.9868H43.0562ZM44.7096 9.63502H46.0576C46.5184 9.63502 46.8544 9.54719 47.0657 9.37154C47.277 9.19334 47.3827 8.95658 47.3827 8.66127C47.3827 8.44488 47.3305 8.25395 47.2261 8.08848C47.1217 7.92301 46.9728 7.79317 46.7793 7.69898C46.5884 7.60479 46.3605 7.55769 46.0958 7.55769H44.7096V9.63502ZM44.7096 6.43883H45.9354C46.162 6.43883 46.3631 6.39937 46.5387 6.32046C46.717 6.23899 46.857 6.12443 46.9588 5.97678C47.0632 5.82913 47.1154 5.6522 47.1154 5.44599C47.1154 5.16341 47.0148 4.93557 46.8137 4.76246C46.6151 4.58935 46.3325 4.50279 45.966 4.50279H44.7096V6.43883Z" fill="#FFCC00"/>
</svg>
