<svg width="116" height="50" viewBox="0 0 116 50" fill="none" xmlns="http://www.w3.org/2000/svg">
<path d="M35.1036 -0.00493538L27.1208 7.41275H13.2744L6.56317 -0.00493538H35.1036ZM30.7943 49.4463H2.25385L10.2367 42.0992H24.083L30.7943 49.4463ZM9.81282 30.7255L8.96509 40.6864L0.982249 48.0334L2.60707 28.8887L5.64479 26.1336L9.81282 30.7255ZM3.38417 20.5526L5.00899 1.40796L11.7202 8.755L10.8725 18.7159L5.85673 23.3784L3.38417 20.5526ZM33.9026 28.8887L32.2778 48.0334L25.5666 40.6864L26.4143 30.7255L31.4301 26.1336L33.9026 28.8887ZM27.474 18.7159L28.3217 8.755L36.3046 1.40796L34.6797 20.5526L31.642 23.3784L27.474 18.7159ZM26.8382 21.0472L30.2291 24.7207L26.2024 28.3942H10.5193L7.19897 24.7207L11.1551 21.0472H26.8382ZM74.6411 -0.00493538L66.6583 7.41275H52.8119L46.1007 -0.00493538H74.6411ZM70.3318 49.4463H41.7914L49.7742 42.0992H63.6206L70.3318 49.4463ZM49.3504 30.7255L48.5026 40.6864L40.5198 48.0334L42.1446 28.8887L45.1823 26.1336L49.3504 30.7255ZM42.9217 20.5526L44.5465 1.40796L51.2578 8.755L50.41 18.7159L45.3943 23.3784L42.9217 20.5526ZM73.4402 28.8887L71.8153 48.0334L65.1041 40.6864L65.9518 30.7255L70.9676 26.1336L73.4402 28.8887ZM67.0115 18.7159L67.8592 8.755L75.8421 1.40796L74.2173 20.5526L71.1795 23.3784L67.0115 18.7159ZM66.3757 21.0472L69.7666 24.7207L65.7399 28.3942H50.0568L46.7365 24.7207L50.6926 21.0472H66.3757ZM114.179 -0.00493538L106.196 7.41275H92.3495L85.6382 -0.00493538H114.179ZM109.869 49.4463H81.3289L89.3117 42.0992H103.158L109.869 49.4463ZM88.8879 30.7255L88.0401 40.6864L80.0573 48.0334L81.6821 28.8887L84.7198 26.1336L88.8879 30.7255ZM82.4592 20.5526L84.084 1.40796L90.7953 8.755L89.9475 18.7159L84.9318 23.3784L82.4592 20.5526ZM112.978 28.8887L111.353 48.0334L104.642 40.6864L105.489 30.7255L110.505 26.1336L112.978 28.8887ZM106.549 18.7159L107.397 8.755L115.38 1.40796L113.755 20.5526L110.717 23.3784L106.549 18.7159ZM105.913 21.0472L109.304 24.7207L105.277 28.3942H89.5943L86.274 24.7207L90.2301 21.0472H105.913Z" fill="white" fill-opacity="0.1"/>
</svg>
