<?xml version="1.0" encoding="UTF-8"?>
<svg id="_レイヤー_2" data-name="レイヤー 2" xmlns="http://www.w3.org/2000/svg" viewBox="0 0 31.19 16.78">
  <defs>
    <style>
      .cls-1 {
        fill: #32ade6;
      }

      .cls-2 {
        fill: #090909;
      }
    </style>
  </defs>
  <g id="_レイヤー_1-2" data-name="レイヤー 1">
    <rect class="cls-1" width="31.19" height="16.78" rx="2.24" ry="2.24"/>
    <path class="cls-2" d="M6.52,2.91h3.39v1.46h-3.39v-1.46ZM9.2,2.91h1.48c0,.38.02.82.05,1.3.03.48.1.99.2,1.54.1.54.26,1.1.46,1.67.21.57.48,1.14.82,1.71.35.56.79,1.09,1.31,1.61.52.52,1.15.99,1.88,1.43-.1.08-.23.2-.38.35s-.3.31-.44.46c-.13.17-.25.31-.33.44-.75-.46-1.4-.98-1.95-1.55-.55-.58-1.01-1.19-1.38-1.84-.37-.65-.68-1.31-.91-1.97-.23-.67-.4-1.32-.52-1.94-.12-.64-.2-1.23-.24-1.78-.04-.55-.06-1.03-.06-1.43ZM8.69,5.54l1.63.3c-.27,1.18-.63,2.25-1.09,3.21-.45.96-1,1.81-1.63,2.54-.63.73-1.36,1.35-2.18,1.85-.09-.1-.21-.23-.37-.38-.16-.14-.33-.29-.5-.44-.17-.14-.31-.26-.44-.35,1.25-.63,2.24-1.51,2.98-2.65.74-1.14,1.27-2.5,1.6-4.08ZM21.63,3.62c-.33.45-.74.92-1.24,1.41-.49.49-1.04.95-1.65,1.4-.6.45-1.22.84-1.87,1.19-.06-.12-.15-.25-.25-.39-.1-.14-.2-.28-.32-.42-.11-.14-.22-.26-.32-.36.68-.33,1.34-.73,1.97-1.2.63-.49,1.19-.99,1.68-1.52.5-.52.9-1.03,1.19-1.51h1.49c.33.45.68.89,1.07,1.3.39.41.81.79,1.25,1.14.45.35.9.66,1.37.94s.94.51,1.42.7c-.18.18-.35.39-.51.62-.16.23-.31.45-.44.67-.45-.24-.91-.51-1.38-.82-.46-.31-.91-.64-1.34-.99-.43-.36-.83-.72-1.19-1.09-.37-.37-.68-.72-.93-1.07ZM18.65,5.82h6v1.25h-6v-1.25ZM17.21,8.26h8.84v1.24h-8.84v-1.24ZM16.62,11.88h10.14v1.23h-10.14v-1.23ZM20.85,6.32h1.51v6.18h-1.51v-6.18ZM17.97,9.95l1.15-.48c.15.2.3.42.44.66.15.24.29.47.41.7.12.23.21.44.26.62l-1.23.55c-.05-.18-.13-.39-.24-.63-.11-.25-.24-.49-.37-.74-.13-.25-.27-.47-.42-.68ZM24.02,9.48l1.37.5c-.24.37-.48.73-.74,1.1-.26.36-.49.66-.7.92l-1.07-.45c.14-.19.27-.4.42-.63.14-.24.28-.48.41-.73.13-.25.23-.49.32-.7Z"/>
  </g>
</svg>