<?xml version="1.0" encoding="UTF-8"?><svg id="_レイヤー_2" xmlns="http://www.w3.org/2000/svg" viewBox="0 0 241.06 23.78"><defs><style>.cls-1{fill:#fdefaa;}.cls-2{fill:#db0d2a;}.cls-3{fill:#176bc6;}.cls-4{fill:#f6922c;}.cls-5{fill:#fff;}.cls-6{fill:#fbc21f;}</style></defs><g id="_レイヤー_1-2"><path class="cls-3" d="M2.14.06c-.09.05-.04,4.77.02,4.86.07.12,1,.98,1.82,1.71.65.56,1.22.17,1.32.17.24,0,4.35.04,4.47.04.05,0,.78.42,1.39-.1.87-.74,1.91-1.67,1.93-1.81.02-.13.02-4.82-.04-4.86-.03-.02-.77-.03-1.8-.04-.88,0-2.67.44-3.81.44C5.97.46,5.13,0,3.99.02c-1.04,0-1.82.02-1.85.04Z"/><path class="cls-5" d="M3.99.01v6.61s.31.29.64.55c.3.25.61.48.63.48.21-.02,4.64.09,4.73.05.05-.03.38-.29.69-.54.24-.2.48-.41.48-.41L11.25.03s-.55,0-1.28,0c0,0-1.81.21-2.49.21-.82,0-1.57-.23-2.29-.23-.84,0-1.2,0-1.2,0Z"/><path class="cls-2" d="M5.24,7.66c-.12-.09-.05-7.65-.05-7.65,0,0,.81,0,2.53,0,1.5,0,2.26.02,2.26.02,0,0,.07,7.55,0,7.67-.08.12-1.33.75-2.18.76-.86.01-2.49-.75-2.55-.79Z"/><path class="cls-6" d="M7.66,9.69c.41-.02,2.39-1.95,2.36-2.01-.03-.04-1.21-.05-2.4-.05-1.2,0-2.4-.03-2.4.01,0,.08,1.95,2.08,2.45,2.05Z"/><path class="cls-6" d="M7.61,9.36c-.13,0-.23.25-.31.43-.08.17-2.1,4.67-2.12,4.71-.03.04-4.56.08-4.77.11-.21.03-.37.11-.37.2s-.03.29.09.38c.12.09,3.79,3.13,3.79,3.2s-1.2,4.87-1.19,4.98c.01.11.08.22.16.29.08.07.13.06.27.04.25-.05,4.22-2.49,4.28-2.48.05.01,4.14,2.41,4.24,2.43.11.01.23,0,.3-.05.08-.05.16-.26.12-.41-.04-.15-.86-4.38-.84-4.46.03-.08,3.53-3.1,3.6-3.24.07-.13-.06-.45-.18-.54-.12-.09-4.62-.41-4.71-.47-.09-.05-1.96-4.64-1.98-4.73-.03-.09-.24-.37-.39-.37Z"/><path class="cls-1" d="M5.75,14.52c0,.1,1.27,2.62,1.35,2.62s.56-.2.56-.2c0,0,.01-6.48-.03-6.42-.04.07-1.88,3.78-1.88,3.99ZM8.39,17.2c-.05-.06,1.17-2.04,1.33-2.1.16-.07,4.46.19,4.45.28-.01.09-5.73,1.89-5.78,1.82ZM4.43,18.45c-.06.06-1.01,4.04-.96,4.13.05.09,3.52-4.09,3.5-4.17-.01-.08.01-.83.01-.83,0,0-2.45.77-2.56.87Z"/><path class="cls-4" d="M8.01,16.95s-.13-.57-.16-.72c-.03-.13-.12-.28-.26-.28s-.23.14-.27.32c-.06.26-.15.68-.15.68,0,0-.5-.04-.61-.05-.18,0-.38,0-.42.16-.02.1,0,.22.27.38.22.13.47.28.47.28,0,0-.08.28-.13.54-.03.15-.12.43.03.5.14.07.3-.05.46-.2l.34-.33s.3.23.41.32c.14.11.35.18.46.09.12-.1.09-.27.03-.45-.07-.2-.2-.49-.2-.49,0,0,.46-.29.55-.35.09-.06.19-.2.13-.36-.04-.11-.22-.14-.37-.12-.15.03-.59.07-.59.07ZM9.52,16.83c.07.24.3.19.72.08.41-.1,4.34-1.31,4.47-1.36.14-.05.37-.22.3-.41-.07-.2-.27-.25-.51-.19-.24.06-4.13,1.37-4.38,1.46-.17.06-.66.18-.59.42ZM7.62,15.27c.24-.03.23-.55.26-.97.03-.43.09-4.59.09-4.73,0-.15-.09-.4-.3-.4s-.32.16-.34.4c-.02.24,0,4.39.01,4.66.03.43.04,1.07.27,1.04ZM5.52,16.78c.06-.24-.41-.41-.8-.57-.39-.17-4.11-1.48-4.24-1.53-.14-.05-.39-.04-.46.15-.07.2.04.36.26.46.22.1,3.92,1.36,4.18,1.43.42.11,1,.31,1.06.06ZM6.46,19.16c-.21-.13-.52.2-.8.52-.29.32-2.75,3.41-2.84,3.53-.09.12-.19.38-.02.51.16.13.36.05.53-.12.17-.18,2.58-3.26,2.73-3.48.24-.35.61-.83.41-.95ZM8.77,19.09c-.18.16.09.49.31.86.22.37,2.38,3.45,2.46,3.56.09.12.31.29.48.17.17-.12.16-.33.04-.54-.12-.21-2.38-3.3-2.55-3.51-.27-.33-.57-.7-.74-.55Z"/><path class="cls-3" d="M27.14.06c-.09.05-.04,4.77.02,4.86.07.12,1,.98,1.82,1.71.65.56,1.22.17,1.32.17.24,0,4.35.04,4.47.04.05,0,.78.42,1.39-.1.87-.74,1.91-1.67,1.93-1.81.02-.13.02-4.82-.04-4.86-.03-.02-.77-.03-1.8-.04-.88,0-2.67.44-3.81.44-1.46,0-2.3-.46-3.44-.45-1.04,0-1.82.02-1.85.04Z"/><path class="cls-5" d="M28.99.01v6.61s.31.29.64.55c.3.25.61.48.63.48.21-.02,4.64.09,4.73.05.05-.03.38-.29.69-.54.24-.2.48-.41.48-.41l.09-6.72s-.55,0-1.28,0c0,0-1.81.21-2.49.21-.82,0-1.57-.23-2.29-.23-.84,0-1.2,0-1.2,0Z"/><path class="cls-2" d="M30.24,7.66c-.12-.09-.05-7.65-.05-7.65,0,0,.81,0,2.53,0,1.5,0,2.26.02,2.26.02,0,0,.07,7.55,0,7.67-.08.12-1.33.75-2.18.76-.86.01-2.49-.75-2.55-.79Z"/><path class="cls-6" d="M32.66,9.69c.41-.02,2.39-1.95,2.36-2.01-.03-.04-1.21-.05-2.4-.05-1.2,0-2.4-.03-2.4.01,0,.08,1.95,2.08,2.45,2.05Z"/><path class="cls-6" d="M32.61,9.36c-.13,0-.23.25-.31.43-.08.17-2.1,4.67-2.12,4.71-.03.04-4.56.08-4.77.11-.21.03-.37.11-.37.2s-.03.29.09.38c.12.09,3.79,3.13,3.79,3.2s-1.2,4.87-1.19,4.98c.01.11.08.22.16.29.08.07.13.06.27.04.25-.05,4.22-2.49,4.28-2.48.05.01,4.14,2.41,4.24,2.43.11.01.23,0,.3-.05.08-.05.16-.26.12-.41-.04-.15-.86-4.38-.84-4.46.03-.08,3.53-3.1,3.6-3.24.07-.13-.06-.45-.18-.54-.12-.09-4.62-.41-4.71-.47-.09-.05-1.96-4.64-1.98-4.73-.03-.09-.24-.37-.39-.37Z"/><path class="cls-1" d="M30.75,14.52c0,.1,1.27,2.62,1.35,2.62s.56-.2.56-.2c0,0,.01-6.48-.03-6.42-.04.07-1.88,3.78-1.88,3.99ZM33.39,17.2c-.05-.06,1.17-2.04,1.33-2.1.16-.07,4.46.19,4.45.28-.01.09-5.73,1.89-5.78,1.82ZM29.43,18.45c-.06.06-1.01,4.04-.96,4.13.05.09,3.52-4.09,3.5-4.17-.01-.08.01-.83.01-.83,0,0-2.45.77-2.56.87Z"/><path class="cls-4" d="M33.01,16.95s-.13-.57-.16-.72c-.03-.13-.12-.28-.26-.28s-.23.14-.27.32c-.06.26-.15.68-.15.68,0,0-.5-.04-.61-.05-.18,0-.38,0-.42.16-.02.1,0,.22.27.38.22.13.47.28.47.28,0,0-.08.28-.13.54-.03.15-.12.43.03.5.14.07.3-.05.46-.2l.34-.33s.3.23.41.32c.14.11.35.18.46.09.12-.1.09-.27.03-.45-.07-.2-.2-.49-.2-.49,0,0,.46-.29.55-.35.09-.06.19-.2.13-.36-.04-.11-.22-.14-.37-.12-.15.03-.59.07-.59.07ZM34.52,16.83c.07.24.3.19.72.08.41-.1,4.34-1.31,4.47-1.36.14-.05.37-.22.3-.41-.07-.2-.27-.25-.51-.19-.24.06-4.13,1.37-4.38,1.46-.17.06-.66.18-.59.42ZM32.62,15.27c.24-.03.23-.55.26-.97.03-.43.09-4.59.09-4.73,0-.15-.09-.4-.3-.4s-.32.16-.34.4c-.02.24,0,4.39.01,4.66.03.43.04,1.07.27,1.04ZM30.52,16.78c.06-.24-.41-.41-.8-.57-.39-.17-4.11-1.48-4.24-1.53-.14-.05-.39-.04-.46.15-.07.2.04.36.26.46.22.1,3.92,1.36,4.18,1.43.42.11,1,.31,1.06.06ZM31.46,19.16c-.21-.13-.52.2-.8.52-.29.32-2.75,3.41-2.84,3.53-.09.12-.19.38-.02.51.16.13.36.05.53-.12.17-.18,2.58-3.26,2.73-3.48.24-.35.61-.83.41-.95ZM33.77,19.09c-.18.16.09.49.31.86.22.37,2.38,3.45,2.46,3.56.09.12.31.29.48.17.17-.12.16-.33.04-.54-.12-.21-2.38-3.3-2.55-3.51-.27-.33-.57-.7-.74-.55Z"/><path class="cls-3" d="M52.14.06c-.09.05-.04,4.77.02,4.86.07.12,1,.98,1.82,1.71.65.56,1.22.17,1.32.17.24,0,4.35.04,4.47.04.05,0,.78.42,1.39-.1.87-.74,1.91-1.67,1.93-1.81.02-.13.02-4.82-.04-4.86-.03-.02-.77-.03-1.8-.04-.88,0-2.67.44-3.81.44-1.46,0-2.3-.46-3.44-.45-1.04,0-1.82.02-1.85.04Z"/><path class="cls-5" d="M53.99.01v6.61s.31.29.64.55c.3.25.61.48.63.48.21-.02,4.64.09,4.73.05.05-.03.38-.29.69-.54.24-.2.48-.41.48-.41l.09-6.72s-.55,0-1.28,0c0,0-1.81.21-2.49.21-.82,0-1.57-.23-2.29-.23-.84,0-1.2,0-1.2,0Z"/><path class="cls-2" d="M55.24,7.66c-.12-.09-.05-7.65-.05-7.65,0,0,.81,0,2.53,0,1.5,0,2.26.02,2.26.02,0,0,.07,7.55,0,7.67-.08.12-1.33.75-2.18.76-.86.01-2.49-.75-2.55-.79Z"/><path class="cls-6" d="M57.66,9.69c.41-.02,2.39-1.95,2.36-2.01-.03-.04-1.21-.05-2.4-.05-1.2,0-2.4-.03-2.4.01,0,.08,1.95,2.08,2.45,2.05Z"/><path class="cls-6" d="M57.61,9.36c-.13,0-.23.25-.31.43-.08.17-2.1,4.67-2.12,4.71-.03.04-4.56.08-4.77.11-.21.03-.37.11-.37.2s-.03.29.09.38c.12.09,3.79,3.13,3.79,3.2s-1.2,4.87-1.19,4.98c.01.11.08.22.16.29.08.07.13.06.27.04.25-.05,4.22-2.49,4.28-2.48.05.01,4.14,2.41,4.24,2.43.11.01.23,0,.3-.05.08-.05.16-.26.12-.41-.04-.15-.86-4.38-.84-4.46.03-.08,3.53-3.1,3.6-3.24.07-.13-.06-.45-.18-.54-.12-.09-4.62-.41-4.71-.47-.09-.05-1.96-4.64-1.98-4.73-.03-.09-.24-.37-.39-.37Z"/><path class="cls-1" d="M55.75,14.52c0,.1,1.27,2.62,1.35,2.62s.56-.2.56-.2c0,0,.01-6.48-.03-6.42-.04.07-1.88,3.78-1.88,3.99ZM58.39,17.2c-.05-.06,1.17-2.04,1.33-2.1.16-.07,4.46.19,4.45.28-.01.09-5.73,1.89-5.78,1.82ZM54.43,18.45c-.06.06-1.01,4.04-.96,4.13.05.09,3.52-4.09,3.5-4.17-.01-.08.01-.83.01-.83,0,0-2.45.77-2.56.87Z"/><path class="cls-4" d="M58.01,16.95s-.13-.57-.16-.72c-.03-.13-.12-.28-.26-.28s-.23.14-.27.32c-.06.26-.15.68-.15.68,0,0-.5-.04-.61-.05-.18,0-.38,0-.42.16-.02.1,0,.22.27.38.22.13.47.28.47.28,0,0-.08.28-.13.54-.03.15-.12.43.03.5.14.07.3-.05.46-.2l.34-.33s.3.23.41.32c.14.11.35.18.46.09.12-.1.09-.27.03-.45-.07-.2-.2-.49-.2-.49,0,0,.46-.29.55-.35.09-.06.19-.2.13-.36-.04-.11-.22-.14-.37-.12-.15.03-.59.07-.59.07ZM59.52,16.83c.07.24.3.19.72.08.41-.1,4.34-1.31,4.47-1.36.14-.05.37-.22.3-.41-.07-.2-.27-.25-.51-.19-.24.06-4.13,1.37-4.38,1.46-.17.06-.66.18-.59.42ZM57.62,15.27c.24-.03.23-.55.26-.97.03-.43.09-4.59.09-4.73,0-.15-.09-.4-.3-.4s-.32.16-.34.4c-.02.24,0,4.39.01,4.66.03.43.04,1.07.27,1.04ZM55.52,16.78c.06-.24-.41-.41-.8-.57-.39-.17-4.11-1.48-4.24-1.53-.14-.05-.39-.04-.46.15-.07.2.04.36.26.46.22.1,3.92,1.36,4.18,1.43.42.11,1,.31,1.06.06ZM56.46,19.16c-.21-.13-.52.2-.8.52-.29.32-2.75,3.41-2.84,3.53-.09.12-.19.38-.02.51.16.13.36.05.53-.12.17-.18,2.58-3.26,2.73-3.48.24-.35.61-.83.41-.95ZM58.77,19.09c-.18.16.09.49.31.86.22.37,2.38,3.45,2.46,3.56.09.12.31.29.48.17.17-.12.16-.33.04-.54-.12-.21-2.38-3.3-2.55-3.51-.27-.33-.57-.7-.74-.55Z"/><path class="cls-3" d="M77.29.06c-.09.05-.04,4.77.02,4.86.07.12,1,.98,1.82,1.71.65.56,1.22.17,1.32.17.24,0,4.35.04,4.47.04.05,0,.78.42,1.39-.1.87-.74,1.91-1.67,1.93-1.81.02-.13.02-4.82-.04-4.86-.03-.02-.77-.03-1.8-.04-.88,0-2.67.44-3.81.44-1.46,0-2.3-.46-3.44-.45-1.04,0-1.82.02-1.85.04Z"/><path class="cls-5" d="M79.13.01v6.61s.31.29.64.55c.3.25.61.48.63.48.21-.02,4.64.09,4.73.05.05-.03.38-.29.69-.54.24-.2.48-.41.48-.41l.09-6.72s-.55,0-1.28,0c0,0-1.81.21-2.49.21-.82,0-1.57-.23-2.29-.23-.84,0-1.2,0-1.2,0Z"/><path class="cls-2" d="M80.38,7.66c-.12-.09-.05-7.65-.05-7.65,0,0,.81,0,2.53,0,1.5,0,2.26.02,2.26.02,0,0,.07,7.55,0,7.67-.08.12-1.33.75-2.18.76-.86.01-2.49-.75-2.55-.79Z"/><path class="cls-6" d="M82.81,9.69c.41-.02,2.39-1.95,2.36-2.01-.03-.04-1.21-.05-2.4-.05-1.2,0-2.4-.03-2.4.01,0,.08,1.95,2.08,2.45,2.05Z"/><path class="cls-6" d="M82.76,9.36c-.13,0-.23.25-.31.43-.08.17-2.1,4.67-2.12,4.71-.03.04-4.56.08-4.77.11-.21.03-.37.11-.37.2s-.03.29.09.38c.12.09,3.79,3.13,3.79,3.2s-1.2,4.87-1.19,4.98c.01.11.08.22.16.29.08.07.13.06.27.04.25-.05,4.22-2.49,4.28-2.48.05.01,4.14,2.41,4.24,2.43.11.01.23,0,.3-.05.08-.05.16-.26.12-.41-.04-.15-.86-4.38-.84-4.46.03-.08,3.53-3.1,3.6-3.24.07-.13-.06-.45-.18-.54-.12-.09-4.62-.41-4.71-.47-.09-.05-1.96-4.64-1.98-4.73-.03-.09-.24-.37-.39-.37Z"/><path class="cls-1" d="M80.9,14.52c0,.1,1.27,2.62,1.35,2.62s.56-.2.56-.2c0,0,.01-6.48-.03-6.42-.04.07-1.88,3.78-1.88,3.99ZM83.54,17.2c-.05-.06,1.17-2.04,1.33-2.1.16-.07,4.46.19,4.45.28-.01.09-5.73,1.89-5.78,1.82ZM79.58,18.45c-.06.06-1.01,4.04-.96,4.13.05.09,3.52-4.09,3.5-4.17-.01-.08.01-.83.01-.83,0,0-2.45.77-2.56.87Z"/><path class="cls-4" d="M83.16,16.95s-.13-.57-.16-.72c-.03-.13-.12-.28-.26-.28s-.23.14-.27.32c-.06.26-.15.68-.15.68,0,0-.5-.04-.61-.05-.18,0-.38,0-.42.16-.02.1,0,.22.27.38.22.13.47.28.47.28,0,0-.08.28-.13.54-.03.15-.12.43.03.5.14.07.3-.05.46-.2l.34-.33s.3.23.41.32c.14.11.35.18.46.09.12-.1.09-.27.03-.45-.07-.2-.2-.49-.2-.49,0,0,.46-.29.55-.35.09-.06.19-.2.13-.36-.04-.11-.22-.14-.37-.12-.15.03-.59.07-.59.07ZM84.67,16.83c.07.24.3.19.72.08.41-.1,4.34-1.31,4.47-1.36.14-.05.37-.22.3-.41-.07-.2-.27-.25-.51-.19-.24.06-4.13,1.37-4.38,1.46-.17.06-.66.18-.59.42ZM82.77,15.27c.24-.03.23-.55.26-.97.03-.43.09-4.59.09-4.73,0-.15-.09-.4-.3-.4s-.32.16-.34.4c-.02.24,0,4.39.01,4.66.03.43.04,1.07.27,1.04ZM80.67,16.78c.06-.24-.41-.41-.8-.57-.39-.17-4.11-1.48-4.24-1.53-.14-.05-.39-.04-.46.15-.07.2.04.36.26.46.22.1,3.92,1.36,4.18,1.43.42.11,1,.31,1.06.06ZM81.61,19.16c-.21-.13-.52.2-.8.52-.29.32-2.75,3.41-2.84,3.53-.09.12-.19.38-.02.51.16.13.36.05.53-.12.17-.18,2.58-3.26,2.73-3.48.24-.35.61-.83.41-.95ZM83.91,19.09c-.18.16.09.49.31.86.22.37,2.38,3.45,2.46,3.56.09.12.31.29.48.17.17-.12.16-.33.04-.54-.12-.21-2.38-3.3-2.55-3.51-.27-.33-.57-.7-.74-.55Z"/><path class="cls-3" d="M102.44.06c-.09.05-.04,4.77.02,4.86.07.12,1,.98,1.82,1.71.65.56,1.22.17,1.32.17.24,0,4.35.04,4.47.04.05,0,.78.42,1.39-.1.87-.74,1.91-1.67,1.93-1.81.02-.13.02-4.82-.04-4.86-.03-.02-.77-.03-1.8-.04-.88,0-2.67.44-3.81.44-1.46,0-2.3-.46-3.44-.45-1.04,0-1.82.02-1.85.04Z"/><path class="cls-5" d="M104.28.01v6.61s.31.29.64.55c.3.25.61.48.63.48.21-.02,4.64.09,4.73.05.05-.03.38-.29.69-.54.24-.2.48-.41.48-.41l.09-6.72s-.55,0-1.28,0c0,0-1.81.21-2.49.21-.82,0-1.57-.23-2.29-.23-.84,0-1.2,0-1.2,0Z"/><path class="cls-2" d="M105.53,7.66c-.12-.09-.05-7.65-.05-7.65,0,0,.81,0,2.53,0,1.5,0,2.26.02,2.26.02,0,0,.07,7.55,0,7.67-.08.12-1.33.75-2.18.76-.86.01-2.49-.75-2.55-.79Z"/><path class="cls-6" d="M107.96,9.69c.41-.02,2.39-1.95,2.36-2.01-.03-.04-1.21-.05-2.4-.05-1.2,0-2.4-.03-2.4.01,0,.08,1.95,2.08,2.45,2.05Z"/><path class="cls-6" d="M107.91,9.36c-.13,0-.23.25-.31.43-.08.17-2.1,4.67-2.12,4.71-.03.04-4.56.08-4.77.11-.21.03-.37.11-.37.2s-.03.29.09.38c.12.09,3.79,3.13,3.79,3.2s-1.2,4.87-1.19,4.98c.01.11.08.22.16.29.08.07.13.06.27.04.25-.05,4.22-2.49,4.28-2.48.05.01,4.14,2.41,4.24,2.43.11.01.23,0,.3-.05.08-.05.16-.26.12-.41-.04-.15-.86-4.38-.84-4.46.03-.08,3.53-3.1,3.6-3.24.07-.13-.06-.45-.18-.54-.12-.09-4.62-.41-4.71-.47-.09-.05-1.96-4.64-1.98-4.73-.03-.09-.24-.37-.39-.37Z"/><path class="cls-1" d="M106.05,14.52c0,.1,1.27,2.62,1.35,2.62s.56-.2.56-.2c0,0,.01-6.48-.03-6.42-.04.07-1.88,3.78-1.88,3.99ZM108.68,17.2c-.05-.06,1.17-2.04,1.33-2.1.16-.07,4.46.19,4.45.28-.01.09-5.73,1.89-5.78,1.82ZM104.73,18.45c-.06.06-1.01,4.04-.96,4.13.05.09,3.52-4.09,3.5-4.17-.01-.08.01-.83.01-.83,0,0-2.45.77-2.56.87Z"/><path class="cls-4" d="M108.31,16.95s-.13-.57-.16-.72c-.03-.13-.12-.28-.26-.28s-.23.14-.27.32c-.06.26-.15.68-.15.68,0,0-.5-.04-.61-.05-.18,0-.38,0-.42.16-.02.1,0,.22.27.38.22.13.47.28.47.28,0,0-.08.28-.13.54-.03.15-.12.43.03.5.14.07.3-.05.46-.2l.34-.33s.3.23.41.32c.14.11.35.18.46.09.12-.1.09-.27.03-.45-.07-.2-.2-.49-.2-.49,0,0,.46-.29.55-.35.09-.06.19-.2.13-.36-.04-.11-.22-.14-.37-.12-.15.03-.59.07-.59.07ZM109.81,16.83c.07.24.3.19.72.08.41-.1,4.34-1.31,4.47-1.36.14-.05.37-.22.3-.41-.07-.2-.27-.25-.51-.19-.24.06-4.13,1.37-4.38,1.46-.17.06-.66.18-.59.42ZM107.92,15.27c.24-.03.23-.55.26-.97.03-.43.09-4.59.09-4.73,0-.15-.09-.4-.3-.4s-.32.16-.34.4c-.02.24,0,4.39.01,4.66.03.43.04,1.07.27,1.04ZM105.82,16.78c.06-.24-.41-.41-.8-.57-.39-.17-4.11-1.48-4.24-1.53-.14-.05-.39-.04-.46.15-.07.2.04.36.26.46.22.1,3.92,1.36,4.18,1.43.42.11,1,.31,1.06.06ZM106.75,19.16c-.21-.13-.52.2-.8.52-.29.32-2.75,3.41-2.84,3.53-.09.12-.19.38-.02.51.16.13.36.05.53-.12.17-.18,2.58-3.26,2.73-3.48.24-.35.61-.83.41-.95ZM109.06,19.09c-.18.16.09.49.31.86.22.37,2.38,3.45,2.46,3.56.09.12.31.29.48.17.17-.12.16-.33.04-.54-.12-.21-2.38-3.3-2.55-3.51-.27-.33-.57-.7-.74-.55Z"/><path class="cls-3" d="M127.58.06c-.09.05-.04,4.77.02,4.86.07.12,1,.98,1.82,1.71.65.56,1.22.17,1.32.17.24,0,4.35.04,4.47.04.05,0,.78.42,1.39-.1.87-.74,1.91-1.67,1.93-1.81.02-.13.02-4.82-.04-4.86-.03-.02-.77-.03-1.8-.04-.88,0-2.67.44-3.81.44-1.46,0-2.3-.46-3.44-.45-1.04,0-1.82.02-1.85.04Z"/><path class="cls-5" d="M129.43.01v6.61s.31.29.64.55c.3.25.61.48.63.48.21-.02,4.64.09,4.73.05.05-.03.38-.29.69-.54.24-.2.48-.41.48-.41l.09-6.72s-.55,0-1.28,0c0,0-1.81.21-2.49.21-.82,0-1.57-.23-2.29-.23-.84,0-1.2,0-1.2,0Z"/><path class="cls-2" d="M130.68,7.66c-.12-.09-.05-7.65-.05-7.65,0,0,.81,0,2.53,0,1.5,0,2.26.02,2.26.02,0,0,.07,7.55,0,7.67-.08.12-1.33.75-2.18.76-.86.01-2.49-.75-2.55-.79Z"/><path class="cls-6" d="M133.11,9.69c.41-.02,2.39-1.95,2.36-2.01-.03-.04-1.21-.05-2.4-.05-1.2,0-2.4-.03-2.4.01,0,.08,1.95,2.08,2.45,2.05Z"/><path class="cls-6" d="M133.06,9.36c-.13,0-.23.25-.31.43-.08.17-2.1,4.67-2.12,4.71-.03.04-4.56.08-4.77.11-.21.03-.37.11-.37.2s-.03.29.09.38c.12.09,3.79,3.13,3.79,3.2s-1.2,4.87-1.19,4.98c.01.11.08.22.16.29.08.07.13.06.27.04.25-.05,4.22-2.49,4.28-2.48.05.01,4.14,2.41,4.24,2.43.11.01.23,0,.3-.05.08-.05.16-.26.12-.41-.04-.15-.86-4.38-.84-4.46.03-.08,3.53-3.1,3.6-3.24.07-.13-.06-.45-.18-.54-.12-.09-4.62-.41-4.71-.47-.09-.05-1.96-4.64-1.98-4.73-.03-.09-.24-.37-.39-.37Z"/><path class="cls-1" d="M131.2,14.52c0,.1,1.27,2.62,1.35,2.62s.56-.2.56-.2c0,0,.01-6.48-.03-6.42-.04.07-1.88,3.78-1.88,3.99ZM133.83,17.2c-.05-.06,1.17-2.04,1.33-2.1.16-.07,4.46.19,4.45.28-.01.09-5.73,1.89-5.78,1.82ZM129.88,18.45c-.06.06-1.01,4.04-.96,4.13.05.09,3.52-4.09,3.5-4.17-.01-.08.01-.83.01-.83,0,0-2.45.77-2.56.87Z"/><path class="cls-4" d="M133.46,16.95s-.13-.57-.16-.72c-.03-.13-.12-.28-.26-.28s-.23.14-.27.32c-.06.26-.15.68-.15.68,0,0-.5-.04-.61-.05-.18,0-.38,0-.42.16-.02.1,0,.22.27.38.22.13.47.28.47.28,0,0-.08.28-.13.54-.03.15-.12.43.03.5.14.07.3-.05.46-.2l.34-.33s.3.23.41.32c.14.11.35.18.46.09.12-.1.09-.27.03-.45-.07-.2-.2-.49-.2-.49,0,0,.46-.29.55-.35.09-.06.19-.2.13-.36-.04-.11-.22-.14-.37-.12-.15.03-.59.07-.59.07ZM134.96,16.83c.07.24.3.19.72.08.41-.1,4.34-1.31,4.47-1.36.14-.05.37-.22.3-.41-.07-.2-.27-.25-.51-.19-.24.06-4.13,1.37-4.38,1.46-.17.06-.66.18-.59.42ZM133.07,15.27c.24-.03.23-.55.26-.97.03-.43.09-4.59.09-4.73,0-.15-.09-.4-.3-.4s-.32.16-.34.4c-.02.24,0,4.39.01,4.66.03.43.04,1.07.27,1.04ZM130.97,16.78c.06-.24-.41-.41-.8-.57-.39-.17-4.11-1.48-4.24-1.53-.14-.05-.39-.04-.46.15-.07.2.04.36.26.46.22.1,3.92,1.36,4.18,1.43.42.11,1,.31,1.06.06ZM131.9,19.16c-.21-.13-.52.2-.8.52-.29.32-2.75,3.41-2.84,3.53-.09.12-.19.38-.02.51.16.13.36.05.53-.12.17-.18,2.58-3.26,2.73-3.48.24-.35.61-.83.41-.95ZM134.21,19.09c-.18.16.09.49.31.86.22.37,2.38,3.45,2.46,3.56.09.12.31.29.48.17.17-.12.16-.33.04-.54-.12-.21-2.38-3.3-2.55-3.51-.27-.33-.57-.7-.74-.55Z"/><path class="cls-3" d="M152.73.06c-.09.05-.04,4.77.02,4.86.07.12,1,.98,1.82,1.71.65.56,1.22.17,1.32.17.24,0,4.35.04,4.47.04.05,0,.78.42,1.39-.1.87-.74,1.91-1.67,1.93-1.81.02-.13.02-4.82-.04-4.86-.03-.02-.77-.03-1.8-.04-.88,0-2.67.44-3.81.44-1.46,0-2.3-.46-3.44-.45-1.04,0-1.82.02-1.85.04Z"/><path class="cls-5" d="M154.58.01v6.61s.31.29.64.55c.3.25.61.48.63.48.21-.02,4.64.09,4.73.05.05-.03.38-.29.69-.54.24-.2.48-.41.48-.41l.09-6.72s-.55,0-1.28,0c0,0-1.81.21-2.49.21-.82,0-1.57-.23-2.29-.23-.84,0-1.2,0-1.2,0Z"/><path class="cls-2" d="M155.83,7.66c-.12-.09-.05-7.65-.05-7.65,0,0,.81,0,2.53,0,1.5,0,2.26.02,2.26.02,0,0,.07,7.55,0,7.67-.08.12-1.33.75-2.18.76-.86.01-2.49-.75-2.55-.79Z"/><path class="cls-6" d="M158.26,9.69c.41-.02,2.39-1.95,2.36-2.01-.03-.04-1.21-.05-2.4-.05-1.2,0-2.4-.03-2.4.01,0,.08,1.95,2.08,2.45,2.05Z"/><path class="cls-6" d="M158.21,9.36c-.13,0-.23.25-.31.43-.08.17-2.1,4.67-2.12,4.71-.03.04-4.56.08-4.77.11-.21.03-.37.11-.37.2s-.03.29.09.38c.12.09,3.79,3.13,3.79,3.2s-1.2,4.87-1.19,4.98c.01.11.08.22.16.29.08.07.13.06.27.04.25-.05,4.22-2.49,4.28-2.48.05.01,4.14,2.41,4.24,2.43.11.01.23,0,.3-.05.08-.05.16-.26.12-.41-.04-.15-.86-4.38-.84-4.46.03-.08,3.53-3.1,3.6-3.24.07-.13-.06-.45-.18-.54-.12-.09-4.62-.41-4.71-.47-.09-.05-1.96-4.64-1.98-4.73-.03-.09-.24-.37-.39-.37Z"/><path class="cls-1" d="M156.35,14.52c0,.1,1.27,2.62,1.35,2.62s.56-.2.56-.2c0,0,.01-6.48-.03-6.42-.04.07-1.88,3.78-1.88,3.99ZM158.98,17.2c-.05-.06,1.17-2.04,1.33-2.1.16-.07,4.46.19,4.45.28-.01.09-5.73,1.89-5.78,1.82ZM155.03,18.45c-.06.06-1.01,4.04-.96,4.13.05.09,3.52-4.09,3.5-4.17-.01-.08.01-.83.01-.83,0,0-2.45.77-2.56.87Z"/><path class="cls-4" d="M158.61,16.95s-.13-.57-.16-.72c-.03-.13-.12-.28-.26-.28s-.23.14-.27.32c-.06.26-.15.68-.15.68,0,0-.5-.04-.61-.05-.18,0-.38,0-.42.16-.02.1,0,.22.27.38.22.13.47.28.47.28,0,0-.08.28-.13.54-.03.15-.12.43.03.5.14.07.3-.05.46-.2l.34-.33s.3.23.41.32c.14.11.35.18.46.09.12-.1.09-.27.03-.45-.07-.2-.2-.49-.2-.49,0,0,.46-.29.55-.35.09-.06.19-.2.13-.36-.04-.11-.22-.14-.37-.12-.15.03-.59.07-.59.07ZM160.11,16.83c.07.24.3.19.72.08.41-.1,4.34-1.31,4.47-1.36.14-.05.37-.22.3-.41-.07-.2-.27-.25-.51-.19-.24.06-4.13,1.37-4.38,1.46-.17.06-.66.18-.59.42ZM158.22,15.27c.24-.03.23-.55.26-.97.03-.43.09-4.59.09-4.73,0-.15-.09-.4-.3-.4s-.32.16-.34.4c-.02.24,0,4.39.01,4.66.03.43.04,1.07.27,1.04ZM156.12,16.78c.06-.24-.41-.41-.8-.57-.39-.17-4.11-1.48-4.24-1.53-.14-.05-.39-.04-.46.15-.07.2.04.36.26.46.22.1,3.92,1.36,4.18,1.43.42.11,1,.31,1.06.06ZM157.05,19.16c-.21-.13-.52.2-.8.52-.29.32-2.75,3.41-2.84,3.53-.09.12-.19.38-.02.51.16.13.36.05.53-.12.17-.18,2.58-3.26,2.73-3.48.24-.35.61-.83.41-.95ZM159.36,19.09c-.18.16.09.49.31.86.22.37,2.38,3.45,2.46,3.56.09.12.31.29.48.17.17-.12.16-.33.04-.54-.12-.21-2.38-3.3-2.55-3.51-.27-.33-.57-.7-.74-.55Z"/><path class="cls-3" d="M177.88.06c-.09.05-.04,4.77.02,4.86.07.12,1,.98,1.82,1.71.65.56,1.22.17,1.32.17.24,0,4.35.04,4.47.04.05,0,.78.42,1.39-.1.87-.74,1.91-1.67,1.93-1.81.02-.13.02-4.82-.04-4.86-.03-.02-.77-.03-1.8-.04-.88,0-2.67.44-3.81.44-1.46,0-2.3-.46-3.44-.45-1.04,0-1.82.02-1.85.04Z"/><path class="cls-5" d="M179.73.01v6.61s.31.29.64.55c.3.25.61.48.63.48.21-.02,4.64.09,4.73.05.05-.03.38-.29.69-.54.24-.2.48-.41.48-.41l.09-6.72s-.55,0-1.28,0c0,0-1.81.21-2.49.21-.82,0-1.57-.23-2.29-.23-.84,0-1.2,0-1.2,0Z"/><path class="cls-2" d="M180.98,7.66c-.12-.09-.05-7.65-.05-7.65,0,0,.81,0,2.53,0,1.5,0,2.26.02,2.26.02,0,0,.07,7.55,0,7.67-.08.12-1.33.75-2.18.76-.86.01-2.49-.75-2.55-.79Z"/><path class="cls-6" d="M183.41,9.69c.41-.02,2.39-1.95,2.36-2.01-.03-.04-1.21-.05-2.4-.05-1.2,0-2.4-.03-2.4.01,0,.08,1.95,2.08,2.45,2.05Z"/><path class="cls-6" d="M183.36,9.36c-.13,0-.23.25-.31.43-.08.17-2.1,4.67-2.12,4.71-.03.04-4.56.08-4.77.11-.21.03-.37.11-.37.2s-.03.29.09.38c.12.09,3.79,3.13,3.79,3.2s-1.2,4.87-1.19,4.98c.01.11.08.22.16.29.08.07.13.06.27.04.25-.05,4.22-2.49,4.28-2.48.05.01,4.14,2.41,4.24,2.43.11.01.23,0,.3-.05.08-.05.16-.26.12-.41-.04-.15-.86-4.38-.84-4.46.03-.08,3.53-3.1,3.6-3.24.07-.13-.06-.45-.18-.54-.12-.09-4.62-.41-4.71-.47-.09-.05-1.96-4.64-1.98-4.73-.03-.09-.24-.37-.39-.37Z"/><path class="cls-1" d="M181.49,14.52c0,.1,1.27,2.62,1.35,2.62s.56-.2.56-.2c0,0,.01-6.48-.03-6.42-.04.07-1.88,3.78-1.88,3.99ZM184.13,17.2c-.05-.06,1.17-2.04,1.33-2.1.16-.07,4.46.19,4.45.28-.01.09-5.73,1.89-5.78,1.82ZM180.18,18.45c-.06.06-1.01,4.04-.96,4.13.05.09,3.52-4.09,3.5-4.17-.01-.08.01-.83.01-.83,0,0-2.45.77-2.56.87Z"/><path class="cls-4" d="M183.75,16.95s-.13-.57-.16-.72c-.03-.13-.12-.28-.26-.28s-.23.14-.27.32c-.06.26-.15.68-.15.68,0,0-.5-.04-.61-.05-.18,0-.38,0-.42.16-.02.1,0,.22.27.38.22.13.47.28.47.28,0,0-.08.28-.13.54-.03.15-.12.43.03.5.14.07.3-.05.46-.2l.34-.33s.3.23.41.32c.14.11.35.18.46.09.12-.1.09-.27.03-.45-.07-.2-.2-.49-.2-.49,0,0,.46-.29.55-.35.09-.06.19-.2.13-.36-.04-.11-.22-.14-.37-.12-.15.03-.59.07-.59.07ZM185.26,16.83c.07.24.3.19.72.08.41-.1,4.34-1.31,4.47-1.36.14-.05.37-.22.3-.41-.07-.2-.27-.25-.51-.19-.24.06-4.13,1.37-4.38,1.46-.17.06-.66.18-.59.42ZM183.37,15.27c.24-.03.23-.55.26-.97.03-.43.09-4.59.09-4.73,0-.15-.09-.4-.3-.4s-.32.16-.34.4c-.02.24,0,4.39.01,4.66.03.43.04,1.07.27,1.04ZM181.27,16.78c.06-.24-.41-.41-.8-.57-.39-.17-4.11-1.48-4.24-1.53-.14-.05-.39-.04-.46.15-.07.2.04.36.26.46.22.1,3.92,1.36,4.18,1.43.42.11,1,.31,1.06.06ZM182.2,19.16c-.21-.13-.52.2-.8.52-.29.32-2.75,3.41-2.84,3.53-.09.12-.19.38-.02.51.16.13.36.05.53-.12.17-.18,2.58-3.26,2.73-3.48.24-.35.61-.83.41-.95ZM184.51,19.09c-.18.16.09.49.31.86.22.37,2.38,3.45,2.46,3.56.09.12.31.29.48.17.17-.12.16-.33.04-.54-.12-.21-2.38-3.3-2.55-3.51-.27-.33-.57-.7-.74-.55Z"/><path class="cls-3" d="M203.03.06c-.09.05-.04,4.77.02,4.86.07.12,1,.98,1.82,1.71.65.56,1.22.17,1.32.17.24,0,4.35.04,4.47.04.05,0,.78.42,1.39-.1.87-.74,1.91-1.67,1.93-1.81.02-.13.02-4.82-.04-4.86-.03-.02-.77-.03-1.8-.04-.88,0-2.67.44-3.81.44-1.46,0-2.3-.46-3.44-.45-1.04,0-1.82.02-1.85.04Z"/><path class="cls-5" d="M204.88.01v6.61s.31.29.64.55c.3.25.61.48.63.48.21-.02,4.64.09,4.73.05.05-.03.38-.29.69-.54.24-.2.48-.41.48-.41l.09-6.72s-.55,0-1.28,0c0,0-1.81.21-2.49.21-.82,0-1.57-.23-2.29-.23-.84,0-1.2,0-1.2,0Z"/><path class="cls-2" d="M206.13,7.66c-.12-.09-.05-7.65-.05-7.65,0,0,.81,0,2.53,0,1.5,0,2.26.02,2.26.02,0,0,.07,7.55,0,7.67-.08.12-1.33.75-2.18.76-.86.01-2.49-.75-2.55-.79Z"/><path class="cls-6" d="M208.56,9.69c.41-.02,2.39-1.95,2.36-2.01-.03-.04-1.21-.05-2.4-.05-1.2,0-2.4-.03-2.4.01,0,.08,1.95,2.08,2.45,2.05Z"/><path class="cls-6" d="M208.51,9.36c-.13,0-.23.25-.31.43-.08.17-2.1,4.67-2.12,4.71-.03.04-4.56.08-4.77.11-.21.03-.37.11-.37.2s-.03.29.09.38c.12.09,3.79,3.13,3.79,3.2s-1.2,4.87-1.19,4.98c.01.11.08.22.16.29.08.07.13.06.27.04.25-.05,4.22-2.49,4.28-2.48.05.01,4.14,2.41,4.24,2.43.11.01.23,0,.3-.05.08-.05.16-.26.12-.41-.04-.15-.86-4.38-.84-4.46.03-.08,3.53-3.1,3.6-3.24.07-.13-.06-.45-.18-.54-.12-.09-4.62-.41-4.71-.47-.09-.05-1.96-4.64-1.98-4.73-.03-.09-.24-.37-.39-.37Z"/><path class="cls-1" d="M206.64,14.52c0,.1,1.27,2.62,1.35,2.62s.56-.2.56-.2c0,0,.01-6.48-.03-6.42-.04.07-1.88,3.78-1.88,3.99ZM209.28,17.2c-.05-.06,1.17-2.04,1.33-2.1.16-.07,4.46.19,4.45.28-.01.09-5.73,1.89-5.78,1.82ZM205.32,18.45c-.06.06-1.01,4.04-.96,4.13.05.09,3.52-4.09,3.5-4.17-.01-.08.01-.83.01-.83,0,0-2.45.77-2.56.87Z"/><path class="cls-4" d="M208.9,16.95s-.13-.57-.16-.72c-.03-.13-.12-.28-.26-.28s-.23.14-.27.32c-.06.26-.15.68-.15.68,0,0-.5-.04-.61-.05-.18,0-.38,0-.42.16-.02.1,0,.22.27.38.22.13.47.28.47.28,0,0-.08.28-.13.54-.03.15-.12.43.03.5.14.07.3-.05.46-.2l.34-.33s.3.23.41.32c.14.11.35.18.46.09.12-.1.09-.27.03-.45-.07-.2-.2-.49-.2-.49,0,0,.46-.29.55-.35.09-.06.19-.2.13-.36-.04-.11-.22-.14-.37-.12-.15.03-.59.07-.59.07ZM210.41,16.83c.07.24.3.19.72.08.41-.1,4.34-1.31,4.47-1.36.14-.05.37-.22.3-.41-.07-.2-.27-.25-.51-.19-.24.06-4.13,1.37-4.38,1.46-.17.06-.66.18-.59.42ZM208.52,15.27c.24-.03.23-.55.26-.97.03-.43.09-4.59.09-4.73,0-.15-.09-.4-.3-.4s-.32.16-.34.4c-.02.24,0,4.39.01,4.66.03.43.04,1.07.27,1.04ZM206.41,16.78c.06-.24-.41-.41-.8-.57-.39-.17-4.11-1.48-4.24-1.53-.14-.05-.39-.04-.46.15-.07.2.04.36.26.46.22.1,3.92,1.36,4.18,1.43.42.11,1,.31,1.06.06ZM207.35,19.16c-.21-.13-.52.2-.8.52-.29.32-2.75,3.41-2.84,3.53-.09.12-.19.38-.02.51.16.13.36.05.53-.12.17-.18,2.58-3.26,2.73-3.48.24-.35.61-.83.41-.95ZM209.66,19.09c-.18.16.09.49.31.86.22.37,2.38,3.45,2.46,3.56.09.12.31.29.48.17.17-.12.16-.33.04-.54-.12-.21-2.38-3.3-2.55-3.51-.27-.33-.57-.7-.74-.55Z"/><path class="cls-3" d="M228.18.06c-.09.05-.04,4.77.02,4.86.07.12,1,.98,1.82,1.71.65.56,1.22.17,1.32.17.24,0,4.35.04,4.47.04.05,0,.78.42,1.39-.1.87-.74,1.91-1.67,1.93-1.81.02-.13.02-4.82-.04-4.86-.03-.02-.77-.03-1.8-.04-.88,0-2.67.44-3.81.44-1.46,0-2.3-.46-3.44-.45-1.04,0-1.82.02-1.85.04Z"/><path class="cls-5" d="M230.03.01v6.61s.31.29.64.55c.3.25.61.48.63.48.21-.02,4.64.09,4.73.05.05-.03.38-.29.69-.54.24-.2.48-.41.48-.41l.09-6.72s-.55,0-1.28,0c0,0-1.81.21-2.49.21-.82,0-1.57-.23-2.29-.23-.84,0-1.2,0-1.2,0Z"/><path class="cls-2" d="M231.28,7.66c-.12-.09-.05-7.65-.05-7.65,0,0,.81,0,2.53,0,1.5,0,2.26.02,2.26.02,0,0,.07,7.55,0,7.67-.08.12-1.33.75-2.18.76-.86.01-2.49-.75-2.55-.79Z"/><path class="cls-6" d="M233.71,9.69c.41-.02,2.39-1.95,2.36-2.01-.03-.04-1.21-.05-2.4-.05-1.2,0-2.4-.03-2.4.01,0,.08,1.95,2.08,2.45,2.05Z"/><path class="cls-6" d="M233.65,9.36c-.13,0-.23.25-.31.43-.08.17-2.1,4.67-2.12,4.71-.03.04-4.56.08-4.77.11-.21.03-.37.11-.37.2s-.03.29.09.38c.12.09,3.79,3.13,3.79,3.2s-1.2,4.87-1.19,4.98c.01.11.08.22.16.29.08.07.13.06.27.04.25-.05,4.22-2.49,4.28-2.48.05.01,4.14,2.41,4.24,2.43.11.01.23,0,.3-.05.08-.05.16-.26.12-.41-.04-.15-.86-4.38-.84-4.46.03-.08,3.53-3.1,3.6-3.24.07-.13-.06-.45-.18-.54-.12-.09-4.62-.41-4.71-.47-.09-.05-1.96-4.64-1.98-4.73-.03-.09-.24-.37-.39-.37Z"/><path class="cls-1" d="M231.79,14.52c0,.1,1.27,2.62,1.35,2.62s.56-.2.56-.2c0,0,.01-6.48-.03-6.42-.04.07-1.88,3.78-1.88,3.99ZM234.43,17.2c-.05-.06,1.17-2.04,1.33-2.1.16-.07,4.46.19,4.45.28-.01.09-5.73,1.89-5.78,1.82ZM230.47,18.45c-.06.06-1.01,4.04-.96,4.13.05.09,3.52-4.09,3.5-4.17-.01-.08.01-.83.01-.83,0,0-2.45.77-2.56.87Z"/><path class="cls-4" d="M234.05,16.95s-.13-.57-.16-.72c-.03-.13-.12-.28-.26-.28s-.23.14-.27.32c-.06.26-.15.68-.15.68,0,0-.5-.04-.61-.05-.18,0-.38,0-.42.16-.02.1,0,.22.27.38.22.13.47.28.47.28,0,0-.08.28-.13.54-.03.15-.12.43.03.5.14.07.3-.05.46-.2l.34-.33s.3.23.41.32c.14.11.35.18.46.09.12-.1.09-.27.03-.45-.07-.2-.2-.49-.2-.49,0,0,.46-.29.55-.35.09-.06.19-.2.13-.36-.04-.11-.22-.14-.37-.12-.15.03-.59.07-.59.07ZM235.56,16.83c.07.24.3.19.72.08.41-.1,4.34-1.31,4.47-1.36.14-.05.37-.22.3-.41-.07-.2-.27-.25-.51-.19-.24.06-4.13,1.37-4.38,1.46-.17.06-.66.18-.59.42ZM233.67,15.27c.24-.03.23-.55.26-.97.03-.43.09-4.59.09-4.73,0-.15-.09-.4-.3-.4s-.32.16-.34.4c-.02.24,0,4.39.01,4.66.03.43.04,1.07.27,1.04ZM231.56,16.78c.06-.24-.41-.41-.8-.57-.39-.17-4.11-1.48-4.24-1.53-.14-.05-.39-.04-.46.15-.07.2.04.36.26.46.22.1,3.92,1.36,4.18,1.43.42.11,1,.31,1.06.06ZM232.5,19.16c-.21-.13-.52.2-.8.52-.29.32-2.75,3.41-2.84,3.53-.09.12-.19.38-.02.51.16.13.36.05.53-.12.17-.18,2.58-3.26,2.73-3.48.24-.35.61-.83.41-.95ZM234.81,19.09c-.18.16.09.49.31.86.22.37,2.38,3.45,2.46,3.56.09.12.31.29.48.17.17-.12.16-.33.04-.54-.12-.21-2.38-3.3-2.55-3.51-.27-.33-.57-.7-.74-.55Z"/><path class="cls-3" d="M77.14.06c-.09.05-.04,4.77.02,4.86.07.12,1,.98,1.82,1.71.65.56,1.22.17,1.32.17.24,0,4.35.04,4.47.04.05,0,.78.42,1.39-.1.87-.74,1.91-1.67,1.93-1.81.02-.13.02-4.82-.04-4.86-.03-.02-.77-.03-1.8-.04-.88,0-2.67.44-3.81.44-1.46,0-2.3-.46-3.44-.45-1.04,0-1.82.02-1.85.04Z"/><path class="cls-5" d="M78.99.01v6.61s.31.29.64.55c.3.25.61.48.63.48.21-.02,4.64.09,4.73.05.05-.03.38-.29.69-.54.24-.2.48-.41.48-.41l.09-6.72s-.55,0-1.28,0c0,0-1.81.21-2.49.21-.82,0-1.57-.23-2.29-.23-.84,0-1.2,0-1.2,0Z"/><path class="cls-2" d="M80.24,7.66c-.12-.09-.05-7.65-.05-7.65,0,0,.81,0,2.53,0,1.5,0,2.26.02,2.26.02,0,0,.07,7.55,0,7.67-.08.12-1.33.75-2.18.76-.86.01-2.49-.75-2.55-.79Z"/><path class="cls-6" d="M82.66,9.69c.41-.02,2.39-1.95,2.36-2.01-.03-.04-1.21-.05-2.4-.05-1.2,0-2.4-.03-2.4.01,0,.08,1.95,2.08,2.45,2.05Z"/><path class="cls-6" d="M82.61,9.36c-.13,0-.23.25-.31.43-.08.17-2.1,4.67-2.12,4.71-.03.04-4.56.08-4.77.11-.21.03-.37.11-.37.2s-.03.29.09.38c.12.09,3.79,3.13,3.79,3.2s-1.2,4.87-1.19,4.98c.01.11.08.22.16.29.08.07.13.06.27.04.25-.05,4.22-2.49,4.28-2.48.05.01,4.14,2.41,4.24,2.43.11.01.23,0,.3-.05.08-.05.16-.26.12-.41-.04-.15-.86-4.38-.84-4.46.03-.08,3.53-3.1,3.6-3.24.07-.13-.06-.45-.18-.54-.12-.09-4.62-.41-4.71-.47-.09-.05-1.96-4.64-1.98-4.73-.03-.09-.24-.37-.39-.37Z"/><path class="cls-1" d="M80.75,14.52c0,.1,1.27,2.62,1.35,2.62s.56-.2.56-.2c0,0,.01-6.48-.03-6.42-.04.07-1.88,3.78-1.88,3.99ZM83.39,17.2c-.05-.06,1.17-2.04,1.33-2.1.16-.07,4.46.19,4.45.28-.01.09-5.73,1.89-5.78,1.82ZM79.43,18.45c-.06.06-1.01,4.04-.96,4.13.05.09,3.52-4.09,3.5-4.17-.01-.08.01-.83.01-.83,0,0-2.45.77-2.56.87Z"/><path class="cls-4" d="M83.01,16.95s-.13-.57-.16-.72c-.03-.13-.12-.28-.26-.28s-.23.14-.27.32c-.06.26-.15.68-.15.68,0,0-.5-.04-.61-.05-.18,0-.38,0-.42.16-.02.1,0,.22.27.38.22.13.47.28.47.28,0,0-.08.28-.13.54-.03.15-.12.43.03.5.14.07.3-.05.46-.2l.34-.33s.3.23.41.32c.14.11.35.18.46.09.12-.1.09-.27.03-.45-.07-.2-.2-.49-.2-.49,0,0,.46-.29.55-.35.09-.06.19-.2.13-.36-.04-.11-.22-.14-.37-.12-.15.03-.59.07-.59.07ZM84.52,16.83c.07.24.3.19.72.08.41-.1,4.34-1.31,4.47-1.36.14-.05.37-.22.3-.41-.07-.2-.27-.25-.51-.19-.24.06-4.13,1.37-4.38,1.46-.17.06-.66.18-.59.42ZM82.62,15.27c.24-.03.23-.55.26-.97.03-.43.09-4.59.09-4.73,0-.15-.09-.4-.3-.4s-.32.16-.34.4c-.02.24,0,4.39.01,4.66.03.43.04,1.07.27,1.04ZM80.52,16.78c.06-.24-.41-.41-.8-.57-.39-.17-4.11-1.48-4.24-1.53-.14-.05-.39-.04-.46.15-.07.2.04.36.26.46.22.1,3.92,1.36,4.18,1.43.42.11,1,.31,1.06.06ZM81.46,19.16c-.21-.13-.52.2-.8.52-.29.32-2.75,3.41-2.84,3.53-.09.12-.19.38-.02.51.16.13.36.05.53-.12.17-.18,2.58-3.26,2.73-3.48.24-.35.61-.83.41-.95ZM83.77,19.09c-.18.16.09.49.31.86.22.37,2.38,3.45,2.46,3.56.09.12.31.29.48.17.17-.12.16-.33.04-.54-.12-.21-2.38-3.3-2.55-3.51-.27-.33-.57-.7-.74-.55Z"/></g></svg>