<svg width="84" height="22" viewBox="0 0 84 22" fill="none" xmlns="http://www.w3.org/2000/svg">
<path d="M15.1092 0.438765L11.6725 3.63215H5.7115L2.82224 0.438765H15.1092ZM13.254 21.728H0.967035L4.40373 18.5651H10.3647L13.254 21.728ZM4.22125 13.6685L3.85629 17.9568L0.419597 21.1198L1.1191 12.8778L2.42687 11.6917L4.22125 13.6685ZM1.45365 9.28902L2.15315 1.04703L5.04241 4.21001L4.67745 8.49827L2.51811 10.5055L1.45365 9.28902ZM14.5922 12.8778L13.8927 21.1198L11.0034 17.9568L11.3684 13.6685L13.5277 11.6917L14.5922 12.8778ZM11.8246 8.49827L12.1895 4.21001L15.6262 1.04703L14.9267 9.28902L13.6189 10.5055L11.8246 8.49827ZM32.1305 0.438765L28.6938 3.63215H22.7328L19.8436 0.438765H32.1305ZM30.2753 21.728H17.9883L21.425 18.5651H27.386L30.2753 21.728ZM21.2426 13.6685L20.8776 17.9568L17.4409 21.1198L18.1404 12.8778L19.4482 11.6917L21.2426 13.6685ZM18.475 9.28902L19.1745 1.04703L22.0637 4.21001L21.6988 8.49827L19.5394 10.5055L18.475 9.28902ZM31.6135 12.8778L30.914 21.1198L28.0247 17.9568L28.3897 13.6685L30.549 11.6917L31.6135 12.8778ZM28.8459 8.49827L29.2108 4.21001L32.6475 1.04703L31.948 9.28902L30.6403 10.5055L28.8459 8.49827ZM49.1518 0.438765L45.7151 3.63215H39.7541L36.8649 0.438765H49.1518ZM47.2966 21.728H35.0097L38.4464 18.5651H44.4073L47.2966 21.728ZM38.2639 13.6685L37.8989 17.9568L34.4622 21.1198L35.1617 12.8778L36.4695 11.6917L38.2639 13.6685ZM35.4963 9.28902L36.1958 1.04703L39.085 4.21001L38.7201 8.49827L36.5607 10.5055L35.4963 9.28902ZM48.6348 12.8778L47.9353 21.1198L45.046 17.9568L45.411 13.6685L47.5703 11.6917L48.6348 12.8778ZM45.8672 8.49827L46.2321 4.21001L49.6688 1.04703L48.9693 9.28902L47.6616 10.5055L45.8672 8.49827ZM66.1731 0.438765L62.7364 3.63215H56.7754L53.8862 0.438765H66.1731ZM64.3179 21.728H52.031L55.4677 18.5651H61.4287L64.3179 21.728ZM55.2852 13.6685L54.9202 17.9568L51.4835 21.1198L52.183 12.8778L53.4908 11.6917L55.2852 13.6685ZM52.5176 9.28902L53.2171 1.04703L56.1063 4.21001L55.7414 8.49827L53.582 10.5055L52.5176 9.28902ZM65.6561 12.8778L64.9566 21.1198L62.0673 17.9568L62.4323 13.6685L64.5916 11.6917L65.6561 12.8778ZM62.8885 8.49827L63.2535 4.21001L66.6902 1.04703L65.9906 9.28902L64.6829 10.5055L62.8885 8.49827ZM83.1944 0.438765L79.7577 3.63215H73.7968L70.9075 0.438765H83.1944ZM81.3392 21.728H69.0523L72.489 18.5651H78.45L81.3392 21.728ZM72.3065 13.6685L71.9415 17.9568L68.5048 21.1198L69.2044 12.8778L70.5121 11.6917L72.3065 13.6685ZM69.5389 9.28902L70.2384 1.04703L73.1277 4.21001L72.7627 8.49827L70.6034 10.5055L69.5389 9.28902ZM82.6774 12.8778L81.9779 21.1198L79.0887 17.9568L79.4536 13.6685L81.613 11.6917L82.6774 12.8778ZM79.9098 8.49827L80.2748 4.21001L83.7115 1.04703L83.012 9.28902L81.7042 10.5055L79.9098 8.49827Z" fill="white" fill-opacity="0.1"/>
</svg>
