<?xml version="1.0" encoding="UTF-8"?>
<svg id="_レイヤー_2" data-name="レイヤー 2" xmlns="http://www.w3.org/2000/svg" viewBox="0 0 48.04 20.77">
  <defs>
    <style>
      .cls-1 {
        fill: rgba(255, 255, 255, .1);
      }
    </style>
  </defs>
  <g id="_レイヤー_1-2" data-name="レイヤー 1">
    <path class="cls-1" d="M14.33,0l-3.35,3.11h-5.81L2.34,0h11.98ZM12.52,20.77H.53l3.35-3.09h5.81l2.82,3.09ZM3.71,12.9l-.36,4.18-3.35,3.08.68-8.04,1.28-1.16,1.75,1.93ZM1.01,8.63L1.69.59l2.82,3.08-.36,4.18-2.11,1.96-1.04-1.19ZM13.82,12.13l-.68,8.04-2.82-3.08.36-4.18,2.11-1.93,1.04,1.16ZM11.12,7.86l.36-4.18,3.35-3.08-.68,8.04-1.28,1.19-1.75-1.96ZM30.93,0l-3.35,3.11h-5.82l-2.82-3.11h11.98ZM29.12,20.77h-11.98l3.35-3.09h5.81l2.82,3.09ZM20.31,12.9l-.36,4.18-3.35,3.08.68-8.04,1.28-1.16,1.75,1.93ZM17.61,8.63l.68-8.04,2.82,3.08-.36,4.18-2.11,1.96-1.04-1.19ZM30.43,12.13l-.68,8.04-2.82-3.08.36-4.18,2.11-1.93,1.04,1.16ZM27.73,7.86l.36-4.18,3.35-3.08-.68,8.04-1.28,1.19-1.75-1.96ZM47.53,0l-3.35,3.11h-5.81l-2.82-3.11h11.98ZM45.72,20.77h-11.98l3.35-3.09h5.81l2.82,3.09ZM36.91,12.9l-.36,4.18-3.35,3.08.68-8.04,1.28-1.16,1.75,1.93ZM34.21,8.63l.68-8.04,2.82,3.08-.36,4.18-2.11,1.96-1.04-1.19ZM47.03,12.13l-.68,8.04-2.82-3.08.36-4.18,2.11-1.93,1.04,1.16ZM44.33,7.86l.36-4.18,3.35-3.08-.68,8.04-1.27,1.19-1.75-1.96Z"/>
  </g>
</svg>