<?xml version="1.0" encoding="UTF-8"?>
<svg id="_レイヤー_2" data-name="レイヤー 2" xmlns="http://www.w3.org/2000/svg" xmlns:xlink="http://www.w3.org/1999/xlink" viewBox="0 0 367.77 52.34">
  <defs>
    <style>
      .cls-1 {
        stroke: url(#_名称未設定グラデーション_3);
        stroke-width: 1.27px;
      }

      .cls-1, .cls-2, .cls-3 {
        fill: none;
      }

      .cls-2 {
        stroke: url(#_名称未設定グラデーション_3-2);
        stroke-opacity: .7;
        stroke-width: 1.84px;
      }

      .cls-4 {
        fill: url(#_名称未設定グラデーション_4);
      }

      .cls-5 {
        fill: url(#_名称未設定グラデーション_2);
      }

      .cls-3 {
        stroke: #c4c4c4;
        stroke-width: .78px;
      }

      .cls-6 {
        fill: #999;
      }
    </style>
    <linearGradient id="_名称未設定グラデーション_3" data-name="名称未設定グラデーション 3" x1="183.88" y1="60.49" x2="183.88" y2="10.68" gradientTransform="translate(0 61.75) scale(1 -1)" gradientUnits="userSpaceOnUse">
      <stop offset="0" stop-color="#1d262d"/>
      <stop offset="1" stop-color="#12161a"/>
    </linearGradient>
    <linearGradient id="_名称未設定グラデーション_2" data-name="名称未設定グラデーション 2" x1="183.88" y1="60.49" x2="183.88" y2="10.68" gradientTransform="translate(0 61.75) scale(1 -1)" gradientUnits="userSpaceOnUse">
      <stop offset="0" stop-color="#414344"/>
      <stop offset="1" stop-color="#2b2d2e"/>
    </linearGradient>
    <linearGradient id="_名称未設定グラデーション_3-2" data-name="名称未設定グラデーション 3" x1="27.95" y1="50.53" x2="27.95" y2="21.12" xlink:href="#_名称未設定グラデーション_3"/>
    <linearGradient id="_名称未設定グラデーション_4" data-name="名称未設定グラデーション 4" x1="27.59" y1="50.53" x2="27.59" y2="21.12" gradientTransform="translate(0 61.75) scale(1 -1)" gradientUnits="userSpaceOnUse">
      <stop offset="0" stop-color="#808181"/>
      <stop offset="1" stop-color="#5b5a5b"/>
    </linearGradient>
  </defs>
  <g id="_レイヤー_1-2" data-name="レイヤー 1">
    <rect class="cls-1" x=".63" y=".63" width="366.5" height="51.07"/>
    <rect class="cls-5" x="1.27" y="1.27" width="365.23" height="49.8"/>
    <path d="M42.3,15.82c0,1.03-.82,1.99-2.21,2.76-1.67.92-4.16,1.58-7.03,1.77-.21-.1-.43-.2-.65-.29-2.26-.95-5.27-1.49-8.5-1.49-.48,0-.94.01-1.41.03l-.06-.03c-1.38-.77-2.21-1.72-2.21-2.76,0-2.54,4.94-4.6,11.03-4.6s11.03,2.06,11.03,4.6ZM22.12,20.48c.59-.04,1.19-.06,1.8-.06,3.57,0,6.74.71,8.76,1.8,1.42.78,2.27,1.74,2.27,2.79,0,.23-.04.45-.12.67-.26.76-.98,1.45-2.01,2.04,0,0-.02,0-.02.01-.02.01-.03.02-.05.03-2.01,1.11-5.22,1.84-8.82,1.84s-6.49-.65-8.51-1.67c-.11-.05-.21-.11-.32-.17-1.38-.76-2.2-1.72-2.2-2.75,0-2,3.07-3.7,7.35-4.33.6-.09,1.23-.16,1.88-.2ZM36.78,25.01c0-1.26-.61-2.29-1.38-3.07,1.63-.25,3.11-.65,4.38-1.18.94-.39,1.81-.87,2.52-1.46v2.03c0,1.11-.95,2.13-2.52,2.92-.84.43-1.86.79-3.01,1.06,0-.1.01-.2.01-.3h0ZM34.94,30.53c0,1.03-.82,1.99-2.21,2.76-.1.06-.21.11-.32.17-2.02,1.02-5.08,1.67-8.51,1.67-3.61,0-6.81-.72-8.82-1.84-1.38-.77-2.21-1.72-2.21-2.76v-2.03c.72.59,1.59,1.07,2.52,1.46,2.27.95,5.28,1.49,8.51,1.49s6.24-.54,8.51-1.49c.45-.18.88-.4,1.29-.63.35-.2.68-.41.99-.64.09-.06.17-.13.25-.2v2.03ZM36.78,30.53v-3.33c1.09-.24,2.1-.55,2.99-.92.94-.39,1.81-.87,2.52-1.46v2.03c0,.6-.29,1.21-.86,1.77-.94.94-2.58,1.71-4.67,2.21,0-.1.01-.2.01-.3ZM23.92,36.96c3.23,0,6.24-.54,8.51-1.49.94-.39,1.81-.87,2.52-1.46v2.03c0,2.54-4.94,4.6-11.03,4.6s-11.03-2.06-11.03-4.6v-2.03c.72.59,1.59,1.07,2.52,1.46,2.27.95,5.28,1.49,8.51,1.49Z"/>
    <path class="cls-2" d="M40.19,25.08l-.41-.82-.36,1.17c.27-.11.53-.23.77-.35ZM42.3,19.3l.59.71c-.19.16-.38.3-.59.44v-1.15ZM42.3,19.3h-.92v.65c.33-.2.64-.42.92-.65ZM35.4,21.95c.36-.06.72-.12,1.07-.19-.13-.16-.27-.32-.42-.46l-.65.65ZM35.4,21.95l.14.91c.18-.03.36-.06.53-.09-.2-.3-.43-.57-.68-.82ZM36.77,25.32l-.07-.3h0s-.14-.59-.14-.59c.06-.01.12-.03.17-.04.03.2.05.41.05.63h0c0,.1,0,.2-.01.29v.02ZM36.77,25.32l.92.05v-.02c0-.08.01-.18.01-.28-.3.09-.61.17-.93.25ZM40.54,19.38h0c1.46-.81,2.68-2.01,2.68-3.56,0-.95-.47-1.78-1.14-2.44-.67-.66-1.59-1.21-2.66-1.65-2.13-.89-5.02-1.42-8.15-1.42s-6.02.53-8.15,1.42c-1.06.44-1.99.99-2.66,1.65-.67.66-1.14,1.49-1.14,2.44,0,1.56,1.22,2.75,2.68,3.56h0s.06.04.06.04l.23.12h.26c.45-.03.9-.05,1.36-.05-.63,0-1.26.02-1.86.07h0c-.67.05-1.32.12-1.94.21h0c-2.22.32-4.18.93-5.61,1.77-1.39.8-2.53,1.97-2.53,3.48s1.22,2.75,2.67,3.56h0c.1.06.22.12.35.19,2.19,1.1,5.4,1.77,8.92,1.77,3.7,0,7.08-.74,9.27-1.95h.01s.01-.01.02-.02c.02-.01.05-.03.08-.04,1.1-.63,2.03-1.46,2.4-2.51.09-.26.15-.52.17-.79,0,.02,0,.04,0,.07h0s-.07,1.24-.07,1.24l.08-.02v.12l-1.49,1.17c-.06.04-.09.07-.12.1-.04.03-.06.05-.1.08h0c-.29.21-.58.41-.89.58h0c-.38.22-.77.41-1.18.58h0c-2.13.89-5.01,1.42-8.15,1.42s-6.02-.53-8.15-1.42h0c-.88-.37-1.66-.81-2.29-1.33l-1.5-1.24v3.98c0,1.56,1.22,2.75,2.68,3.56h0c2.11,1.17,5.32,1.9,8.87,1.95-2.98-.04-5.71-.56-7.75-1.41h0c-.88-.37-1.66-.81-2.29-1.33l-1.5-1.24v3.98c0,.95.47,1.78,1.14,2.44.67.66,1.59,1.21,2.66,1.65,2.13.89,5.02,1.42,8.15,1.42s6.02-.53,8.15-1.42c1.06-.44,1.99-.99,2.66-1.65.67-.66,1.14-1.49,1.14-2.44v-3.99l-1.51,1.25c-.62.52-1.41.96-2.29,1.32h0c-2,.84-4.66,1.35-7.58,1.41,3.29-.07,6.28-.72,8.35-1.76h0s0,0,0,0c.02-.01.05-.03.08-.04.08-.04.17-.09.25-.13h0c1.39-.78,2.56-1.89,2.67-3.34,0,.01,0,.02,0,.03l-.07,1.24,1.2-.29c2.15-.52,3.99-1.34,5.11-2.45.69-.69,1.13-1.51,1.13-2.42v-3.99l-1.51,1.25c-.3.25-.63.47-.99.69,1.39-.82,2.5-1.98,2.5-3.46v-3.99l-1.51,1.25c-.62.52-1.41.96-2.29,1.32-1.18.49-2.6.87-4.17,1.12l-1.79.28,1.28,1.28c.06.06.12.12.17.18-.49-.54-1.12-.99-1.81-1.36h0c-.31-.17-.63-.32-.98-.47.17.07.35.15.53.24l.22.11.24-.02c2.94-.2,5.58-.88,7.41-1.89ZM24.2,19.5c2.44.02,4.72.37,6.59.95-1.88-.59-4.16-.93-6.59-.95Z"/>
    <path class="cls-4" d="M42.3,15.82c0,1.03-.82,1.99-2.21,2.76-1.67.92-4.16,1.58-7.03,1.77-.21-.1-.43-.2-.65-.29-2.26-.95-5.27-1.49-8.5-1.49-.48,0-.94.01-1.41.03l-.06-.03c-1.38-.77-2.21-1.72-2.21-2.76,0-2.54,4.94-4.6,11.03-4.6s11.03,2.06,11.03,4.6ZM22.12,20.48c.59-.04,1.19-.06,1.8-.06,3.57,0,6.74.71,8.76,1.8,1.42.78,2.27,1.74,2.27,2.79,0,.23-.04.45-.12.67-.26.76-.98,1.45-2.01,2.04,0,0-.02,0-.02.01-.02.01-.03.02-.05.03-2.01,1.11-5.22,1.84-8.82,1.84s-6.49-.65-8.51-1.67c-.11-.05-.21-.11-.32-.17-1.38-.76-2.2-1.72-2.2-2.75,0-2,3.07-3.7,7.35-4.33.6-.09,1.23-.16,1.88-.2ZM36.78,25.01c0-1.26-.61-2.29-1.38-3.07,1.63-.25,3.11-.65,4.38-1.18.94-.39,1.81-.87,2.52-1.46v2.03c0,1.11-.95,2.13-2.52,2.92-.84.43-1.86.79-3.01,1.06,0-.1.01-.2.01-.3h0ZM34.94,30.53c0,1.03-.82,1.99-2.21,2.76-.1.06-.21.11-.32.17-2.02,1.02-5.08,1.67-8.51,1.67-3.61,0-6.81-.72-8.82-1.84-1.38-.77-2.21-1.72-2.21-2.76v-2.03c.72.59,1.59,1.07,2.52,1.46,2.27.95,5.28,1.49,8.51,1.49s6.24-.54,8.51-1.49c.45-.18.88-.4,1.29-.63.35-.2.68-.41.99-.64.09-.06.17-.13.25-.2v2.03ZM36.78,30.53v-3.33c1.09-.24,2.1-.55,2.99-.92.94-.39,1.81-.87,2.52-1.46v2.03c0,.6-.29,1.21-.86,1.77-.94.94-2.58,1.71-4.67,2.21,0-.1.01-.2.01-.3ZM23.92,36.96c3.23,0,6.24-.54,8.51-1.49.94-.39,1.81-.87,2.52-1.46v2.03c0,2.54-4.94,4.6-11.03,4.6s-11.03-2.06-11.03-4.6v-2.03c.72.59,1.59,1.07,2.52,1.46,2.27.95,5.28,1.49,8.51,1.49Z"/>
    <rect class="cls-3" x="189.41" y="8.35" width="166.44" height="34.81" rx="3.51" ry="3.51"/>
    <path class="cls-6" d="M181.91,33.93l-1.23-1.47c-.98-1.18-1.89-2.09-3.14-2.69-1.16-.56-2.62-.86-4.55-.91v4.71l-9.23-8.26,9.23-8.26v4.74c3.18.14,5.55,1.24,7.05,3.29,1.24,1.7,1.87,4.05,1.87,6.99v1.87Z"/>
  </g>
</svg>