<svg width="70" height="12" viewBox="0 0 70 12" fill="none" xmlns="http://www.w3.org/2000/svg">
<rect x="0.25" y="0.25" width="69.5" height="11.5" rx="1.75" stroke="#00FF00" stroke-width="0.5"/>
<path d="M21.252 3.792H23.961V4.555H21.252V3.792ZM22.575 4.989H23.373V9.616H22.575V4.989ZM21.196 7.705C21.4433 7.67233 21.7257 7.635 22.043 7.593C22.365 7.551 22.7033 7.50433 23.058 7.453C23.4173 7.40167 23.7767 7.35033 24.136 7.299L24.171 8.02C23.681 8.10867 23.1863 8.19733 22.687 8.286C22.1923 8.37 21.749 8.44467 21.357 8.51L21.196 7.705ZM21.511 6.83C21.497 6.77867 21.476 6.711 21.448 6.627C21.42 6.53833 21.3897 6.44967 21.357 6.361C21.3243 6.26767 21.2917 6.18833 21.259 6.123C21.329 6.09967 21.392 6.04133 21.448 5.948C21.5087 5.85 21.5693 5.724 21.63 5.57C21.658 5.5 21.7 5.381 21.756 5.213C21.8167 5.04033 21.8773 4.83733 21.938 4.604C22.0033 4.37067 22.0663 4.121 22.127 3.855C22.1877 3.58433 22.2343 3.316 22.267 3.05L23.079 3.197C22.995 3.57967 22.89 3.967 22.764 4.359C22.6427 4.74633 22.5097 5.115 22.365 5.465C22.225 5.815 22.085 6.13 21.945 6.41V6.424C21.945 6.424 21.9217 6.44033 21.875 6.473C21.833 6.501 21.784 6.536 21.728 6.578C21.672 6.62 21.6207 6.66433 21.574 6.711C21.532 6.75767 21.511 6.79733 21.511 6.83ZM21.511 6.83V6.158L21.868 5.969H23.898V6.725H22.05C21.9427 6.725 21.833 6.73433 21.721 6.753C21.609 6.77167 21.539 6.79733 21.511 6.83ZM24.934 6.431H26.992V7.208H24.934V6.431ZM26.789 6.431H26.915L27.041 6.389L27.636 6.683C27.4867 6.89767 27.3233 7.12633 27.146 7.369C26.9733 7.607 26.7913 7.84733 26.6 8.09C26.4133 8.328 26.2313 8.559 26.054 8.783L25.333 8.44C25.5103 8.23 25.69 8.006 25.872 7.768C26.054 7.53 26.2243 7.30133 26.383 7.082C26.5463 6.858 26.6817 6.669 26.789 6.515V6.431ZM24.5 8.174L25.039 7.635C25.3003 7.77033 25.564 7.91967 25.83 8.083C26.096 8.24167 26.3457 8.40267 26.579 8.566C26.8123 8.72467 27.006 8.87167 27.16 9.007L26.614 9.665C26.4647 9.525 26.2733 9.36633 26.04 9.189C25.8067 9.01167 25.5547 8.83433 25.284 8.657C25.018 8.475 24.7567 8.314 24.5 8.174ZM25.557 3.064L26.39 3.162C26.3153 3.498 26.229 3.85033 26.131 4.219C26.0377 4.58767 25.942 4.954 25.844 5.318C25.7507 5.682 25.6573 6.02733 25.564 6.354C25.4753 6.676 25.3913 6.96067 25.312 7.208H24.423C24.5117 6.942 24.6073 6.641 24.71 6.305C24.8127 5.96433 24.9153 5.60733 25.018 5.234C25.1207 4.86067 25.2187 4.48967 25.312 4.121C25.4053 3.74767 25.487 3.39533 25.557 3.064ZM24.234 3.799H27.524V4.562H24.234V3.799ZM23.989 5.101H27.769V5.878H23.989V5.101ZM31.528 4.576H34.279V5.381H31.528V4.576ZM33.845 4.576H34.664C34.664 4.576 34.664 4.59933 34.664 4.646C34.664 4.69267 34.6617 4.74633 34.657 4.807C34.657 4.86767 34.657 4.91667 34.657 4.954C34.643 5.66333 34.6243 6.26767 34.601 6.767C34.5823 7.26167 34.559 7.67 34.531 7.992C34.503 8.314 34.468 8.56833 34.426 8.755C34.384 8.937 34.335 9.06767 34.279 9.147C34.195 9.26833 34.1087 9.35233 34.02 9.399C33.9313 9.45033 33.824 9.48767 33.698 9.511C33.586 9.52967 33.446 9.539 33.278 9.539C33.11 9.54367 32.935 9.54133 32.753 9.532C32.7483 9.41067 32.7227 9.273 32.676 9.119C32.6293 8.965 32.571 8.82967 32.501 8.713C32.669 8.727 32.823 8.73633 32.963 8.741C33.103 8.741 33.2103 8.741 33.285 8.741C33.3457 8.741 33.3947 8.734 33.432 8.72C33.4693 8.70133 33.5067 8.671 33.544 8.629C33.586 8.573 33.621 8.46567 33.649 8.307C33.6817 8.14367 33.7097 7.91267 33.733 7.614C33.7563 7.31067 33.775 6.92567 33.789 6.459C33.8077 5.98767 33.8263 5.41833 33.845 4.751V4.576ZM32.319 3.176H33.152C33.152 3.722 33.145 4.25167 33.131 4.765C33.1217 5.27367 33.0937 5.76133 33.047 6.228C33.0003 6.69467 32.9257 7.13333 32.823 7.544C32.7203 7.95467 32.5803 8.335 32.403 8.685C32.2303 9.035 32.004 9.34767 31.724 9.623C31.682 9.54833 31.6237 9.469 31.549 9.385C31.479 9.30567 31.4043 9.22867 31.325 9.154C31.2457 9.07933 31.171 9.021 31.101 8.979C31.353 8.73633 31.556 8.461 31.71 8.153C31.8687 7.845 31.9877 7.50667 32.067 7.138C32.151 6.76933 32.2093 6.375 32.242 5.955C32.2793 5.535 32.3003 5.094 32.305 4.632C32.3143 4.16533 32.319 3.68 32.319 3.176ZM28.567 3.596H31.318V4.331H28.567V3.596ZM28.336 5.22H31.444V5.983H28.336V5.22ZM30.345 6.613L31.024 6.431C31.108 6.62233 31.192 6.83233 31.276 7.061C31.3647 7.285 31.4463 7.50433 31.521 7.719C31.5957 7.93367 31.6517 8.12033 31.689 8.279L30.961 8.51C30.9283 8.35133 30.8793 8.16233 30.814 7.943C30.7487 7.72367 30.674 7.49733 30.59 7.264C30.5107 7.03067 30.429 6.81367 30.345 6.613ZM28.637 8.867L28.553 8.16L28.91 7.894L31.178 7.362C31.1827 7.46933 31.1967 7.593 31.22 7.733C31.248 7.873 31.2737 7.985 31.297 8.069C30.8723 8.181 30.5153 8.27667 30.226 8.356C29.9367 8.43067 29.6963 8.496 29.505 8.552C29.3183 8.60333 29.169 8.64767 29.057 8.685C28.945 8.72233 28.8563 8.755 28.791 8.783C28.7303 8.80633 28.679 8.83433 28.637 8.867ZM28.63 8.86C28.6207 8.80867 28.5997 8.73633 28.567 8.643C28.539 8.54967 28.5063 8.45633 28.469 8.363C28.4317 8.265 28.3967 8.181 28.364 8.111C28.434 8.08767 28.4947 8.03633 28.546 7.957C28.602 7.87767 28.658 7.775 28.714 7.649C28.742 7.58367 28.7793 7.481 28.826 7.341C28.8773 7.19633 28.931 7.02833 28.987 6.837C29.043 6.641 29.099 6.43333 29.155 6.214C29.211 5.99 29.2553 5.76833 29.288 5.549L30.114 5.78C30.0487 6.088 29.9647 6.40067 29.862 6.718C29.7593 7.03067 29.6473 7.334 29.526 7.628C29.4093 7.91733 29.2927 8.17867 29.176 8.412V8.433C29.176 8.433 29.148 8.447 29.092 8.475C29.036 8.503 28.973 8.54033 28.903 8.587C28.833 8.63367 28.77 8.68267 28.714 8.734C28.658 8.78067 28.63 8.82267 28.63 8.86ZM37.975 3.078L38.85 3.239C38.7613 3.64967 38.6493 4.051 38.514 4.443C38.3833 4.83033 38.234 5.18967 38.066 5.521C37.9027 5.85233 37.7253 6.14167 37.534 6.389C37.478 6.34233 37.3987 6.291 37.296 6.235C37.198 6.17433 37.0977 6.11833 36.995 6.067C36.897 6.011 36.8107 5.96667 36.736 5.934C36.932 5.71933 37.1093 5.46033 37.268 5.157C37.4313 4.85367 37.5713 4.52467 37.688 4.17C37.8093 3.81533 37.905 3.45133 37.975 3.078ZM39.27 5.045H39.711V5.815C39.711 5.969 39.7297 6.14867 39.767 6.354C39.8043 6.55933 39.8697 6.77633 39.963 7.005C40.061 7.229 40.1893 7.45533 40.348 7.684C40.5113 7.91267 40.7167 8.12967 40.964 8.335C41.2113 8.53567 41.51 8.71067 41.86 8.86C41.804 8.92533 41.741 9.00467 41.671 9.098C41.6057 9.196 41.5403 9.28933 41.475 9.378C41.4143 9.47133 41.3607 9.55533 41.314 9.63C41.0573 9.51333 40.8287 9.37333 40.628 9.21C40.4273 9.05133 40.2477 8.881 40.089 8.699C39.9303 8.517 39.7927 8.335 39.676 8.153C39.564 7.96633 39.473 7.789 39.403 7.621C39.3377 7.453 39.291 7.306 39.263 7.18C39.2303 7.306 39.1743 7.453 39.095 7.621C39.0203 7.78433 38.92 7.957 38.794 8.139C38.668 8.321 38.5163 8.503 38.339 8.685C38.1617 8.867 37.9587 9.03733 37.73 9.196C37.5013 9.35933 37.2447 9.504 36.96 9.63C36.932 9.56467 36.8853 9.48533 36.82 9.392C36.7593 9.30333 36.6963 9.21467 36.631 9.126C36.5657 9.042 36.5073 8.97433 36.456 8.923C36.834 8.77367 37.1583 8.59633 37.429 8.391C37.6997 8.18567 37.9237 7.96633 38.101 7.733C38.283 7.49967 38.4253 7.26633 38.528 7.033C38.6353 6.79967 38.71 6.58033 38.752 6.375C38.794 6.165 38.815 5.98067 38.815 5.822V5.045H39.27ZM35.196 7.922C35.3267 7.796 35.4783 7.64433 35.651 7.467C35.8283 7.285 36.015 7.09133 36.211 6.886C36.407 6.676 36.6007 6.466 36.792 6.256L37.268 6.977C37.03 7.26167 36.7733 7.551 36.498 7.845C36.2273 8.13433 35.973 8.40033 35.735 8.643L35.196 7.922ZM35.392 4.107L35.987 3.484C36.1317 3.57733 36.2833 3.68233 36.442 3.799C36.6053 3.911 36.757 4.02767 36.897 4.149C37.0417 4.26567 37.1583 4.37533 37.247 4.478L36.617 5.171C36.5377 5.06833 36.428 4.954 36.288 4.828C36.1527 4.702 36.0057 4.576 35.847 4.45C35.6883 4.31933 35.5367 4.205 35.392 4.107ZM38.276 4.261H41.153V5.101H37.863L38.276 4.261ZM40.873 4.261H40.992L41.153 4.219L41.776 4.583C41.7107 4.81633 41.6313 5.04967 41.538 5.283C41.4493 5.51633 41.356 5.738 41.258 5.948C41.16 6.158 41.062 6.347 40.964 6.515C40.908 6.48233 40.8357 6.445 40.747 6.403C40.663 6.35633 40.5767 6.312 40.488 6.27C40.3993 6.228 40.3223 6.19533 40.257 6.172C40.3317 6.02733 40.4087 5.857 40.488 5.661C40.572 5.46033 40.6467 5.255 40.712 5.045C40.782 4.83033 40.8357 4.632 40.873 4.45V4.261ZM42.203 6.704H45.745V7.383H42.203V6.704ZM42.287 4.233H45.724V4.898H42.287V4.233ZM43.47 6.207L44.247 6.368C44.1303 6.61067 44.0043 6.86033 43.869 7.117C43.7383 7.37367 43.6077 7.62333 43.477 7.866C43.3463 8.104 43.225 8.31633 43.113 8.503L42.378 8.279C42.49 8.10167 42.609 7.894 42.735 7.656C42.8657 7.418 42.994 7.173 43.12 6.921C43.2507 6.66433 43.3673 6.42633 43.47 6.207ZM44.457 7.173L45.234 7.243C45.1687 7.61167 45.0707 7.929 44.94 8.195C44.814 8.45633 44.6437 8.68033 44.429 8.867C44.219 9.049 43.9623 9.20067 43.659 9.322C43.3557 9.448 42.994 9.553 42.574 9.637C42.5507 9.52033 42.5063 9.39667 42.441 9.266C42.3757 9.13533 42.308 9.028 42.238 8.944C42.7 8.88333 43.0803 8.78767 43.379 8.657C43.6823 8.52633 43.9203 8.342 44.093 8.104C44.2657 7.866 44.387 7.55567 44.457 7.173ZM44.954 3.134L45.661 3.421C45.549 3.575 45.437 3.729 45.325 3.883C45.2177 4.03233 45.1197 4.16067 45.031 4.268L44.492 4.03C44.5713 3.90867 44.6553 3.764 44.744 3.596C44.8327 3.42333 44.9027 3.26933 44.954 3.134ZM43.624 3.043H44.394V6.305H43.624V3.043ZM42.462 3.421L43.064 3.169C43.1573 3.29967 43.2437 3.44667 43.323 3.61C43.4023 3.77333 43.4583 3.91567 43.491 4.037L42.847 4.317C42.8237 4.19567 42.7747 4.051 42.7 3.883C42.6253 3.715 42.546 3.561 42.462 3.421ZM43.645 4.562L44.184 4.891C44.072 5.07767 43.925 5.26433 43.743 5.451C43.5657 5.63767 43.3743 5.81267 43.169 5.976C42.9683 6.13467 42.77 6.27 42.574 6.382C42.5273 6.29333 42.462 6.18833 42.378 6.067C42.2987 5.94567 42.2217 5.84767 42.147 5.773C42.3337 5.69367 42.5227 5.591 42.714 5.465C42.9053 5.33433 43.0827 5.192 43.246 5.038C43.414 4.87933 43.547 4.72067 43.645 4.562ZM44.324 4.765C44.3893 4.79767 44.478 4.84667 44.59 4.912C44.7067 4.97733 44.8303 5.04967 44.961 5.129C45.0963 5.20367 45.2177 5.27367 45.325 5.339C45.437 5.40433 45.5163 5.45333 45.563 5.486L45.122 6.067C45.0567 6.00633 44.9727 5.93167 44.87 5.843C44.7673 5.75433 44.6577 5.66333 44.541 5.57C44.4243 5.47667 44.3123 5.388 44.205 5.304C44.0977 5.22 44.0043 5.15233 43.925 5.101L44.324 4.765ZM46.207 4.317H48.783V5.094H46.207V4.317ZM46.284 3.043L47.138 3.169C47.0633 3.64967 46.9677 4.11633 46.851 4.569C46.7343 5.017 46.592 5.43233 46.424 5.815C46.2607 6.193 46.0693 6.52667 45.85 6.816C45.808 6.76 45.7473 6.69467 45.668 6.62C45.5887 6.54533 45.5047 6.473 45.416 6.403C45.3273 6.32833 45.2527 6.26767 45.192 6.221C45.388 5.97833 45.556 5.69133 45.696 5.36C45.8407 5.024 45.962 4.66 46.06 4.268C46.158 3.87133 46.2327 3.463 46.284 3.043ZM47.558 4.793L48.419 4.877C48.3163 5.675 48.1577 6.37733 47.943 6.984C47.733 7.59067 47.4413 8.11333 47.068 8.552C46.6947 8.99067 46.214 9.357 45.626 9.651C45.598 9.58567 45.556 9.504 45.5 9.406C45.444 9.308 45.3833 9.21 45.318 9.112C45.2527 9.01867 45.192 8.944 45.136 8.888C45.668 8.65467 46.0973 8.35133 46.424 7.978C46.7553 7.60467 47.0097 7.15433 47.187 6.627C47.3643 6.095 47.488 5.48367 47.558 4.793ZM46.683 4.94C46.781 5.528 46.9187 6.081 47.096 6.599C47.2733 7.117 47.5067 7.572 47.796 7.964C48.0853 8.356 48.4423 8.664 48.867 8.888C48.8063 8.93933 48.7387 9.007 48.664 9.091C48.5893 9.17967 48.517 9.27067 48.447 9.364C48.3817 9.45733 48.328 9.54133 48.286 9.616C47.8147 9.336 47.425 8.97433 47.117 8.531C46.8137 8.08767 46.5687 7.57433 46.382 6.991C46.1953 6.403 46.0437 5.76133 45.927 5.066L46.683 4.94ZM42.994 8.286L43.442 7.719C43.7173 7.82167 43.9903 7.94067 44.261 8.076C44.5363 8.21133 44.7907 8.35133 45.024 8.496C45.262 8.636 45.4603 8.77133 45.619 8.902L45.031 9.497C44.8863 9.36633 44.7043 9.22867 44.485 9.084C44.2657 8.93933 44.0277 8.79933 43.771 8.664C43.5143 8.524 43.2553 8.398 42.994 8.286Z" fill="#00FF00"/>
</svg>
