<?xml version="1.0" encoding="UTF-8"?>
<svg id="_レイヤー_1" data-name="レイヤー_1" xmlns="http://www.w3.org/2000/svg" xmlns:xlink="http://www.w3.org/1999/xlink" version="1.1" viewBox="0 0 156 27">
  <!-- Generator: Adobe Illustrator 29.4.0, SVG Export Plug-In . SVG Version: 2.1.0 Build 152)  -->
  <defs>
    <style>
      .st0 {
        fill: url(#_名称未設定グラデーション_2);
      }

      .st1 {
        fill: none;
        stroke: url(#_名称未設定グラデーション);
        stroke-width: 1.5px;
      }
    </style>
    <linearGradient id="_名称未設定グラデーション" data-name="名称未設定グラデーション" x1="78" y1="25.7" x2="78" y2="3.3" gradientTransform="translate(0 28) scale(1 -1)" gradientUnits="userSpaceOnUse">
      <stop offset="0" stop-color="#12161a"/>
      <stop offset="1" stop-color="#1e242b"/>
    </linearGradient>
    <linearGradient id="_名称未設定グラデーション_2" data-name="名称未設定グラデーション 2" x1="78" y1="25.7" x2="78" y2="3.3" gradientTransform="translate(0 28) scale(1 -1)" gradientUnits="userSpaceOnUse">
      <stop offset="0" stop-color="#2c2e2f"/>
      <stop offset="1" stop-color="#404142"/>
    </linearGradient>
  </defs>
  <path class="st1" d="M7.9,1.6c-3.7,0-6.7,3-6.7,6.7v10.4c0,3.7,3,6.7,6.7,6.7h140.1c3.7,0,6.7-3,6.7-6.7v-10.4c0-3.7-3-6.7-6.7-6.7H7.9Z"/>
  <path class="st0" d="M2,8.3c0-3.3,2.7-6,6-6h140.1c3.3,0,6,2.7,6,6v10.4c0,3.3-2.7,6-6,6H7.9c-3.3,0-6-2.7-6-6v-10.4Z"/>
  <path d="M17,12.5c-.2.8-1.5.4-1.9.3l.4-1.5c.4.1,1.8.3,1.6,1.2ZM14.9,13.6l-.4,1.6c.5.1,2.1.6,2.3-.3.2-1-1.4-1.2-1.9-1.3ZM22.1,15.1c-.9,3.7-4.6,5.9-8.3,5-3.7-.9-5.9-4.6-5-8.3.2-.9.6-1.7,1.1-2.4.5-.7,1.2-1.3,2-1.8.8-.5,1.6-.8,2.5-.9.9-.1,1.8,0,2.7.1,3.7.9,5.9,4.6,5,8.3ZM17,10.8l.3-1.2-.8-.2-.3,1.2c-.2,0-.4,0-.6-.1l.3-1.2-.7-.2-.3,1.2c-.2,0-.3,0-.5-.1l-1-.3-.2.8s.6.1.5.1c.3,0,.4.3.3.4l-.8,3.4c0,0-.1.2-.3.2,0,0-.5-.1-.5-.1l-.4.9,1,.2c.2,0,.4,0,.5.1l-.3,1.2.8.2.3-1.2c.2,0,.4.1.6.2l-.3,1.2.8.2.3-1.2c1.3.2,2.2.1,2.6-1,.3-.9,0-1.5-.7-1.8.5-.1.9-.4,1-1.1.1-.9-.6-1.4-1.5-1.7Z"/>
</svg>