<?xml version="1.0" encoding="UTF-8"?>
<svg id="_レイヤー_2" data-name="レイヤー 2" xmlns="http://www.w3.org/2000/svg" xmlns:xlink="http://www.w3.org/1999/xlink" viewBox="0 0 24.77 31.37">
  <defs>
    <style>
      .cls-1 {
        fill: #f4f4f4;
      }

      .cls-2 {
        fill: url(#_名称未設定グラデーション_23);
      }
    </style>
    <linearGradient id="_名称未設定グラデーション_23" data-name="名称未設定グラデーション 23" x1="12.38" y1="-612.61" x2="12.38" y2="-631.66" gradientTransform="translate(0 -612.61) scale(1 -1)" gradientUnits="userSpaceOnUse">
      <stop offset="0" stop-color="#808181"/>
      <stop offset="1" stop-color="#5b5a5b"/>
    </linearGradient>
  </defs>
  <g id="_レイヤー_1-2" data-name="レイヤー 1">
    <path class="cls-1" d="M4.96,28.47h-1.53v-.64s1.38,0,1.38,0c.23,0,.43-.04.6-.12.17-.08.3-.19.4-.33.1-.15.14-.32.14-.52,0-.22-.04-.4-.13-.54-.08-.14-.21-.24-.39-.31-.17-.07-.39-.1-.65-.1h-1.17v5.37h-.8v-6.02h1.97c.31,0,.58.03.83.1.24.06.45.16.62.29.17.13.3.29.39.5.09.2.13.44.13.72,0,.25-.06.47-.19.67-.13.2-.3.36-.53.49-.22.13-.48.21-.79.24l-.29.19ZM4.92,31.28h-1.8l.45-.65h1.35c.25,0,.47-.04.64-.13.18-.09.32-.21.41-.37.09-.16.14-.35.14-.57s-.04-.42-.12-.58c-.08-.16-.21-.29-.38-.38s-.39-.13-.66-.13h-1.14v-.64h1.56l.17.23c.29.03.54.11.74.25.2.14.35.31.46.53.11.21.16.45.16.71,0,.38-.08.69-.25.95-.16.26-.39.45-.69.59-.3.13-.65.2-1.05.2ZM11.74,30.63v.65h-3.01v-.65h3.01ZM8.89,25.26v6.02h-.8v-6.02h.8ZM17.02,28.08v.38c0,.45-.06.86-.17,1.22-.11.36-.27.66-.49.91-.21.25-.47.44-.77.58-.29.13-.63.2-.99.2s-.68-.07-.98-.2c-.3-.13-.55-.32-.77-.58-.21-.25-.38-.55-.5-.91-.12-.36-.18-.76-.18-1.22v-.38c0-.45.06-.86.17-1.21.12-.36.29-.66.5-.91.21-.25.47-.45.76-.58.3-.13.62-.2.98-.2s.7.07.99.2c.3.13.55.33.77.58.21.25.38.55.49.91.12.35.17.76.17,1.21ZM16.23,28.46v-.39c0-.36-.04-.68-.11-.95-.07-.28-.18-.51-.32-.7-.14-.19-.31-.33-.52-.43-.2-.1-.43-.14-.69-.14s-.47.05-.67.14c-.2.1-.37.24-.51.43-.14.19-.25.42-.33.7-.08.27-.12.59-.12.95v.39c0,.36.04.68.12.96.08.28.19.51.33.7.15.19.32.33.52.43.2.1.42.15.67.15s.49-.05.69-.15c.2-.1.37-.24.51-.43.14-.19.25-.42.32-.7.07-.28.11-.6.11-.96ZM22.66,28.29v2.2c-.07.11-.19.23-.36.37-.16.13-.39.25-.67.36-.28.1-.65.15-1.1.15-.37,0-.7-.06-1.01-.19-.31-.13-.57-.32-.8-.56-.22-.25-.4-.55-.52-.9-.12-.36-.18-.76-.18-1.21v-.47c0-.45.05-.85.16-1.2.11-.35.27-.65.47-.9.21-.25.46-.43.76-.56.3-.13.65-.19,1.03-.19.46,0,.85.08,1.15.24.31.16.55.37.73.65.18.28.29.6.34.95h-.8c-.04-.22-.11-.42-.21-.6-.1-.18-.26-.32-.45-.43-.2-.11-.45-.17-.76-.17-.28,0-.52.05-.72.15-.2.1-.37.25-.5.44-.13.19-.23.42-.3.69-.06.27-.1.57-.1.91v.48c0,.35.04.66.12.93.08.27.2.51.35.7.15.19.33.33.54.43.21.1.45.15.7.15.28,0,.51-.02.69-.07.18-.05.32-.11.41-.17.1-.07.18-.13.23-.2v-1.35h-1.39v-.64h2.19Z"/>
    <path class="cls-2" d="M1.27,14V3.96c0-.5,0-.93.03-1.29.02-.39.11-.76.28-1.11.27-.54.71-.98,1.25-1.25C3.18.14,3.56.05,3.94.03c.35-.03.79-.03,1.29-.03h14.3c.5,0,.93,0,1.29.03.38.03.75.1,1.11.28.54.28.98.71,1.25,1.25.18.36.25.73.28,1.11.03.36.03.79.03,1.29v10.04c.72.15,1.27.79,1.27,1.56,0,.46-.09.91-.27,1.34-.17.42-.43.81-.76,1.13-.33.32-.71.58-1.13.76s-.88.27-1.34.27H3.49c-.93,0-1.82-.37-2.47-1.02-.65-.65-1.02-1.54-1.02-2.47,0-.77.55-1.41,1.27-1.56ZM3.7,2.01c-.18.09-.33.24-.42.42-.03.05-.06.14-.08.4-.02.27-.02.62-.02,1.17v9.97h5.85c.18,0,.37.05.52.16.15.1.28.25.35.42.05.11.13.21.23.28.1.07.23.1.35.1h3.81c.12,0,.24-.04.35-.1.1-.07.18-.16.23-.28.07-.17.2-.31.35-.42.15-.1.34-.16.52-.16h5.85V4c0-.55,0-.91-.02-1.17-.02-.26-.06-.35-.08-.4-.09-.18-.24-.33-.42-.42-.05-.03-.14-.06-.4-.08-.39-.02-.78-.03-1.17-.02H5.27c-.55,0-.9,0-1.17.02-.26.02-.36.06-.4.08ZM1.94,15.88c.15.72.79,1.27,1.56,1.27h17.78c.77,0,1.41-.55,1.56-1.27h-6.56c-.47.58-1.18.95-1.98.95h-3.81c-.38,0-.76-.09-1.1-.25-.34-.16-.65-.4-.88-.7H1.94Z"/>
  </g>
</svg>