<?xml version="1.0" encoding="UTF-8"?>
<svg id="_レイヤー_2" data-name="レイヤー 2" xmlns="http://www.w3.org/2000/svg" viewBox="0 0 28.36 72.67">
  <defs>
    <style>
      .cls-1 {
        fill: #10a636;
      }

      .cls-2 {
        fill: #ff9500;
      }
    </style>
  </defs>
  <g id="_レイヤー_1-2" data-name="レイヤー 1">
    <rect class="cls-2" y="63.81" width="28.36" height="8.86"/>
    <path d="M10,72.24v-6.34h1.74c.43,0,.8.05,1.11.14.31.09.56.26.73.51.18.24.27.58.27,1.03,0,.26-.02.49-.06.7-.04.2-.12.38-.23.53-.11.15-.27.27-.48.37l.87,3.07h-1.45l-.7-2.84h-.4v2.84h-1.4ZM11.4,68.6h.39c.2,0,.35-.03.46-.1.11-.07.18-.17.23-.31.05-.14.07-.3.07-.48,0-.27-.05-.48-.15-.63-.1-.15-.28-.23-.55-.23h-.45v1.75ZM14.7,72.24v-6.34h1.65c.27,0,.53.02.77.06.24.04.46.12.65.24.19.11.33.28.44.5.11.21.16.5.16.85,0,.26-.04.47-.12.65-.07.17-.18.31-.32.42-.14.1-.3.17-.49.21.24.03.45.11.62.24.17.12.29.29.38.51.09.21.13.47.13.78,0,.33-.04.61-.13.85-.08.24-.21.43-.37.58-.16.15-.36.26-.6.34-.24.07-.51.11-.81.11h-1.95ZM16.1,71.26h.3c.31,0,.52-.08.63-.23.12-.16.18-.39.18-.69,0-.24-.03-.43-.08-.57-.05-.14-.14-.24-.26-.3-.12-.07-.28-.1-.49-.1h-.29v1.9ZM16.1,68.44h.27c.21,0,.38-.03.49-.09.11-.07.18-.16.22-.29.04-.12.06-.28.06-.45,0-.17-.03-.31-.09-.41-.06-.11-.15-.2-.27-.26-.11-.06-.26-.09-.44-.09h-.24v1.6Z"/>
    <rect class="cls-1" y="53.18" width="28.36" height="8.86"/>
    <rect class="cls-1" y="42.54" width="28.36" height="8.86"/>
    <rect class="cls-1" y="31.91" width="28.36" height="8.86"/>
    <rect class="cls-1" y="21.27" width="28.36" height="8.86"/>
    <rect class="cls-1" y="10.64" width="28.36" height="8.86"/>
    <rect class="cls-1" width="28.36" height="8.86"/>
  </g>
</svg>