<svg width="31" height="27" viewBox="0 0 31 27" fill="none" xmlns="http://www.w3.org/2000/svg">
<path d="M29.1996 10.5381L29.3519 10.7939C29.7914 11.5489 30.0186 12.4033 30.0121 13.2705C30.0122 13.9989 29.85 14.7191 29.5365 15.3809L29.4046 15.6436L26.9535 19.7676L24.7923 23.3857L24.3763 24.0781C23.924 24.8361 23.2741 25.4655 22.4925 25.9033C21.7112 26.341 20.8253 26.5721 19.9232 26.5732H19.2621L15.5023 20.2549H20.2269L23.1468 15.3486H12.5755L12.3636 14.9893L9.72104 10.5381H29.1996ZM7.95639 17.4336L13.3871 26.5674H10.0443C9.14192 26.5663 8.25551 26.3353 7.47397 25.8975C6.69249 25.4596 6.0425 24.8302 5.59018 24.0723L0.661471 15.7793C0.218318 15.0188 -0.0100278 14.1579 0.000337824 13.2842C-0.00200845 12.4081 0.235471 11.5471 0.687838 10.7891L2.33335 7.97949L7.95639 17.4336ZM19.929 0C20.8303 0.00215673 21.7152 0.234064 22.4955 0.671875C23.2757 1.10968 23.9246 1.73813 24.3763 2.49512L26.2259 5.61914H3.7601L5.61753 2.49512C6.06982 1.73725 6.71891 1.10777 7.50034 0.669922C8.28186 0.232065 9.16831 0.00104636 10.0707 0H19.929Z" fill="url(#paint0_linear_4201_1061)"/>
<defs>
<linearGradient id="paint0_linear_4201_1061" x1="15.0061" y1="2.89967e-06" x2="34.2649" y2="8.84899" gradientUnits="userSpaceOnUse">
<stop stop-color="#7E2CFF"/>
<stop offset="1" stop-color="#596BF7"/>
</linearGradient>
</defs>
</svg>
