<svg width="147" height="16" viewBox="0 0 147 16" fill="none" xmlns="http://www.w3.org/2000/svg">
<path d="M28.384 6.42204C28.0679 6.0453 27.6721 5.73888 27.2234 5.52347C26.6801 5.27342 26.0836 5.15161 25.4825 5.16803H20.6468C20.2366 5.17372 19.8294 5.23699 19.4379 5.35582C18.9952 5.48638 18.5825 5.69808 18.222 5.97947C17.8387 6.28827 17.5238 6.66922 17.2963 7.09936C17.0274 7.62341 16.8969 8.20412 16.9164 8.78928V12.2898C16.896 12.8261 17.0032 13.3598 17.2296 13.8494C17.4561 14.339 17.7956 14.7714 18.222 15.113C18.5807 15.3955 18.9942 15.6053 19.4379 15.73C19.8291 15.8507 20.2363 15.9162 20.6468 15.9245H25.4825C25.7542 15.9205 26.0249 15.8913 26.2908 15.8373C26.5781 15.7786 26.8582 15.691 27.1267 15.5757C27.4095 15.4526 27.6762 15.2973 27.9212 15.113C28.1845 14.9241 28.4174 14.6981 28.612 14.4424C28.8111 14.1546 28.9669 13.8408 29.0748 13.5103C29.1926 13.1205 29.2508 12.7161 29.2475 12.3099V8.80937C29.2402 8.4064 29.1727 8.00662 29.0472 7.62244C28.9089 7.18416 28.6836 6.77635 28.384 6.42204ZM26.5602 12.2898C26.5794 12.5734 26.4826 12.8529 26.2908 13.0677C26.182 13.1635 26.0542 13.2367 25.9152 13.2829C25.7762 13.329 25.629 13.347 25.4825 13.3359H20.6952C20.3998 13.3538 20.1092 13.2573 19.8869 13.0677C19.7894 12.9627 19.7147 12.8397 19.6672 12.706C19.6197 12.5724 19.6005 12.4308 19.6106 12.2898V8.78928C19.5994 8.64919 19.6182 8.50835 19.6657 8.37564C19.7133 8.24293 19.7886 8.12119 19.8869 8.01807C20.1092 7.82844 20.3998 7.73202 20.6952 7.74986H25.4825C25.7748 7.73051 26.0631 7.82454 26.2839 8.01136C26.3841 8.11877 26.4603 8.24508 26.5078 8.38239C26.5554 8.5197 26.5732 8.66506 26.5602 8.80937V12.2898Z" fill="white"/>
<path d="M42.7051 6.42204C42.386 6.04831 41.9909 5.74244 41.5446 5.52347C41.0013 5.27342 40.4047 5.15161 39.8037 5.16803H34.9679C34.5577 5.17325 34.1504 5.23653 33.759 5.35582C33.298 5.49024 32.8699 5.71407 32.5006 6.01377C32.1314 6.31346 31.8285 6.68277 31.6106 7.09936C31.3473 7.62509 31.2193 8.20498 31.2375 8.78928V12.2898C31.2187 12.8763 31.3467 13.4585 31.6106 13.9864C31.8363 14.4215 32.1541 14.8054 32.5432 15.113C32.9019 15.3955 33.3153 15.6053 33.759 15.73C34.1502 15.8512 34.5574 15.9168 34.9679 15.9245H39.8037C40.3701 15.9149 40.9289 15.7964 41.4478 15.5757C41.7298 15.4511 41.9963 15.2959 42.2423 15.113C42.5076 14.9263 42.7408 14.7 42.9331 14.4424C43.1349 14.1561 43.291 13.8419 43.396 13.5103C43.517 13.1212 43.5753 12.7163 43.5687 12.3099V8.80937C43.5639 8.4067 43.4988 8.00687 43.3753 7.62244C43.2289 7.18611 43.0018 6.77931 42.7051 6.42204ZM40.8814 12.2898C40.9005 12.5734 40.8038 12.8529 40.612 13.0677C40.5025 13.1625 40.3746 13.2351 40.2358 13.2812C40.097 13.3273 39.95 13.3459 39.8037 13.3359H35.0301C34.7348 13.3538 34.4442 13.2573 34.2219 13.0677C34.1244 12.9627 34.0496 12.8397 34.0022 12.706C33.9547 12.5724 33.9354 12.4308 33.9455 12.2898V8.78928C33.9344 8.64919 33.9531 8.50835 34.0007 8.37564C34.0482 8.24293 34.1236 8.12119 34.2219 8.01807C34.4442 7.82844 34.7348 7.73202 35.0301 7.74986H39.8175C39.9649 7.73066 40.1149 7.74493 40.2556 7.79161C40.3964 7.83828 40.524 7.91608 40.6285 8.01881C40.733 8.12154 40.8115 8.24642 40.8578 8.38362C40.904 8.52082 40.9168 8.66655 40.8952 8.80937L40.8814 12.2898Z" fill="white"/>
<path d="M55.2992 12.2902C55.3174 12.5725 55.2234 12.8509 55.0367 13.0681C54.9262 13.1635 54.7971 13.2364 54.6571 13.2824C54.5171 13.3285 54.369 13.3468 54.2215 13.3363H49.4203C49.2762 13.3456 49.1315 13.3267 48.995 13.2806C48.8585 13.2345 48.733 13.1622 48.6259 13.0681C48.5268 12.9601 48.4512 12.8337 48.4037 12.6965C48.3562 12.5594 48.3378 12.4143 48.3496 12.2701V8.7897C48.34 8.64973 48.3595 8.50932 48.407 8.37683C48.4545 8.24435 48.5289 8.12249 48.6259 8.01849C48.8503 7.82782 49.1434 7.73137 49.441 7.75028H54.2215V5.16845H49.4203C49.0101 5.17319 48.6027 5.23647 48.2114 5.35623C47.7682 5.48539 47.3552 5.69722 46.9955 5.97989C46.6081 6.28641 46.2905 6.66777 46.0629 7.09977C45.7972 7.62493 45.6669 8.20484 45.683 8.7897V12.2902C45.6872 12.5495 45.7173 12.8078 45.7728 13.0614C45.8332 13.3424 45.9235 13.6166 46.0422 13.8795C46.1706 14.1532 46.3305 14.4119 46.5189 14.6507C46.7153 14.9049 46.9479 15.1307 47.2097 15.3213C47.5013 15.5186 47.823 15.6701 48.163 15.7706C48.5633 15.891 48.9806 15.9499 49.3996 15.945H54.2008C54.4725 15.941 54.7431 15.9118 55.0091 15.8578C55.2983 15.7982 55.5807 15.7106 55.8519 15.5962C56.1325 15.473 56.3969 15.3177 56.6394 15.1335C56.9028 14.9446 57.1357 14.7186 57.3302 14.4629C57.5321 14.1767 57.6881 13.8624 57.7931 13.5308C57.9141 13.1418 57.9724 12.7368 57.9658 12.3304V0.648621H55.2992V12.2902Z" fill="white"/>
<path d="M61.6134 1.7544C61.4556 1.81809 61.3124 1.91152 61.192 2.02933C60.9452 2.27796 60.8066 2.60944 60.8052 2.95476V15.9241H63.4717V10.0899H71.6442V7.4813H63.4925V4.24229H74.1725V1.65379H62.1454C61.963 1.65291 61.7822 1.68711 61.6134 1.7544Z" fill="white"/>
<path d="M78.4899 5.24835C78.2001 5.3093 77.9177 5.39921 77.6471 5.5166C77.3624 5.63615 77.0952 5.79174 76.8526 5.97932C76.5889 6.1679 76.3561 6.39397 76.1618 6.64991C75.9573 6.93466 75.801 7.24936 75.699 7.58206C75.5749 7.96833 75.5143 8.37113 75.5193 8.7757V15.9109H78.1859V8.78912C78.1747 8.64903 78.1935 8.5082 78.241 8.37549C78.2886 8.24277 78.3639 8.12103 78.4622 8.01792C78.5744 7.92299 78.7047 7.85045 78.8458 7.80443C78.9869 7.7584 79.1359 7.73982 79.2843 7.74971H85.2806V5.16788H79.2636C79.0037 5.17109 78.7446 5.19803 78.4899 5.24835Z" fill="white"/>
<path d="M89.7574 0.621185H87.0908V2.96157H89.7574V0.621185Z" fill="white"/>
<path d="M89.7574 5.16788H87.0908V15.9243H89.7574V5.16788Z" fill="white"/>
<path d="M102.946 5.96597C102.593 5.69165 102.19 5.48462 101.757 5.35574C101.371 5.23604 100.968 5.17274 100.562 5.16795H95.7265C95.1366 5.15198 94.5514 5.2739 94.0202 5.52339C93.5803 5.74027 93.192 6.04404 92.8803 6.41526C92.5977 6.75782 92.3844 7.1492 92.2517 7.56871C92.1278 7.94387 92.0626 8.33491 92.0582 8.72883V12.3568C92.0409 12.9295 92.1666 13.4977 92.4244 14.0131C92.6478 14.4401 92.9607 14.8171 93.3431 15.1197C93.6942 15.3966 94.0979 15.604 94.5314 15.7299C94.9178 15.8512 95.3204 15.9167 95.7265 15.9244H100.562V13.4565H95.7748C95.4735 13.4627 95.1805 13.3599 94.9528 13.1682C94.8378 13.0658 94.7477 12.9399 94.6892 12.7996C94.6306 12.6592 94.605 12.508 94.6143 12.3568V8.74897C94.6075 8.45433 94.7133 8.16769 94.9113 7.94424C95.0196 7.8348 95.151 7.74935 95.2964 7.69379C95.4419 7.63823 95.598 7.61389 95.7541 7.62237H100.59C100.885 7.61868 101.17 7.72145 101.391 7.91072C101.504 8.0116 101.593 8.13535 101.652 8.27324C101.71 8.41112 101.737 8.55978 101.73 8.70873C101.736 9.00129 101.63 9.28569 101.433 9.50675C101.325 9.6174 101.194 9.70407 101.048 9.7608C100.903 9.81753 100.746 9.84296 100.59 9.83533H95.7541V12.2897H100.59C101.18 12.3057 101.765 12.1838 102.296 11.9343C102.731 11.7159 103.115 11.4122 103.422 11.0424C103.705 10.6998 103.918 10.3085 104.051 9.88899C104.174 9.51371 104.239 9.12271 104.244 8.72883C104.261 8.1562 104.135 7.58814 103.878 7.07247C103.651 6.64421 103.333 6.26719 102.946 5.96597Z" fill="white"/>
<path d="M117.465 7.15289C117.222 6.8093 116.926 6.50395 116.588 6.24756C116.263 6.00326 115.911 5.79625 115.538 5.63062C115.184 5.47226 114.813 5.35306 114.432 5.27522C114.082 5.20476 113.726 5.16879 113.368 5.1679H107.365C107.185 5.16683 107.006 5.20106 106.84 5.26851C106.682 5.33305 106.537 5.4238 106.412 5.53672C106.289 5.65234 106.192 5.79173 106.129 5.94582C106.058 6.10469 106.023 6.27596 106.025 6.44877V15.9243H108.685V7.74973H113.348C113.654 7.74787 113.958 7.80012 114.246 7.90395C114.515 8.00616 114.762 8.1588 114.971 8.35324C115.178 8.54224 115.342 8.7705 115.455 9.02384C115.58 9.30972 115.642 9.61842 115.634 9.92917V15.9042H118.301V9.92917C118.309 9.39783 118.232 8.8685 118.073 8.35996C117.936 7.9294 117.731 7.52216 117.465 7.15289Z" fill="white"/>
<path d="M130.127 12.2902C130.145 12.5725 130.051 12.8509 129.865 13.0681C129.754 13.1635 129.625 13.2363 129.485 13.2824C129.345 13.3285 129.197 13.3468 129.049 13.3363H124.214C124.069 13.3456 123.925 13.3267 123.788 13.2806C123.652 13.2345 123.526 13.1622 123.419 13.0681C123.32 12.9601 123.244 12.8336 123.197 12.6965C123.149 12.5594 123.131 12.4143 123.143 12.2701V8.78969C123.139 8.64849 123.164 8.50797 123.218 8.37659C123.271 8.2452 123.351 8.12565 123.454 8.0252C123.678 7.83453 123.971 7.73804 124.269 7.75694H129.049V5.17516H124.214C123.803 5.1799 123.396 5.24318 123.005 5.36295C122.561 5.4921 122.148 5.70393 121.789 5.9866C121.401 6.29312 121.084 6.67448 120.856 7.10648C120.593 7.63222 120.465 8.21211 120.483 8.7964V12.2969C120.485 12.556 120.513 12.8142 120.566 13.0681C120.63 13.3483 120.72 13.6222 120.835 13.8862C120.964 14.1599 121.124 14.4187 121.312 14.6574C121.509 14.9116 121.741 15.1374 122.003 15.328C122.296 15.5266 122.62 15.6782 122.963 15.7773C123.361 15.8982 123.776 15.9571 124.193 15.9517H129.029C129.3 15.9477 129.571 15.9185 129.837 15.8645C130.126 15.8049 130.408 15.7173 130.68 15.603C130.96 15.4797 131.225 15.3244 131.467 15.1402C131.731 14.9513 131.963 14.7253 132.158 14.4696C132.36 14.1834 132.516 13.8691 132.621 13.5375C132.742 13.1484 132.8 12.7435 132.794 12.3371V0.648621H130.127V12.2902Z" fill="white"/>
<path d="M142.544 9.25153H138.399C138.206 9.2338 138.026 9.14666 137.895 9.00714C137.764 8.86762 137.692 8.68576 137.692 8.49711C137.692 8.30846 137.764 8.1266 137.895 7.98708C138.026 7.84756 138.206 7.76041 138.399 7.74269H145.397V5.16086H138.413C137.561 5.24388 136.771 5.63121 136.197 6.24767C135.622 6.86414 135.304 7.66582 135.304 8.49711C135.304 9.3284 135.622 10.13 136.197 10.7465C136.771 11.363 137.561 11.7503 138.413 11.8333H142.558C142.765 11.8333 142.964 11.9132 143.11 12.0553C143.256 12.1974 143.339 12.3901 143.339 12.5911C143.339 12.7921 143.256 12.9848 143.11 13.1269C142.964 13.269 142.765 13.3489 142.558 13.3489H134.959V15.9307H142.558C143.474 15.9307 144.353 15.5774 145 14.9486C145.648 14.3198 146.012 13.4669 146.012 12.5777C146.012 11.6884 145.648 10.8356 145 10.2068C144.353 9.57795 143.474 9.22468 142.558 9.22468L142.544 9.25153Z" fill="white"/>
<path d="M14.3055 7.87038C14.1861 7.74988 14.0427 7.65405 13.8841 7.5887C13.7159 7.51911 13.5351 7.48266 13.3522 7.48142H4.938V10.0901H12.0258V13.3357H3.73597C3.59135 13.3437 3.44652 13.3235 3.31007 13.2763C3.17363 13.2291 3.04831 13.1558 2.94151 13.0608C2.84298 12.9576 2.76707 12.836 2.71838 12.7034C2.66969 12.5708 2.64926 12.4301 2.6583 12.2896V5.34221C2.64811 5.19809 2.66726 5.05346 2.71467 4.91654C2.76208 4.77961 2.83681 4.65308 2.9346 4.54419C3.04278 4.44955 3.16949 4.37703 3.30716 4.33095C3.44484 4.28486 3.59069 4.26613 3.73597 4.27594H14.568V1.65392H3.73597C3.31958 1.64699 2.90462 1.70356 2.50629 1.82157C2.16492 1.92706 1.84141 2.0807 1.54608 2.27757C1.2827 2.46646 1.04985 2.69249 0.855263 2.94817C0.662318 3.18515 0.499914 3.44415 0.37168 3.71937C0.252925 3.98229 0.162623 4.25645 0.102249 4.53748C0.0467843 4.79114 0.0167054 5.04942 0.0124392 5.30869V12.3097C0.00795158 12.7165 0.0685511 13.1214 0.192059 13.5101C0.297047 13.8417 0.453083 14.156 0.654898 14.4422C0.851278 14.6964 1.08388 14.9222 1.34572 15.1128C1.59169 15.2957 1.85822 15.4509 2.14018 15.5755C2.41102 15.6908 2.69345 15.7785 2.98296 15.8371C3.24426 15.8909 3.51033 15.9201 3.77742 15.9243H13.3936C13.5703 15.9265 13.7456 15.8944 13.9094 15.8299C14.0731 15.7654 14.2218 15.6698 14.347 15.5487C14.4706 15.4311 14.5672 15.2894 14.6302 15.1329C14.701 14.9696 14.7363 14.7938 14.7338 14.6166V8.78909C14.7356 8.61629 14.7003 8.44502 14.6302 8.28615C14.551 8.12826 14.4407 7.987 14.3055 7.87038Z" fill="white"/>
</svg>
