<svg width="147" height="16" viewBox="0 0 147 16" fill="none" xmlns="http://www.w3.org/2000/svg">
<path d="M28.3841 6.42345C28.068 6.04671 27.6722 5.74029 27.2235 5.52487C26.6802 5.27482 26.0837 5.15302 25.4827 5.16943H20.6469C20.2367 5.17513 19.8295 5.23839 19.438 5.35722C18.9954 5.48778 18.5826 5.69948 18.2221 5.98087C17.8388 6.28968 17.524 6.67062 17.2964 7.10076C17.0276 7.62482 16.897 8.20552 16.9165 8.79068V12.2912C16.8961 12.8275 17.0033 13.3612 17.2297 13.8508C17.4562 14.3404 17.7957 14.7728 18.2221 15.1144C18.5808 15.3969 18.9943 15.6067 19.438 15.7314C19.8293 15.8521 20.2364 15.9176 20.6469 15.9259H25.4827C25.7543 15.9219 26.025 15.8927 26.2909 15.8387C26.5782 15.78 26.8584 15.6924 27.1268 15.5771C27.4096 15.454 27.6763 15.2987 27.9213 15.1144C28.1847 14.9255 28.4175 14.6995 28.6121 14.4438C28.8112 14.156 28.9671 13.8422 29.0749 13.5117C29.1927 13.1219 29.2509 12.7175 29.2476 12.3113V8.81078C29.2403 8.40781 29.1728 8.00803 29.0473 7.62385C28.909 7.18556 28.6837 6.77775 28.3841 6.42345ZM26.5603 12.2912C26.5795 12.5748 26.4827 12.8543 26.2909 13.0691C26.1821 13.1649 26.0543 13.2381 25.9154 13.2843C25.7764 13.3304 25.6291 13.3484 25.4827 13.3373H20.6953C20.3999 13.3552 20.1093 13.2587 19.887 13.0691C19.7895 12.9641 19.7148 12.8411 19.6673 12.7074C19.6198 12.5738 19.6006 12.4322 19.6107 12.2912V8.79068C19.5995 8.65059 19.6183 8.50975 19.6658 8.37704C19.7134 8.24433 19.7887 8.12259 19.887 8.01948C20.1093 7.82985 20.3999 7.73342 20.6953 7.75126H25.4827C25.7749 7.73191 26.0632 7.82595 26.284 8.01276C26.3842 8.12017 26.4604 8.24648 26.5079 8.3838C26.5555 8.52111 26.5733 8.66646 26.5603 8.81078V12.2912Z" fill="black"/>
<path d="M42.7038 6.42345C42.3846 6.04972 41.9896 5.74385 41.5432 5.52487C40.9999 5.27482 40.4034 5.15302 39.8023 5.16943H34.9666C34.5564 5.17466 34.1491 5.23793 33.7577 5.35722C33.2967 5.49165 32.8686 5.71548 32.4993 6.01517C32.13 6.31486 31.8272 6.68417 31.6092 7.10076C31.3459 7.62649 31.2179 8.20638 31.2362 8.79068V12.2912C31.2174 12.8777 31.3454 13.4599 31.6092 13.9878C31.8349 14.4229 32.1528 14.8068 32.5419 15.1144C32.9006 15.3969 33.314 15.6067 33.7577 15.7314C34.1488 15.8526 34.556 15.9182 34.9666 15.9259H39.8023C40.3688 15.9163 40.9276 15.7978 41.4465 15.5771C41.7285 15.4525 41.995 15.2973 42.241 15.1144C42.5063 14.9277 42.7394 14.7014 42.9318 14.4438C43.1336 14.1575 43.2896 13.8433 43.3946 13.5117C43.5157 13.1226 43.5739 12.7177 43.5673 12.3113V8.81078C43.5626 8.4081 43.4975 8.00828 43.3739 7.62385C43.2276 7.18752 43.0005 6.78072 42.7038 6.42345ZM40.88 12.2912C40.8992 12.5748 40.8024 12.8543 40.6106 13.0691C40.5012 13.1639 40.3733 13.2365 40.2344 13.2826C40.0956 13.3287 39.9487 13.3473 39.8023 13.3373H35.0288C34.7334 13.3552 34.4428 13.2587 34.2205 13.0691C34.123 12.9641 34.0483 12.8411 34.0008 12.7074C33.9533 12.5738 33.9341 12.4322 33.9442 12.2912V8.79068C33.933 8.65059 33.9518 8.50975 33.9993 8.37704C34.0469 8.24433 34.1222 8.12259 34.2205 8.01948C34.4428 7.82985 34.7334 7.73342 35.0288 7.75126H39.8162C39.9636 7.73207 40.1136 7.74634 40.2543 7.79301C40.395 7.83968 40.5227 7.91748 40.6272 8.02021C40.7317 8.12294 40.8101 8.24783 40.8564 8.38502C40.9027 8.52222 40.9155 8.66795 40.8939 8.81078L40.88 12.2912Z" fill="black"/>
<path d="M55.2992 12.29C55.3174 12.5724 55.2234 12.8507 55.0367 13.0679C54.9262 13.1633 54.7971 13.2362 54.6571 13.2822C54.5171 13.3283 54.369 13.3466 54.2215 13.3361H49.4203C49.2762 13.3454 49.1315 13.3265 48.995 13.2804C48.8585 13.2343 48.733 13.1621 48.6259 13.0679C48.5268 12.9599 48.4512 12.8335 48.4037 12.6963C48.3562 12.5592 48.3378 12.4141 48.3496 12.2699V8.78951C48.34 8.64955 48.3595 8.50913 48.407 8.37665C48.4545 8.24417 48.5289 8.1223 48.6259 8.01831C48.8503 7.82763 49.1434 7.73119 49.441 7.75009H54.2215V5.16826H49.4203C49.0101 5.17301 48.6027 5.23629 48.2114 5.35605C47.7682 5.4852 47.3552 5.69704 46.9955 5.9797C46.6081 6.28623 46.2905 6.66758 46.0629 7.09959C45.7972 7.62474 45.6669 8.20466 45.683 8.78951V12.29C45.6872 12.5493 45.7173 12.8076 45.7728 13.0612C45.8332 13.3423 45.9235 13.6164 46.0422 13.8793C46.1706 14.153 46.3305 14.4118 46.5189 14.6505C46.7153 14.9047 46.9479 15.1305 47.2097 15.3211C47.5013 15.5184 47.823 15.67 48.163 15.7704C48.5633 15.8909 48.9806 15.9497 49.3996 15.9448H54.2008C54.4725 15.9408 54.7431 15.9116 55.0091 15.8576C55.2983 15.798 55.5807 15.7104 55.8519 15.5961C56.1325 15.4729 56.3969 15.3175 56.6394 15.1333C56.9028 14.9445 57.1357 14.7184 57.3302 14.4627C57.5321 14.1765 57.6881 13.8622 57.7931 13.5306C57.9141 13.1416 57.9724 12.7366 57.9658 12.3303V0.648438H55.2992V12.29Z" fill="black"/>
<path d="M61.6129 1.75297C61.4551 1.81665 61.3119 1.91009 61.1915 2.02789C60.9447 2.27652 60.8061 2.60801 60.8047 2.95332V15.9227H63.4712V10.0885H71.6437V7.47986H63.492V4.24086H74.1721V1.65236H62.1449C61.9625 1.65147 61.7817 1.68568 61.6129 1.75297Z" fill="black"/>
<path d="M78.4903 5.24844C78.2006 5.30939 77.9182 5.3993 77.6476 5.51669C77.3629 5.63624 77.0957 5.79183 76.8531 5.97941C76.5894 6.16799 76.3566 6.39406 76.1623 6.65001C75.9577 6.93475 75.8015 7.24945 75.6994 7.58215C75.5754 7.96842 75.5148 8.37122 75.5198 8.77579V15.911H78.1864V8.78922C78.1752 8.64913 78.194 8.50829 78.2415 8.37558C78.2891 8.24286 78.3644 8.12113 78.4627 8.01801C78.5749 7.92308 78.7052 7.85055 78.8463 7.80452C78.9873 7.7585 79.1363 7.73991 79.2848 7.7498H85.2811V5.16797H79.2641C79.0042 5.17118 78.7451 5.19812 78.4903 5.24844Z" fill="black"/>
<path d="M89.7564 0.621094H87.0898V2.96147H89.7564V0.621094Z" fill="black"/>
<path d="M89.7564 5.16797H87.0898V15.9243H89.7564V5.16797Z" fill="black"/>
<path d="M102.946 5.96737C102.593 5.69306 102.19 5.48602 101.757 5.35715C101.371 5.23744 100.968 5.17414 100.562 5.16936H95.7265C95.1366 5.15339 94.5514 5.2753 94.0202 5.5248C93.5803 5.74167 93.192 6.04545 92.8803 6.41666C92.5977 6.75922 92.3844 7.1506 92.2517 7.57011C92.1278 7.94527 92.0626 8.33631 92.0582 8.73023V12.3582C92.0409 12.9309 92.1666 13.4991 92.4244 14.0146C92.6478 14.4415 92.9607 14.8185 93.3431 15.1211C93.6942 15.398 94.0979 15.6054 94.5314 15.7313C94.9178 15.8526 95.3204 15.9181 95.7265 15.9258H100.562V13.4579H95.7748C95.4735 13.4641 95.1805 13.3613 94.9528 13.1696C94.8378 13.0672 94.7477 12.9413 94.6892 12.801C94.6306 12.6606 94.605 12.5094 94.6143 12.3582V8.75037C94.6075 8.45573 94.7133 8.16909 94.9113 7.94565C95.0196 7.8362 95.151 7.75075 95.2964 7.69519C95.4419 7.63964 95.598 7.6153 95.7541 7.62377H100.59C100.885 7.62008 101.17 7.72285 101.391 7.91212C101.504 8.01301 101.593 8.13676 101.652 8.27464C101.71 8.41252 101.737 8.56118 101.73 8.71014C101.736 9.00269 101.63 9.28709 101.433 9.50815C101.325 9.6188 101.194 9.70548 101.048 9.7622C100.903 9.81893 100.746 9.84436 100.59 9.83674H95.7541V12.2911H100.59C101.18 12.3071 101.765 12.1852 102.296 11.9357C102.731 11.7173 103.115 11.4136 103.422 11.0438C103.705 10.7012 103.918 10.3099 104.051 9.8904C104.174 9.51512 104.239 9.12411 104.244 8.73023C104.261 8.1576 104.135 7.58954 103.878 7.07388C103.651 6.64561 103.333 6.26859 102.946 5.96737Z" fill="black"/>
<path d="M117.463 7.15298C117.221 6.80939 116.925 6.50404 116.586 6.24765C116.262 6.00335 115.909 5.79634 115.536 5.63071C115.183 5.47235 114.812 5.35315 114.431 5.27531C114.081 5.20485 113.724 5.16888 113.367 5.16799H107.364C107.183 5.16692 107.005 5.20115 106.839 5.2686C106.681 5.33314 106.536 5.4239 106.41 5.53681C106.287 5.65243 106.191 5.79182 106.127 5.94591C106.057 6.10478 106.022 6.27605 106.023 6.44886V15.9244H108.683V7.74982H113.346C113.653 7.74797 113.957 7.80022 114.244 7.90405C114.514 8.00625 114.76 8.15889 114.97 8.35333C115.176 8.54234 115.341 8.77059 115.453 9.02393C115.579 9.30982 115.64 9.61852 115.633 9.92927V15.9043H118.299V9.92927C118.307 9.39792 118.23 8.86859 118.071 8.36005C117.935 7.92949 117.729 7.52225 117.463 7.15298Z" fill="black"/>
<path d="M130.126 12.29C130.144 12.5724 130.05 12.8507 129.864 13.0679C129.753 13.1633 129.624 13.2362 129.484 13.2822C129.344 13.3283 129.196 13.3466 129.048 13.3361H124.213C124.068 13.3454 123.924 13.3265 123.787 13.2804C123.651 13.2343 123.525 13.1621 123.418 13.0679C123.319 12.9599 123.243 12.8335 123.196 12.6963C123.149 12.5592 123.13 12.4141 123.142 12.2699V8.78951C123.138 8.64831 123.163 8.50779 123.217 8.3764C123.27 8.24501 123.35 8.12547 123.453 8.02502C123.677 7.83434 123.97 7.73786 124.268 7.75676H129.048V5.17498H124.213C123.802 5.17972 123.395 5.243 123.004 5.36276C122.56 5.49191 122.147 5.70375 121.788 5.98641C121.4 6.29294 121.083 6.67429 120.855 7.1063C120.592 7.63203 120.464 8.21192 120.482 8.79622V12.2967C120.484 12.5558 120.512 12.8141 120.565 13.0679C120.629 13.3481 120.719 13.622 120.835 13.886C120.963 14.1597 121.123 14.4185 121.311 14.6572C121.508 14.9114 121.74 15.1372 122.002 15.3278C122.295 15.5264 122.619 15.6781 122.962 15.7771C123.36 15.8981 123.775 15.9569 124.192 15.9515H129.028C129.299 15.9475 129.57 15.9184 129.836 15.8643C130.125 15.8048 130.408 15.7171 130.679 15.6028C130.959 15.4796 131.224 15.3242 131.466 15.1401C131.73 14.9512 131.962 14.7251 132.157 14.4695C132.359 14.1832 132.515 13.8689 132.62 13.5373C132.741 13.1482 132.799 12.7433 132.793 12.337V0.648438H130.126V12.29Z" fill="black"/>
<path d="M142.544 9.25083H138.399C138.206 9.2331 138.026 9.14596 137.895 9.00644C137.764 8.86691 137.692 8.68505 137.692 8.49641C137.692 8.30776 137.764 8.1259 137.895 7.98638C138.026 7.84686 138.206 7.75971 138.399 7.74198H145.397V5.16016H138.413C137.561 5.24318 136.771 5.63051 136.197 6.24697C135.622 6.86344 135.304 7.66511 135.304 8.49641C135.304 9.3277 135.622 10.1293 136.197 10.7458C136.771 11.3623 137.561 11.7496 138.413 11.8326H142.558C142.765 11.8326 142.964 11.9125 143.11 12.0546C143.256 12.1967 143.339 12.3894 143.339 12.5904C143.339 12.7914 143.256 12.9841 143.11 13.1262C142.964 13.2683 142.765 13.3482 142.558 13.3482H134.959V15.93H142.558C143.474 15.93 144.353 15.5767 145 14.9479C145.648 14.3191 146.012 13.4662 146.012 12.577C146.012 11.6877 145.648 10.8349 145 10.2061C144.353 9.57725 143.474 9.22398 142.558 9.22398L142.544 9.25083Z" fill="black"/>
<path d="M14.305 7.86937C14.1856 7.74887 14.0422 7.65304 13.8836 7.58769C13.7154 7.5181 13.5346 7.48165 13.3517 7.48041H4.93751V10.089H12.0253V13.3347H3.73549C3.59086 13.3427 3.44603 13.3225 3.30958 13.2753C3.17314 13.2281 3.04782 13.1548 2.94103 13.0598C2.84249 12.9566 2.76658 12.835 2.71789 12.7024C2.6692 12.5698 2.64878 12.4291 2.65781 12.2886V5.3412C2.64762 5.19709 2.66677 5.05245 2.71418 4.91553C2.76159 4.7786 2.83632 4.65207 2.93411 4.54319C3.04229 4.44854 3.169 4.37603 3.30667 4.32994C3.44435 4.28386 3.5902 4.26513 3.73549 4.27493H14.5676V1.65291H3.73549C3.31909 1.64598 2.90413 1.70256 2.5058 1.82056C2.16443 1.92605 1.84092 2.07969 1.5456 2.27656C1.28221 2.46546 1.04937 2.69148 0.854774 2.94716C0.661829 3.18415 0.499426 3.44314 0.371191 3.71837C0.252436 3.98128 0.162135 4.25544 0.101761 4.53648C0.046296 4.79013 0.0162172 5.04841 0.0119509 5.30768V12.3087C0.0074633 12.7155 0.0680629 13.1204 0.191571 13.5091C0.296558 13.8407 0.452595 14.1549 0.654409 14.4412C0.85079 14.6954 1.08339 14.9212 1.34523 15.1118C1.5912 15.2947 1.85773 15.4499 2.13969 15.5745C2.41054 15.6898 2.69297 15.7775 2.98247 15.8361C3.24378 15.8899 3.50984 15.9191 3.77693 15.9233H13.3931C13.5698 15.9255 13.7452 15.8934 13.9089 15.8289C14.0726 15.7644 14.2214 15.6688 14.3465 15.5477C14.4701 15.4301 14.5667 15.2884 14.6297 15.1319C14.7005 14.9686 14.7358 14.7928 14.7333 14.6156V8.78809C14.7351 8.61528 14.6998 8.44401 14.6297 8.28514C14.5506 8.12725 14.4403 7.98599 14.305 7.86937Z" fill="black"/>
</svg>
